<svg xmlns="http://www.w3.org/2000/svg" width="40.849" height="40.844" viewBox="0 0 40.849 40.844"><path fill="#b3dbf9" d="M35.104 11.259v14.482l-10.072 6.715-.223-.874a2.55 2.55 0 0 0-1.334-1.653l-10-5a6.4 6.4 0 0 0-2.625-.669v-13l12.127-6.792Z"/><path fill="#fcd004" d="M22.978 24.254a8.39 8.39 0 0 1-5.745-7.97v-3.519a8.93 8.93 0 0 0 5.744-2.553 8.93 8.93 0 0 0 5.746 2.553v3.519a8.39 8.39 0 0 1-5.744 7.969Z"/><path fill="#d9ecfc" d="M22.977 4.468 8.343 12.662 7.021 9.574 22.977.638l15.957 8.936-1.321 3.089Z"/><path fill="#ffcaca" d="M20.205 40.207a8.4 8.4 0 0 1-3.584-.793l-3.848-1.8a6.4 6.4 0 0 0-2.7-.6H7.021v-12.76h3.6a6.4 6.4 0 0 1 2.854.674l10 5a2.56 2.56 0 0 1 1.34 1.655l.222.874 11.438-7.625a2.404 2.404 0 1 1 2.712 3.971l-14.108 9.873a8.45 8.45 0 0 1-4.874 1.531"/><path fill="#af9002" d="M.638 24.254h3.191v12.765H.638Z"/><path fill="#7d6701" d="M3.83 22.978h3.191v15.318H3.83Z"/><g fill="#3b3244"><path d="M21.514 16.782a.638.638 0 1 0-.9.9l1.277 1.277a.64.64 0 0 0 .9 0l2.553-2.553a.638.638 0 1 0-.9-.9l-2.1 2.1Z"/><path d="M23.429 9.761a.64.64 0 0 0-.9 0 8.3 8.3 0 0 1-5.293 2.366.64.64 0 0 0-.638.638v3.519a9.03 9.03 0 0 0 6.181 8.575.63.63 0 0 0 .4 0 9.03 9.03 0 0 0 6.18-8.575v-3.519a.64.64 0 0 0-.636-.638 8.3 8.3 0 0 1-5.295-2.366Zm4.654 6.523a7.75 7.75 0 0 1-5.105 7.29 7.75 7.75 0 0 1-5.106-7.294v-2.923a9.6 9.6 0 0 0 5.106-2.271 9.6 9.6 0 0 0 5.106 2.271Z"/><path d="M7.755 12.914a.64.64 0 0 0 .9.305l1.558-.872V21.7a.639.639 0 1 0 1.277 0V11.633L22.978 5.2l11.489 6.433v11.345a.639.639 0 0 0 1.277 0V12.347l1.558.873a.64.64 0 0 0 .9-.305l1.321-3.089a.64.64 0 0 0-.275-.808L23.29.082a.64.64 0 0 0-.624 0L6.709 9.017a.64.64 0 0 0-.275.808ZM22.978 1.37l15.144 8.481-.816 1.909L23.29 3.911a.64.64 0 0 0-.624 0L8.65 11.759 7.834 9.85Z"/><path d="M39.241 24.149a3 3 0 0 0-3.123.151l-10.692 7.128a3.18 3.18 0 0 0-1.669-2.072l-10-5a7.06 7.06 0 0 0-3.14-.741H7.659v-.638a.64.64 0 0 0-.638-.638H3.829a.64.64 0 0 0-.638.638v.638H.638a.64.64 0 0 0-.638.639v12.765a.64.64 0 0 0 .638.638h2.553v.638a.64.64 0 0 0 .638.638h3.192a.64.64 0 0 0 .638-.638v-.638h2.414a5.8 5.8 0 0 1 2.429.539l3.849 1.8a9.15 9.15 0 0 0 9.094-.793l14.105-9.879a3.05 3.05 0 0 0 1.3-2.493 3 3 0 0 0-1.607-2.683ZM1.276 36.381V24.892h1.915v11.489Zm5.106 1.277H4.468V23.615h1.915Zm32.436-9.379-14.105 9.874a7.87 7.87 0 0 1-7.822.683l-3.849-1.8a7.1 7.1 0 0 0-2.969-.659H7.659V24.892h2.961a5.8 5.8 0 0 1 2.569.606l10 5a1.931 1.931 0 1 1-1.727 3.454l-9.048-4.524a.638.638 0 1 0-.571 1.142l9.048 4.524a3.2 3.2 0 0 0 4.555-2.143l11.383-7.588a1.766 1.766 0 0 1 1.992 2.916Z"/></g></svg>