<svg xmlns="http://www.w3.org/2000/svg" width="506.854" height="337" viewBox="0 0 506.854 337"><defs><clipPath id="a"><path fill="none" d="M7.982 337h490.89c4.408 0 7.982-5.588 7.982-12.481V12.481C506.854 5.588 503.28 0 498.872 0H7.982C3.574 0 0 5.588 0 12.481v312.038C0 331.412 3.574 337 7.982 337" opacity=".238"/></clipPath><clipPath id="b"><path fill="none" d="M0 0h340.248v123.966H0z"/></clipPath></defs><path fill="#ebf5fd" d="M497.452 1.607H9.4C4.209 1.607 0 8.243 0 16.43v304.83c0 8.186 4.209 14.823 9.4 14.823h488.052c5.192 0 9.4-6.636 9.4-14.823V16.43c.002-8.187-4.208-14.823-9.4-14.823"/><g clip-path="url(#a)"><g transform="translate(10414.324 12687.577)"><g fill="none" stroke="#b3dbf9" stroke-miterlimit="10" stroke-width="1.078" transform="translate(-10129.67 -12332.027)"><path d="M22.309-75.991-46.47-7.213q.478 2.95 1.236 5.8l73.343-73.341q-2.851-.757-5.8-1.237Z"/><path d="M28.105-74.754-45.234-1.415q.725 2.725 1.69 5.345L33.45-73.064q-2.617-.968-5.345-1.69Zm23.12 12.052-84.407 84.407a61 61 0 0 0 3.356 3.678l84.729-84.729a62 62 0 0 0-3.678-3.356Zm-3.972-3.063-83.5 83.5q1.452 2.049 3.063 3.971l84.408-84.408q-1.917-1.616-3.971-3.063Zm-8.859-5.211-79.85 79.85c.748 1.57 1.569 3.1 2.446 4.589L42.983-68.53a60 60 0 0 0-4.589-2.446Z"/><path d="m42.983-68.526-81.993 81.99q1.293 2.2 2.764 4.27l83.5-83.5q-2.074-1.468-4.271-2.76Zm-9.529-4.539-77 76.994q.935 2.529 2.089 4.945l79.851-79.85q-2.415-1.15-4.94-2.089Zm-76.586 34.377 33.964-33.964a60.08 60.08 0 0 0-33.964 33.964Z"/><path d="M-9.169-72.652-43.132-38.69a59.4 59.4 0 0 0-2.943 9.977L.81-75.59a59.4 59.4 0 0 0-9.979 2.938Zm25.13-4.026-63.12 63.12a60 60 0 0 0 .689 6.346l68.775-68.777a60 60 0 0 0-6.344-.689Z"/><path d="M12.664-76.773c-1.268 0-2.524.053-3.773.13l-56.014 56.014c-.078 1.249-.13 2.5-.13 3.773 0 1.106.035 2.2.094 3.3l63.12-63.12a58 58 0 0 0-3.297-.097ZM.809-75.595l-46.884 46.884a60 60 0 0 0-1.048 8.079L8.89-76.643a60 60 0 0 0-8.081 1.048Zm70.912 48.67L2.594 42.202a60 60 0 0 0 6.3.729L72.453-20.62a60 60 0 0 0-.732-6.305Zm.864 10.069a61 61 0 0 0-.13-3.764L8.899 42.931c1.246.078 2.5.13 3.764.13q1.626-.002 3.229-.089l56.6-56.6c.056-1.068.093-2.144.093-3.228Zm-.093 3.229-56.6 56.6a60 60 0 0 0 8.014-.98l47.605-47.6a60 60 0 0 0 .981-8.02Z"/><path d="m71.512-5.613-47.605 47.6a59.4 59.4 0 0 0 9.76-2.725l35.12-35.12a59.6 59.6 0 0 0 2.725-9.755Zm-2.726 9.76L33.67 39.27A60.1 60.1 0 0 0 68.786 4.147Zm1.664-36.836-73.619 73.62q2.829.773 5.763 1.271l69.127-69.128q-.496-2.932-1.271-5.763Zm-9.085-19.05-83.584 83.584a60 60 0 0 0 4.245 2.79l82.128-82.129a60 60 0 0 0-2.789-4.245Zm-3.089-3.947-84.443 84.443q1.907 1.624 3.947 3.087l83.584-83.583q-1.462-2.039-3.088-3.947Z"/><path d="M68.73-38.002-8.483 39.21q2.6.982 5.314 1.721l73.619-73.62q-.74-2.709-1.72-5.313ZM54.899-59.346l-84.725 84.729c1.17 1.177 2.4 2.3 3.66 3.375l84.443-84.444a59 59 0 0 0-3.378-3.66Z"/><path d="m66.618-42.929-80.027 80.031c1.6.776 3.249 1.474 4.927 2.107L68.73-38.002a57 57 0 0 0-2.112-4.927Z"/><path d="m64.153-47.495-82.125 82.128c1.483.885 3 1.712 4.565 2.469l80.029-80.031a59 59 0 0 0-2.469-4.566Z"/></g><g clip-path="url(#b)" transform="translate(-10262 -12424.357)"><path fill="#fcd004" d="M322.642 0a17.606 17.606 0 0 0-17.606 17.606c0 18.9 17.606 38.622 17.606 38.622s17.606-19.722 17.606-38.622A17.606 17.606 0 0 0 322.642 0"/><path fill="#fff" d="M330.172 15.279a7.53 7.53 0 1 1-7.53-7.53 7.53 7.53 0 0 1 7.53 7.53"/><path fill="#fcd004" d="M148.159 30.564a16.07 16.07 0 0 0-16.071 16.071c0 17.252 16.071 35.255 16.071 35.255s16.071-18 16.071-35.255a16.07 16.07 0 0 0-16.071-16.071"/><path fill="#fff" d="M155.032 44.51a6.873 6.873 0 1 1-6.873-6.873 6.873 6.873 0 0 1 6.873 6.873"/><path fill="#fcd004" d="M10.191 91.421A10.19 10.19 0 0 0 0 101.612c0 10.939 10.191 22.355 10.191 22.355s10.191-11.415 10.191-22.355a10.19 10.19 0 0 0-10.191-10.191"/><path fill="#fff" d="M14.548 100.265a4.358 4.358 0 1 1-4.358-4.358 4.36 4.36 0 0 1 4.358 4.358"/><path fill="#39548b" d="M20.381 122.669A94.3 94.3 0 0 1 42.025 97.72a99 99 0 0 1 28.717-16.572l1.954-.724c.647-.252 1.321-.426 1.981-.643 1.329-.4 2.647-.846 3.983-1.22l4.038-1.026 1.009-.256 1.022-.2 2.044-.4c2.715-.593 5.482-.869 8.227-1.265 1.379-.143 2.764-.232 4.146-.346l2.074-.153c.692-.041 1.386-.033 2.078-.052l4.156-.075c1.385 0 2.768.088 4.152.128l2.074.077c.346.015.692.02 1.037.045l1.033.095 4.132.382c.687.078 1.378.117 2.061.227l2.049.316 4.1.632c2.718.488 5.41 1.112 8.106 1.684l-4.087-.646-2.038-.336c-.68-.108-1.356-.242-2.043-.3l-4.1-.46-2.05-.23c-.683-.082-1.372-.092-2.058-.141l-4.115-.27-1.028-.068c-.343-.016-.687-.011-1.03-.018l-2.061-.024c-1.373 0-2.746-.057-4.118-.023l-4.113.179c-.685.036-1.371.045-2.054.1l-2.047.2c-1.364.139-2.732.239-4.092.4-2.707.428-5.433.734-8.1 1.354l-2.012.411-1.007.2-.994.257-3.976 1.028c-1.316.374-2.612.816-3.92 1.22-.649.217-1.312.39-1.949.642l-1.922.72a107.2 107.2 0 0 0-40.642 27.193 90.5 90.5 0 0 0-10.257 12.912m137.09-44.3a85 85 0 0 1 7.939-7.068c2.783-2.2 5.643-4.307 8.6-6.276a138.4 138.4 0 0 1 18.615-10.35 132.8 132.8 0 0 1 40.965-11.422l2.654-.3c.885-.1 1.776-.124 2.663-.189 1.778-.1 3.553-.251 5.332-.3l5.34-.059 1.335-.011 1.334.055 2.667.115 2.667.119.667.03.664.063 1.328.13 5.312.519c1.764.227 3.519.52 5.277.783l2.635.413c.876.146 1.741.358 2.612.534l5.215 1.106.652.139.644.173 1.287.345 2.573.69 2.572.69 1.285.349 1.267.412 5.062 1.652c.839.29 1.691.538 2.518.862l2.478.97 4.954 1.939c3.27 1.369 6.471 2.9 9.7 4.359l-4.922-2-2.453-1.012c-.819-.333-1.628-.693-2.469-.97l-5-1.773-2.5-.886c-.833-.3-1.691-.516-2.534-.777l-5.071-1.538-1.267-.385-1.285-.322-2.571-.635-2.57-.636-1.285-.318-.646-.165-.65-.126-5.2-1c-.868-.157-1.729-.351-2.6-.479l-2.621-.358c-1.747-.234-3.489-.513-5.239-.719l-5.267-.461-1.317-.115-.659-.056-.66-.022-2.641-.091-2.641-.095-1.32-.05-1.321.015-5.283.076c-1.76.056-3.515.214-5.273.316-.878.068-1.759.093-2.634.2l-2.624.3c-3.507.331-6.978.949-10.448 1.546l-5.169 1.091c-1.714.4-3.412.875-5.121 1.3a145 145 0 0 0-19.92 7.036 139 139 0 0 0-18.69 9.909 116 116 0 0 0-16.941 12.722"/></g></g></g></svg>