<svg xmlns="http://www.w3.org/2000/svg" width="945" height="628" viewBox="0 0 945 628"><g transform="translate(-327.333 -630)"><rect width="610" height="66" rx="16" transform="translate(432.333 630)" fill="#215278"/><text transform="translate(747.333 670)" fill="#fff" font-size="16" font-family="Roboto-Bold, Roboto" font-weight="700"><tspan x="-222.781" y="0">Planeación y evaluación de procesos operativos en transporte</tspan></text><rect width="190" height="73" rx="15" transform="translate(327.333 774)" fill="#feec9a"/><rect width="190" height="73" rx="15" transform="translate(747.333 774)" fill="#feec9a"/><rect width="190" height="73" rx="15" transform="translate(537.333 774)" fill="#feec9a"/><rect width="190" height="73" rx="15" transform="translate(957.333 774)" fill="#feec9a"/><text transform="translate(347.333 804)" fill="#12263f" font-size="16" font-family="Roboto-Bold, Roboto" font-weight="700"><tspan x="-39.547" y="17">Transporte</tspan></text><text transform="translate(552.333 792)" fill="#12263f" font-size="16" font-family="Roboto-Bold, Roboto" font-weight="700"><tspan x="-53.113" y="17">Indicadores de </tspan><tspan x="-26.832" y="41">gestión</tspan></text><text transform="translate(763.333 792)" fill="#12263f" font-size="16" font-family="Roboto-Bold, Roboto" font-weight="700"><tspan x="-49.953" y="17">Monitoreo del </tspan><tspan x="-37.555" y="41">transporte</tspan></text><text transform="translate(974.333 787)" fill="#12263f" font-size="16" font-family="Roboto-Bold, Roboto" font-weight="700"><tspan x="-59.766" y="17">Herramientas de </tspan><tspan x="-36.926" y="41">monitoreo</tspan></text><line y2="46" transform="translate(737 696.5)" fill="none" stroke="#215278" stroke-width="2"/><line y2="32" transform="translate(427.333 742.5)" fill="none" stroke="#215278" stroke-linecap="round" stroke-width="2"/><line y2="32" transform="translate(632.333 742.5)" fill="none" stroke="#215278" stroke-width="2"/><line y2="32" transform="translate(842.333 742.5)" fill="none" stroke="#215278" stroke-width="2"/><line y2="32" transform="translate(1003.333 742.5)" fill="none" stroke="#215278" stroke-width="2"/><line x2="576" transform="translate(427.833 742.5)" fill="none" stroke="#215278" stroke-linecap="round" stroke-width="2"/><line x2="19.833" transform="translate(347.333 961)" fill="none" stroke="#215278" stroke-linecap="round" stroke-width="2"/><line x2="19.833" transform="translate(581 961)" fill="none" stroke="#215278" stroke-linecap="round" stroke-width="2"/><line x2="19.833" transform="translate(831.667 961)" fill="none" stroke="#215278" stroke-linecap="round" stroke-width="2"/><line x2="19.833" transform="translate(1062 961)" fill="none" stroke="#215278" stroke-linecap="round" stroke-width="2"/><line x2="19.833" transform="translate(347.333 1052)" fill="none" stroke="#215278" stroke-linecap="round" stroke-width="2"/><line x2="19.833" transform="translate(581 1052)" fill="none" stroke="#215278" stroke-linecap="round" stroke-width="2"/><line x2="19.833" transform="translate(831.667 1052)" fill="none" stroke="#215278" stroke-linecap="round" stroke-width="2"/><line x2="19.833" transform="translate(1062 1052)" fill="none" stroke="#215278" stroke-linecap="round" stroke-width="2"/><line x2="19.833" transform="translate(347.333 1138)" fill="none" stroke="#215278" stroke-linecap="round" stroke-width="2"/><line x2="19.833" transform="translate(581 1138)" fill="none" stroke="#215278" stroke-linecap="round" stroke-width="2"/><line x2="19.833" transform="translate(831.667 1138)" fill="none" stroke="#215278" stroke-linecap="round" stroke-width="2"/><line x2="19.833" transform="translate(1062 1138)" fill="none" stroke="#215278" stroke-linecap="round" stroke-width="2"/><line x2="19.833" transform="translate(831.667 1224)" fill="none" stroke="#215278" stroke-linecap="round" stroke-width="2"/><line x2="19.833" transform="translate(347.333 1224)" fill="none" stroke="#215278" stroke-linecap="round" stroke-width="2"/><line y2="376" transform="translate(347.666 847)" fill="none" stroke="#215278" stroke-width="2"/><line y2="291" transform="translate(581.333 847)" fill="none" stroke="#215278" stroke-width="2"/><line y2="376.5" transform="translate(832 847)" fill="none" stroke="#215278" stroke-width="2"/><line y2="291.5" transform="translate(1062.333 847)" fill="none" stroke="#215278" stroke-width="2"/><rect width="190" height="70" rx="15" transform="translate(367.666 932)" fill="#d9ecfc"/><rect width="190" height="70" rx="15" transform="translate(601.333 932)" fill="#d9ecfc"/><rect width="190" height="70" rx="15" transform="translate(852 932)" fill="#d9ecfc"/><rect width="190" height="70" rx="15" transform="translate(1082.333 932)" fill="#d9ecfc"/><rect width="190" height="70" rx="15" transform="translate(367.666 1017)" fill="#d9ecfc"/><rect width="190" height="70" rx="15" transform="translate(601.333 1017)" fill="#d9ecfc"/><rect width="190" height="70" rx="15" transform="translate(852 1017)" fill="#d9ecfc"/><rect width="190" height="70" rx="15" transform="translate(1082.333 1017)" fill="#d9ecfc"/><rect width="190" height="70" rx="15" transform="translate(367.666 1102)" fill="#d9ecfc"/><rect width="190" height="70" rx="15" transform="translate(601.333 1102)" fill="#d9ecfc"/><rect width="190" height="70" rx="15" transform="translate(852 1102)" fill="#d9ecfc"/><rect width="190" height="70" rx="15" transform="translate(1082.333 1102)" fill="#d9ecfc"/><rect width="190" height="70" rx="15" transform="translate(852 1185)" fill="#d9ecfc"/><rect width="190" height="70" rx="15" transform="translate(367.666 1188)" fill="#d9ecfc"/><text transform="translate(421.666 957)" fill="#12263f" font-size="16" font-family="Roboto-Regular, Roboto"><tspan x="7.805" y="17">Concepto</tspan></text><text transform="translate(655.333 957)" fill="#12263f" font-size="16" font-family="Roboto-Regular, Roboto"><tspan x="7.805" y="17">Concepto</tspan></text><text transform="translate(906 957)" fill="#12263f" font-size="16" font-family="Roboto-Regular, Roboto"><tspan x="7.805" y="17">Concepto</tspan></text><text transform="translate(1136.333 957)" fill="#12263f" font-size="16" font-family="Roboto-Regular, Roboto"><tspan x="7.805" y="17">Concepto</tspan></text><text transform="translate(655.333 1042)" fill="#12263f" font-size="16" font-family="Roboto-Regular, Roboto"><tspan x="4.387" y="17">Elementos</tspan></text><text transform="translate(906 1042)" fill="#12263f" font-size="16" font-family="Roboto-Regular, Roboto"><tspan x="4.387" y="17">Elementos</tspan></text><text transform="translate(1136.333 1042)" fill="#12263f" font-size="16" font-family="Roboto-Regular, Roboto"><tspan x="4.387" y="17">Elementos</tspan></text><text transform="translate(639.333 1127)" fill="#12263f" font-size="16" font-family="Roboto-Regular, Roboto"><tspan x="3.973" y="17">Características</tspan></text><text transform="translate(890 1127)" fill="#12263f" font-size="16" font-family="Roboto-Regular, Roboto"><tspan x="3.973" y="17">Características</tspan></text><text transform="translate(1120.333 1127)" fill="#12263f" font-size="16" font-family="Roboto-Regular, Roboto"><tspan x="3.973" y="17">Características</tspan></text><text transform="translate(890 1210)" fill="#12263f" font-size="16" font-family="Roboto-Regular, Roboto"><tspan x="35.332" y="17">Pasos</tspan></text><text transform="translate(387.666 1029)" fill="#12263f" font-size="16" font-family="Roboto-Regular, Roboto"><tspan x="49.844" y="17">Tipos y </tspan><tspan x="22.992" y="41">características</tspan></text><text transform="translate(387.666 1115)" fill="#12263f" font-size="16" font-family="Roboto-Regular, Roboto"><tspan x="0.508" y="17">Normativa y políticas </tspan><tspan x="40.473" y="41">del sector</tspan></text><text transform="translate(387.666 1201)" fill="#12263f" font-size="16" font-family="Roboto-Regular, Roboto"><tspan x="23.301" y="17">Objetivos de la </tspan><tspan x="29.613" y="41">organización</tspan></text><text transform="translate(403.666 873)" fill="#12263f" font-size="16" font-family="Roboto-Regular, Roboto"><tspan x="0" y="17">Incluye</tspan></text><text transform="translate(621.333 873)" fill="#12263f" font-size="16" font-family="Roboto-Regular, Roboto"><tspan x="0" y="17">Incluye</tspan></text><text transform="translate(872 873)" fill="#12263f" font-size="16" font-family="Roboto-Regular, Roboto"><tspan x="0" y="17">Incluye</tspan></text><text transform="translate(756.833 708.5)" fill="#12263f" font-size="16" font-family="Roboto-Regular, Roboto"><tspan x="0" y="17">Incluye</tspan></text><text transform="translate(1105 873)" fill="#12263f" font-size="16" font-family="Roboto-Regular, Roboto"><tspan x="0" y="17">Incluye</tspan></text></g></svg>