<svg xmlns="http://www.w3.org/2000/svg" width="295.276" height="173.517" viewBox="0 0 295.276 173.517"><g transform="translate(-3803.116 7856.239)"><g transform="translate(3803.116 -7833.236)"><g transform="translate(6.006 4.897)"><path d="M66.133,0A66.132,66.132,0,1,1,0,66.132,66.132,66.132,0,0,1,66.133,0Z" transform="translate(0)" fill="#44a6f1" opacity="0.444" style="mix-blend-mode:multiply;isolation:isolate"/><g transform="translate(25.82 27.339)"><path d="M416.01,51.082a.9.9,0,1,1-.9-.858A.879.879,0,0,1,416.01,51.082Z" transform="translate(-414.214 -50.224)" fill="#44a6f1"/><path d="M424.456,51.082a.9.9,0,1,1-.9-.858A.879.879,0,0,1,424.456,51.082Z" transform="translate(-414.578 -50.224)" fill="#44a6f1"/><path d="M432.9,51.082a.9.9,0,1,1-.9-.858A.879.879,0,0,1,432.9,51.082Z" transform="translate(-414.943 -50.224)" fill="#44a6f1"/><path d="M441.349,51.082a.9.9,0,1,1-.9-.858A.879.879,0,0,1,441.349,51.082Z" transform="translate(-415.307 -50.224)" fill="#44a6f1"/><path d="M449.8,51.082a.9.9,0,1,1-.9-.858A.879.879,0,0,1,449.8,51.082Z" transform="translate(-415.671 -50.224)" fill="#44a6f1"/><path d="M458.241,51.082a.9.9,0,1,1-.9-.858A.879.879,0,0,1,458.241,51.082Z" transform="translate(-416.036 -50.224)" fill="#44a6f1"/><path d="M466.688,51.082a.9.9,0,1,1-.9-.858A.88.88,0,0,1,466.688,51.082Z" transform="translate(-416.4 -50.224)" fill="#44a6f1"/><path d="M475.134,51.082a.9.9,0,1,1-.9-.858A.879.879,0,0,1,475.134,51.082Z" transform="translate(-416.764 -50.224)" fill="#44a6f1"/><path d="M483.58,51.082a.9.9,0,1,1-.9-.858A.879.879,0,0,1,483.58,51.082Z" transform="translate(-417.128 -50.224)" fill="#44a6f1"/><path d="M492.027,51.082a.9.9,0,1,1-.9-.858A.88.88,0,0,1,492.027,51.082Z" transform="translate(-417.493 -50.224)" fill="#44a6f1"/><path d="M500.473,51.082a.9.9,0,1,1-.9-.858A.879.879,0,0,1,500.473,51.082Z" transform="translate(-417.857 -50.224)" fill="#44a6f1"/><g transform="translate(0 6.87)"><path d="M416.01,58.59a.9.9,0,1,1-.9-.858A.879.879,0,0,1,416.01,58.59Z" transform="translate(-414.214 -57.732)" fill="#44a6f1"/><path d="M424.456,58.59a.9.9,0,1,1-.9-.858A.879.879,0,0,1,424.456,58.59Z" transform="translate(-414.578 -57.732)" fill="#44a6f1"/><path d="M432.9,58.59a.9.9,0,1,1-.9-.858A.879.879,0,0,1,432.9,58.59Z" transform="translate(-414.943 -57.732)" fill="#44a6f1"/><path d="M441.349,58.59a.9.9,0,1,1-.9-.858A.879.879,0,0,1,441.349,58.59Z" transform="translate(-415.307 -57.732)" fill="#44a6f1"/><path d="M449.8,58.59a.9.9,0,1,1-.9-.858A.879.879,0,0,1,449.8,58.59Z" transform="translate(-415.671 -57.732)" fill="#44a6f1"/><path d="M458.241,58.59a.9.9,0,1,1-.9-.858A.879.879,0,0,1,458.241,58.59Z" transform="translate(-416.036 -57.732)" fill="#44a6f1"/><path d="M466.688,58.59a.9.9,0,1,1-.9-.858A.88.88,0,0,1,466.688,58.59Z" transform="translate(-416.4 -57.732)" fill="#44a6f1"/><path d="M475.134,58.59a.9.9,0,1,1-.9-.858A.879.879,0,0,1,475.134,58.59Z" transform="translate(-416.764 -57.732)" fill="#44a6f1"/><path d="M483.58,58.59a.9.9,0,1,1-.9-.858A.879.879,0,0,1,483.58,58.59Z" transform="translate(-417.128 -57.732)" fill="#44a6f1"/><path d="M492.027,58.59a.9.9,0,1,1-.9-.858A.88.88,0,0,1,492.027,58.59Z" transform="translate(-417.493 -57.732)" fill="#44a6f1"/><path d="M500.473,58.59a.9.9,0,1,1-.9-.858A.879.879,0,0,1,500.473,58.59Z" transform="translate(-417.857 -57.732)" fill="#44a6f1"/></g><g transform="translate(0 13.741)"><ellipse cx="0.898" cy="0.859" rx="0.898" ry="0.859" fill="#44a6f1"/><path d="M424.456,66.1a.9.9,0,1,1-.9-.858A.879.879,0,0,1,424.456,66.1Z" transform="translate(-414.578 -65.24)" fill="#44a6f1"/><ellipse cx="0.898" cy="0.859" rx="0.898" ry="0.859" transform="translate(16.164)" fill="#44a6f1"/><path d="M441.349,66.1a.9.9,0,1,1-.9-.858A.88.88,0,0,1,441.349,66.1Z" transform="translate(-415.307 -65.24)" fill="#44a6f1"/><path d="M449.8,66.1a.9.9,0,1,1-.9-.858A.879.879,0,0,1,449.8,66.1Z" transform="translate(-415.671 -65.24)" fill="#44a6f1"/><ellipse cx="0.898" cy="0.859" rx="0.898" ry="0.859" transform="translate(40.41)" fill="#44a6f1"/><path d="M466.688,66.1a.9.9,0,1,1-.9-.858A.88.88,0,0,1,466.688,66.1Z" transform="translate(-416.4 -65.24)" fill="#44a6f1"/><ellipse cx="0.898" cy="0.859" rx="0.898" ry="0.859" transform="translate(56.574)" fill="#44a6f1"/><ellipse cx="0.898" cy="0.859" rx="0.898" ry="0.859" transform="translate(64.656)" fill="#44a6f1"/><path d="M492.027,66.1a.9.9,0,1,1-.9-.858A.88.88,0,0,1,492.027,66.1Z" transform="translate(-417.492 -65.24)" fill="#44a6f1"/><path d="M500.473,66.1a.9.9,0,1,1-.9-.858A.88.88,0,0,1,500.473,66.1Z" transform="translate(-417.857 -65.24)" fill="#44a6f1"/></g><g transform="translate(0 20.61)"><ellipse cx="0.898" cy="0.859" rx="0.898" ry="0.859" transform="translate(0 0)" fill="#44a6f1"/><path d="M424.456,73.606a.9.9,0,1,1-.9-.859A.878.878,0,0,1,424.456,73.606Z" transform="translate(-414.578 -72.747)" fill="#44a6f1"/><ellipse cx="0.898" cy="0.859" rx="0.898" ry="0.859" transform="translate(16.164 0)" fill="#44a6f1"/><path d="M441.349,73.606a.9.9,0,1,1-.9-.859A.879.879,0,0,1,441.349,73.606Z" transform="translate(-415.307 -72.747)" fill="#44a6f1"/><path d="M449.8,73.606a.9.9,0,1,1-.9-.859A.879.879,0,0,1,449.8,73.606Z" transform="translate(-415.671 -72.747)" fill="#44a6f1"/><ellipse cx="0.898" cy="0.859" rx="0.898" ry="0.859" transform="translate(40.41 0)" fill="#44a6f1"/><path d="M466.688,73.606a.9.9,0,1,1-.9-.859A.879.879,0,0,1,466.688,73.606Z" transform="translate(-416.4 -72.747)" fill="#44a6f1"/><ellipse cx="0.898" cy="0.859" rx="0.898" ry="0.859" transform="translate(56.574 0)" fill="#44a6f1"/><ellipse cx="0.898" cy="0.859" rx="0.898" ry="0.859" transform="translate(64.656 0)" fill="#44a6f1"/><path d="M492.027,73.606a.9.9,0,1,1-.9-.859A.879.879,0,0,1,492.027,73.606Z" transform="translate(-417.492 -72.747)" fill="#44a6f1"/><path d="M500.473,73.606a.9.9,0,1,1-.9-.859A.879.879,0,0,1,500.473,73.606Z" transform="translate(-417.857 -72.747)" fill="#44a6f1"/></g><g transform="translate(0 27.48)"><path d="M416.01,81.114a.9.9,0,1,1-.9-.859A.879.879,0,0,1,416.01,81.114Z" transform="translate(-414.214 -80.255)" fill="#44a6f1"/><path d="M424.456,81.114a.9.9,0,1,1-.9-.859A.878.878,0,0,1,424.456,81.114Z" transform="translate(-414.578 -80.255)" fill="#44a6f1"/><path d="M432.9,81.114a.9.9,0,1,1-.9-.859A.879.879,0,0,1,432.9,81.114Z" transform="translate(-414.943 -80.255)" fill="#44a6f1"/><path d="M441.349,81.114a.9.9,0,1,1-.9-.859A.879.879,0,0,1,441.349,81.114Z" transform="translate(-415.307 -80.255)" fill="#44a6f1"/><path d="M449.8,81.114a.9.9,0,1,1-.9-.859A.879.879,0,0,1,449.8,81.114Z" transform="translate(-415.671 -80.255)" fill="#44a6f1"/><path d="M458.241,81.114a.9.9,0,1,1-.9-.859A.879.879,0,0,1,458.241,81.114Z" transform="translate(-416.036 -80.255)" fill="#44a6f1"/><path d="M466.688,81.114a.9.9,0,1,1-.9-.859A.879.879,0,0,1,466.688,81.114Z" transform="translate(-416.4 -80.255)" fill="#44a6f1"/><path d="M475.134,81.114a.9.9,0,1,1-.9-.859A.879.879,0,0,1,475.134,81.114Z" transform="translate(-416.764 -80.255)" fill="#44a6f1"/><path d="M483.58,81.114a.9.9,0,1,1-.9-.859A.879.879,0,0,1,483.58,81.114Z" transform="translate(-417.128 -80.255)" fill="#44a6f1"/><path d="M492.027,81.114a.9.9,0,1,1-.9-.859A.879.879,0,0,1,492.027,81.114Z" transform="translate(-417.493 -80.255)" fill="#44a6f1"/><path d="M500.473,81.114a.9.9,0,1,1-.9-.859A.879.879,0,0,1,500.473,81.114Z" transform="translate(-417.857 -80.255)" fill="#44a6f1"/></g><g transform="translate(0 34.351)"><ellipse cx="0.898" cy="0.859" rx="0.898" ry="0.859" transform="translate(0 0)" fill="#44a6f1"/><path d="M424.456,88.622a.9.9,0,1,1-.9-.859A.878.878,0,0,1,424.456,88.622Z" transform="translate(-414.578 -87.763)" fill="#44a6f1"/><ellipse cx="0.898" cy="0.859" rx="0.898" ry="0.859" transform="translate(16.164 0)" fill="#44a6f1"/><path d="M441.349,88.622a.9.9,0,1,1-.9-.859A.879.879,0,0,1,441.349,88.622Z" transform="translate(-415.307 -87.763)" fill="#44a6f1"/><path d="M449.8,88.622a.9.9,0,1,1-.9-.859A.879.879,0,0,1,449.8,88.622Z" transform="translate(-415.671 -87.763)" fill="#44a6f1"/><ellipse cx="0.898" cy="0.859" rx="0.898" ry="0.859" transform="translate(40.41 0)" fill="#44a6f1"/><path d="M466.688,88.622a.9.9,0,1,1-.9-.859A.879.879,0,0,1,466.688,88.622Z" transform="translate(-416.4 -87.763)" fill="#44a6f1"/><ellipse cx="0.898" cy="0.859" rx="0.898" ry="0.859" transform="translate(56.574 0)" fill="#44a6f1"/><ellipse cx="0.898" cy="0.859" rx="0.898" ry="0.859" transform="translate(64.656 0)" fill="#44a6f1"/><path d="M492.027,88.622a.9.9,0,1,1-.9-.859A.879.879,0,0,1,492.027,88.622Z" transform="translate(-417.492 -87.763)" fill="#44a6f1"/><path d="M500.473,88.622a.9.9,0,1,1-.9-.859A.879.879,0,0,1,500.473,88.622Z" transform="translate(-417.857 -87.763)" fill="#44a6f1"/></g><g transform="translate(0 41.221)"><ellipse cx="0.898" cy="0.859" rx="0.898" ry="0.859" fill="#44a6f1"/><path d="M424.456,96.129a.9.9,0,1,1-.9-.858A.879.879,0,0,1,424.456,96.129Z" transform="translate(-414.578 -95.271)" fill="#44a6f1"/><ellipse cx="0.898" cy="0.859" rx="0.898" ry="0.859" transform="translate(16.164)" fill="#44a6f1"/><path d="M441.349,96.129a.9.9,0,1,1-.9-.858A.879.879,0,0,1,441.349,96.129Z" transform="translate(-415.307 -95.271)" fill="#44a6f1"/><path d="M449.8,96.129a.9.9,0,1,1-.9-.858A.879.879,0,0,1,449.8,96.129Z" transform="translate(-415.671 -95.271)" fill="#44a6f1"/><ellipse cx="0.898" cy="0.859" rx="0.898" ry="0.859" transform="translate(40.41)" fill="#44a6f1"/><path d="M466.688,96.129a.9.9,0,1,1-.9-.858A.88.88,0,0,1,466.688,96.129Z" transform="translate(-416.4 -95.271)" fill="#44a6f1"/><ellipse cx="0.898" cy="0.859" rx="0.898" ry="0.859" transform="translate(56.574)" fill="#44a6f1"/><ellipse cx="0.898" cy="0.859" rx="0.898" ry="0.859" transform="translate(64.656)" fill="#44a6f1"/><path d="M492.027,96.129a.9.9,0,1,1-.9-.858A.88.88,0,0,1,492.027,96.129Z" transform="translate(-417.492 -95.271)" fill="#44a6f1"/><path d="M500.473,96.129a.9.9,0,1,1-.9-.858A.879.879,0,0,1,500.473,96.129Z" transform="translate(-417.857 -95.271)" fill="#44a6f1"/></g><g transform="translate(0 48.091)"><path d="M416.01,103.637a.9.9,0,1,1-.9-.858A.879.879,0,0,1,416.01,103.637Z" transform="translate(-414.214 -102.779)" fill="#44a6f1"/><path d="M424.456,103.637a.9.9,0,1,1-.9-.858A.879.879,0,0,1,424.456,103.637Z" transform="translate(-414.578 -102.779)" fill="#44a6f1"/><path d="M432.9,103.637a.9.9,0,1,1-.9-.858A.879.879,0,0,1,432.9,103.637Z" transform="translate(-414.943 -102.779)" fill="#44a6f1"/><path d="M441.349,103.637a.9.9,0,1,1-.9-.858A.879.879,0,0,1,441.349,103.637Z" transform="translate(-415.307 -102.779)" fill="#44a6f1"/><path d="M449.8,103.637a.9.9,0,1,1-.9-.858A.879.879,0,0,1,449.8,103.637Z" transform="translate(-415.671 -102.779)" fill="#44a6f1"/><path d="M458.241,103.637a.9.9,0,1,1-.9-.858A.879.879,0,0,1,458.241,103.637Z" transform="translate(-416.036 -102.779)" fill="#44a6f1"/><path d="M466.688,103.637a.9.9,0,1,1-.9-.858A.88.88,0,0,1,466.688,103.637Z" transform="translate(-416.4 -102.779)" fill="#44a6f1"/><path d="M475.134,103.637a.9.9,0,1,1-.9-.858A.879.879,0,0,1,475.134,103.637Z" transform="translate(-416.764 -102.779)" fill="#44a6f1"/><path d="M483.58,103.637a.9.9,0,1,1-.9-.858A.879.879,0,0,1,483.58,103.637Z" transform="translate(-417.128 -102.779)" fill="#44a6f1"/><path d="M492.027,103.637a.9.9,0,1,1-.9-.858A.88.88,0,0,1,492.027,103.637Z" transform="translate(-417.493 -102.779)" fill="#44a6f1"/><path d="M500.473,103.637a.9.9,0,1,1-.9-.858A.879.879,0,0,1,500.473,103.637Z" transform="translate(-417.857 -102.779)" fill="#44a6f1"/></g><g transform="translate(0 54.962)"><ellipse cx="0.898" cy="0.859" rx="0.898" ry="0.859" fill="#44a6f1"/><path d="M424.456,111.145a.9.9,0,1,1-.9-.858A.879.879,0,0,1,424.456,111.145Z" transform="translate(-414.578 -110.287)" fill="#44a6f1"/><ellipse cx="0.898" cy="0.859" rx="0.898" ry="0.859" transform="translate(16.164)" fill="#44a6f1"/><path d="M441.349,111.145a.9.9,0,1,1-.9-.858A.88.88,0,0,1,441.349,111.145Z" transform="translate(-415.307 -110.287)" fill="#44a6f1"/><path d="M449.8,111.145a.9.9,0,1,1-.9-.858A.879.879,0,0,1,449.8,111.145Z" transform="translate(-415.671 -110.287)" fill="#44a6f1"/><ellipse cx="0.898" cy="0.859" rx="0.898" ry="0.859" transform="translate(40.41)" fill="#44a6f1"/><path d="M466.688,111.145a.9.9,0,1,1-.9-.858A.88.88,0,0,1,466.688,111.145Z" transform="translate(-416.4 -110.287)" fill="#44a6f1"/><ellipse cx="0.898" cy="0.859" rx="0.898" ry="0.859" transform="translate(56.574)" fill="#44a6f1"/><ellipse cx="0.898" cy="0.859" rx="0.898" ry="0.859" transform="translate(64.656)" fill="#44a6f1"/><path d="M492.027,111.145a.9.9,0,1,1-.9-.858A.88.88,0,0,1,492.027,111.145Z" transform="translate(-417.492 -110.287)" fill="#44a6f1"/><path d="M500.473,111.145a.9.9,0,1,1-.9-.858A.88.88,0,0,1,500.473,111.145Z" transform="translate(-417.857 -110.287)" fill="#44a6f1"/></g><g transform="translate(0 61.831)"><path d="M416.01,118.653a.9.9,0,1,1-.9-.859A.88.88,0,0,1,416.01,118.653Z" transform="translate(-414.214 -117.794)" fill="#44a6f1"/><path d="M424.456,118.653a.9.9,0,1,1-.9-.859A.879.879,0,0,1,424.456,118.653Z" transform="translate(-414.578 -117.794)" fill="#44a6f1"/><path d="M432.9,118.653a.9.9,0,1,1-.9-.859A.879.879,0,0,1,432.9,118.653Z" transform="translate(-414.943 -117.794)" fill="#44a6f1"/><path d="M441.349,118.653a.9.9,0,1,1-.9-.859A.88.88,0,0,1,441.349,118.653Z" transform="translate(-415.307 -117.794)" fill="#44a6f1"/><path d="M449.8,118.653a.9.9,0,1,1-.9-.859A.879.879,0,0,1,449.8,118.653Z" transform="translate(-415.671 -117.794)" fill="#44a6f1"/><path d="M458.241,118.653a.9.9,0,1,1-.9-.859A.879.879,0,0,1,458.241,118.653Z" transform="translate(-416.036 -117.794)" fill="#44a6f1"/><path d="M466.688,118.653a.9.9,0,1,1-.9-.859A.88.88,0,0,1,466.688,118.653Z" transform="translate(-416.4 -117.794)" fill="#44a6f1"/><path d="M475.134,118.653a.9.9,0,1,1-.9-.859A.879.879,0,0,1,475.134,118.653Z" transform="translate(-416.764 -117.794)" fill="#44a6f1"/><path d="M483.58,118.653a.9.9,0,1,1-.9-.859A.88.88,0,0,1,483.58,118.653Z" transform="translate(-417.128 -117.794)" fill="#44a6f1"/><path d="M492.027,118.653a.9.9,0,1,1-.9-.859A.88.88,0,0,1,492.027,118.653Z" transform="translate(-417.493 -117.794)" fill="#44a6f1"/><path d="M500.473,118.653a.9.9,0,1,1-.9-.859A.88.88,0,0,1,500.473,118.653Z" transform="translate(-417.857 -117.794)" fill="#44a6f1"/></g><g transform="translate(0 68.701)"><ellipse cx="0.898" cy="0.859" rx="0.898" ry="0.859" transform="translate(0 0)" fill="#44a6f1"/><path d="M424.456,126.161a.9.9,0,1,1-.9-.859A.878.878,0,0,1,424.456,126.161Z" transform="translate(-414.578 -125.302)" fill="#44a6f1"/><ellipse cx="0.898" cy="0.859" rx="0.898" ry="0.859" transform="translate(16.164 0)" fill="#44a6f1"/><path d="M441.349,126.161a.9.9,0,1,1-.9-.859A.879.879,0,0,1,441.349,126.161Z" transform="translate(-415.307 -125.302)" fill="#44a6f1"/><path d="M449.8,126.161a.9.9,0,1,1-.9-.859A.879.879,0,0,1,449.8,126.161Z" transform="translate(-415.671 -125.302)" fill="#44a6f1"/><ellipse cx="0.898" cy="0.859" rx="0.898" ry="0.859" transform="translate(40.41 0)" fill="#44a6f1"/><path d="M466.688,126.161a.9.9,0,1,1-.9-.859A.879.879,0,0,1,466.688,126.161Z" transform="translate(-416.4 -125.302)" fill="#44a6f1"/><ellipse cx="0.898" cy="0.859" rx="0.898" ry="0.859" transform="translate(56.574 0)" fill="#44a6f1"/><ellipse cx="0.898" cy="0.859" rx="0.898" ry="0.859" transform="translate(64.656 0)" fill="#44a6f1"/><path d="M492.027,126.161a.9.9,0,1,1-.9-.859A.879.879,0,0,1,492.027,126.161Z" transform="translate(-417.492 -125.302)" fill="#44a6f1"/><path d="M500.473,126.161a.9.9,0,1,1-.9-.859A.879.879,0,0,1,500.473,126.161Z" transform="translate(-417.857 -125.302)" fill="#44a6f1"/></g><g transform="translate(0 75.572)"><ellipse cx="0.898" cy="0.859" rx="0.898" ry="0.859" transform="translate(0 0)" fill="#44a6f1"/><path d="M424.456,133.669a.9.9,0,1,1-.9-.859A.878.878,0,0,1,424.456,133.669Z" transform="translate(-414.578 -132.81)" fill="#44a6f1"/><ellipse cx="0.898" cy="0.859" rx="0.898" ry="0.859" transform="translate(16.164 0)" fill="#44a6f1"/><path d="M441.349,133.669a.9.9,0,1,1-.9-.859A.879.879,0,0,1,441.349,133.669Z" transform="translate(-415.307 -132.81)" fill="#44a6f1"/><path d="M449.8,133.669a.9.9,0,1,1-.9-.859A.879.879,0,0,1,449.8,133.669Z" transform="translate(-415.671 -132.81)" fill="#44a6f1"/><ellipse cx="0.898" cy="0.859" rx="0.898" ry="0.859" transform="translate(40.41 0)" fill="#44a6f1"/><path d="M466.688,133.669a.9.9,0,1,1-.9-.859A.879.879,0,0,1,466.688,133.669Z" transform="translate(-416.4 -132.81)" fill="#44a6f1"/><ellipse cx="0.898" cy="0.859" rx="0.898" ry="0.859" transform="translate(56.574 0)" fill="#44a6f1"/><ellipse cx="0.898" cy="0.859" rx="0.898" ry="0.859" transform="translate(64.656 0)" fill="#44a6f1"/><path d="M492.027,133.669a.9.9,0,1,1-.9-.859A.879.879,0,0,1,492.027,133.669Z" transform="translate(-417.492 -132.81)" fill="#44a6f1"/><path d="M500.473,133.669a.9.9,0,1,1-.9-.859A.879.879,0,0,1,500.473,133.669Z" transform="translate(-417.857 -132.81)" fill="#44a6f1"/></g></g></g><g fill="none" stroke="#44a6f1" stroke-linecap="round" stroke-width="1" stroke-dasharray="5"><circle cx="71.731" cy="71.731" r="71.731" stroke="none"/><circle cx="71.731" cy="71.731" r="71.231" fill="none"/></g></g><g transform="translate(3816.853 -7856.239)"><path d="M240.184,47.564a18,18,0,1,1-18-18A18,18,0,0,1,240.184,47.564Z" transform="translate(-92.043 -25.61)" fill="#00c8e6"/><ellipse cx="8.451" cy="8.452" rx="8.451" ry="8.452" transform="translate(250.464 102.13) rotate(-88.504)" fill="#a8aeb5"/><g transform="translate(51.218 0)"><rect width="48.91" height="24.65" transform="translate(0 23.48)" fill="#0082aa"/><rect width="44.384" height="20.274" transform="translate(2.262 25.669)" fill="#0078a0"/><rect width="1.119" height="20.274" transform="translate(2.262 25.669)" fill="#00648c"/><rect width="1.119" height="20.274" transform="translate(5.354 25.669)" fill="#00648c"/><rect width="1.117" height="20.274" transform="translate(8.445 25.669)" fill="#00648c"/><rect width="1.119" height="20.274" transform="translate(11.534 25.669)" fill="#00648c"/><rect width="1.119" height="20.274" transform="translate(14.624 25.669)" fill="#00648c"/><rect width="1.116" height="20.274" transform="translate(17.716 25.669)" fill="#00648c"/><rect width="1.119" height="20.274" transform="translate(20.805 25.669)" fill="#00648c"/><rect width="1.119" height="20.274" transform="translate(23.894 25.669)" fill="#00648c"/><rect width="1.117" height="20.274" transform="translate(26.986 25.669)" fill="#00648c"/><rect width="1.119" height="20.274" transform="translate(30.075 25.669)" fill="#00648c"/><rect width="1.119" height="20.274" transform="translate(33.165 25.669)" fill="#00648c"/><rect width="1.119" height="20.274" transform="translate(36.256 25.669)" fill="#00648c"/><rect width="1.116" height="20.274" transform="translate(39.348 25.669)" fill="#00648c"/><rect width="1.118" height="20.274" transform="translate(42.436 25.669)" fill="#00648c"/><path d="M187,49.928a1.525,1.525,0,1,1,1.525-1.525A1.527,1.527,0,0,1,187,49.928Zm0-2.467a.943.943,0,1,0,.941.942A.943.943,0,0,0,187,47.46Z" transform="translate(-144.004 -24.922)" fill="#0082aa"/><rect width="1.119" height="20.274" transform="translate(45.528 25.669)" fill="#00648c"/><path d="M187.1,48.239a.3.3,0,0,1-.122-.027L169,39.908a.3.3,0,0,1-.143-.389.294.294,0,0,1,.388-.141l17.986,8.3a.291.291,0,0,1,.139.388A.288.288,0,0,1,187.1,48.239Z" transform="translate(-144.666 -25.221)" fill="#323232"/><g transform="translate(21.697 0)"><path d="M167.348,37.162a1.188,1.188,0,0,0-.235.569,2,2,0,0,0,2.962,2.118,1.79,1.79,0,0,0,.839-2,10.375,10.375,0,0,0-1.4-2.312c-.664-1.015-.313-3.011-.055-2.9.062.026.126.172.16.235,1.272,2.082,4.171,2.93,3.609,5.672-1.007,4.194-7.419,3.733-6.714-.257a1.991,1.991,0,0,1,.525-1.157.8.8,0,0,1,.149-.131A.115.115,0,1,1,167.348,37.162Z" transform="translate(-166.457 -25.488)" fill="#787878"/><path d="M172.841,26.928l-.164,1.033-.391,2.422-.4,2.519-.211,1.318H168.05l-.228-1.406-.292-1.826-.28-1.751-.291-1.826-.077-.485.928-.367,2.037-.8.635.245,1.459.571Z" transform="translate(-166.44 -25.761)" fill="#ffdc00"/><path d="M170.48,26.006l-3.233,3.231-.291-1.826.852-.852,2.037-.8Z" transform="translate(-166.437 -25.761)" fill="#505050"/><path d="M172.816,26.9l-.164,1.033L167.8,32.783l-.292-1.826,4.412-4.412Z" transform="translate(-166.415 -25.73)" fill="#505050"/><path d="M172.226,30.206l-.4,2.519-1.32,1.318h-2.116Z" transform="translate(-166.38 -25.584)" fill="#505050"/></g><path d="M151.333,49.928A1.525,1.525,0,1,1,152.86,48.4,1.526,1.526,0,0,1,151.333,49.928Zm0-2.467a.943.943,0,1,0,.941.942A.942.942,0,0,0,151.333,47.46Z" transform="translate(-145.421 -24.922)" fill="#0082aa"/><path d="M151.825,48.239a.293.293,0,0,1-.126-.557l17.984-8.3a.292.292,0,1,1,.244.53l-17.981,8.3A.286.286,0,0,1,151.825,48.239Z" transform="translate(-145.353 -25.221)" fill="#323232"/><rect width="24.456" height="24.65" transform="translate(24.452 23.48)" fill="#0082aa" opacity="0.2"/></g><path d="M119.894,116.58a4.069,4.069,0,1,1-4.069-4.069A4.069,4.069,0,0,1,119.894,116.58Z" transform="translate(-95.715 -22.315)" fill="#feec9a"/><g transform="translate(200.133 6.348)"><path d="M298.8,40.632a2.106,2.106,0,0,0-2.28-2.372c-1.634,0-2.28,1.064-2.28,2.7v.326h1.3v-.326c0-.794.2-1.628.977-1.628.674,0,.978.632.978,1.3a3.68,3.68,0,0,1-.978,2.28l-2.284,3.257v1.3H298.8v-1.3h-3.257l2.28-2.932A4.182,4.182,0,0,0,298.8,40.632Z" transform="translate(-288.599 -31.613)" fill="#0082aa"/><path d="M303.2,47.468v-2.34h1.01V43.9H303.2V38.344h-1.628L299.3,43.677v1.45h2.6v2.34ZM300.6,43.9l1.3-3.919V43.9Z" transform="translate(-288.397 -31.61)" fill="#0082aa"/><path d="M308.7,47.467V41.915a.97.97,0,0,0-.938-1.053,2.305,2.305,0,0,0-1.671.793V38.347h-1.3v9.12h1.3V42.311a1.352,1.352,0,0,1,.857-.382c.4,0,.449.26.449.651v4.886h1.3Z" transform="translate(-288.179 -31.61)" fill="#0082aa"/><path d="M301.989,54.023a10.548,10.548,0,0,1-9.782-6.535l2.039.361a17.518,17.518,0,0,1-3.564-4.413,17.544,17.544,0,0,1-1.868,5.356l1.923-1.1a12.031,12.031,0,0,0,23.192-2.75l-1.44-.179A10.591,10.591,0,0,1,301.989,54.023Z" transform="translate(-288.814 -31.407)" fill="#0082aa"/><path d="M301.942,33.315a10.548,10.548,0,0,1,9.78,6.531l-2.037-.361a17.559,17.559,0,0,1,3.568,4.411,17.386,17.386,0,0,1,1.866-5.356l-1.928,1.1A12.03,12.03,0,0,0,290,42.452l1.44.174A10.584,10.584,0,0,1,301.942,33.315Z" transform="translate(-288.767 -31.867)" fill="#0082aa"/></g><g transform="translate(109.681 14.965)"><path d="M249.423,40.16c-24.636,0-44.607,17.118-44.607,38.235v57.777h89.213V78.395C294.028,57.279,274.056,40.16,249.423,40.16Z" transform="translate(-201.699 -40.154)" fill="#44a6f1"/><rect width="64.858" height="55.796" transform="translate(15.294 37.675)" fill="#dcdcdc"/><g transform="translate(15.294 39.657)"><rect width="64.858" height="1.132" fill="#c8c8c8"/><rect width="64.858" height="1.133" transform="translate(0 4.84)" fill="#c8c8c8"/><rect width="64.858" height="1.133" transform="translate(0 9.68)" fill="#c8c8c8"/><rect width="64.858" height="1.133" transform="translate(0 14.521)" fill="#c8c8c8"/><rect width="64.858" height="1.133" transform="translate(0 19.362)" fill="#c8c8c8"/><rect width="64.858" height="1.132" transform="translate(0 24.203)" fill="#c8c8c8"/><rect width="64.858" height="1.133" transform="translate(0 29.043)" fill="#c8c8c8"/><rect width="64.858" height="1.132" transform="translate(0 33.884)" fill="#c8c8c8"/><rect width="64.858" height="1.132" transform="translate(0 38.724)" fill="#c8c8c8"/><rect width="64.858" height="1.132" transform="translate(0 43.565)" fill="#c8c8c8"/><rect width="64.858" height="1.133" transform="translate(0 48.404)" fill="#c8c8c8"/><rect width="64.858" height="1.132" transform="translate(0 53.245)" fill="#c8c8c8"/></g><rect width="95.446" height="5.099" transform="translate(0 93.091)" fill="#787878"/><rect width="76.753" height="5.097" transform="translate(9.348 35.645)" fill="#00b4c8"/><rect width="19.823" height="10.48" transform="translate(37.794 17.99)" fill="#ffdc00"/><g transform="translate(41.983 19.19)"><path d="M243.328,58.688h.848v7.925h-1.131V60.387H242.2v-.848A1.952,1.952,0,0,0,243.328,58.688Z" transform="translate(-242.197 -58.608)" fill="#323232"/><path d="M245.777,62.432a1.987,1.987,0,0,1-.743-1.759c0-1.275.6-2.062,1.873-2.062s1.862.791,1.862,2.062a1.98,1.98,0,0,1-.739,1.759,2.019,2.019,0,0,1,.853,1.925c0,1.441-.534,2.339-1.975,2.339s-1.986-.9-1.986-2.339A1.992,1.992,0,0,1,245.777,62.432Zm1.129,3.335c.759,0,.845-.664.845-1.411,0-.69-.149-1.359-.845-1.359s-.853.664-.853,1.359C246.053,65.111,246.141,65.767,246.906,65.767Zm0-6.228c-.585,0-.716.548-.716,1.132,0,.619.094,1.244.716,1.244s.707-.625.707-1.244C247.613,60.1,247.481,59.539,246.906,59.539Z" transform="translate(-242.089 -58.611)" fill="#323232"/><path d="M252.227,63.7c0-.782-.057-1.4-.843-1.4a.95.95,0,0,0-.845.655h-.967V58.688h3.5V59.82H250.6l-.071,1.919a2.138,2.138,0,0,1,1.131-.283c1.31,0,1.7,1.014,1.7,2.326,0,1.6-.394,2.91-2,2.91-1.472,0-1.96-.89-1.96-2.345h1.133v.177c0,.668.094,1.264.765,1.264C252.28,65.79,252.227,64.711,252.227,63.7Z" transform="translate(-241.911 -58.608)" fill="#323232"/></g><path d="M295.434,133.244v5.1H247.718V40.154c24.641,0,44.613,17.13,44.613,38.245v54.844h3.1Z" transform="translate(-199.988 -40.147)" fill="#fff" opacity="0.15"/></g><g transform="translate(181.734 39.071)"><path d="M330.177,92.833H271.485V65.2a1.858,1.858,0,0,1,1.858-1.858h54.976a1.858,1.858,0,0,1,1.858,1.858V92.833Z" transform="translate(-271.103 -63.339)" fill="#dcdcdc"/><path d="M327.935,77.988a4.644,4.644,0,0,0-4.588-3.926h-45a4.645,4.645,0,0,0-4.589,3.927l-2.412,15.432a18.423,18.423,0,0,0-.224,2.871V118.73a2.787,2.787,0,0,0,2.788,2.786h53.88a2.787,2.787,0,0,0,2.788-2.786V96.292a18.584,18.584,0,0,0-.224-2.873Z" transform="translate(-271.118 -62.913)" fill="#2f73a8"/><path d="M279.369,99.127v16.257l3.021,5.186h-7.966V97.839Z" transform="translate(-270.987 -61.968)" fill="#215278"/><path d="M285.553,133.893a.929.929,0,0,1-.93.93h-9.56a.929.929,0,0,1-.928-.93v-5.108h11.418v5.108Z" transform="translate(-270.998 -60.739)" fill="#414042"/><path d="M320.353,99.127v16.257l-3.019,5.186H325.3V97.839Z" transform="translate(-269.282 -61.968)" fill="#215278"/><path d="M325.719,133.893a.929.929,0,0,1-.93.93H315.23a.929.929,0,0,1-.928-.93v-5.108h11.417v5.108Z" transform="translate(-269.402 -60.739)" fill="#414042"/><path d="M326.586,99.244a1.871,1.871,0,0,1-1.4.632H276.247a1.871,1.871,0,0,1-1.4-.632,1.839,1.839,0,0,1-.437-1.467l.613-4.628,1.671-12.558a1.866,1.866,0,0,1,1.85-1.617h44.349a1.866,1.866,0,0,1,1.848,1.617l.91,6.874.985,7.339.39,2.973A1.83,1.83,0,0,1,326.586,99.244Z" transform="translate(-270.988 -62.718)" fill="#414042"/><path d="M330.571,126.825a2.787,2.787,0,0,1-2.788,2.786H273.906a2.788,2.788,0,0,1-2.788-2.786v-4.336a2.787,2.787,0,0,1,2.788-2.786h53.878a2.788,2.788,0,0,1,2.788,2.786Z" transform="translate(-271.118 -61.1)" fill="#787878"/><path d="M308.951,108.762a.931.931,0,0,1-.928.928H292.073a.931.931,0,0,1-.928-.928v-3.1a.931.931,0,0,1,.928-.928h15.949a.931.931,0,0,1,.928.928Z" transform="translate(-270.322 -61.694)" fill="#ffdc00"/><path d="M315.865,119.832h-31.12v-.62a2.787,2.787,0,0,1,2.788-2.786h25.546a2.787,2.787,0,0,1,2.786,2.786Z" transform="translate(-270.577 -61.23)" fill="#00b4c8"/><path d="M282.69,125.608a.931.931,0,0,1-.931.928h-6.5a.931.931,0,0,1-.928-.928v-2.13a.931.931,0,0,1,.928-.928h6.5a.932.932,0,0,1,.931.928Z" transform="translate(-270.99 -60.987)" fill="#fff"/><path d="M325.409,125.608a.931.931,0,0,1-.931.928h-6.5a.93.93,0,0,1-.928-.928v-2.13a.93.93,0,0,1,.928-.928h6.5a.933.933,0,0,1,.931.928Z" transform="translate(-269.293 -60.987)" fill="#fff"/><path d="M300.115,119.7H310.74l-3.715,9.908H293.206L289.49,119.7Z" transform="translate(-270.388 -61.1)" fill="#fff" opacity="0.15"/><path d="M307.683,122.567h-15.33a.465.465,0,0,1,0-.93h15.33a.465.465,0,1,1,0,.93Z" transform="translate(-270.293 -61.023)" fill="#414042"/><path d="M306.8,124.95H293.175a.465.465,0,0,1,0-.93H306.8a.465.465,0,1,1,0,.93Z" transform="translate(-270.26 -60.928)" fill="#414042"/><path d="M305.595,127.33h-11.3a.464.464,0,0,1,0-.928h11.3a.464.464,0,1,1,0,.928Z" transform="translate(-270.216 -60.834)" fill="#414042"/><path d="M300.364,78.975l-20.9,20.9h-3.215a1.871,1.871,0,0,1-1.4-.632,1.839,1.839,0,0,1-.437-1.467l.613-4.628L289.2,78.975Z" transform="translate(-270.988 -62.718)" fill="#fff" opacity="0.1"/><path d="M325.149,94.48l-5.073,5.072h-8.324l12.411-12.411Z" transform="translate(-269.504 -62.393)" fill="#fff" opacity="0.1"/><path d="M314.883,131.849v4.644a.925.925,0,0,0,.928.928h9.56a.926.926,0,0,0,.928-.928v-4.644h.349a2.784,2.784,0,0,0,2.786-2.785v-4.336a2.786,2.786,0,0,0-2.786-2.788,2.784,2.784,0,0,0,2.786-2.785V96.716a18.572,18.572,0,0,0-.221-2.872l-.158-1.011V65.2a1.858,1.858,0,0,0-1.858-1.859H299.711V131.85h15.172Z" transform="translate(-270.363 -65.504)" fill="#fff" opacity="0.15"/></g><g transform="translate(12.879 56.32)"><path d="M144.586,122.572l-7.229-5.624-3.149,6.36Z" transform="translate(-107.702 -78.458)" fill="#006482"/><path d="M133.643,127.214l18.291-36.937-.811-1.43-18.682,37.772Z" transform="translate(-107.772 -79.575)" fill="#006482"/><path d="M130.839,125.621l4.648,7.229h41.2V118.821a3.355,3.355,0,0,0-3.354-3.354H155.39v5.821a1.341,1.341,0,0,1-1.342,1.341H135.486l-.825.529Z" transform="translate(-107.836 -78.517)" fill="#ffdc00"/><rect width="2.698" height="49.999" transform="translate(20.984 0)" fill="#006482"/><path d="M168.474,131a5.339,5.339,0,0,0,.2,1.442h6.513v-6.331A5.135,5.135,0,0,0,168.474,131Z" transform="translate(-106.341 -78.104)" fill="#ffc800"/><path d="M148.357,122.631l10.219,10.221h17.409V118.822a3.355,3.355,0,0,0-3.354-3.354H154.693v5.821a1.341,1.341,0,0,1-1.342,1.341Z" transform="translate(-107.14 -78.517)" fill="#ff0" opacity="0.25"/><path d="M130.839,125.327l4.648,7.229H140.1a6.821,6.821,0,0,0,.59-2.8,6.962,6.962,0,0,0-6.028-6.894Z" transform="translate(-107.836 -78.223)" fill="#ffc800"/><rect width="34.723" height="4.333" transform="translate(30.139 50.002)" fill="#787878"/><path d="M168.474,130.91a5.339,5.339,0,0,0,.2,1.442H171.2V128.02h-1.837A5.089,5.089,0,0,0,168.474,130.91Z" transform="translate(-106.341 -78.018)" fill="#646464"/><path d="M137.7,128.02v4.333h2.125a6.821,6.821,0,0,0,.59-2.8,6.933,6.933,0,0,0-.173-1.537H137.7Z" transform="translate(-107.563 -78.018)" fill="#646464"/><g transform="translate(20.598 46.24)"><path d="M133.826,135a5.3,5.3,0,1,0-5.3-5.3A5.3,5.3,0,0,0,133.826,135Z" transform="translate(-128.526 -124.402)" fill="#414042"/><path d="M129.642,129.654a4.139,4.139,0,1,0,4.139-4.139A4.138,4.138,0,0,0,129.642,129.654Z" transform="translate(-128.482 -124.358)" fill="#fff" opacity="0.1"/><g transform="translate(1.057 1.055)"><path d="M129.543,129.658a4.22,4.22,0,0,0,1.267,3.014l.014.015.311.278.01.007c.095.075.191.143.284.2l.394.236a4.217,4.217,0,0,0,3.923,0,3.7,3.7,0,0,0,.389-.23c.1-.068.2-.137.293-.212l.329-.3a4.207,4.207,0,0,0,1.272-3.017,4.046,4.046,0,0,0-.066-.714,2.755,2.755,0,0,0-.1-.438,3.064,3.064,0,0,0-.112-.342,4.432,4.432,0,0,0-.182-.413,4.245,4.245,0,0,0-3.162-2.287c-.148-.019-.3-.035-.446-.041-.061-.005-.116-.005-.176-.005s-.128,0-.19.005a4.359,4.359,0,0,0-.442.041A4.241,4.241,0,0,0,130,127.752a3.325,3.325,0,0,0-.186.414,3.483,3.483,0,0,0-.109.343,3.3,3.3,0,0,0-.1.434A4.006,4.006,0,0,0,129.543,129.658Zm.611-1.382,2.434.79.451.146s-.005.008-.01.014a.912.912,0,0,0-.106.306c0,.008,0,.014,0,.02l-.446-.145-2.431-.788c0-.008,0-.012,0-.02a3.128,3.128,0,0,1,.1-.308C130.15,128.286,130.15,128.279,130.154,128.276Zm3,.5-.292-.093-.729-.238-1.8-.584a3.889,3.889,0,0,1,2.817-2.042v2.957Zm.807.037h-.01a.7.7,0,0,0-.18-.018.762.762,0,0,0-.164.014.016.016,0,0,0-.008,0h0v-3.038a.152.152,0,0,1,.043,0c.036,0,.076,0,.113,0h.054a1.149,1.149,0,0,1,.146.007h.01v3.039Zm.206.839a.383.383,0,1,1-.382-.382A.382.382,0,0,1,134.17,129.655Zm3.062-1.794-1.809.587-.721.238-.292.093v-2.957A3.884,3.884,0,0,1,137.232,127.861Zm.3.756-2.445.789-.459.153v-.011a.812.812,0,0,0-.111-.329,0,0,0,0,0,0,0l.468-.15,2.436-.791a.1.1,0,0,1,.01.027,2.836,2.836,0,0,1,.1.3Zm-2.106,2.219-.443-.613-.18-.251.284-.1.725-.232,1.816-.593a3.633,3.633,0,0,1,.047.606,3.843,3.843,0,0,1-1.123,2.728Zm-1.013-.021-.276-.381a.027.027,0,0,0,.024-.01.74.74,0,0,0,.251-.19.034.034,0,0,0,.015-.016l.279.381,1.514,2.09a.028.028,0,0,0,0,.008c-.091.066-.176.132-.278.2,0,0,0,0-.007.008Zm-2.379,2.308,1.125-1.548.442-.612.182-.252.184.246.446.618,1.128,1.549a3.849,3.849,0,0,1-3.507,0Zm-.679-.437,1.512-2.088.267-.371.022.02a.77.77,0,0,0,.243.177.147.147,0,0,0,.025.016l-.266.371-1.519,2.083-.014-.01a2.229,2.229,0,0,1-.255-.181Zm-1.456-3.029a3.947,3.947,0,0,1,.048-.6l1.806.588.723.232.288.1-.174.251-.453.613-1.117,1.547A3.862,3.862,0,0,1,129.9,129.658Z" transform="translate(-129.543 -125.417)" fill="#b4b4b4"/></g></g><g transform="translate(63.328 48.956)"><path d="M173.564,134.893a3.94,3.94,0,1,0-3.941-3.94A3.943,3.943,0,0,0,173.564,134.893Z" transform="translate(-169.623 -127.014)" fill="#414042"/><path d="M170.45,130.921a3.079,3.079,0,1,0,3.081-3.079A3.079,3.079,0,0,0,170.45,130.921Z" transform="translate(-169.59 -126.981)" fill="#fff" opacity="0.1"/><g transform="translate(0.785 0.786)"><path d="M170.378,130.923a3.15,3.15,0,0,0,.941,2.242l.01.011.233.206.007.005c.071.055.141.107.212.153l.292.176a3.129,3.129,0,0,0,1.461.362,3.09,3.09,0,0,0,1.455-.36,2.772,2.772,0,0,0,.289-.171c.076-.05.146-.1.217-.157l.246-.224a3.125,3.125,0,0,0,.944-2.244,2.988,2.988,0,0,0-.049-.531,2.4,2.4,0,0,0-.072-.326,2.081,2.081,0,0,0-.082-.255c-.041-.105-.085-.209-.134-.307a3.135,3.135,0,0,0-2.684-1.73c-.044,0-.087,0-.132,0s-.095,0-.141,0a3.044,3.044,0,0,0-.326.03,3.153,3.153,0,0,0-2.347,1.7,2.336,2.336,0,0,0-.14.308c-.026.08-.059.167-.08.255a2.674,2.674,0,0,0-.074.322A3.339,3.339,0,0,0,170.378,130.923Zm.454-1.028,1.81.587.337.108s-.006.007-.009.01a.666.666,0,0,0-.079.228c0,.006,0,.01,0,.016l-.333-.108-1.807-.586c0-.006,0-.008,0-.014.021-.076.048-.154.076-.229C170.83,129.9,170.83,129.9,170.832,129.9Zm2.234.374-.219-.069-.541-.177-1.335-.434a2.883,2.883,0,0,1,2.1-1.519Zm.6.028h-.008a.524.524,0,0,0-.135-.012.573.573,0,0,0-.121.009.011.011,0,0,0-.006,0h0v-2.258a.173.173,0,0,1,.031,0c.028,0,.058,0,.085,0h.04a.893.893,0,0,1,.109.005h.008V130.3Zm.153.623a.284.284,0,1,1-.569,0,.284.284,0,0,1,.569,0Zm2.277-1.333-1.344.437-.539.177-.217.069v-2.2A2.889,2.889,0,0,1,176.1,129.587Zm.22.563-1.817.586-.339.114v-.009a.634.634,0,0,0-.084-.243,0,0,0,0,0,0,0l.35-.11,1.81-.588a.11.11,0,0,1,.006.02,1.822,1.822,0,0,1,.077.227Zm-1.565,1.649-.329-.456-.134-.187.21-.071.539-.173,1.352-.439a2.783,2.783,0,0,1,.034.45,2.85,2.85,0,0,1-.836,2.029Zm-.756-.016-.2-.284c.009,0,.014,0,.017-.007a.535.535,0,0,0,.188-.141s.008-.005.011-.011l.206.284,1.127,1.554a.011.011,0,0,1,0,.006c-.066.049-.129.1-.2.149,0,0,0,0-.005.005ZM172.23,133.5l.837-1.151.326-.455.136-.186.137.183.33.459.839,1.152a2.855,2.855,0,0,1-2.606,0Zm-.505-.323,1.123-1.553.2-.277.018.015a.569.569,0,0,0,.182.131l.018.012-.2.276-1.132,1.548-.008-.007a1.98,1.98,0,0,1-.19-.134Zm-1.082-2.253a2.85,2.85,0,0,1,.036-.448l1.341.437.536.173.215.071-.128.187-.336.456-.831,1.15A2.855,2.855,0,0,1,170.642,130.923Z" transform="translate(-170.378 -127.77)" fill="#b4b4b4"/></g></g><rect width="1.34" height="32.106" transform="translate(63.52 9.272)" fill="#006482"/><path d="M168.474,119.8a2.057,2.057,0,1,0,2.056-2.057A2.057,2.057,0,0,0,168.474,119.8Z" transform="translate(-106.341 -78.427)" fill="#0082aa"/><path d="M150.046,91.109h21.215V88.847H150.423Z" transform="translate(-107.073 -79.575)" fill="#006482"/><g transform="translate(32.523 24.393)"><rect width="17.602" height="1.341" transform="matrix(0.55, -0.835, 0.835, 0.55, 0, 17.704)" fill="#006482"/><rect width="2.012" height="9.165" transform="matrix(0.551, -0.835, 0.835, 0.551, 5.876, 1.679)" fill="#006482"/></g><g transform="translate(47.557 25.096)"><path d="M154.455,115.583h11.789v-3.007H156.131a1.676,1.676,0,0,0-1.676,1.676Z" transform="translate(-154.455 -103.728)" fill="#0082aa"/><path d="M165.89,115.921l2.357-11.556-1.3-.265a1.674,1.674,0,0,0-1.978,1.307l-2.023,9.913Z" transform="translate(-154.118 -104.066)" fill="#0082aa"/></g><path d="M108.715,134.234h19.614V83.661h-1.676v48.9H109.859Z" transform="translate(-108.715 -79.781)" fill="#006482"/><rect width="1.34" height="5.71" transform="translate(22.659 39.077) rotate(-59.647)" fill="#006482"/><rect width="3.668" height="1.341" transform="translate(18.663 37.819)" fill="#006482"/></g><g transform="translate(94.076 67.686)"><rect width="29.411" height="16.233" transform="translate(9.175 8.628)" fill="#ffdc00"/><rect width="4.262" height="1.915" transform="translate(21.75 8.647)" fill="#ffc800"/><path d="M222.485,113.314a.325.325,0,0,1-.322.324h-5.807a.325.325,0,0,1-.323-.324V109.94a.324.324,0,0,1,.323-.323h5.807a.324.324,0,0,1,.322.323Z" transform="translate(-185.649 -90.116)" fill="#f4f4f4"/><g transform="translate(0 0)"><path d="M193.13,104.492l-1.02-4.138-2.985-.989.091-.4-.41.2s-1.874,2.849-1.874,4.463c0,.94.151,4.863.151,7.227h0l.29,7.984h4.819a1.341,1.341,0,0,0,1.338-1.312l.043-3.718Z" transform="translate(-186.805 -90.539)" fill="#0082aa"/><path d="M193.371,99.447c-.09.023-.178.042-.256.057-.87.189-1.058.055-1.037.8,0,.141.027.313.027.525,0,.731-2.517-.621-3-1.16l.4-1.76s-2.195-.424-2.195-3.518,3.372-3.152,3.372-3.152a4.5,4.5,0,0,1,3.474,1.932C194.863,94.162,194.981,99.038,193.371,99.447Z" transform="translate(-186.79 -90.846)" fill="#f0cdaf"/><path d="M191.948,100.069a2.96,2.96,0,0,1-1.367-2.82,2.593,2.593,0,0,0,2.4,2.016C192.115,99.453,191.927,99.32,191.948,100.069Z" transform="translate(-186.661 -90.607)" fill="#dcb99b"/><path d="M195.118,92.723c-.254.574-1.581.7-2.281.3-1.018.538-1.321,2.674-1.221,3.139l-.333.072a1.289,1.289,0,0,0-.975-.669.692.692,0,0,0-.712.9,2.942,2.942,0,0,0,.335.682l-.017,1.25h-.585s-2.519-1.323-2.519-3.489c0-1.6.6-4.053,4.157-4.053C193.551,90.862,194.2,92.053,195.118,92.723Z" transform="translate(-186.81 -90.861)" fill="#c89632"/><g transform="translate(1.424 11.543)"><path d="M192.72,111.432l-3.141-.321-1.289-7.075-.108-.6a0,0,0,0,1,0,0,1.5,1.5,0,0,1,.117-.539l.066-.011,2.493-.454h.008a1.49,1.49,0,0,1,.38.658l.018.088.02.113.014.08Z" transform="translate(-188.18 -101.945)" fill="#008cb4"/><path d="M191.14,104.206a1.554,1.554,0,0,1-2.084.683,1.568,1.568,0,0,1-.875-1.434,0,0,0,0,1,0,0,1.5,1.5,0,0,1,.118-.539.154.154,0,0,1,.015-.037c.009-.023.019-.044.029-.064a1.553,1.553,0,0,1,2.087-.682,1.515,1.515,0,0,1,.419.309s.007,0,.009.009a1.531,1.531,0,0,1,.382.656.463.463,0,0,1,.023.09l.02.113c0,.026.007.052.01.078A1.49,1.49,0,0,1,191.14,104.206Z" transform="translate(-188.18 -101.963)" fill="#008cb4"/></g><path d="M197.638,116.278c-1.016-.663-1.48-1.751-1.037-2.431s1.626-.69,2.642-.027,1.48,1.751,1.037,2.431S198.652,116.941,197.638,116.278Z" transform="translate(-186.428 -89.968)" fill="#f0cdaf"/><path d="M198.03,113.112l-1.486,2.423-5.631-3.367,1.413-2.55Z" transform="translate(-186.647 -90.116)" fill="#008cb4"/><rect width="2.571" height="0.46" transform="translate(9.96 25.305) rotate(-58.553)" fill="#f0f0f0"/><path d="M189.525,110.816c.1.5.919,1.026,1.443,1.341s1.468-1.341,1.468-1.341l-1.245-.933Z" transform="translate(-186.702 -90.105)" fill="#008cb4"/><path d="M193.478,116.784l-.965,17.8h-4.16l-1.018-17.435Z" transform="translate(-186.789 -89.831)" fill="#414042"/><path d="M190.36,117.153v17.435h2.033l.965-17.8Z" transform="translate(-186.669 -89.831)" fill="#414042" opacity="0.1"/><g transform="translate(1.572 43.275)"><path d="M194.2,133.837a1.638,1.638,0,0,1-.233.839h-5.418a1.646,1.646,0,0,1-.231-.839,11.083,11.083,0,0,1,3.864-1.355C193.665,132.481,194.2,133.02,194.2,133.837Z" transform="translate(-188.322 -132.482)" fill="#323232"/><rect width="5.881" height="0.839" transform="translate(0.001 1.355)" fill="#323232"/></g></g><path d="M226.556,104.492l1.019-4.138,2.985-.989-.091-.4.409.2s1.877,2.849,1.877,4.463c0,.94-.154,4.863-.154,7.227h0l-.29,7.984h-4.819a1.339,1.339,0,0,1-1.336-1.312l-.043-3.718Z" transform="translate(-185.249 -90.539)" fill="#f06400"/><path d="M226.342,99.447c.089.023.177.042.256.057.869.189,1.058.055,1.036.8,0,.141-.026.313-.026.525,0,.731,2.516-.621,3-1.16l-.4-1.76s2.195-.424,2.195-3.518-3.371-3.152-3.371-3.152a4.5,4.5,0,0,0-3.475,1.932C224.849,94.162,224.729,99.038,226.342,99.447Z" transform="translate(-185.29 -90.846)" fill="#f0cdaf"/><path d="M227.575,100.069a2.961,2.961,0,0,0,1.366-2.82,2.589,2.589,0,0,1-2.4,2.016C227.408,99.453,227.6,99.32,227.575,100.069Z" transform="translate(-185.232 -90.607)" fill="#dcb99b"/><path d="M224.629,92.723c.256.574,1.583.7,2.282.3,1.018.538,1.322,2.674,1.221,3.139l.333.072a1.289,1.289,0,0,1,.975-.669.691.691,0,0,1,.711.9,2.917,2.917,0,0,1-.333.682l.015,1.25h.585s2.52-1.323,2.52-3.489c0-1.6-.6-4.053-4.157-4.053C226.2,90.862,225.553,92.053,224.629,92.723Z" transform="translate(-185.308 -90.861)" fill="#965000"/><g transform="translate(41.665 11.543)"><path d="M226.883,111.432l3.141-.321,1.289-7.075.109-.6v0a1.474,1.474,0,0,0-.117-.539l-.067-.011-2.491-.454h-.008a1.514,1.514,0,0,0-.382.658l-.017.088-.019.113-.015.08Z" transform="translate(-226.883 -101.945)" fill="#fa6e00"/><path d="M228.408,104.206a1.554,1.554,0,0,0,2.084.683,1.572,1.572,0,0,0,.876-1.434v0a1.474,1.474,0,0,0-.117-.539.154.154,0,0,0-.015-.037c-.008-.023-.019-.044-.028-.064a1.554,1.554,0,0,0-2.088-.682,1.48,1.48,0,0,0-.418.309.042.042,0,0,0-.01.009,1.511,1.511,0,0,0-.382.656.552.552,0,0,0-.024.09l-.019.113c0,.026-.006.052-.01.078A1.5,1.5,0,0,0,228.408,104.206Z" transform="translate(-226.829 -101.963)" fill="#fa6e00"/></g><rect width="14.705" height="16.233" transform="translate(23.88 8.628)" fill="#ffdc00" opacity="0.25"/><path d="M221.946,116.278c1.016-.663,1.478-1.751,1.037-2.431s-1.627-.69-2.642-.027-1.48,1.751-1.037,2.431S220.932,116.941,221.946,116.278Z" transform="translate(-185.526 -89.968)" fill="#f0cdaf"/><path d="M221.673,113.112l1.486,2.423,5.631-3.367-1.414-2.55Z" transform="translate(-185.425 -90.116)" fill="#fa6e00"/><rect width="0.459" height="2.571" transform="translate(35.932 23.359) rotate(-31.373)" fill="#f0f0f0"/><path d="M230.015,110.816c-.1.5-.918,1.026-1.442,1.341s-1.468-1.341-1.468-1.341l1.245-.933Z" transform="translate(-185.209 -90.105)" fill="#fa6e00"/><path d="M226.186,116.784l.964,17.8h4.161l1.018-17.435Z" transform="translate(-185.246 -89.831)" fill="#0082aa"/><path d="M229.185,117.153v17.435H227.15l-.964-17.8Z" transform="translate(-185.246 -89.831)" fill="#414042" opacity="0.1"/><g transform="translate(40.176 43.275)"><path d="M225.451,133.837a1.647,1.647,0,0,0,.232.839H231.1a1.637,1.637,0,0,0,.232-.839,11.091,11.091,0,0,0-3.865-1.355C225.99,132.481,225.451,133.02,225.451,133.837Z" transform="translate(-225.451 -132.482)" fill="#323232"/><rect width="5.881" height="0.839" transform="translate(0 1.355)" fill="#323232"/></g><g transform="translate(32.192 10.036)"><rect width="1.145" height="3.186" transform="translate(0.598 0.811)" fill="#0082aa"/><path d="M218.942,100.514l-1.17,1.481h2.339Z" transform="translate(-217.772 -100.514)" fill="#0082aa"/></g><g transform="translate(35.052 10.018)"><path d="M222.266,102.327a.871.871,0,1,1-.871-.873A.87.87,0,0,1,222.266,102.327Z" transform="translate(-220.523 -100.458)" fill="#0082aa"/><rect width="1.743" height="1.869" fill="#0082aa"/><rect width="0.284" height="2.152" transform="translate(0.73 1.869)" fill="#0082aa"/><path d="M222.091,104.374h-1.4v-.107l.7-.178.7.178Z" transform="translate(-220.517 -100.353)" fill="#0082aa"/></g><path d="M199.546,105.232a2.3,2.3,0,1,1,2.3-2.3A2.3,2.3,0,0,1,199.546,105.232Zm0-4.257a1.958,1.958,0,1,0,1.959,1.958A1.961,1.961,0,0,0,199.546,100.975Z" transform="translate(-186.395 -90.473)" fill="#f06400"/><path d="M200.956,102.9a1.443,1.443,0,1,1-1.443-1.444A1.443,1.443,0,0,1,200.956,102.9Z" transform="translate(-186.363 -90.44)" fill="#f06400"/></g><path d="M350.742,134.092H103.26a6.932,6.932,0,1,0,0,13.864h51.018a6.932,6.932,0,1,1,0,13.864h-18.67a6.932,6.932,0,0,0,0,13.864H322.95a6.932,6.932,0,0,0,0-13.864h-10.6a6.932,6.932,0,0,1,0-13.864h38.393a6.932,6.932,0,0,0,0-13.864ZM199.851,161.817a6.932,6.932,0,1,1,0-13.864h34.729a6.932,6.932,0,1,1,0,13.864Z" transform="translate(-96.328 -21.458)" fill="#66757e"/><g transform="translate(10.548 119.045)"><path d="M346.2,141.3h-5.292a.52.52,0,0,1,0-1.04H346.2a.52.52,0,0,1,0,1.04Zm-13.759,0H327.15a.52.52,0,1,1,0-1.04h5.294a.52.52,0,0,1,0,1.04Zm-13.76,0h-5.292a.52.52,0,1,1,0-1.04h5.292a.52.52,0,0,1,0,1.04Zm-13.76,0h-5.292a.52.52,0,1,1,0-1.04h5.292a.52.52,0,0,1,0,1.04Zm-13.761,0h-5.292a.52.52,0,1,1,0-1.04h5.292a.52.52,0,0,1,0,1.04Zm-13.76,0h-5.292a.52.52,0,1,1,0-1.04H277.4a.52.52,0,0,1,0,1.04Zm-13.76,0h-5.292a.52.52,0,0,1,0-1.04h5.292a.52.52,0,0,1,0,1.04Zm-13.761,0h-5.292a.52.52,0,0,1,0-1.04h5.292a.52.52,0,0,1,0,1.04Zm-13.76,0h-5.292a.52.52,0,0,1,0-1.04h5.292a.52.52,0,0,1,0,1.04Zm-13.76,0h-5.292a.52.52,0,0,1,0-1.04h5.292a.52.52,0,0,1,0,1.04Zm-13.76,0h-5.293a.52.52,0,1,1,0-1.04H208.6a.52.52,0,0,1,0,1.04Zm-13.76,0h-5.292a.52.52,0,0,1,0-1.04h5.292a.52.52,0,0,1,0,1.04Zm-13.761,0h-5.292a.52.52,0,1,1,0-1.04h5.292a.52.52,0,0,1,0,1.04Zm-13.76,0h-5.292a.52.52,0,1,1,0-1.04h5.292a.52.52,0,0,1,0,1.04Zm-13.76,0h-5.292a.52.52,0,1,1,0-1.04h5.292a.52.52,0,0,1,0,1.04Zm-13.76,0h-5.293a.52.52,0,0,1,0-1.04H139.8a.52.52,0,0,1,0,1.04Zm-13.76,0h-5.292a.52.52,0,1,1,0-1.04h5.292a.52.52,0,0,1,0,1.04Zm-13.76,0h-5.292a.52.52,0,1,1,0-1.04h5.292a.52.52,0,0,1,0,1.04Z" transform="translate(-106.473 -140.258)" fill="#fff"/></g></g><g transform="translate(3966.115 -7721.029)"><rect width="35.449" height="7.132" transform="translate(96.551 0)" fill="#fdfdfd"/><rect width="85.034" height="7.132" transform="translate(0 0)" fill="#fcd004"/><g transform="translate(0 18.751)"><g transform="translate(0 0)"><line x1="19.281" y2="19.281" fill="none" stroke="#d8d9da" stroke-miterlimit="10" stroke-width="0.78"/><line x1="19.281" y2="19.281" transform="translate(9.393)" fill="none" stroke="#d8d9da" stroke-miterlimit="10" stroke-width="0.78"/><line x1="19.281" y2="19.281" transform="translate(18.787)" fill="none" stroke="#d8d9da" stroke-miterlimit="10" stroke-width="0.78"/><line x1="19.281" y2="19.281" transform="translate(28.18)" fill="none" stroke="#d8d9da" stroke-miterlimit="10" stroke-width="0.78"/><line x1="19.281" y2="19.281" transform="translate(37.573)" fill="none" stroke="#d8d9da" stroke-miterlimit="10" stroke-width="0.78"/><line x1="19.281" y2="19.281" transform="translate(46.966)" fill="none" stroke="#d8d9da" stroke-miterlimit="10" stroke-width="0.78"/><line x1="19.281" y2="19.281" transform="translate(56.36)" fill="none" stroke="#d8d9da" stroke-miterlimit="10" stroke-width="0.78"/><line x1="19.281" y2="19.281" transform="translate(65.753)" fill="none" stroke="#d8d9da" stroke-miterlimit="10" stroke-width="0.78"/><line x1="19.281" y2="19.281" transform="translate(75.146)" fill="none" stroke="#d8d9da" stroke-miterlimit="10" stroke-width="0.78"/><line x1="19.281" y2="19.281" transform="translate(84.539)" fill="none" stroke="#d8d9da" stroke-miterlimit="10" stroke-width="0.78"/><line x1="19.281" y2="19.281" transform="translate(93.933)" fill="none" stroke="#d8d9da" stroke-miterlimit="10" stroke-width="0.78"/><line x1="19.281" y2="19.281" transform="translate(103.326)" fill="none" stroke="#d8d9da" stroke-miterlimit="10" stroke-width="0.78"/><line x1="19.281" y2="19.281" transform="translate(112.719)" fill="none" stroke="#d8d9da" stroke-miterlimit="10" stroke-width="0.78"/></g></g></g></g></svg>