<svg xmlns="http://www.w3.org/2000/svg" xmlns:xlink="http://www.w3.org/1999/xlink" width="295.276" height="202.427" viewBox="0 0 295.276 202.427"><defs><clipPath id="a"><path d="M609.655,1739.44v14.094H567.111V1739.44Z" transform="translate(-567.111 -1739.44)"/></clipPath><clipPath id="b"><path d="M-522.325,1226.476a1.784,1.784,0,0,0-1.7-1.132,1.784,1.784,0,0,0-1.7,1.132l-16.851,47.413h37.111l-16.851-47.413Z" transform="translate(542.585 -1225.344)"/></clipPath><clipPath id="g"><path d="M-626.939,2073.436a2.78,2.78,0,0,0,2.779,2.779h40.688a2.78,2.78,0,0,0,2.779-2.779,2.78,2.78,0,0,0-2.779-2.779H-624.16a2.78,2.78,0,0,0-2.779,2.779Z" transform="translate(626.939 -2070.657)"/></clipPath><clipPath id="n"><path d="M-454.811,1510.271h17.306l-1.975-5.558h-13.355l-1.975,5.558Zm-5.445,15.32h28.2l-1.975-5.557h-24.246l-1.975,5.557Z" transform="translate(460.256 -1504.713)"/></clipPath><clipPath id="o"><path d="M1794,1226.476a1.849,1.849,0,0,1,3.408,0l16.851,47.413h-37.111s12.264-34.507,16.851-47.413Z" transform="translate(-1777.148 -1225.344)"/></clipPath><clipPath id="t"><path d="M1739.039,2073.436a2.78,2.78,0,0,1-2.779,2.779h-40.688a2.779,2.779,0,1,1,0-5.558h40.688a2.78,2.78,0,0,1,2.779,2.779Z" transform="translate(-1692.794 -2070.657)"/></clipPath><clipPath id="aa"><path d="M1882.232,1510.271h-17.306l1.975-5.558h13.356l1.975,5.558Zm5.445,15.32h-28.2l1.975-5.557H1885.7l1.975,5.557Z" transform="translate(-1859.481 -1504.713)"/></clipPath><clipPath id="ab"><path d="M-720.749,1699.893a.892.892,0,0,0-.852-.566.892.892,0,0,0-.852.566l-8.426,23.707h18.555l-8.426-23.707Z" transform="translate(730.879 -1699.327)"/></clipPath><clipPath id="ag"><path d="M-773.056,2123.366a1.39,1.39,0,0,0,1.389,1.39h20.344a1.39,1.39,0,0,0,1.389-1.39,1.39,1.39,0,0,0-1.389-1.389h-20.344a1.39,1.39,0,0,0-1.389,1.389Z" transform="translate(773.056 -2121.977)"/></clipPath><clipPath id="an"><path d="M-686.991,1841.785h8.653l-.987-2.779H-686l-.988,2.779Zm-2.723,7.66h14.1l-.988-2.779h-12.123l-.988,2.779Z" transform="translate(689.714 -1839.006)"/></clipPath><clipPath id="ao"><path d="M2316.585,1699.893a.925.925,0,0,1,1.7,0l8.425,23.707h-18.555l8.426-23.707Z" transform="translate(-2308.159 -1699.327)"/></clipPath><clipPath id="at"><path d="M2289.109,2123.366a1.39,1.39,0,0,1-1.389,1.39h-20.344a1.389,1.389,0,0,1,0-2.779h20.344a1.39,1.39,0,0,1,1.389,1.389Z" transform="translate(-2265.986 -2121.977)"/></clipPath><clipPath id="ba"><path d="M2360.7,1841.785h-8.653l.988-2.779h6.677l.988,2.779Zm2.722,7.66h-14.1l.988-2.779h12.123l.987,2.779Z" transform="translate(-2349.32 -1839.006)"/></clipPath><clipPath id="bb"><path d="M-740.183,768.208c-7.271,0-12.49,5.732-11.6,12.862A15.147,15.147,0,0,0-737.1,793.931a11.349,11.349,0,0,0,11.6-12.862,15,15,0,0,0-14.677-12.862Z" transform="translate(751.881 -768.208)"/></clipPath><clipPath id="bc"><path d="M-367.414-639.911a8.621,8.621,0,0,0-8.882,9.849,11.6,11.6,0,0,0,11.24,9.849,8.691,8.691,0,0,0,8.882-9.849,11.489,11.489,0,0,0-11.24-9.849Z" transform="translate(376.372 639.911)"/></clipPath><clipPath id="bd"><path d="M2146.459,642.292c7.271,0,12.49,5.732,11.6,12.862a15.148,15.148,0,0,1-14.677,12.862,11.349,11.349,0,0,1-11.6-12.862,15,15,0,0,1,14.677-12.862Z" transform="translate(-2131.699 -642.292)"/></clipPath><clipPath id="be"><path d="M1821.909-701.639c7.271,0,12.49,5.732,11.6,12.862a15.147,15.147,0,0,1-14.677,12.862,11.349,11.349,0,0,1-11.6-12.862,15,15,0,0,1,14.677-12.862Z" transform="translate(-1807.149 701.639)"/></clipPath></defs><g transform="translate(-1019.724 -4687.487)"><g transform="translate(1171.538 4696.258)"><g transform="translate(6.006 4.897)"><path d="M66.133,0A66.132,66.132,0,1,1,0,66.132,66.132,66.132,0,0,1,66.133,0Z" transform="translate(0)" fill="#44a6f1" opacity="0.444" style="mix-blend-mode:multiply;isolation:isolate"/><g transform="translate(25.82 27.339)"><path d="M416.01,51.082a.9.9,0,1,1-.9-.858A.879.879,0,0,1,416.01,51.082Z" transform="translate(-414.214 -50.224)" fill="#44a6f1"/><path d="M424.456,51.082a.9.9,0,1,1-.9-.858A.879.879,0,0,1,424.456,51.082Z" transform="translate(-414.578 -50.224)" fill="#44a6f1"/><path d="M432.9,51.082a.9.9,0,1,1-.9-.858A.879.879,0,0,1,432.9,51.082Z" transform="translate(-414.943 -50.224)" fill="#44a6f1"/><path d="M441.349,51.082a.9.9,0,1,1-.9-.858A.879.879,0,0,1,441.349,51.082Z" transform="translate(-415.307 -50.224)" fill="#44a6f1"/><path d="M449.8,51.082a.9.9,0,1,1-.9-.858A.879.879,0,0,1,449.8,51.082Z" transform="translate(-415.671 -50.224)" fill="#44a6f1"/><path d="M458.241,51.082a.9.9,0,1,1-.9-.858A.879.879,0,0,1,458.241,51.082Z" transform="translate(-416.036 -50.224)" fill="#44a6f1"/><path d="M466.688,51.082a.9.9,0,1,1-.9-.858A.88.88,0,0,1,466.688,51.082Z" transform="translate(-416.4 -50.224)" fill="#44a6f1"/><path d="M475.134,51.082a.9.9,0,1,1-.9-.858A.879.879,0,0,1,475.134,51.082Z" transform="translate(-416.764 -50.224)" fill="#44a6f1"/><path d="M483.58,51.082a.9.9,0,1,1-.9-.858A.879.879,0,0,1,483.58,51.082Z" transform="translate(-417.128 -50.224)" fill="#44a6f1"/><path d="M492.027,51.082a.9.9,0,1,1-.9-.858A.88.88,0,0,1,492.027,51.082Z" transform="translate(-417.493 -50.224)" fill="#44a6f1"/><path d="M500.473,51.082a.9.9,0,1,1-.9-.858A.879.879,0,0,1,500.473,51.082Z" transform="translate(-417.857 -50.224)" fill="#44a6f1"/><g transform="translate(0 6.87)"><path d="M416.01,58.59a.9.9,0,1,1-.9-.858A.879.879,0,0,1,416.01,58.59Z" transform="translate(-414.214 -57.732)" fill="#44a6f1"/><path d="M424.456,58.59a.9.9,0,1,1-.9-.858A.879.879,0,0,1,424.456,58.59Z" transform="translate(-414.578 -57.732)" fill="#44a6f1"/><path d="M432.9,58.59a.9.9,0,1,1-.9-.858A.879.879,0,0,1,432.9,58.59Z" transform="translate(-414.943 -57.732)" fill="#44a6f1"/><path d="M441.349,58.59a.9.9,0,1,1-.9-.858A.879.879,0,0,1,441.349,58.59Z" transform="translate(-415.307 -57.732)" fill="#44a6f1"/><path d="M449.8,58.59a.9.9,0,1,1-.9-.858A.879.879,0,0,1,449.8,58.59Z" transform="translate(-415.671 -57.732)" fill="#44a6f1"/><path d="M458.241,58.59a.9.9,0,1,1-.9-.858A.879.879,0,0,1,458.241,58.59Z" transform="translate(-416.036 -57.732)" fill="#44a6f1"/><path d="M466.688,58.59a.9.9,0,1,1-.9-.858A.88.88,0,0,1,466.688,58.59Z" transform="translate(-416.4 -57.732)" fill="#44a6f1"/><path d="M475.134,58.59a.9.9,0,1,1-.9-.858A.879.879,0,0,1,475.134,58.59Z" transform="translate(-416.764 -57.732)" fill="#44a6f1"/><path d="M483.58,58.59a.9.9,0,1,1-.9-.858A.879.879,0,0,1,483.58,58.59Z" transform="translate(-417.128 -57.732)" fill="#44a6f1"/><path d="M492.027,58.59a.9.9,0,1,1-.9-.858A.88.88,0,0,1,492.027,58.59Z" transform="translate(-417.493 -57.732)" fill="#44a6f1"/><path d="M500.473,58.59a.9.9,0,1,1-.9-.858A.879.879,0,0,1,500.473,58.59Z" transform="translate(-417.857 -57.732)" fill="#44a6f1"/></g><g transform="translate(0 13.741)"><ellipse cx="0.898" cy="0.859" rx="0.898" ry="0.859" fill="#44a6f1"/><path d="M424.456,66.1a.9.9,0,1,1-.9-.858A.879.879,0,0,1,424.456,66.1Z" transform="translate(-414.578 -65.24)" fill="#44a6f1"/><ellipse cx="0.898" cy="0.859" rx="0.898" ry="0.859" transform="translate(16.164)" fill="#44a6f1"/><path d="M441.349,66.1a.9.9,0,1,1-.9-.858A.88.88,0,0,1,441.349,66.1Z" transform="translate(-415.307 -65.24)" fill="#44a6f1"/><path d="M449.8,66.1a.9.9,0,1,1-.9-.858A.879.879,0,0,1,449.8,66.1Z" transform="translate(-415.671 -65.24)" fill="#44a6f1"/><ellipse cx="0.898" cy="0.859" rx="0.898" ry="0.859" transform="translate(40.41)" fill="#44a6f1"/><path d="M466.688,66.1a.9.9,0,1,1-.9-.858A.88.88,0,0,1,466.688,66.1Z" transform="translate(-416.4 -65.24)" fill="#44a6f1"/><ellipse cx="0.898" cy="0.859" rx="0.898" ry="0.859" transform="translate(56.574)" fill="#44a6f1"/><ellipse cx="0.898" cy="0.859" rx="0.898" ry="0.859" transform="translate(64.656)" fill="#44a6f1"/><path d="M492.027,66.1a.9.9,0,1,1-.9-.858A.88.88,0,0,1,492.027,66.1Z" transform="translate(-417.492 -65.24)" fill="#44a6f1"/><path d="M500.473,66.1a.9.9,0,1,1-.9-.858A.88.88,0,0,1,500.473,66.1Z" transform="translate(-417.857 -65.24)" fill="#44a6f1"/></g><g transform="translate(0 20.61)"><ellipse cx="0.898" cy="0.859" rx="0.898" ry="0.859" transform="translate(0 0)" fill="#44a6f1"/><path d="M424.456,73.606a.9.9,0,1,1-.9-.859A.878.878,0,0,1,424.456,73.606Z" transform="translate(-414.578 -72.747)" fill="#44a6f1"/><ellipse cx="0.898" cy="0.859" rx="0.898" ry="0.859" transform="translate(16.164 0)" fill="#44a6f1"/><path d="M441.349,73.606a.9.9,0,1,1-.9-.859A.879.879,0,0,1,441.349,73.606Z" transform="translate(-415.307 -72.747)" fill="#44a6f1"/><path d="M449.8,73.606a.9.9,0,1,1-.9-.859A.879.879,0,0,1,449.8,73.606Z" transform="translate(-415.671 -72.747)" fill="#44a6f1"/><ellipse cx="0.898" cy="0.859" rx="0.898" ry="0.859" transform="translate(40.41 0)" fill="#44a6f1"/><path d="M466.688,73.606a.9.9,0,1,1-.9-.859A.879.879,0,0,1,466.688,73.606Z" transform="translate(-416.4 -72.747)" fill="#44a6f1"/><ellipse cx="0.898" cy="0.859" rx="0.898" ry="0.859" transform="translate(56.574 0)" fill="#44a6f1"/><ellipse cx="0.898" cy="0.859" rx="0.898" ry="0.859" transform="translate(64.656 0)" fill="#44a6f1"/><path d="M492.027,73.606a.9.9,0,1,1-.9-.859A.879.879,0,0,1,492.027,73.606Z" transform="translate(-417.492 -72.747)" fill="#44a6f1"/><path d="M500.473,73.606a.9.9,0,1,1-.9-.859A.879.879,0,0,1,500.473,73.606Z" transform="translate(-417.857 -72.747)" fill="#44a6f1"/></g><g transform="translate(0 27.48)"><path d="M416.01,81.114a.9.9,0,1,1-.9-.859A.879.879,0,0,1,416.01,81.114Z" transform="translate(-414.214 -80.255)" fill="#44a6f1"/><path d="M424.456,81.114a.9.9,0,1,1-.9-.859A.878.878,0,0,1,424.456,81.114Z" transform="translate(-414.578 -80.255)" fill="#44a6f1"/><path d="M432.9,81.114a.9.9,0,1,1-.9-.859A.879.879,0,0,1,432.9,81.114Z" transform="translate(-414.943 -80.255)" fill="#44a6f1"/><path d="M441.349,81.114a.9.9,0,1,1-.9-.859A.879.879,0,0,1,441.349,81.114Z" transform="translate(-415.307 -80.255)" fill="#44a6f1"/><path d="M449.8,81.114a.9.9,0,1,1-.9-.859A.879.879,0,0,1,449.8,81.114Z" transform="translate(-415.671 -80.255)" fill="#44a6f1"/><path d="M458.241,81.114a.9.9,0,1,1-.9-.859A.879.879,0,0,1,458.241,81.114Z" transform="translate(-416.036 -80.255)" fill="#44a6f1"/><path d="M466.688,81.114a.9.9,0,1,1-.9-.859A.879.879,0,0,1,466.688,81.114Z" transform="translate(-416.4 -80.255)" fill="#44a6f1"/><path d="M475.134,81.114a.9.9,0,1,1-.9-.859A.879.879,0,0,1,475.134,81.114Z" transform="translate(-416.764 -80.255)" fill="#44a6f1"/><path d="M483.58,81.114a.9.9,0,1,1-.9-.859A.879.879,0,0,1,483.58,81.114Z" transform="translate(-417.128 -80.255)" fill="#44a6f1"/><path d="M492.027,81.114a.9.9,0,1,1-.9-.859A.879.879,0,0,1,492.027,81.114Z" transform="translate(-417.493 -80.255)" fill="#44a6f1"/><path d="M500.473,81.114a.9.9,0,1,1-.9-.859A.879.879,0,0,1,500.473,81.114Z" transform="translate(-417.857 -80.255)" fill="#44a6f1"/></g><g transform="translate(0 34.351)"><ellipse cx="0.898" cy="0.859" rx="0.898" ry="0.859" transform="translate(0 0)" fill="#44a6f1"/><path d="M424.456,88.622a.9.9,0,1,1-.9-.859A.878.878,0,0,1,424.456,88.622Z" transform="translate(-414.578 -87.763)" fill="#44a6f1"/><ellipse cx="0.898" cy="0.859" rx="0.898" ry="0.859" transform="translate(16.164 0)" fill="#44a6f1"/><path d="M441.349,88.622a.9.9,0,1,1-.9-.859A.879.879,0,0,1,441.349,88.622Z" transform="translate(-415.307 -87.763)" fill="#44a6f1"/><path d="M449.8,88.622a.9.9,0,1,1-.9-.859A.879.879,0,0,1,449.8,88.622Z" transform="translate(-415.671 -87.763)" fill="#44a6f1"/><ellipse cx="0.898" cy="0.859" rx="0.898" ry="0.859" transform="translate(40.41 0)" fill="#44a6f1"/><path d="M466.688,88.622a.9.9,0,1,1-.9-.859A.879.879,0,0,1,466.688,88.622Z" transform="translate(-416.4 -87.763)" fill="#44a6f1"/><ellipse cx="0.898" cy="0.859" rx="0.898" ry="0.859" transform="translate(56.574 0)" fill="#44a6f1"/><ellipse cx="0.898" cy="0.859" rx="0.898" ry="0.859" transform="translate(64.656 0)" fill="#44a6f1"/><path d="M492.027,88.622a.9.9,0,1,1-.9-.859A.879.879,0,0,1,492.027,88.622Z" transform="translate(-417.492 -87.763)" fill="#44a6f1"/><path d="M500.473,88.622a.9.9,0,1,1-.9-.859A.879.879,0,0,1,500.473,88.622Z" transform="translate(-417.857 -87.763)" fill="#44a6f1"/></g><g transform="translate(0 41.221)"><ellipse cx="0.898" cy="0.859" rx="0.898" ry="0.859" fill="#44a6f1"/><path d="M424.456,96.129a.9.9,0,1,1-.9-.858A.879.879,0,0,1,424.456,96.129Z" transform="translate(-414.578 -95.271)" fill="#44a6f1"/><ellipse cx="0.898" cy="0.859" rx="0.898" ry="0.859" transform="translate(16.164)" fill="#44a6f1"/><path d="M441.349,96.129a.9.9,0,1,1-.9-.858A.879.879,0,0,1,441.349,96.129Z" transform="translate(-415.307 -95.271)" fill="#44a6f1"/><path d="M449.8,96.129a.9.9,0,1,1-.9-.858A.879.879,0,0,1,449.8,96.129Z" transform="translate(-415.671 -95.271)" fill="#44a6f1"/><ellipse cx="0.898" cy="0.859" rx="0.898" ry="0.859" transform="translate(40.41)" fill="#44a6f1"/><path d="M466.688,96.129a.9.9,0,1,1-.9-.858A.88.88,0,0,1,466.688,96.129Z" transform="translate(-416.4 -95.271)" fill="#44a6f1"/><ellipse cx="0.898" cy="0.859" rx="0.898" ry="0.859" transform="translate(56.574)" fill="#44a6f1"/><ellipse cx="0.898" cy="0.859" rx="0.898" ry="0.859" transform="translate(64.656)" fill="#44a6f1"/><path d="M492.027,96.129a.9.9,0,1,1-.9-.858A.88.88,0,0,1,492.027,96.129Z" transform="translate(-417.492 -95.271)" fill="#44a6f1"/><path d="M500.473,96.129a.9.9,0,1,1-.9-.858A.879.879,0,0,1,500.473,96.129Z" transform="translate(-417.857 -95.271)" fill="#44a6f1"/></g><g transform="translate(0 48.091)"><path d="M416.01,103.637a.9.9,0,1,1-.9-.858A.879.879,0,0,1,416.01,103.637Z" transform="translate(-414.214 -102.779)" fill="#44a6f1"/><path d="M424.456,103.637a.9.9,0,1,1-.9-.858A.879.879,0,0,1,424.456,103.637Z" transform="translate(-414.578 -102.779)" fill="#44a6f1"/><path d="M432.9,103.637a.9.9,0,1,1-.9-.858A.879.879,0,0,1,432.9,103.637Z" transform="translate(-414.943 -102.779)" fill="#44a6f1"/><path d="M441.349,103.637a.9.9,0,1,1-.9-.858A.879.879,0,0,1,441.349,103.637Z" transform="translate(-415.307 -102.779)" fill="#44a6f1"/><path d="M449.8,103.637a.9.9,0,1,1-.9-.858A.879.879,0,0,1,449.8,103.637Z" transform="translate(-415.671 -102.779)" fill="#44a6f1"/><path d="M458.241,103.637a.9.9,0,1,1-.9-.858A.879.879,0,0,1,458.241,103.637Z" transform="translate(-416.036 -102.779)" fill="#44a6f1"/><path d="M466.688,103.637a.9.9,0,1,1-.9-.858A.88.88,0,0,1,466.688,103.637Z" transform="translate(-416.4 -102.779)" fill="#44a6f1"/><path d="M475.134,103.637a.9.9,0,1,1-.9-.858A.879.879,0,0,1,475.134,103.637Z" transform="translate(-416.764 -102.779)" fill="#44a6f1"/><path d="M483.58,103.637a.9.9,0,1,1-.9-.858A.879.879,0,0,1,483.58,103.637Z" transform="translate(-417.128 -102.779)" fill="#44a6f1"/><path d="M492.027,103.637a.9.9,0,1,1-.9-.858A.88.88,0,0,1,492.027,103.637Z" transform="translate(-417.493 -102.779)" fill="#44a6f1"/><path d="M500.473,103.637a.9.9,0,1,1-.9-.858A.879.879,0,0,1,500.473,103.637Z" transform="translate(-417.857 -102.779)" fill="#44a6f1"/></g><g transform="translate(0 54.962)"><ellipse cx="0.898" cy="0.859" rx="0.898" ry="0.859" fill="#44a6f1"/><path d="M424.456,111.145a.9.9,0,1,1-.9-.858A.879.879,0,0,1,424.456,111.145Z" transform="translate(-414.578 -110.287)" fill="#44a6f1"/><ellipse cx="0.898" cy="0.859" rx="0.898" ry="0.859" transform="translate(16.164)" fill="#44a6f1"/><path d="M441.349,111.145a.9.9,0,1,1-.9-.858A.88.88,0,0,1,441.349,111.145Z" transform="translate(-415.307 -110.287)" fill="#44a6f1"/><path d="M449.8,111.145a.9.9,0,1,1-.9-.858A.879.879,0,0,1,449.8,111.145Z" transform="translate(-415.671 -110.287)" fill="#44a6f1"/><ellipse cx="0.898" cy="0.859" rx="0.898" ry="0.859" transform="translate(40.41)" fill="#44a6f1"/><path d="M466.688,111.145a.9.9,0,1,1-.9-.858A.88.88,0,0,1,466.688,111.145Z" transform="translate(-416.4 -110.287)" fill="#44a6f1"/><ellipse cx="0.898" cy="0.859" rx="0.898" ry="0.859" transform="translate(56.574)" fill="#44a6f1"/><ellipse cx="0.898" cy="0.859" rx="0.898" ry="0.859" transform="translate(64.656)" fill="#44a6f1"/><path d="M492.027,111.145a.9.9,0,1,1-.9-.858A.88.88,0,0,1,492.027,111.145Z" transform="translate(-417.492 -110.287)" fill="#44a6f1"/><path d="M500.473,111.145a.9.9,0,1,1-.9-.858A.88.88,0,0,1,500.473,111.145Z" transform="translate(-417.857 -110.287)" fill="#44a6f1"/></g><g transform="translate(0 61.831)"><path d="M416.01,118.653a.9.9,0,1,1-.9-.859A.88.88,0,0,1,416.01,118.653Z" transform="translate(-414.214 -117.794)" fill="#44a6f1"/><path d="M424.456,118.653a.9.9,0,1,1-.9-.859A.879.879,0,0,1,424.456,118.653Z" transform="translate(-414.578 -117.794)" fill="#44a6f1"/><path d="M432.9,118.653a.9.9,0,1,1-.9-.859A.879.879,0,0,1,432.9,118.653Z" transform="translate(-414.943 -117.794)" fill="#44a6f1"/><path d="M441.349,118.653a.9.9,0,1,1-.9-.859A.88.88,0,0,1,441.349,118.653Z" transform="translate(-415.307 -117.794)" fill="#44a6f1"/><path d="M449.8,118.653a.9.9,0,1,1-.9-.859A.879.879,0,0,1,449.8,118.653Z" transform="translate(-415.671 -117.794)" fill="#44a6f1"/><path d="M458.241,118.653a.9.9,0,1,1-.9-.859A.879.879,0,0,1,458.241,118.653Z" transform="translate(-416.036 -117.794)" fill="#44a6f1"/><path d="M466.688,118.653a.9.9,0,1,1-.9-.859A.88.88,0,0,1,466.688,118.653Z" transform="translate(-416.4 -117.794)" fill="#44a6f1"/><path d="M475.134,118.653a.9.9,0,1,1-.9-.859A.879.879,0,0,1,475.134,118.653Z" transform="translate(-416.764 -117.794)" fill="#44a6f1"/><path d="M483.58,118.653a.9.9,0,1,1-.9-.859A.88.88,0,0,1,483.58,118.653Z" transform="translate(-417.128 -117.794)" fill="#44a6f1"/><path d="M492.027,118.653a.9.9,0,1,1-.9-.859A.88.88,0,0,1,492.027,118.653Z" transform="translate(-417.493 -117.794)" fill="#44a6f1"/><path d="M500.473,118.653a.9.9,0,1,1-.9-.859A.88.88,0,0,1,500.473,118.653Z" transform="translate(-417.857 -117.794)" fill="#44a6f1"/></g><g transform="translate(0 68.701)"><ellipse cx="0.898" cy="0.859" rx="0.898" ry="0.859" transform="translate(0 0)" fill="#44a6f1"/><path d="M424.456,126.161a.9.9,0,1,1-.9-.859A.878.878,0,0,1,424.456,126.161Z" transform="translate(-414.578 -125.302)" fill="#44a6f1"/><ellipse cx="0.898" cy="0.859" rx="0.898" ry="0.859" transform="translate(16.164 0)" fill="#44a6f1"/><path d="M441.349,126.161a.9.9,0,1,1-.9-.859A.879.879,0,0,1,441.349,126.161Z" transform="translate(-415.307 -125.302)" fill="#44a6f1"/><path d="M449.8,126.161a.9.9,0,1,1-.9-.859A.879.879,0,0,1,449.8,126.161Z" transform="translate(-415.671 -125.302)" fill="#44a6f1"/><ellipse cx="0.898" cy="0.859" rx="0.898" ry="0.859" transform="translate(40.41 0)" fill="#44a6f1"/><path d="M466.688,126.161a.9.9,0,1,1-.9-.859A.879.879,0,0,1,466.688,126.161Z" transform="translate(-416.4 -125.302)" fill="#44a6f1"/><ellipse cx="0.898" cy="0.859" rx="0.898" ry="0.859" transform="translate(56.574 0)" fill="#44a6f1"/><ellipse cx="0.898" cy="0.859" rx="0.898" ry="0.859" transform="translate(64.656 0)" fill="#44a6f1"/><path d="M492.027,126.161a.9.9,0,1,1-.9-.859A.879.879,0,0,1,492.027,126.161Z" transform="translate(-417.492 -125.302)" fill="#44a6f1"/><path d="M500.473,126.161a.9.9,0,1,1-.9-.859A.879.879,0,0,1,500.473,126.161Z" transform="translate(-417.857 -125.302)" fill="#44a6f1"/></g><g transform="translate(0 75.572)"><ellipse cx="0.898" cy="0.859" rx="0.898" ry="0.859" transform="translate(0 0)" fill="#44a6f1"/><path d="M424.456,133.669a.9.9,0,1,1-.9-.859A.878.878,0,0,1,424.456,133.669Z" transform="translate(-414.578 -132.81)" fill="#44a6f1"/><ellipse cx="0.898" cy="0.859" rx="0.898" ry="0.859" transform="translate(16.164 0)" fill="#44a6f1"/><path d="M441.349,133.669a.9.9,0,1,1-.9-.859A.879.879,0,0,1,441.349,133.669Z" transform="translate(-415.307 -132.81)" fill="#44a6f1"/><path d="M449.8,133.669a.9.9,0,1,1-.9-.859A.879.879,0,0,1,449.8,133.669Z" transform="translate(-415.671 -132.81)" fill="#44a6f1"/><ellipse cx="0.898" cy="0.859" rx="0.898" ry="0.859" transform="translate(40.41 0)" fill="#44a6f1"/><path d="M466.688,133.669a.9.9,0,1,1-.9-.859A.879.879,0,0,1,466.688,133.669Z" transform="translate(-416.4 -132.81)" fill="#44a6f1"/><ellipse cx="0.898" cy="0.859" rx="0.898" ry="0.859" transform="translate(56.574 0)" fill="#44a6f1"/><ellipse cx="0.898" cy="0.859" rx="0.898" ry="0.859" transform="translate(64.656 0)" fill="#44a6f1"/><path d="M492.027,133.669a.9.9,0,1,1-.9-.859A.879.879,0,0,1,492.027,133.669Z" transform="translate(-417.492 -132.81)" fill="#44a6f1"/><path d="M500.473,133.669a.9.9,0,1,1-.9-.859A.879.879,0,0,1,500.473,133.669Z" transform="translate(-417.857 -132.81)" fill="#44a6f1"/></g></g></g><g fill="none" stroke="#44a6f1" stroke-linecap="round" stroke-width="1" stroke-dasharray="5"><circle cx="71.731" cy="71.731" r="71.731" stroke="none"/><circle cx="71.731" cy="71.731" r="71.231" fill="none"/></g></g><g transform="translate(-3575.635 12401.105)"><path d="M-329.783-109.763a2.973,2.973,0,0,1,2.973,2.973v94.174a2.973,2.973,0,0,1-2.973,2.972H-480.1a2.972,2.972,0,0,1-2.972-2.972V-106.79a2.973,2.973,0,0,1,2.972-2.973Z" transform="translate(5132.043 -7543.603)" fill="#68a4cf" stroke="#3479a8" stroke-linecap="round" stroke-linejoin="round" stroke-miterlimit="10" stroke-width="1" fill-rule="evenodd"/><path d="M-483.072-24.473V-106.79a2.972,2.972,0,0,1,2.972-2.973h150.316a2.972,2.972,0,0,1,2.972,2.973v82.317H-483.072Z" transform="translate(5132.043 -7543.603)" fill="#2a5370" stroke="#3479a8" stroke-linecap="round" stroke-linejoin="round" stroke-miterlimit="10" stroke-width="1" fill-rule="evenodd"/><path d="M-346.307,99.658V24.573a2.917,2.917,0,0,1,2.691-3.1h136.07a2.917,2.917,0,0,1,2.691,3.1V99.657H-346.307Z" transform="translate(5002.684 -7667.734)" fill="#14344a" stroke="#3479a8" stroke-linecap="round" stroke-linejoin="round" stroke-miterlimit="10" stroke-width="1" fill-rule="evenodd"/><path d="M609.655,1739.44v14.094H567.111V1739.44Z" transform="translate(4138.719 -9292.687)" fill="#5187ad" stroke="#707070" stroke-width="1" fill-rule="evenodd"/><g transform="translate(4705.831 -7553.247)"><g clip-path="url(#a)"><path d="M588.383,1739.44h21.272v14.094H567.111l32.9-2.506a4.684,4.684,0,0,0,4.326-4.515c.006-.183.012-.365.018-.544a3.519,3.519,0,0,0-2.744-3.55l-13.232-2.979" transform="translate(-567.111 -1739.44)" fill="#487493" fill-rule="evenodd"/></g></g><path d="M609.655,1739.44v14.094H567.111V1739.44Z" transform="translate(4138.719 -9292.687)" fill="none" stroke="#3479a8" stroke-linecap="round" stroke-linejoin="round" stroke-miterlimit="10" stroke-width="1"/><path d="M269.912,1999.76a9.4,9.4,0,0,1,9.4,9.4H196.65a9.4,9.4,0,0,1,9.4-9.4Z" transform="translate(4489.123 -9538.912)" fill="#68a4cf" stroke="#3479a8" stroke-linecap="round" stroke-linejoin="round" stroke-miterlimit="10" stroke-width="1" fill-rule="evenodd"/><path d="M-139.419-356.955v67.776a11.371,11.371,0,0,1-11.366,11.366H-261.558a11.371,11.371,0,0,1-11.366-11.366v-67.776a11.371,11.371,0,0,1,11.366-11.366h110.774a11.371,11.371,0,0,1,11.365,11.366Z" transform="translate(4933.273 -7299.044)" fill="#ddf0ff" stroke="#3479a8" stroke-linecap="round" stroke-linejoin="round" stroke-miterlimit="10" stroke-width="1" fill-rule="evenodd"/><path d="M1507-253.368a2.505,2.505,0,0,1-2.5,2.5h-5.221a2.506,2.506,0,0,1-2.5-2.5,2.506,2.506,0,0,1,2.5-2.5h5.221a2.505,2.505,0,0,1,2.5,2.5Z" transform="translate(3259.395 -7405.404)" fill="#7cabea" stroke="#3479a8" stroke-linecap="round" stroke-linejoin="round" stroke-miterlimit="10" stroke-width="1" fill-rule="evenodd"/><path d="M1779.148-253.368a2.505,2.505,0,0,1-2.5,2.5h-5.221a2.505,2.505,0,0,1-2.5-2.5,2.505,2.505,0,0,1,2.5-2.5h5.221a2.505,2.505,0,0,1,2.5,2.5Z" transform="translate(3001.979 -7405.404)" fill="#e9423f" stroke="#3479a8" stroke-linecap="round" stroke-linejoin="round" stroke-miterlimit="10" stroke-width="1" fill-rule="evenodd"/><path d="M317.891,254.08a2.505,2.505,0,0,1-2.5,2.5H242.422a2.5,2.5,0,1,1,0-5.008h72.965a2.505,2.505,0,0,1,2.5,2.5Z" transform="translate(4448.198 -7885.378)" fill="#82c7f5" stroke="#3479a8" stroke-linecap="round" stroke-linejoin="round" stroke-miterlimit="10" stroke-width="1" fill-rule="evenodd"/><path d="M194.041,445.762a2.505,2.505,0,0,1-2.5,2.5h-88a2.5,2.5,0,0,1,0-5.009h88a2.505,2.505,0,0,1,2.5,2.5Z" transform="translate(4579.568 -8066.682)" fill="#82a9f5" stroke="#3479a8" stroke-linecap="round" stroke-linejoin="round" stroke-miterlimit="10" stroke-width="1" fill-rule="evenodd"/><path d="M577.021,632.165a2.505,2.505,0,0,1-2.5,2.5h-41.5a2.5,2.5,0,1,1,0-5.008h41.5a2.506,2.506,0,0,1,2.5,2.5Z" transform="translate(4173.335 -8242.992)" fill="#82c7f5" stroke="#3479a8" stroke-linecap="round" stroke-linejoin="round" stroke-miterlimit="10" stroke-width="1" fill-rule="evenodd"/><path d="M577.021,1010.25a2.505,2.505,0,0,1-2.5,2.5h-41.5a2.5,2.5,0,1,1,0-5.009h41.5a2.506,2.506,0,0,1,2.5,2.5Z" transform="translate(4173.335 -8600.608)" fill="#82c7f5" stroke="#3479a8" stroke-linecap="round" stroke-linejoin="round" stroke-miterlimit="10" stroke-width="1" fill-rule="evenodd"/><path d="M174.236,818.569a2.505,2.505,0,0,1-2.5,2.5H81.322a2.5,2.5,0,0,1,0-5.008h90.409a2.505,2.505,0,0,1,2.5,2.5Z" transform="translate(4600.575 -8419.304)" fill="#82a9f5" stroke="#3479a8" stroke-linecap="round" stroke-linejoin="round" stroke-miterlimit="10" stroke-width="1" fill-rule="evenodd"/><path d="M1081.055-1200.689v21.257a9.9,9.9,0,0,1-10.045,9.744,9.9,9.9,0,0,1-10.045-9.744v-5.974h-1.519l4.183-5.5v11.476a7.276,7.276,0,0,0,7.38,7.16,7.276,7.276,0,0,0,7.38-7.16v-21.254a6.476,6.476,0,0,1-5.291-6.289,6.523,6.523,0,0,1,6.616-6.419,6.523,6.523,0,0,1,6.616,6.419,6.477,6.477,0,0,1-5.277,6.287Zm-1.34-9.5a3.261,3.261,0,0,0-3.308,3.209,3.261,3.261,0,0,0,3.308,3.209,3.262,3.262,0,0,0,3.308-3.209,3.262,3.262,0,0,0-3.308-3.209Z" transform="translate(3673.039 -6499.725)" fill="#4687bb" stroke="#3479a8" stroke-linejoin="round" stroke-miterlimit="10" stroke-width="1" fill-rule="evenodd"/><path d="M452.29-889.043c16.04,0,29.062,12.633,29.062,28.193s-13.022,28.193-29.062,28.193-29.062-12.633-29.062-28.193,13.022-28.193,29.062-28.193Z" transform="translate(4274.812 -6806.515)" fill="#5f99c7" stroke="#3479a8" stroke-linecap="round" stroke-linejoin="round" stroke-miterlimit="10" stroke-width="1" fill-rule="evenodd"/><path d="M568.854-769.491c12.357,0,22.39,9.732,22.39,21.72s-10.032,21.72-22.39,21.72-22.39-9.732-22.39-21.72,10.032-21.72,22.39-21.72Z" transform="translate(4158.247 -6919.593)" fill="#a2d2f7" stroke="#3479a8" stroke-linecap="round" stroke-linejoin="round" stroke-miterlimit="10" stroke-width="1" fill-rule="evenodd"/><path d="M717.189-431.571a5.865,5.865,0,0,0-.531-5.679,6.257,6.257,0,0,0-5.177-2.7H694.466a6.257,6.257,0,0,0-5.177,2.7,5.865,5.865,0,0,0-.531,5.679l3.659,8.325a6.212,6.212,0,0,0,5.708,3.659h9.7a6.212,6.212,0,0,0,5.708-3.659c1.02-2.321,2.384-5.424,3.659-8.325Z" transform="translate(4024.128 -7231.292)" fill="#fff" stroke="#3479a8" stroke-linecap="round" stroke-linejoin="round" stroke-miterlimit="10" stroke-width="1" fill-rule="evenodd"/><path d="M859.88-672.8a5.65,5.65,0,0,1,5.731,5.559,5.65,5.65,0,0,1-5.731,5.56,5.65,5.65,0,0,1-5.731-5.56,5.65,5.65,0,0,1,5.731-5.559Z" transform="translate(3867.222 -7011.052)" fill="#fff" stroke="#3479a8" stroke-linecap="round" stroke-linejoin="round" stroke-miterlimit="10" stroke-width="1" fill-rule="evenodd"/><path d="M1272.114-479.064a2.21,2.21,0,0,1,1.85,2.442,2.21,2.21,0,0,1-1.85,2.442,2.21,2.21,0,0,1-1.85-2.442,2.21,2.21,0,0,1,1.85-2.442Z" transform="translate(3473.637 -7194.296)" fill="#7b4496" stroke="#3479a8" stroke-linecap="round" stroke-linejoin="round" stroke-miterlimit="10" stroke-width="1" fill-rule="evenodd"/><path d="M1072.89-776.774a10.384,10.384,0,0,1-1.879.17,9.9,9.9,0,0,1-10.045-9.744v-5.974h-1.518l4.183-5.5v11.476a7.276,7.276,0,0,0,7.38,7.16,7.593,7.593,0,0,0,1.879-.235,1.831,1.831,0,0,1,0,2.649Z" transform="translate(3673.039 -6892.794)" fill="#4687bb" stroke="#3479a8" stroke-linejoin="round" stroke-miterlimit="10" stroke-width="1" fill-rule="evenodd"/><path d="M-522.325,1226.476a1.784,1.784,0,0,0-1.7-1.132,1.784,1.784,0,0,0-1.7,1.132l-16.851,47.413h37.111l-16.851-47.413Z" transform="translate(5188.334 -8806.425)" fill="#e52f25" stroke="#707070" stroke-width="1" fill-rule="evenodd"/><g transform="translate(4645.75 -7581.081)"><g transform="translate(0)" clip-path="url(#b)"><path d="M-936.645,1096.34c-14.655,0-26.554,12.441-26.554,27.765s11.9,27.765,26.554,27.765,26.554-12.441,26.554-27.765-11.9-27.765-26.554-27.765Z" transform="translate(940.426 -1103.325)" fill="#e8453c" fill-rule="evenodd"/></g><g transform="translate(0)" clip-path="url(#b)"><path d="M-1006.483,1023.85c-14.656,0-26.554,12.441-26.554,27.765s11.9,27.765,26.554,27.765,26.554-12.441,26.554-27.765-11.9-27.765-26.554-27.765Z" transform="translate(1006.483 -1034.759)" fill="#ea564e" fill-rule="evenodd"/></g><g transform="translate(0)" clip-path="url(#b)"><path d="M-1092.124,943.254c-14.656,0-26.554,12.441-26.554,27.765s11.9,27.765,26.554,27.765,26.554-12.441,26.554-27.765-11.9-27.765-26.554-27.765Z" transform="translate(1087.487 -958.527)" fill="#ec655e" fill-rule="evenodd"/></g><g transform="translate(0)" clip-path="url(#b)"><path d="M-1154.216,876.409c-14.656,0-26.554,12.441-26.554,27.765s11.9,27.765,26.554,27.765,26.554-12.441,26.554-27.765-11.9-27.765-26.554-27.765Z" transform="translate(1146.218 -895.301)" fill="#ee7670" fill-rule="evenodd"/></g><g transform="translate(0)" clip-path="url(#b)"><path d="M-506.777,1166.661-493.645,1207a2.341,2.341,0,0,1-.365,2.139,2.817,2.817,0,0,1-2.044,1.092l-28.291,2.2h35.136l-8.915-49.126-8.653,3.359" transform="translate(525.333 -1166.662)" fill="#c6261d" fill-rule="evenodd"/></g></g><path d="M-522.325,1226.476a1.784,1.784,0,0,0-1.7-1.132,1.784,1.784,0,0,0-1.7,1.132l-16.851,47.413h37.111l-16.851-47.413Z" transform="translate(5188.334 -8806.425)" fill="none" stroke="#3479a8" stroke-linecap="round" stroke-linejoin="round" stroke-miterlimit="10" stroke-width="1"/><path d="M-626.939,2073.436a2.78,2.78,0,0,0,2.779,2.779h40.688a2.78,2.78,0,0,0,2.779-2.779,2.78,2.78,0,0,0-2.779-2.779H-624.16a2.78,2.78,0,0,0-2.779,2.779Z" transform="translate(5268.121 -9605.972)" fill="#e52f25" stroke="#707070" stroke-width="1" fill-rule="evenodd"/><g transform="translate(4641.182 -7535.313)"><g transform="translate(0)" clip-path="url(#g)"><path d="M-690.318,2073.436a2.78,2.78,0,0,0,2.779,2.779h40.688a2.78,2.78,0,0,0,2.779-2.779,2.78,2.78,0,0,0-2.779-2.779h-40.688a2.78,2.78,0,0,0-2.779,2.779Z" transform="translate(686.887 -2070.657)" fill="#e6382f" fill-rule="evenodd"/></g><g transform="translate(0)" clip-path="url(#g)"><path d="M-789.168,2073.436a2.78,2.78,0,0,0,2.779,2.779H-745.7a2.78,2.78,0,0,0,2.779-2.779,2.78,2.78,0,0,0-2.779-2.779h-40.688a2.78,2.78,0,0,0-2.779,2.779Z" transform="translate(780.385 -2070.657)" fill="#e8443b" fill-rule="evenodd"/></g><g transform="translate(0)" clip-path="url(#g)"><path d="M-888.019,2073.436a2.78,2.78,0,0,0,2.779,2.779h40.688a2.78,2.78,0,0,0,2.779-2.779,2.78,2.78,0,0,0-2.779-2.779H-885.24a2.78,2.78,0,0,0-2.779,2.779Z" transform="translate(873.884 -2070.657)" fill="#e9524a" fill-rule="evenodd"/></g><g transform="translate(0)" clip-path="url(#g)"><path d="M-986.869,2073.436a2.78,2.78,0,0,0,2.779,2.779H-943.4a2.78,2.78,0,0,0,2.779-2.779,2.78,2.78,0,0,0-2.779-2.779H-984.09a2.78,2.78,0,0,0-2.779,2.779Z" transform="translate(967.382 -2070.657)" fill="#eb5d55" fill-rule="evenodd"/></g><g transform="translate(0)" clip-path="url(#g)"><path d="M-1085.72,2073.436a2.78,2.78,0,0,0,2.779,2.779h40.688a2.78,2.78,0,0,0,2.779-2.779,2.78,2.78,0,0,0-2.779-2.779h-40.687a2.78,2.78,0,0,0-2.779,2.779Z" transform="translate(1060.881 -2070.657)" fill="#ec645c" fill-rule="evenodd"/></g><g transform="translate(0)" clip-path="url(#g)"><path d="M-1184.57,2073.436a2.78,2.78,0,0,0,2.779,2.779h40.688a2.78,2.78,0,0,0,2.779-2.779,2.78,2.78,0,0,0-2.779-2.779h-40.688a2.78,2.78,0,0,0-2.779,2.779Z" transform="translate(1154.379 -2070.657)" fill="#ed7069" fill-rule="evenodd"/></g><g transform="translate(0)" clip-path="url(#g)"><path d="M-1283.42,2073.436a2.78,2.78,0,0,0,2.779,2.779h40.687a2.78,2.78,0,0,0,2.779-2.779,2.78,2.78,0,0,0-2.779-2.779h-40.687a2.78,2.78,0,0,0-2.779,2.779Z" transform="translate(1247.877 -2070.657)" fill="#ee7b74" fill-rule="evenodd"/></g></g><path d="M-626.939,2073.436a2.78,2.78,0,0,0,2.779,2.779h40.688a2.78,2.78,0,0,0,2.779-2.779,2.78,2.78,0,0,0-2.779-2.779H-624.16a2.78,2.78,0,0,0-2.779,2.779Z" transform="translate(5268.121 -9605.972)" fill="none" stroke="#3479a8" stroke-linecap="round" stroke-linejoin="round" stroke-miterlimit="10" stroke-width="1"/><path d="M-454.811,1510.271h17.306l-1.975-5.558h-13.355l-1.975,5.558Zm-5.445,15.32h28.2l-1.975-5.557h-24.246l-1.975,5.557Z" transform="translate(5110.462 -9070.667)" fill="#ffe4e2" stroke="#707070" stroke-width="1" fill-rule="evenodd"/><g transform="translate(4650.207 -7565.955)"><g transform="translate(0)" clip-path="url(#n)"><path d="M-506.777,1166.661-493.645,1207a2.341,2.341,0,0,1-.365,2.139,2.817,2.817,0,0,1-2.044,1.092l-28.291,2.2h35.136l-8.915-49.126-8.653,3.359" transform="translate(520.875 -1181.787)" fill="#d8b5b2" fill-rule="evenodd"/></g></g><path d="M-454.811,1510.271h17.306l-1.975-5.558h-13.355l-1.975,5.558Zm-5.445,15.32h28.2l-1.975-5.557h-24.246l-1.975,5.557Z" transform="translate(5110.462 -9070.667)" fill="none" stroke="#3479a8" stroke-linecap="round" stroke-linejoin="round" stroke-miterlimit="10" stroke-width="1"/><path d="M1794,1226.476a1.849,1.849,0,0,1,3.408,0l16.851,47.413h-37.111s12.264-34.507,16.851-47.413Z" transform="translate(2994.197 -8806.425)" fill="#e52f25" stroke="#707070" stroke-width="1" fill-rule="evenodd"/><g transform="translate(4771.344 -7581.081)"><g clip-path="url(#o)"><path d="M1928.853,1096.34c14.656,0,26.554,12.441,26.554,27.765s-11.9,27.765-26.554,27.765-26.554-12.441-26.554-27.765,11.9-27.765,26.554-27.765Z" transform="translate(-1895.523 -1103.325)" fill="#e8453c" fill-rule="evenodd"/></g><g clip-path="url(#o)"><path d="M1998.683,1023.85c14.656,0,26.554,12.441,26.554,27.765s-11.9,27.765-26.554,27.765-26.554-12.441-26.554-27.765,11.9-27.765,26.554-27.765Z" transform="translate(-1961.572 -1034.759)" fill="#ea564e" fill-rule="evenodd"/></g><g clip-path="url(#o)"><path d="M2084.332,943.254c14.656,0,26.554,12.441,26.554,27.765s-11.9,27.765-26.554,27.765-26.554-12.441-26.554-27.765,11.9-27.765,26.554-27.765Z" transform="translate(-2042.584 -958.527)" fill="#ec655e" fill-rule="evenodd"/></g><g clip-path="url(#o)"><path d="M2146.422,876.409c14.656,0,26.554,12.441,26.554,27.765s-11.9,27.765-26.554,27.765-26.554-12.441-26.554-27.765,11.9-27.765,26.554-27.765Z" transform="translate(-2101.313 -895.301)" fill="#ee7670" fill-rule="evenodd"/></g><g clip-path="url(#o)"><path d="M1812.959,1166.661,1799.827,1207a2.341,2.341,0,0,0,.364,2.139,2.818,2.818,0,0,0,2.045,1.092l28.291,2.2h-35.136l8.915-49.126,8.653,3.359" transform="translate(-1794.403 -1166.662)" fill="#c6261d" fill-rule="evenodd"/></g></g><path d="M1794,1226.476a1.849,1.849,0,0,1,3.408,0l16.851,47.413h-37.111s12.264-34.507,16.851-47.413Z" transform="translate(2994.197 -8806.425)" fill="none" stroke="#3479a8" stroke-linecap="round" stroke-linejoin="round" stroke-miterlimit="10" stroke-width="1"/><path d="M1739.039,2073.436a2.78,2.78,0,0,1-2.779,2.779h-40.688a2.779,2.779,0,1,1,0-5.558h40.688a2.78,2.78,0,0,1,2.779,2.779Z" transform="translate(3073.983 -9605.972)" fill="#e52f25" stroke="#707070" stroke-width="1" fill-rule="evenodd"/><g transform="translate(4766.777 -7535.313)"><g clip-path="url(#t)"><path d="M1802.419,2073.436a2.78,2.78,0,0,1-2.779,2.779h-40.688a2.779,2.779,0,0,1,0-5.558h40.688a2.78,2.78,0,0,1,2.779,2.779Z" transform="translate(-1752.743 -2070.657)" fill="#e6382f" fill-rule="evenodd"/></g><g clip-path="url(#t)"><path d="M1901.269,2073.436a2.78,2.78,0,0,1-2.778,2.779H1857.8a2.779,2.779,0,0,1,0-5.558h40.688a2.78,2.78,0,0,1,2.778,2.779Z" transform="translate(-1846.241 -2070.657)" fill="#e8443b" fill-rule="evenodd"/></g><g clip-path="url(#t)"><path d="M2000.119,2073.436a2.78,2.78,0,0,1-2.779,2.779h-40.687a2.779,2.779,0,0,1,0-5.558h40.688a2.78,2.78,0,0,1,2.779,2.779Z" transform="translate(-1939.739 -2070.657)" fill="#e9524a" fill-rule="evenodd"/></g><g clip-path="url(#t)"><path d="M2098.969,2073.436a2.78,2.78,0,0,1-2.778,2.779H2055.5a2.779,2.779,0,0,1,0-5.558h40.688a2.78,2.78,0,0,1,2.778,2.779Z" transform="translate(-2033.237 -2070.657)" fill="#eb5d55" fill-rule="evenodd"/></g><g clip-path="url(#t)"><path d="M2197.819,2073.436a2.78,2.78,0,0,1-2.779,2.779h-40.688a2.779,2.779,0,0,1,0-5.558h40.688a2.781,2.781,0,0,1,2.779,2.779Z" transform="translate(-2126.735 -2070.657)" fill="#ec645c" fill-rule="evenodd"/></g><g clip-path="url(#t)"><path d="M2296.668,2073.436a2.78,2.78,0,0,1-2.778,2.779H2253.2a2.779,2.779,0,0,1,0-5.558h40.688a2.78,2.78,0,0,1,2.778,2.779Z" transform="translate(-2220.232 -2070.657)" fill="#ed7069" fill-rule="evenodd"/></g><g clip-path="url(#t)"><path d="M2395.519,2073.436a2.78,2.78,0,0,1-2.778,2.779h-40.688a2.779,2.779,0,0,1,0-5.558h40.688a2.78,2.78,0,0,1,2.778,2.779Z" transform="translate(-2313.73 -2070.657)" fill="#ee7b74" fill-rule="evenodd"/></g></g><path d="M1739.039,2073.436a2.78,2.78,0,0,1-2.779,2.779h-40.688a2.779,2.779,0,1,1,0-5.558h40.688a2.78,2.78,0,0,1,2.779,2.779Z" transform="translate(3073.983 -9605.972)" fill="none" stroke="#3479a8" stroke-linecap="round" stroke-linejoin="round" stroke-miterlimit="10" stroke-width="1"/><path d="M1882.232,1510.271h-17.306l1.975-5.558h13.356l1.975,5.558Zm5.445,15.32h-28.2l1.975-5.557H1885.7l1.975,5.557Z" transform="translate(2916.321 -9070.667)" fill="#ffe4e2" stroke="#707070" stroke-width="1" fill-rule="evenodd"/><g transform="translate(4775.802 -7565.955)"><g clip-path="url(#aa)"><path d="M1812.959,1166.661,1799.827,1207a2.341,2.341,0,0,0,.364,2.139,2.818,2.818,0,0,0,2.045,1.092l28.291,2.2h-35.136l8.915-49.126,8.653,3.359" transform="translate(-1798.861 -1181.787)" fill="#d8b5b2" fill-rule="evenodd"/></g></g><path d="M1882.232,1510.271h-17.306l1.975-5.558h13.356l1.975,5.558Zm5.445,15.32h-28.2l1.975-5.557H1885.7l1.975,5.557Z" transform="translate(2916.321 -9070.667)" fill="none" stroke="#3479a8" stroke-linecap="round" stroke-linejoin="round" stroke-miterlimit="10" stroke-width="1"/><path d="M-720.749,1699.893a.892.892,0,0,0-.852-.566.892.892,0,0,0-.852.566l-8.426,23.707h18.555l-8.426-23.707Z" transform="translate(5366.434 -9254.746)" fill="#e52f25" stroke="#707070" stroke-width="1" fill-rule="evenodd"/><g transform="translate(4635.555 -7555.418)"><g transform="translate(0)" clip-path="url(#ab)"><path d="M-927.909,1634.82c-7.328,0-13.277,6.22-13.277,13.882s5.949,13.883,13.277,13.883,13.277-6.22,13.277-13.883-5.949-13.882-13.277-13.882Z" transform="translate(929.8 -1638.312)" fill="#e8453c" fill-rule="evenodd"/></g><g transform="translate(0)" clip-path="url(#ab)"><path d="M-962.828,1598.58c-7.328,0-13.277,6.22-13.277,13.882s5.949,13.883,13.277,13.883,13.277-6.22,13.277-13.883-5.949-13.882-13.277-13.882Z" transform="translate(962.828 -1604.035)" fill="#ea564e" fill-rule="evenodd"/></g><g transform="translate(0)" clip-path="url(#ab)"><path d="M-1005.648,1558.28c-7.328,0-13.277,6.22-13.277,13.882s5.949,13.883,13.277,13.883,13.277-6.221,13.277-13.883-5.949-13.882-13.277-13.882Z" transform="translate(1003.33 -1565.916)" fill="#ec655e" fill-rule="evenodd"/></g><g transform="translate(0)" clip-path="url(#ab)"><path d="M-1036.694,1524.86c-7.328,0-13.277,6.221-13.277,13.883s5.949,13.882,13.277,13.882,13.277-6.22,13.277-13.882-5.949-13.883-13.277-13.883Z" transform="translate(1032.695 -1534.306)" fill="#ee7670" fill-rule="evenodd"/></g><g transform="translate(0)" clip-path="url(#ab)"><path d="M-712.974,1669.981l6.566,20.168a1.17,1.17,0,0,1-.182,1.069,1.407,1.407,0,0,1-1.022.546l-14.145,1.1h17.568l-4.458-24.563-4.326,1.679" transform="translate(722.252 -1669.981)" fill="#c6261d" fill-rule="evenodd"/></g></g><path d="M-720.749,1699.893a.892.892,0,0,0-.852-.566.892.892,0,0,0-.852.566l-8.426,23.707h18.555l-8.426-23.707Z" transform="translate(5366.434 -9254.746)" fill="none" stroke="#3479a8" stroke-linecap="round" stroke-linejoin="round" stroke-miterlimit="10" stroke-width="1"/><path d="M-773.056,2123.366a1.39,1.39,0,0,0,1.389,1.39h20.344a1.39,1.39,0,0,0,1.389-1.39,1.39,1.39,0,0,0-1.389-1.389h-20.344a1.39,1.39,0,0,0-1.389,1.389Z" transform="translate(5406.327 -9654.512)" fill="#e52f25" stroke="#707070" stroke-width="1" fill-rule="evenodd"/><g transform="translate(4633.271 -7532.535)"><g transform="translate(0)" clip-path="url(#ag)"><path d="M-804.745,2123.366a1.39,1.39,0,0,0,1.389,1.39h20.344a1.39,1.39,0,0,0,1.389-1.39,1.39,1.39,0,0,0-1.389-1.389h-20.344a1.39,1.39,0,0,0-1.389,1.389Z" transform="translate(803.029 -2121.977)" fill="#e6382f" fill-rule="evenodd"/></g><g transform="translate(0)" clip-path="url(#ag)"><path d="M-854.17,2123.366a1.39,1.39,0,0,0,1.389,1.39h20.344a1.39,1.39,0,0,0,1.389-1.39,1.39,1.39,0,0,0-1.389-1.389h-20.344a1.39,1.39,0,0,0-1.389,1.389Z" transform="translate(849.778 -2121.977)" fill="#e8443b" fill-rule="evenodd"/></g><g transform="translate(0)" clip-path="url(#ag)"><path d="M-903.595,2123.366a1.39,1.39,0,0,0,1.389,1.39h20.344a1.39,1.39,0,0,0,1.389-1.39,1.39,1.39,0,0,0-1.389-1.389h-20.344a1.39,1.39,0,0,0-1.389,1.389Z" transform="translate(896.527 -2121.977)" fill="#e9524a" fill-rule="evenodd"/></g><g transform="translate(0)" clip-path="url(#ag)"><path d="M-953.021,2123.366a1.39,1.39,0,0,0,1.389,1.39h20.344a1.39,1.39,0,0,0,1.389-1.39,1.39,1.39,0,0,0-1.389-1.389h-20.344a1.39,1.39,0,0,0-1.389,1.389Z" transform="translate(943.277 -2121.977)" fill="#eb5d55" fill-rule="evenodd"/></g><g transform="translate(0)" clip-path="url(#ag)"><path d="M-1002.45,2123.366a1.39,1.39,0,0,0,1.389,1.39h20.344a1.39,1.39,0,0,0,1.39-1.39,1.39,1.39,0,0,0-1.39-1.389h-20.344a1.39,1.39,0,0,0-1.389,1.389Z" transform="translate(990.03 -2121.977)" fill="#ec645c" fill-rule="evenodd"/></g><g transform="translate(0)" clip-path="url(#ag)"><path d="M-1051.87,2123.366a1.39,1.39,0,0,0,1.39,1.39h20.344a1.39,1.39,0,0,0,1.39-1.39,1.39,1.39,0,0,0-1.39-1.389h-20.344a1.39,1.39,0,0,0-1.39,1.389Z" transform="translate(1036.775 -2121.977)" fill="#ed7069" fill-rule="evenodd"/></g><g transform="translate(0)" clip-path="url(#ag)"><path d="M-1101.3,2123.366a1.39,1.39,0,0,0,1.389,1.39h20.344a1.39,1.39,0,0,0,1.389-1.39,1.39,1.39,0,0,0-1.389-1.389h-20.344a1.39,1.39,0,0,0-1.389,1.389Z" transform="translate(1083.528 -2121.977)" fill="#ee7b74" fill-rule="evenodd"/></g></g><path d="M-773.056,2123.366a1.39,1.39,0,0,0,1.389,1.39h20.344a1.39,1.39,0,0,0,1.389-1.39,1.39,1.39,0,0,0-1.389-1.389h-20.344a1.39,1.39,0,0,0-1.389,1.389Z" transform="translate(5406.327 -9654.512)" fill="none" stroke="#3479a8" stroke-linecap="round" stroke-linejoin="round" stroke-miterlimit="10" stroke-width="1"/><path d="M-686.991,1841.785h8.653l-.987-2.779H-686l-.988,2.779Zm-2.723,7.66h14.1l-.988-2.779h-12.123l-.988,2.779Z" transform="translate(5327.498 -9386.862)" fill="#ffe4e2" stroke="#707070" stroke-width="1" fill-rule="evenodd"/><g transform="translate(4637.784 -7547.856)"><g clip-path="url(#an)"><path d="M-712.974,1669.981l6.566,20.168a1.17,1.17,0,0,1-.182,1.069,1.407,1.407,0,0,1-1.022.546l-14.145,1.1h17.568l-4.458-24.563-4.326,1.679" transform="translate(720.023 -1677.544)" fill="#d8b5b2" fill-rule="evenodd"/></g></g><path d="M-686.991,1841.785h8.653l-.987-2.779H-686l-.988,2.779Zm-2.723,7.66h14.1l-.988-2.779h-12.123l-.988,2.779Z" transform="translate(5327.498 -9386.862)" fill="none" stroke="#3479a8" stroke-linecap="round" stroke-linejoin="round" stroke-miterlimit="10" stroke-width="1"/><path d="M2316.585,1699.893a.925.925,0,0,1,1.7,0l8.425,23.707h-18.555l8.426-23.707Z" transform="translate(2491.935 -9254.746)" fill="#e52f25" stroke="#707070" stroke-width="1" fill-rule="evenodd"/><g transform="translate(4800.094 -7555.418)"><g clip-path="url(#ao)"><path d="M2384.01,1634.82c7.328,0,13.277,6.22,13.277,13.882s-5.949,13.883-13.277,13.883-13.277-6.22-13.277-13.883,5.949-13.882,13.277-13.882Z" transform="translate(-2367.345 -1638.312)" fill="#e8453c" fill-rule="evenodd"/></g><g clip-path="url(#ao)"><path d="M2418.93,1598.58c7.328,0,13.277,6.22,13.277,13.882s-5.95,13.883-13.277,13.883-13.277-6.22-13.277-13.883,5.949-13.882,13.277-13.882Z" transform="translate(-2400.375 -1604.035)" fill="#ea564e" fill-rule="evenodd"/></g><g clip-path="url(#ao)"><path d="M2461.751,1558.28c7.328,0,13.277,6.22,13.277,13.882s-5.949,13.883-13.277,13.883-13.277-6.221-13.277-13.883,5.949-13.882,13.277-13.882Z" transform="translate(-2440.876 -1565.916)" fill="#ec655e" fill-rule="evenodd"/></g><g clip-path="url(#ao)"><path d="M2492.8,1524.86c7.328,0,13.277,6.221,13.277,13.883s-5.949,13.882-13.277,13.882-13.277-6.22-13.277-13.882,5.949-13.883,13.277-13.883Z" transform="translate(-2470.245 -1534.306)" fill="#ee7670" fill-rule="evenodd"/></g><g clip-path="url(#ao)"><path d="M2326.064,1669.981s-4.974,15.281-6.565,20.168a1.17,1.17,0,0,0,.182,1.069,1.406,1.406,0,0,0,1.022.546l14.146,1.1H2317.28l4.458-24.563,4.326,1.679" transform="translate(-2316.786 -1669.981)" fill="#c6261d" fill-rule="evenodd"/></g></g><path d="M2316.585,1699.893a.925.925,0,0,1,1.7,0l8.425,23.707h-18.555l8.426-23.707Z" transform="translate(2491.935 -9254.746)" fill="none" stroke="#3479a8" stroke-linecap="round" stroke-linejoin="round" stroke-miterlimit="10" stroke-width="1"/><path d="M2289.109,2123.366a1.39,1.39,0,0,1-1.389,1.39h-20.344a1.389,1.389,0,0,1,0-2.779h20.344a1.39,1.39,0,0,1,1.389,1.389Z" transform="translate(2531.824 -9654.512)" fill="#e52f25" stroke="#707070" stroke-width="1" fill-rule="evenodd"/><g transform="translate(4797.811 -7532.535)"><g clip-path="url(#at)"><path d="M2320.8,2123.366a1.39,1.39,0,0,1-1.39,1.39h-20.343a1.389,1.389,0,1,1,0-2.779h20.343a1.39,1.39,0,0,1,1.39,1.389Z" transform="translate(-2295.96 -2121.977)" fill="#e6382f" fill-rule="evenodd"/></g><g clip-path="url(#at)"><path d="M2370.219,2123.366a1.39,1.39,0,0,1-1.389,1.39h-20.344a1.389,1.389,0,1,1,0-2.779h20.344a1.39,1.39,0,0,1,1.389,1.389Z" transform="translate(-2342.705 -2121.977)" fill="#e8443b" fill-rule="evenodd"/></g><g clip-path="url(#at)"><path d="M2419.639,2123.366a1.39,1.39,0,0,1-1.389,1.39h-20.344a1.389,1.389,0,0,1,0-2.779h20.344a1.39,1.39,0,0,1,1.389,1.389Z" transform="translate(-2389.449 -2121.977)" fill="#e9524a" fill-rule="evenodd"/></g><g clip-path="url(#at)"><path d="M2469.069,2123.366a1.39,1.39,0,0,1-1.389,1.39h-20.344a1.389,1.389,0,0,1,0-2.779h20.344a1.39,1.39,0,0,1,1.389,1.389Z" transform="translate(-2436.204 -2121.977)" fill="#eb5d55" fill-rule="evenodd"/></g><g clip-path="url(#at)"><path d="M2518.5,2123.366a1.39,1.39,0,0,1-1.389,1.39h-20.344a1.389,1.389,0,1,1,0-2.779h20.344a1.39,1.39,0,0,1,1.389,1.389Z" transform="translate(-2482.957 -2121.977)" fill="#ec645c" fill-rule="evenodd"/></g><g clip-path="url(#at)"><path d="M2567.92,2123.366a1.39,1.39,0,0,1-1.39,1.39h-20.344a1.389,1.389,0,1,1,0-2.779h20.344a1.39,1.39,0,0,1,1.39,1.389Z" transform="translate(-2529.702 -2121.977)" fill="#ed7069" fill-rule="evenodd"/></g><g clip-path="url(#at)"><path d="M2617.349,2123.366a1.39,1.39,0,0,1-1.389,1.39h-20.344a1.389,1.389,0,1,1,0-2.779h20.344a1.39,1.39,0,0,1,1.389,1.389Z" transform="translate(-2576.455 -2121.977)" fill="#ee7b74" fill-rule="evenodd"/></g></g><path d="M2289.109,2123.366a1.39,1.39,0,0,1-1.389,1.39h-20.344a1.389,1.389,0,0,1,0-2.779h20.344a1.39,1.39,0,0,1,1.389,1.389Z" transform="translate(2531.824 -9654.512)" fill="none" stroke="#3479a8" stroke-linecap="round" stroke-linejoin="round" stroke-miterlimit="10" stroke-width="1"/><path d="M2360.7,1841.785h-8.653l.988-2.779h6.677l.988,2.779Zm2.722,7.66h-14.1l.988-2.779h12.123l.987,2.779Z" transform="translate(2453.003 -9386.862)" fill="#ffe4e2" stroke="#707070" stroke-width="1" fill-rule="evenodd"/><g transform="translate(4802.323 -7547.856)"><g clip-path="url(#ba)"><path d="M2326.064,1669.981s-4.974,15.281-6.565,20.168a1.17,1.17,0,0,0,.182,1.069,1.406,1.406,0,0,0,1.022.546l14.146,1.1H2317.28l4.458-24.563,4.326,1.679" transform="translate(-2319.015 -1677.544)" fill="#d8b5b2" fill-rule="evenodd"/></g></g><path d="M2360.7,1841.785h-8.653l.988-2.779h6.677l.988,2.779Zm2.722,7.66h-14.1l.988-2.779h12.123l.987,2.779Z" transform="translate(2453.003 -9386.862)" fill="none" stroke="#3479a8" stroke-linecap="round" stroke-linejoin="round" stroke-miterlimit="10" stroke-width="1"/><path d="M-850.329,764.595a24.916,24.916,0,0,0-6.623,6.817,13.988,13.988,0,0,0-1.812,9.057,18.483,18.483,0,0,0,17.891,15.678c5.576,0,12.1-5.969,12.1-5.969s2.4-6.551,2.043-9.709c-.985-8.7-23.593-15.874-23.593-15.874Z" transform="translate(5487.513 -8370.621)" fill="#cdcbcb" stroke="#357baa" stroke-linecap="round" stroke-linejoin="round" stroke-miterlimit="10" stroke-width="1" fill-rule="evenodd"/><path d="M-791.2,716.191c-8.869,0-15.236,6.978-14.138,15.678a18.483,18.483,0,0,0,17.891,15.678A13.846,13.846,0,0,0-773.3,731.869c-.985-8.7-9.022-15.678-17.891-15.678Z" transform="translate(5436.974 -8324.838)" fill="#ededed" stroke="#357baa" stroke-linecap="round" stroke-linejoin="round" stroke-miterlimit="10" stroke-width="1" fill-rule="evenodd"/><path d="M-740.183,768.208c-7.271,0-12.49,5.732-11.6,12.862A15.147,15.147,0,0,0-737.1,793.931a11.349,11.349,0,0,0,11.6-12.862,15,15,0,0,0-14.677-12.862Z" transform="translate(5386.299 -8374.039)" fill="#fcd004" stroke="#707070" stroke-width="1" fill-rule="evenodd"/><g transform="translate(4634.417 -7605.831)"><g transform="translate(0)" clip-path="url(#bb)"><path d="M-564.042,807.433l-1.56-6.228c-.093-.375-.452-1.823-.6-2.613a2.176,2.176,0,0,1,.258-1.684,1.658,1.658,0,0,1,1.382-.6,1.875,1.875,0,0,1,1.641.773,6.279,6.279,0,0,1,.786,2.23c.1.548.181,1.151.228,1.742q.307,3.2.614,6.41a5.18,5.18,0,0,1-.069,1.755.832.832,0,0,1-.877.611,1.223,1.223,0,0,1-1.084-.591,7.626,7.626,0,0,1-.721-1.8Zm3.013,8.555a2.445,2.445,0,0,1-1.479-.514,2.246,2.246,0,0,1-.855-1.437,1.63,1.63,0,0,1,.314-1.372,1.587,1.587,0,0,1,1.282-.566,2.325,2.325,0,0,1,1.5.566,2.305,2.305,0,0,1,.83,1.372,1.61,1.61,0,0,1-.323,1.43,1.686,1.686,0,0,1-1.27.52Z" transform="translate(576.308 -794.783)" fill="#fff" fill-rule="evenodd"/></g></g><path d="M-740.183,768.208c-7.271,0-12.49,5.732-11.6,12.862A15.147,15.147,0,0,0-737.1,793.931a11.349,11.349,0,0,0,11.6-12.862,15,15,0,0,0-14.677-12.862Z" transform="translate(5386.299 -8374.039)" fill="none" stroke="#357baa" stroke-linecap="round" stroke-linejoin="round" stroke-miterlimit="10" stroke-width="1"/><path d="M-451.763-642.678a19.084,19.084,0,0,0-5.072,5.221,10.712,10.712,0,0,0-1.388,6.935,14.154,14.154,0,0,0,13.7,12.006c4.27,0,9.262-4.571,9.262-4.571s1.838-5.017,1.564-7.435c-.754-6.662-18.068-12.156-18.068-12.156Z" transform="translate(5108.63 -7039.541)" fill="#cdcbcb" stroke="#3479a8" stroke-linecap="round" stroke-linejoin="round" stroke-miterlimit="10" stroke-width="1" fill-rule="evenodd"/><path d="M-406.479-679.746c-6.791,0-11.668,5.344-10.827,12.006a14.154,14.154,0,0,0,13.7,12.006,10.6,10.6,0,0,0,10.827-12.006,13.99,13.99,0,0,0-13.7-12.006Z" transform="translate(5069.927 -7004.479)" fill="#ededed" stroke="#3479a8" stroke-linecap="round" stroke-linejoin="round" stroke-miterlimit="10" stroke-width="1" fill-rule="evenodd"/><path d="M-367.414-639.911a8.621,8.621,0,0,0-8.882,9.849,11.6,11.6,0,0,0,11.24,9.849,8.691,8.691,0,0,0,8.882-9.849,11.489,11.489,0,0,0-11.24-9.849Z" transform="translate(5031.121 -7042.158)" fill="#fcd004" stroke="#707070" stroke-width="1" fill-rule="evenodd"/><g transform="translate(4654.749 -7682.069)"><g transform="translate(0 0)" clip-path="url(#bc)"><path d="M-317.411-564.8l-1.84,2.454a2.24,2.24,0,0,1-3.184,0,2.414,2.414,0,0,1-.8-3.184l1.84-2.454-3.07-2.454a2.413,2.413,0,0,1-.8-3.184,2.242,2.242,0,0,1,3.185,0l3.07,2.454,1.84-2.454a2.242,2.242,0,0,1,3.185,0,2.413,2.413,0,0,1,.8,3.184l-1.841,2.454,3.069,2.454a2.413,2.413,0,0,1,.8,3.184,2.24,2.24,0,0,1-3.184,0l-3.069-2.454Z" transform="translate(328.34 577.829)" fill="#fff" fill-rule="evenodd"/></g></g><path d="M-367.414-639.911a8.621,8.621,0,0,0-8.882,9.849,11.6,11.6,0,0,0,11.24,9.849,8.691,8.691,0,0,0,8.882-9.849,11.489,11.489,0,0,0-11.24-9.849Z" transform="translate(5031.121 -7042.158)" fill="none" stroke="#3479a8" stroke-linecap="round" stroke-linejoin="round" stroke-miterlimit="10" stroke-width="1"/><path d="M2156.494,638.679a24.913,24.913,0,0,1,6.623,6.817,13.982,13.982,0,0,1,1.813,9.057,18.482,18.482,0,0,1-17.89,15.678c-5.575,0-12.1-5.969-12.1-5.969s-2.4-6.551-2.043-9.709c.985-8.7,23.594-15.874,23.594-15.874Z" transform="translate(2657.739 -8251.522)" fill="#cdcbcb" stroke="#3479a8" stroke-linecap="round" stroke-linejoin="round" stroke-miterlimit="10" stroke-width="1" fill-rule="evenodd"/><path d="M2096.263,590.275c8.868,0,15.235,6.978,14.138,15.678a18.484,18.484,0,0,1-17.891,15.678,13.846,13.846,0,0,1-14.138-15.678c.984-8.7,9.022-15.678,17.891-15.678Z" transform="translate(2709.375 -8205.739)" fill="#ededed" stroke="#3479a8" stroke-linecap="round" stroke-linejoin="round" stroke-miterlimit="10" stroke-width="1" fill-rule="evenodd"/><path d="M2146.459,642.292c7.271,0,12.49,5.732,11.6,12.862a15.148,15.148,0,0,1-14.677,12.862,11.349,11.349,0,0,1-11.6-12.862,15,15,0,0,1,14.677-12.862Z" transform="translate(2658.841 -8254.939)" fill="#215278" stroke="#707070" stroke-width="1" fill-rule="evenodd"/><g transform="translate(4790.54 -7612.648)"><g clip-path="url(#bd)"><path d="M2206.614,740.38l2.4,3.2c.858,1.145,2.724,1.146,4.158,0s1.9-3.013,1.042-4.157l-2.4-3.2,4.009-3.2c1.434-1.146,1.9-3.012,1.042-4.157s-2.726-1.146-4.16,0l-4.009,3.2-2.4-3.2c-.859-1.145-2.726-1.146-4.16,0s-1.9,3.013-1.04,4.157l2.4,3.2-4.008,3.2c-1.433,1.146-1.9,3.012-1.04,4.157s2.724,1.146,4.158,0l4.007-3.2Z" transform="translate(-2194.427 -723.361)" fill="#fff" fill-rule="evenodd"/></g></g><path d="M2146.459,642.292c7.271,0,12.49,5.732,11.6,12.862a15.148,15.148,0,0,1-14.677,12.862,11.349,11.349,0,0,1-11.6-12.862,15,15,0,0,1,14.677-12.862Z" transform="translate(2658.841 -8254.939)" fill="none" stroke="#3479a8" stroke-linecap="round" stroke-linejoin="round" stroke-miterlimit="10" stroke-width="1"/><path d="M1831.933-705.252a24.919,24.919,0,0,1,6.623,6.817,13.987,13.987,0,0,1,1.813,9.057,18.483,18.483,0,0,1-17.891,15.678c-5.576,0-12.1-5.969-12.1-5.969s-2.4-6.551-2.043-9.709c.985-8.7,23.593-15.874,23.593-15.874Z" transform="translate(2964.727 -6980.354)" fill="#cdcbcb" stroke="#3479a8" stroke-linecap="round" stroke-linejoin="round" stroke-miterlimit="10" stroke-width="1" fill-rule="evenodd"/><path d="M1771.7-753.655c8.868,0,15.236,6.978,14.138,15.678a18.483,18.483,0,0,1-17.891,15.678,13.846,13.846,0,0,1-14.138-15.678c.985-8.7,9.023-15.678,17.891-15.678Z" transform="translate(3016.363 -6934.573)" fill="#ededed" stroke="#3479a8" stroke-linecap="round" stroke-linejoin="round" stroke-miterlimit="10" stroke-width="1" fill-rule="evenodd"/><path d="M1821.909-701.639c7.271,0,12.49,5.732,11.6,12.862a15.147,15.147,0,0,1-14.677,12.862,11.349,11.349,0,0,1-11.6-12.862,15,15,0,0,1,14.677-12.862Z" transform="translate(2965.819 -6983.771)" fill="#fcd004" stroke="#707070" stroke-width="1" fill-rule="evenodd"/><g transform="translate(4772.969 -7685.411)"><g transform="translate(0 0)" clip-path="url(#be)"><path d="M1988.056-662.412l1.56-6.228c.093-.375.452-1.823.6-2.613a2.177,2.177,0,0,0-.258-1.684,1.659,1.659,0,0,0-1.382-.6,1.875,1.875,0,0,0-1.64.774,6.262,6.262,0,0,0-.786,2.23c-.1.548-.181,1.151-.228,1.742q-.307,3.2-.614,6.41a5.18,5.18,0,0,0,.069,1.755.832.832,0,0,0,.877.611,1.223,1.223,0,0,0,1.085-.592,7.609,7.609,0,0,0,.721-1.8Zm-3.013,8.555a2.444,2.444,0,0,0,1.479-.514,2.246,2.246,0,0,0,.855-1.437,1.631,1.631,0,0,0-.314-1.372,1.586,1.586,0,0,0-1.282-.566,2.326,2.326,0,0,0-1.5.566,2.3,2.3,0,0,0-.83,1.372,1.608,1.608,0,0,0,.323,1.43,1.686,1.686,0,0,0,1.27.52Z" transform="translate(-1973.865 675.062)" fill="#fff" fill-rule="evenodd"/></g></g><path d="M1821.909-701.639c7.271,0,12.49,5.732,11.6,12.862a15.147,15.147,0,0,1-14.677,12.862,11.349,11.349,0,0,1-11.6-12.862,15,15,0,0,1,14.677-12.862Z" transform="translate(2965.819 -6983.771)" fill="none" stroke="#3479a8" stroke-linecap="round" stroke-linejoin="round" stroke-miterlimit="10" stroke-width="1"/><path d="M-805.552-98.391a4.1,4.1,0,0,1-2.729-5.112,4.1,4.1,0,0,1,5.112-2.729,4.1,4.1,0,0,1,2.729,5.112,4.1,4.1,0,0,1-5.112,2.729Z" transform="translate(5439.813 -7546.774)" fill="#90bbe6" stroke="#357baa" stroke-linecap="round" stroke-linejoin="round" stroke-miterlimit="10" stroke-width="1" fill-rule="evenodd"/><path d="M-591.9-392.5a.887.887,0,0,1-1.169.161.887.887,0,0,1-.294-1.143l.925-1.792a.887.887,0,0,0-.213-1.081l-1.535-1.308a.886.886,0,0,1-.161-1.169.886.886,0,0,1,1.143-.294l1.792.925a.886.886,0,0,0,1.081-.213l1.308-1.535a.887.887,0,0,1,1.169-.161.887.887,0,0,1,.294,1.143l-.925,1.792a.886.886,0,0,0,.213,1.081l1.535,1.308a.887.887,0,0,1,.161,1.169.887.887,0,0,1-1.143.294l-1.792-.925a.887.887,0,0,0-1.081.213L-591.9-392.5Z" transform="translate(5237.434 -7268.833)" fill="#90bbe6" stroke="#357baa" stroke-linecap="round" stroke-linejoin="round" stroke-miterlimit="10" stroke-width="1" fill-rule="evenodd"/><path d="M2839.133,936.17a4.094,4.094,0,1,1,2.718-5.112,4.1,4.1,0,0,1-2.718,5.112Z" transform="translate(1994.714 -8525.331)" fill="#90bbe6" stroke="#357baa" stroke-linecap="round" stroke-linejoin="round" stroke-miterlimit="10" stroke-width="1" fill-rule="evenodd"/><path d="M2840.735,562.8a.886.886,0,0,1-1.76,0c-.094-.811-.175-1.515-.232-2a.885.885,0,0,0-.778-.778l-2-.229a.886.886,0,0,1,0-1.76l2-.232a.886.886,0,0,0,.779-.779c.055-.486.136-1.191.229-2a.886.886,0,0,1,1.76,0c.094.811.175,1.516.232,2a.885.885,0,0,0,.779.778l2,.229a.886.886,0,0,1,0,1.76l-2,.232a.886.886,0,0,0-.778.779c-.056.486-.137,1.191-.229,2Z" transform="translate(1993.45 -8171.655)" fill="#90bbe6" stroke="#357baa" stroke-linecap="round" stroke-linejoin="round" stroke-miterlimit="10" stroke-width="1" fill-rule="evenodd"/><path d="M2464.116-328.606a2.473,2.473,0,0,0-2.427,2.516,2.473,2.473,0,0,0,2.516,2.426,2.473,2.473,0,0,0,2.427-2.516,2.472,2.472,0,0,0-2.516-2.426Z" transform="translate(2346.717 -7336.608)" fill="#90bbe6" stroke="#357baa" stroke-linecap="round" stroke-linejoin="round" stroke-miterlimit="10" stroke-width="1" fill-rule="evenodd"/><path d="M2534.559-126.472a.535.535,0,0,0-.652-.286.534.534,0,0,0-.359.614c.1.483.183.9.241,1.192a.535.535,0,0,1-.3.592l-1.106.506a.535.535,0,0,0-.286.652.534.534,0,0,0,.615.359l1.192-.241a.535.535,0,0,1,.593.3c.123.269.3.658.506,1.106a.535.535,0,0,0,.652.286.535.535,0,0,0,.358-.614l-.241-1.192a.536.536,0,0,1,.3-.592l1.106-.506a.534.534,0,0,0,.286-.651.535.535,0,0,0-.615-.359l-1.192.241a.534.534,0,0,1-.592-.3c-.122-.269-.3-.658-.506-1.106Z" transform="translate(2280.147 -7527.503)" fill="#90bbe6" stroke="#357baa" stroke-linecap="round" stroke-linejoin="round" stroke-miterlimit="10" stroke-width="1" fill-rule="evenodd"/><path d="M-964.129,1290.688a2.307,2.307,0,0,0,2.61-1.955,2.307,2.307,0,0,0-1.955-2.61,2.307,2.307,0,0,0-2.61,1.955,2.307,2.307,0,0,0,1.955,2.609Z" transform="translate(5588.928 -8863.891)" fill="#90bbe6" stroke="#357baa" stroke-linecap="round" stroke-linejoin="round" stroke-miterlimit="10" stroke-width="1" fill-rule="evenodd"/><path d="M-1007.373,1084.259a.5.5,0,0,0,.557.361.5.5,0,0,0,.422-.512c-.018-.459-.033-.859-.044-1.134a.5.5,0,0,1,.366-.5l1.094-.3a.5.5,0,0,0,.361-.558.5.5,0,0,0-.512-.422l-1.134.044a.5.5,0,0,1-.5-.366l-.3-1.094a.5.5,0,0,0-.557-.361.5.5,0,0,0-.422.512c.018.459.034.859.044,1.134a.5.5,0,0,1-.366.5l-1.094.3a.5.5,0,0,0-.361.557.5.5,0,0,0,.512.422l1.134-.044a.5.5,0,0,1,.5.366l.3,1.094Z" transform="translate(5630.278 -8668.391)" fill="#90bbe6" stroke="#357baa" stroke-linecap="round" stroke-linejoin="round" stroke-miterlimit="10" stroke-width="1" fill-rule="evenodd"/></g><g transform="translate(1020 4853.06)"><rect width="34.095" height="6.859" transform="translate(92.862)" fill="#fdfdfd"/><rect width="81.785" height="6.859" fill="#fcd004"/><g transform="translate(0 18.034)"><line x1="18.544" y2="18.544" fill="none" stroke="#d8d9da" stroke-miterlimit="10" stroke-width="0.78"/><line x1="18.544" y2="18.544" transform="translate(9.034)" fill="none" stroke="#d8d9da" stroke-miterlimit="10" stroke-width="0.78"/><line x1="18.544" y2="18.544" transform="translate(18.069)" fill="none" stroke="#d8d9da" stroke-miterlimit="10" stroke-width="0.78"/><line x1="18.544" y2="18.544" transform="translate(27.103)" fill="none" stroke="#d8d9da" stroke-miterlimit="10" stroke-width="0.78"/><line x1="18.544" y2="18.544" transform="translate(36.137)" fill="none" stroke="#d8d9da" stroke-miterlimit="10" stroke-width="0.78"/><line x1="18.544" y2="18.544" transform="translate(45.172)" fill="none" stroke="#d8d9da" stroke-miterlimit="10" stroke-width="0.78"/><line x1="18.544" y2="18.544" transform="translate(54.206)" fill="none" stroke="#d8d9da" stroke-miterlimit="10" stroke-width="0.78"/><line x1="18.544" y2="18.544" transform="translate(63.241)" fill="none" stroke="#d8d9da" stroke-miterlimit="10" stroke-width="0.78"/><line x1="18.544" y2="18.544" transform="translate(72.275)" fill="none" stroke="#d8d9da" stroke-miterlimit="10" stroke-width="0.78"/><line x1="18.544" y2="18.544" transform="translate(81.309)" fill="none" stroke="#d8d9da" stroke-miterlimit="10" stroke-width="0.78"/><line x1="18.544" y2="18.544" transform="translate(90.344)" fill="none" stroke="#d8d9da" stroke-miterlimit="10" stroke-width="0.78"/><line x1="18.544" y2="18.544" transform="translate(99.378)" fill="none" stroke="#d8d9da" stroke-miterlimit="10" stroke-width="0.78"/><line x1="18.544" y2="18.544" transform="translate(108.412)" fill="none" stroke="#d8d9da" stroke-miterlimit="10" stroke-width="0.78"/></g></g></g></svg>