<svg xmlns="http://www.w3.org/2000/svg" width="294.722" height="172.609" viewBox="0 0 294.722 172.609"><g transform="translate(-285.278 -4927.582)"><g transform="translate(285.278 4945.434)"><g transform="translate(6.479 5.283)"><path d="M71.339,0A71.339,71.339,0,1,1,0,71.339,71.339,71.339,0,0,1,71.339,0Z" transform="translate(0)" fill="#44a6f1" opacity="0.444" style="mix-blend-mode:multiply;isolation:isolate"/><g transform="translate(27.853 29.491)"><path d="M416.152,51.15a.97.97,0,1,1-.969-.926A.948.948,0,0,1,416.152,51.15Z" transform="translate(-414.214 -50.224)" fill="#44a6f1"/><path d="M424.6,51.15a.97.97,0,1,1-.968-.926A.948.948,0,0,1,424.6,51.15Z" transform="translate(-413.942 -50.224)" fill="#44a6f1"/><path d="M433.043,51.15a.97.97,0,1,1-.968-.926A.948.948,0,0,1,433.043,51.15Z" transform="translate(-413.67 -50.224)" fill="#44a6f1"/><path d="M441.49,51.15a.97.97,0,1,1-.969-.926A.948.948,0,0,1,441.49,51.15Z" transform="translate(-413.398 -50.224)" fill="#44a6f1"/><path d="M449.937,51.15a.97.97,0,1,1-.968-.926A.948.948,0,0,1,449.937,51.15Z" transform="translate(-413.126 -50.224)" fill="#44a6f1"/><path d="M458.382,51.15a.97.97,0,1,1-.968-.926A.948.948,0,0,1,458.382,51.15Z" transform="translate(-412.854 -50.224)" fill="#44a6f1"/><path d="M466.829,51.15a.97.97,0,1,1-.969-.926A.949.949,0,0,1,466.829,51.15Z" transform="translate(-412.582 -50.224)" fill="#44a6f1"/><path d="M475.275,51.15a.97.97,0,1,1-.968-.926A.948.948,0,0,1,475.275,51.15Z" transform="translate(-412.31 -50.224)" fill="#44a6f1"/><path d="M483.721,51.15a.97.97,0,1,1-.968-.926A.948.948,0,0,1,483.721,51.15Z" transform="translate(-412.038 -50.224)" fill="#44a6f1"/><path d="M492.168,51.15a.97.97,0,1,1-.969-.926A.949.949,0,0,1,492.168,51.15Z" transform="translate(-411.766 -50.224)" fill="#44a6f1"/><path d="M500.614,51.15a.97.97,0,1,1-.969-.926A.948.948,0,0,1,500.614,51.15Z" transform="translate(-411.494 -50.224)" fill="#44a6f1"/><g transform="translate(0 7.411)"><path d="M416.152,58.658a.97.97,0,1,1-.969-.926A.948.948,0,0,1,416.152,58.658Z" transform="translate(-414.214 -57.732)" fill="#44a6f1"/><path d="M424.6,58.658a.97.97,0,1,1-.968-.926A.948.948,0,0,1,424.6,58.658Z" transform="translate(-413.942 -57.732)" fill="#44a6f1"/><path d="M433.043,58.658a.97.97,0,1,1-.968-.926A.948.948,0,0,1,433.043,58.658Z" transform="translate(-413.67 -57.732)" fill="#44a6f1"/><path d="M441.49,58.658a.97.97,0,1,1-.969-.926A.948.948,0,0,1,441.49,58.658Z" transform="translate(-413.398 -57.732)" fill="#44a6f1"/><path d="M449.937,58.658a.97.97,0,1,1-.968-.926A.948.948,0,0,1,449.937,58.658Z" transform="translate(-413.126 -57.732)" fill="#44a6f1"/><path d="M458.382,58.658a.97.97,0,1,1-.968-.926A.948.948,0,0,1,458.382,58.658Z" transform="translate(-412.854 -57.732)" fill="#44a6f1"/><path d="M466.829,58.658a.97.97,0,1,1-.969-.926A.949.949,0,0,1,466.829,58.658Z" transform="translate(-412.582 -57.732)" fill="#44a6f1"/><path d="M475.275,58.658a.97.97,0,1,1-.968-.926A.948.948,0,0,1,475.275,58.658Z" transform="translate(-412.31 -57.732)" fill="#44a6f1"/><path d="M483.721,58.658a.97.97,0,1,1-.968-.926A.948.948,0,0,1,483.721,58.658Z" transform="translate(-412.038 -57.732)" fill="#44a6f1"/><path d="M492.168,58.658a.97.97,0,1,1-.969-.926A.949.949,0,0,1,492.168,58.658Z" transform="translate(-411.766 -57.732)" fill="#44a6f1"/><path d="M500.614,58.658a.97.97,0,1,1-.969-.926A.948.948,0,0,1,500.614,58.658Z" transform="translate(-411.494 -57.732)" fill="#44a6f1"/></g><g transform="translate(0 14.822)"><ellipse cx="0.969" cy="0.926" rx="0.969" ry="0.926" fill="#44a6f1"/><path d="M424.6,66.166a.97.97,0,1,1-.968-.926A.948.948,0,0,1,424.6,66.166Z" transform="translate(-413.942 -65.24)" fill="#44a6f1"/><ellipse cx="0.969" cy="0.926" rx="0.969" ry="0.926" transform="translate(17.437)" fill="#44a6f1"/><path d="M441.49,66.166a.97.97,0,1,1-.969-.926A.949.949,0,0,1,441.49,66.166Z" transform="translate(-413.398 -65.24)" fill="#44a6f1"/><path d="M449.937,66.166a.97.97,0,1,1-.968-.926A.949.949,0,0,1,449.937,66.166Z" transform="translate(-413.126 -65.24)" fill="#44a6f1"/><ellipse cx="0.969" cy="0.926" rx="0.969" ry="0.926" transform="translate(43.592)" fill="#44a6f1"/><path d="M466.829,66.166a.97.97,0,1,1-.969-.926A.949.949,0,0,1,466.829,66.166Z" transform="translate(-412.582 -65.24)" fill="#44a6f1"/><ellipse cx="0.969" cy="0.926" rx="0.969" ry="0.926" transform="translate(61.028)" fill="#44a6f1"/><ellipse cx="0.969" cy="0.926" rx="0.969" ry="0.926" transform="translate(69.747)" fill="#44a6f1"/><path d="M492.168,66.166a.97.97,0,1,1-.969-.926A.949.949,0,0,1,492.168,66.166Z" transform="translate(-411.766 -65.24)" fill="#44a6f1"/><path d="M500.614,66.166a.97.97,0,1,1-.969-.926A.949.949,0,0,1,500.614,66.166Z" transform="translate(-411.494 -65.24)" fill="#44a6f1"/></g><g transform="translate(0 22.233)"><ellipse cx="0.969" cy="0.926" rx="0.969" ry="0.926" transform="translate(0 0)" fill="#44a6f1"/><path d="M424.6,73.674a.97.97,0,1,1-.968-.927A.948.948,0,0,1,424.6,73.674Z" transform="translate(-413.942 -72.747)" fill="#44a6f1"/><ellipse cx="0.969" cy="0.926" rx="0.969" ry="0.926" transform="translate(17.437 0)" fill="#44a6f1"/><path d="M441.49,73.674a.97.97,0,1,1-.969-.927A.948.948,0,0,1,441.49,73.674Z" transform="translate(-413.398 -72.747)" fill="#44a6f1"/><path d="M449.937,73.674a.97.97,0,1,1-.968-.927A.948.948,0,0,1,449.937,73.674Z" transform="translate(-413.126 -72.747)" fill="#44a6f1"/><ellipse cx="0.969" cy="0.926" rx="0.969" ry="0.926" transform="translate(43.592 0)" fill="#44a6f1"/><path d="M466.829,73.674a.97.97,0,1,1-.969-.927A.949.949,0,0,1,466.829,73.674Z" transform="translate(-412.582 -72.747)" fill="#44a6f1"/><ellipse cx="0.969" cy="0.926" rx="0.969" ry="0.926" transform="translate(61.028 0)" fill="#44a6f1"/><ellipse cx="0.969" cy="0.926" rx="0.969" ry="0.926" transform="translate(69.747 0)" fill="#44a6f1"/><path d="M492.168,73.674a.97.97,0,1,1-.969-.927A.949.949,0,0,1,492.168,73.674Z" transform="translate(-411.766 -72.747)" fill="#44a6f1"/><path d="M500.614,73.674a.97.97,0,1,1-.969-.927A.948.948,0,0,1,500.614,73.674Z" transform="translate(-411.494 -72.747)" fill="#44a6f1"/></g><g transform="translate(0 29.644)"><path d="M416.152,81.182a.97.97,0,1,1-.969-.927A.948.948,0,0,1,416.152,81.182Z" transform="translate(-414.214 -80.255)" fill="#44a6f1"/><path d="M424.6,81.182a.97.97,0,1,1-.968-.927A.948.948,0,0,1,424.6,81.182Z" transform="translate(-413.942 -80.255)" fill="#44a6f1"/><path d="M433.043,81.182a.97.97,0,1,1-.968-.927A.948.948,0,0,1,433.043,81.182Z" transform="translate(-413.67 -80.255)" fill="#44a6f1"/><path d="M441.49,81.182a.97.97,0,1,1-.969-.927A.948.948,0,0,1,441.49,81.182Z" transform="translate(-413.398 -80.255)" fill="#44a6f1"/><path d="M449.937,81.182a.97.97,0,1,1-.968-.927A.948.948,0,0,1,449.937,81.182Z" transform="translate(-413.126 -80.255)" fill="#44a6f1"/><path d="M458.382,81.182a.97.97,0,1,1-.968-.927A.948.948,0,0,1,458.382,81.182Z" transform="translate(-412.854 -80.255)" fill="#44a6f1"/><path d="M466.829,81.182a.97.97,0,1,1-.969-.927A.949.949,0,0,1,466.829,81.182Z" transform="translate(-412.582 -80.255)" fill="#44a6f1"/><path d="M475.275,81.182a.97.97,0,1,1-.968-.927A.948.948,0,0,1,475.275,81.182Z" transform="translate(-412.31 -80.255)" fill="#44a6f1"/><path d="M483.721,81.182a.97.97,0,1,1-.968-.927A.948.948,0,0,1,483.721,81.182Z" transform="translate(-412.038 -80.255)" fill="#44a6f1"/><path d="M492.168,81.182a.97.97,0,1,1-.969-.927A.949.949,0,0,1,492.168,81.182Z" transform="translate(-411.766 -80.255)" fill="#44a6f1"/><path d="M500.614,81.182a.97.97,0,1,1-.969-.927A.948.948,0,0,1,500.614,81.182Z" transform="translate(-411.494 -80.255)" fill="#44a6f1"/></g><g transform="translate(0 37.055)"><ellipse cx="0.969" cy="0.926" rx="0.969" ry="0.926" transform="translate(0 0)" fill="#44a6f1"/><path d="M424.6,88.69a.97.97,0,1,1-.968-.927A.948.948,0,0,1,424.6,88.69Z" transform="translate(-413.942 -87.763)" fill="#44a6f1"/><ellipse cx="0.969" cy="0.926" rx="0.969" ry="0.926" transform="translate(17.437 0)" fill="#44a6f1"/><path d="M441.49,88.69a.97.97,0,1,1-.969-.927A.948.948,0,0,1,441.49,88.69Z" transform="translate(-413.398 -87.763)" fill="#44a6f1"/><path d="M449.937,88.69a.97.97,0,1,1-.968-.927A.948.948,0,0,1,449.937,88.69Z" transform="translate(-413.126 -87.763)" fill="#44a6f1"/><ellipse cx="0.969" cy="0.926" rx="0.969" ry="0.926" transform="translate(43.592 0)" fill="#44a6f1"/><path d="M466.829,88.69a.97.97,0,1,1-.969-.927A.949.949,0,0,1,466.829,88.69Z" transform="translate(-412.582 -87.763)" fill="#44a6f1"/><ellipse cx="0.969" cy="0.926" rx="0.969" ry="0.926" transform="translate(61.028 0)" fill="#44a6f1"/><ellipse cx="0.969" cy="0.926" rx="0.969" ry="0.926" transform="translate(69.747 0)" fill="#44a6f1"/><path d="M492.168,88.69a.97.97,0,1,1-.969-.927A.949.949,0,0,1,492.168,88.69Z" transform="translate(-411.766 -87.763)" fill="#44a6f1"/><path d="M500.614,88.69a.97.97,0,1,1-.969-.927A.948.948,0,0,1,500.614,88.69Z" transform="translate(-411.494 -87.763)" fill="#44a6f1"/></g><g transform="translate(0 44.466)"><ellipse cx="0.969" cy="0.926" rx="0.969" ry="0.926" fill="#44a6f1"/><path d="M424.6,96.2a.97.97,0,1,1-.968-.926A.948.948,0,0,1,424.6,96.2Z" transform="translate(-413.942 -95.271)" fill="#44a6f1"/><ellipse cx="0.969" cy="0.926" rx="0.969" ry="0.926" transform="translate(17.437)" fill="#44a6f1"/><path d="M441.49,96.2a.97.97,0,1,1-.969-.926A.948.948,0,0,1,441.49,96.2Z" transform="translate(-413.398 -95.271)" fill="#44a6f1"/><path d="M449.937,96.2a.97.97,0,1,1-.968-.926A.948.948,0,0,1,449.937,96.2Z" transform="translate(-413.126 -95.271)" fill="#44a6f1"/><ellipse cx="0.969" cy="0.926" rx="0.969" ry="0.926" transform="translate(43.592)" fill="#44a6f1"/><path d="M466.829,96.2a.97.97,0,1,1-.969-.926A.949.949,0,0,1,466.829,96.2Z" transform="translate(-412.582 -95.271)" fill="#44a6f1"/><ellipse cx="0.969" cy="0.926" rx="0.969" ry="0.926" transform="translate(61.028)" fill="#44a6f1"/><ellipse cx="0.969" cy="0.926" rx="0.969" ry="0.926" transform="translate(69.747)" fill="#44a6f1"/><path d="M492.168,96.2a.97.97,0,1,1-.969-.926A.949.949,0,0,1,492.168,96.2Z" transform="translate(-411.766 -95.271)" fill="#44a6f1"/><path d="M500.614,96.2a.97.97,0,1,1-.969-.926A.948.948,0,0,1,500.614,96.2Z" transform="translate(-411.494 -95.271)" fill="#44a6f1"/></g><g transform="translate(0 51.877)"><path d="M416.152,103.7a.97.97,0,1,1-.969-.926A.948.948,0,0,1,416.152,103.7Z" transform="translate(-414.214 -102.779)" fill="#44a6f1"/><path d="M424.6,103.7a.97.97,0,1,1-.968-.926A.948.948,0,0,1,424.6,103.7Z" transform="translate(-413.942 -102.779)" fill="#44a6f1"/><path d="M433.043,103.7a.97.97,0,1,1-.968-.926A.948.948,0,0,1,433.043,103.7Z" transform="translate(-413.67 -102.779)" fill="#44a6f1"/><path d="M441.49,103.7a.97.97,0,1,1-.969-.926A.948.948,0,0,1,441.49,103.7Z" transform="translate(-413.398 -102.779)" fill="#44a6f1"/><path d="M449.937,103.7a.97.97,0,1,1-.968-.926A.948.948,0,0,1,449.937,103.7Z" transform="translate(-413.126 -102.779)" fill="#44a6f1"/><path d="M458.382,103.7a.97.97,0,1,1-.968-.926A.948.948,0,0,1,458.382,103.7Z" transform="translate(-412.854 -102.779)" fill="#44a6f1"/><path d="M466.829,103.7a.97.97,0,1,1-.969-.926A.949.949,0,0,1,466.829,103.7Z" transform="translate(-412.582 -102.779)" fill="#44a6f1"/><path d="M475.275,103.7a.97.97,0,1,1-.968-.926A.948.948,0,0,1,475.275,103.7Z" transform="translate(-412.31 -102.779)" fill="#44a6f1"/><path d="M483.721,103.7a.97.97,0,1,1-.968-.926A.948.948,0,0,1,483.721,103.7Z" transform="translate(-412.038 -102.779)" fill="#44a6f1"/><path d="M492.168,103.7a.97.97,0,1,1-.969-.926A.949.949,0,0,1,492.168,103.7Z" transform="translate(-411.766 -102.779)" fill="#44a6f1"/><path d="M500.614,103.7a.97.97,0,1,1-.969-.926A.948.948,0,0,1,500.614,103.7Z" transform="translate(-411.494 -102.779)" fill="#44a6f1"/></g><g transform="translate(0 59.289)"><ellipse cx="0.969" cy="0.926" rx="0.969" ry="0.926" fill="#44a6f1"/><path d="M424.6,111.213a.97.97,0,1,1-.968-.926A.948.948,0,0,1,424.6,111.213Z" transform="translate(-413.942 -110.287)" fill="#44a6f1"/><ellipse cx="0.969" cy="0.926" rx="0.969" ry="0.926" transform="translate(17.437)" fill="#44a6f1"/><path d="M441.49,111.213a.97.97,0,1,1-.969-.926A.949.949,0,0,1,441.49,111.213Z" transform="translate(-413.398 -110.287)" fill="#44a6f1"/><path d="M449.937,111.213a.97.97,0,1,1-.968-.926A.949.949,0,0,1,449.937,111.213Z" transform="translate(-413.126 -110.287)" fill="#44a6f1"/><ellipse cx="0.969" cy="0.926" rx="0.969" ry="0.926" transform="translate(43.592)" fill="#44a6f1"/><path d="M466.829,111.213a.97.97,0,1,1-.969-.926A.95.95,0,0,1,466.829,111.213Z" transform="translate(-412.582 -110.287)" fill="#44a6f1"/><ellipse cx="0.969" cy="0.926" rx="0.969" ry="0.926" transform="translate(61.028)" fill="#44a6f1"/><ellipse cx="0.969" cy="0.926" rx="0.969" ry="0.926" transform="translate(69.747)" fill="#44a6f1"/><path d="M492.168,111.213a.97.97,0,1,1-.969-.926A.949.949,0,0,1,492.168,111.213Z" transform="translate(-411.766 -110.287)" fill="#44a6f1"/><path d="M500.614,111.213a.97.97,0,1,1-.969-.926A.949.949,0,0,1,500.614,111.213Z" transform="translate(-411.494 -110.287)" fill="#44a6f1"/></g><g transform="translate(0 66.699)"><path d="M416.152,118.721a.97.97,0,1,1-.969-.927A.949.949,0,0,1,416.152,118.721Z" transform="translate(-414.214 -117.794)" fill="#44a6f1"/><path d="M424.6,118.721a.97.97,0,1,1-.968-.927A.948.948,0,0,1,424.6,118.721Z" transform="translate(-413.942 -117.794)" fill="#44a6f1"/><path d="M433.043,118.721a.97.97,0,1,1-.968-.927A.949.949,0,0,1,433.043,118.721Z" transform="translate(-413.67 -117.794)" fill="#44a6f1"/><path d="M441.49,118.721a.97.97,0,1,1-.969-.927A.949.949,0,0,1,441.49,118.721Z" transform="translate(-413.398 -117.794)" fill="#44a6f1"/><path d="M449.937,118.721a.97.97,0,1,1-.968-.927A.949.949,0,0,1,449.937,118.721Z" transform="translate(-413.126 -117.794)" fill="#44a6f1"/><path d="M458.382,118.721a.97.97,0,1,1-.968-.927A.949.949,0,0,1,458.382,118.721Z" transform="translate(-412.854 -117.794)" fill="#44a6f1"/><path d="M466.829,118.721a.97.97,0,1,1-.969-.927A.95.95,0,0,1,466.829,118.721Z" transform="translate(-412.582 -117.794)" fill="#44a6f1"/><path d="M475.275,118.721a.97.97,0,1,1-.968-.927A.949.949,0,0,1,475.275,118.721Z" transform="translate(-412.31 -117.794)" fill="#44a6f1"/><path d="M483.721,118.721a.97.97,0,1,1-.968-.927A.949.949,0,0,1,483.721,118.721Z" transform="translate(-412.038 -117.794)" fill="#44a6f1"/><path d="M492.168,118.721a.97.97,0,1,1-.969-.927A.949.949,0,0,1,492.168,118.721Z" transform="translate(-411.766 -117.794)" fill="#44a6f1"/><path d="M500.614,118.721a.97.97,0,1,1-.969-.927A.949.949,0,0,1,500.614,118.721Z" transform="translate(-411.494 -117.794)" fill="#44a6f1"/></g><g transform="translate(0 74.11)"><ellipse cx="0.969" cy="0.926" rx="0.969" ry="0.926" transform="translate(0 0)" fill="#44a6f1"/><path d="M424.6,126.229a.97.97,0,1,1-.968-.927A.948.948,0,0,1,424.6,126.229Z" transform="translate(-413.942 -125.302)" fill="#44a6f1"/><ellipse cx="0.969" cy="0.926" rx="0.969" ry="0.926" transform="translate(17.437 0)" fill="#44a6f1"/><path d="M441.49,126.229a.97.97,0,1,1-.969-.927A.948.948,0,0,1,441.49,126.229Z" transform="translate(-413.398 -125.302)" fill="#44a6f1"/><path d="M449.937,126.229a.97.97,0,1,1-.968-.927A.948.948,0,0,1,449.937,126.229Z" transform="translate(-413.126 -125.302)" fill="#44a6f1"/><ellipse cx="0.969" cy="0.926" rx="0.969" ry="0.926" transform="translate(43.592 0)" fill="#44a6f1"/><path d="M466.829,126.229a.97.97,0,1,1-.969-.927A.949.949,0,0,1,466.829,126.229Z" transform="translate(-412.582 -125.302)" fill="#44a6f1"/><ellipse cx="0.969" cy="0.926" rx="0.969" ry="0.926" transform="translate(61.028 0)" fill="#44a6f1"/><ellipse cx="0.969" cy="0.926" rx="0.969" ry="0.926" transform="translate(69.747 0)" fill="#44a6f1"/><path d="M492.168,126.229a.97.97,0,1,1-.969-.927A.949.949,0,0,1,492.168,126.229Z" transform="translate(-411.766 -125.302)" fill="#44a6f1"/><path d="M500.614,126.229a.97.97,0,1,1-.969-.927A.948.948,0,0,1,500.614,126.229Z" transform="translate(-411.494 -125.302)" fill="#44a6f1"/></g><g transform="translate(0 81.522)"><ellipse cx="0.969" cy="0.926" rx="0.969" ry="0.926" transform="translate(0 0)" fill="#44a6f1"/><path d="M424.6,133.737a.97.97,0,1,1-.968-.927A.948.948,0,0,1,424.6,133.737Z" transform="translate(-413.942 -132.81)" fill="#44a6f1"/><ellipse cx="0.969" cy="0.926" rx="0.969" ry="0.926" transform="translate(17.437 0)" fill="#44a6f1"/><path d="M441.49,133.737a.97.97,0,1,1-.969-.927A.948.948,0,0,1,441.49,133.737Z" transform="translate(-413.398 -132.81)" fill="#44a6f1"/><path d="M449.937,133.737a.97.97,0,1,1-.968-.927A.948.948,0,0,1,449.937,133.737Z" transform="translate(-413.126 -132.81)" fill="#44a6f1"/><ellipse cx="0.969" cy="0.926" rx="0.969" ry="0.926" transform="translate(43.592 0)" fill="#44a6f1"/><path d="M466.829,133.737a.97.97,0,1,1-.969-.927A.949.949,0,0,1,466.829,133.737Z" transform="translate(-412.582 -132.81)" fill="#44a6f1"/><ellipse cx="0.969" cy="0.926" rx="0.969" ry="0.926" transform="translate(61.028 0)" fill="#44a6f1"/><ellipse cx="0.969" cy="0.926" rx="0.969" ry="0.926" transform="translate(69.747 0)" fill="#44a6f1"/><path d="M492.168,133.737a.97.97,0,1,1-.969-.927A.949.949,0,0,1,492.168,133.737Z" transform="translate(-411.766 -132.81)" fill="#44a6f1"/><path d="M500.614,133.737a.97.97,0,1,1-.969-.927A.948.948,0,0,1,500.614,133.737Z" transform="translate(-411.494 -132.81)" fill="#44a6f1"/></g></g></g><g fill="none" stroke="#44a6f1" stroke-linecap="round" stroke-width="1" stroke-dasharray="5"><circle cx="77.378" cy="77.378" r="77.378" stroke="none"/><circle cx="77.378" cy="77.378" r="76.878" fill="none"/></g></g><g transform="translate(-2678 10783.638)"><g transform="translate(3029.093 -5824.829)" opacity="0.3"><g transform="translate(0 0)"><path d="M494.435,149.052H475.993V130.611h18.442Zm-18.292-.149h18.143V130.76H476.142Z" transform="translate(-475.993 -130.611)" fill="#e07e79"/></g><g transform="translate(18.292 0)"><path d="M538.175,149.052H519.734V130.611h18.441Zm-18.292-.149h18.143V130.76H519.883Z" transform="translate(-519.734 -130.611)" fill="#e07e79"/></g><g transform="translate(36.585 0)"><path d="M581.917,149.052H563.475V130.611h18.442Zm-18.293-.149h18.143V130.76H563.624Z" transform="translate(-563.475 -130.611)" fill="#e07e79"/></g><g transform="translate(54.877 0)"><path d="M625.657,149.052H607.216V130.611h18.441Zm-18.292-.149h18.143V130.76H607.365Z" transform="translate(-607.216 -130.611)" fill="#e07e79"/></g><g transform="translate(73.169 0)"><path d="M669.4,149.052H650.956V130.611H669.4Zm-18.292-.149h18.143V130.76H651.105Z" transform="translate(-650.956 -130.611)" fill="#e07e79"/></g><g transform="translate(91.462 0)"><path d="M713.139,149.052H694.7V130.611h18.441Zm-18.292-.149H712.99V130.76H694.847Z" transform="translate(-694.698 -130.611)" fill="#e07e79"/></g><g transform="translate(109.754 0)"><path d="M756.88,149.052H738.438V130.611H756.88Zm-18.292-.149h18.144V130.76H738.587Z" transform="translate(-738.438 -130.611)" fill="#e07e79"/></g><g transform="translate(128.047 0)"><path d="M800.621,149.052H782.18V130.611h18.442v18.441Zm-18.292-.149h18.144V130.76H782.329Z" transform="translate(-782.18 -130.611)" fill="#e07e79"/></g><g transform="translate(146.339 0)"><path d="M844.362,149.052H825.921V130.611h18.441ZM826.07,148.9h18.143V130.76H826.07Z" transform="translate(-825.921 -130.611)" fill="#e07e79"/></g><g transform="translate(164.631 0)"><path d="M888.1,149.052H869.661V130.611H888.1ZM869.81,148.9h18.143V130.76H869.81Z" transform="translate(-869.661 -130.611)" fill="#e07e79"/></g><g transform="translate(182.923 0)"><path d="M931.843,149.052H913.4V130.611h18.441Zm-18.292-.149h18.143V130.76H913.551Z" transform="translate(-913.402 -130.611)" fill="#e07e79"/></g><g transform="translate(201.215 0)"><path d="M975.584,149.052H957.142V130.611h18.442Zm-18.292-.149h18.143V130.76H957.291Z" transform="translate(-957.142 -130.611)" fill="#e07e79"/></g><g transform="translate(0 18.292)"><path d="M494.435,192.793H475.993V174.351h18.442Zm-18.292-.149h18.143V174.5H476.142Z" transform="translate(-475.993 -174.351)" fill="#e07e79"/></g><g transform="translate(18.292 18.292)"><path d="M538.175,192.793H519.734V174.351h18.441Zm-18.292-.149h18.143V174.5H519.883Z" transform="translate(-519.734 -174.351)" fill="#e07e79"/></g><g transform="translate(36.585 18.292)"><path d="M581.917,192.793H563.475V174.351h18.442Zm-18.293-.149h18.143V174.5H563.624Z" transform="translate(-563.475 -174.351)" fill="#e07e79"/></g><g transform="translate(54.877 18.292)"><path d="M625.657,192.793H607.216V174.351h18.441Zm-18.292-.149h18.143V174.5H607.365Z" transform="translate(-607.216 -174.351)" fill="#e07e79"/></g><g transform="translate(73.169 18.292)"><path d="M669.4,192.793H650.956V174.351H669.4Zm-18.292-.149h18.143V174.5H651.105Z" transform="translate(-650.956 -174.351)" fill="#e07e79"/></g><g transform="translate(91.462 18.292)"><path d="M713.139,192.793H694.7V174.351h18.441Zm-18.292-.149H712.99V174.5H694.847Z" transform="translate(-694.698 -174.351)" fill="#e07e79"/></g><g transform="translate(109.754 18.292)"><path d="M756.88,192.793H738.438V174.351H756.88Zm-18.292-.149h18.144V174.5H738.587Z" transform="translate(-738.438 -174.351)" fill="#e07e79"/></g><g transform="translate(128.047 18.292)"><path d="M800.621,192.793H782.18V174.351h18.442v18.442Zm-18.292-.149h18.144V174.5H782.329Z" transform="translate(-782.18 -174.351)" fill="#e07e79"/></g><g transform="translate(146.339 18.292)"><path d="M844.362,192.793H825.921V174.351h18.441Zm-18.292-.149h18.143V174.5H826.07Z" transform="translate(-825.921 -174.351)" fill="#e07e79"/></g><g transform="translate(164.631 18.292)"><path d="M888.1,192.793H869.661V174.351H888.1Zm-18.292-.149h18.143V174.5H869.81Z" transform="translate(-869.661 -174.351)" fill="#e07e79"/></g><g transform="translate(182.923 18.292)"><path d="M931.843,192.793H913.4V174.351h18.441Zm-18.292-.149h18.143V174.5H913.551Z" transform="translate(-913.402 -174.351)" fill="#e07e79"/></g><g transform="translate(201.215 18.292)"><path d="M975.584,192.793H957.142V174.351h18.442Zm-18.292-.149h18.143V174.5H957.291Z" transform="translate(-957.142 -174.351)" fill="#e07e79"/></g><g transform="translate(0 36.585)"><path d="M494.435,236.534H475.993V218.093h18.442Zm-18.292-.149h18.143V218.242H476.142Z" transform="translate(-475.993 -218.093)" fill="#e07e79"/></g><g transform="translate(18.292 36.585)"><path d="M538.175,236.534H519.734V218.093h18.441Zm-18.292-.149h18.143V218.242H519.883Z" transform="translate(-519.734 -218.093)" fill="#e07e79"/></g><g transform="translate(36.585 36.585)"><path d="M581.917,236.534H563.475V218.093h18.442Zm-18.293-.149h18.143V218.242H563.624Z" transform="translate(-563.475 -218.093)" fill="#e07e79"/></g><g transform="translate(54.877 36.585)"><path d="M625.657,236.534H607.216V218.093h18.441Zm-18.292-.149h18.143V218.242H607.365Z" transform="translate(-607.216 -218.093)" fill="#e07e79"/></g><g transform="translate(73.169 36.585)"><path d="M669.4,236.534H650.956V218.093H669.4Zm-18.292-.149h18.143V218.242H651.105Z" transform="translate(-650.956 -218.093)" fill="#e07e79"/></g><g transform="translate(91.462 36.585)"><path d="M713.139,236.534H694.7V218.093h18.441Zm-18.292-.149H712.99V218.242H694.847Z" transform="translate(-694.698 -218.093)" fill="#e07e79"/></g><g transform="translate(109.754 36.585)"><path d="M756.88,236.534H738.438V218.093H756.88Zm-18.292-.149h18.144V218.242H738.587Z" transform="translate(-738.438 -218.093)" fill="#e07e79"/></g><g transform="translate(128.047 36.585)"><path d="M800.621,236.534H782.18V218.093h18.442v18.441Zm-18.292-.149h18.144V218.242H782.329Z" transform="translate(-782.18 -218.093)" fill="#e07e79"/></g><g transform="translate(146.339 36.585)"><path d="M844.362,236.534H825.921V218.093h18.441Zm-18.292-.149h18.143V218.242H826.07Z" transform="translate(-825.921 -218.093)" fill="#e07e79"/></g><g transform="translate(164.631 36.585)"><path d="M888.1,236.534H869.661V218.093H888.1Zm-18.292-.149h18.143V218.242H869.81Z" transform="translate(-869.661 -218.093)" fill="#e07e79"/></g><g transform="translate(182.923 36.585)"><path d="M931.843,236.534H913.4V218.093h18.441Zm-18.292-.149h18.143V218.242H913.551Z" transform="translate(-913.402 -218.093)" fill="#e07e79"/></g><g transform="translate(201.215 36.585)"><path d="M975.584,236.534H957.142V218.093h18.442Zm-18.292-.149h18.143V218.242H957.291Z" transform="translate(-957.142 -218.093)" fill="#e07e79"/></g><g transform="translate(0 54.877)"><path d="M494.435,280.275H475.993V261.833h18.442Zm-18.292-.149h18.143V261.982H476.142Z" transform="translate(-475.993 -261.833)" fill="#e07e79"/></g><g transform="translate(18.292 54.877)"><path d="M538.175,280.275H519.734V261.833h18.441Zm-18.292-.149h18.143V261.982H519.883Z" transform="translate(-519.734 -261.833)" fill="#e07e79"/></g><g transform="translate(36.585 54.877)"><path d="M581.917,280.275H563.475V261.833h18.442Zm-18.293-.149h18.143V261.982H563.624Z" transform="translate(-563.475 -261.833)" fill="#e07e79"/></g><g transform="translate(54.877 54.877)"><path d="M625.657,280.275H607.216V261.833h18.441Zm-18.292-.149h18.143V261.982H607.365Z" transform="translate(-607.216 -261.833)" fill="#e07e79"/></g><g transform="translate(73.169 54.877)"><path d="M669.4,280.275H650.956V261.833H669.4Zm-18.292-.149h18.143V261.982H651.105Z" transform="translate(-650.956 -261.833)" fill="#e07e79"/></g><g transform="translate(91.462 54.877)"><path d="M713.139,280.275H694.7V261.833h18.441Zm-18.292-.149H712.99V261.982H694.847Z" transform="translate(-694.698 -261.833)" fill="#e07e79"/></g><g transform="translate(109.754 54.877)"><path d="M756.88,280.275H738.438V261.833H756.88Zm-18.292-.149h18.144V261.982H738.587Z" transform="translate(-738.438 -261.833)" fill="#e07e79"/></g><g transform="translate(128.047 54.877)"><path d="M800.621,280.275H782.18V261.833h18.442v18.442Zm-18.292-.149h18.144V261.982H782.329Z" transform="translate(-782.18 -261.833)" fill="#e07e79"/></g><g transform="translate(146.339 54.877)"><path d="M844.362,280.275H825.921V261.833h18.441Zm-18.292-.149h18.143V261.982H826.07Z" transform="translate(-825.921 -261.833)" fill="#e07e79"/></g><g transform="translate(164.631 54.877)"><path d="M888.1,280.275H869.661V261.833H888.1Zm-18.292-.149h18.143V261.982H869.81Z" transform="translate(-869.661 -261.833)" fill="#e07e79"/></g><g transform="translate(182.923 54.877)"><path d="M931.843,280.275H913.4V261.833h18.441Zm-18.292-.149h18.143V261.982H913.551Z" transform="translate(-913.402 -261.833)" fill="#e07e79"/></g><g transform="translate(201.215 54.877)"><path d="M975.584,280.275H957.142V261.833h18.442Zm-18.292-.149h18.143V261.982H957.291Z" transform="translate(-957.142 -261.833)" fill="#e07e79"/></g><g transform="translate(0 73.169)"><path d="M494.435,324.016H475.993V305.574h18.442Zm-18.292-.149h18.143V305.723H476.142Z" transform="translate(-475.993 -305.574)" fill="#e07e79"/></g><g transform="translate(18.292 73.169)"><path d="M538.175,324.016H519.734V305.574h18.441Zm-18.292-.149h18.143V305.723H519.883Z" transform="translate(-519.734 -305.574)" fill="#e07e79"/></g><g transform="translate(36.585 73.169)"><path d="M581.917,324.016H563.475V305.574h18.442Zm-18.293-.149h18.143V305.723H563.624Z" transform="translate(-563.475 -305.574)" fill="#e07e79"/></g><g transform="translate(54.877 73.169)"><path d="M625.657,324.016H607.216V305.574h18.441Zm-18.292-.149h18.143V305.723H607.365Z" transform="translate(-607.216 -305.574)" fill="#e07e79"/></g><g transform="translate(73.169 73.169)"><path d="M669.4,324.016H650.956V305.574H669.4Zm-18.292-.149h18.143V305.723H651.105Z" transform="translate(-650.956 -305.574)" fill="#e07e79"/></g><g transform="translate(91.462 73.169)"><path d="M713.139,324.016H694.7V305.574h18.441Zm-18.292-.149H712.99V305.723H694.847Z" transform="translate(-694.698 -305.574)" fill="#e07e79"/></g><g transform="translate(109.754 73.169)"><path d="M756.88,324.016H738.438V305.574H756.88Zm-18.292-.149h18.144V305.723H738.587Z" transform="translate(-738.438 -305.574)" fill="#e07e79"/></g><g transform="translate(128.047 73.169)"><path d="M800.621,324.016H782.18V305.574h18.442v18.442Zm-18.292-.149h18.144V305.723H782.329Z" transform="translate(-782.18 -305.574)" fill="#e07e79"/></g><g transform="translate(146.339 73.169)"><path d="M844.362,324.016H825.921V305.574h18.441Zm-18.292-.149h18.143V305.723H826.07Z" transform="translate(-825.921 -305.574)" fill="#e07e79"/></g><g transform="translate(164.631 73.169)"><path d="M888.1,324.016H869.661V305.574H888.1Zm-18.292-.149h18.143V305.723H869.81Z" transform="translate(-869.661 -305.574)" fill="#e07e79"/></g><g transform="translate(182.923 73.169)"><path d="M931.843,324.016H913.4V305.574h18.441Zm-18.292-.149h18.143V305.723H913.551Z" transform="translate(-913.402 -305.574)" fill="#e07e79"/></g><g transform="translate(201.215 73.169)"><path d="M975.584,324.016H957.142V305.574h18.442Zm-18.292-.149h18.143V305.723H957.291Z" transform="translate(-957.142 -305.574)" fill="#e07e79"/></g><g transform="translate(0 91.462)"><path d="M494.435,367.757H475.993V349.316h18.442Zm-18.292-.149h18.143V349.465H476.142Z" transform="translate(-475.993 -349.316)" fill="#e07e79"/></g><g transform="translate(18.292 91.462)"><path d="M538.175,367.757H519.734V349.316h18.441Zm-18.292-.149h18.143V349.465H519.883Z" transform="translate(-519.734 -349.316)" fill="#e07e79"/></g><g transform="translate(36.585 91.462)"><path d="M581.917,367.757H563.475V349.316h18.442Zm-18.293-.149h18.143V349.465H563.624Z" transform="translate(-563.475 -349.316)" fill="#e07e79"/></g><g transform="translate(54.877 91.462)"><path d="M625.657,367.757H607.216V349.316h18.441Zm-18.292-.149h18.143V349.465H607.365Z" transform="translate(-607.216 -349.316)" fill="#e07e79"/></g><g transform="translate(73.169 91.462)"><path d="M669.4,367.757H650.956V349.316H669.4Zm-18.292-.149h18.143V349.465H651.105Z" transform="translate(-650.956 -349.316)" fill="#e07e79"/></g><g transform="translate(91.462 91.462)"><path d="M713.139,367.757H694.7V349.316h18.441Zm-18.292-.149H712.99V349.465H694.847Z" transform="translate(-694.698 -349.316)" fill="#e07e79"/></g><g transform="translate(109.754 91.462)"><path d="M756.88,367.757H738.438V349.316H756.88Zm-18.292-.149h18.144V349.465H738.587Z" transform="translate(-738.438 -349.316)" fill="#e07e79"/></g><g transform="translate(128.047 91.462)"><path d="M800.621,367.757H782.18V349.316h18.442v18.441Zm-18.292-.149h18.144V349.465H782.329Z" transform="translate(-782.18 -349.316)" fill="#e07e79"/></g><g transform="translate(146.339 91.462)"><path d="M844.362,367.757H825.921V349.316h18.441Zm-18.292-.149h18.143V349.465H826.07Z" transform="translate(-825.921 -349.316)" fill="#e07e79"/></g><g transform="translate(164.631 91.462)"><path d="M888.1,367.757H869.661V349.316H888.1Zm-18.292-.149h18.143V349.465H869.81Z" transform="translate(-869.661 -349.316)" fill="#e07e79"/></g><g transform="translate(182.923 91.462)"><path d="M931.843,367.757H913.4V349.316h18.441Zm-18.292-.149h18.143V349.465H913.551Z" transform="translate(-913.402 -349.316)" fill="#e07e79"/></g><g transform="translate(201.215 91.462)"><path d="M975.584,367.757H957.142V349.316h18.442Zm-18.292-.149h18.143V349.465H957.291Z" transform="translate(-957.142 -349.316)" fill="#e07e79"/></g><g transform="translate(0 109.754)"><path d="M494.435,411.5H475.993V393.056h18.442Zm-18.292-.149h18.143V393.2H476.142Z" transform="translate(-475.993 -393.056)" fill="#e07e79"/></g><g transform="translate(18.292 109.754)"><path d="M538.175,411.5H519.734V393.056h18.441Zm-18.292-.149h18.143V393.2H519.883Z" transform="translate(-519.734 -393.056)" fill="#e07e79"/></g><g transform="translate(36.585 109.754)"><path d="M581.917,411.5H563.475V393.056h18.442Zm-18.293-.149h18.143V393.2H563.624Z" transform="translate(-563.475 -393.056)" fill="#e07e79"/></g><g transform="translate(54.877 109.754)"><path d="M625.657,411.5H607.216V393.056h18.441Zm-18.292-.149h18.143V393.2H607.365Z" transform="translate(-607.216 -393.056)" fill="#e07e79"/></g><g transform="translate(73.169 109.754)"><path d="M669.4,411.5H650.956V393.056H669.4Zm-18.292-.149h18.143V393.2H651.105Z" transform="translate(-650.956 -393.056)" fill="#e07e79"/></g><g transform="translate(91.462 109.754)"><path d="M713.139,411.5H694.7V393.056h18.441Zm-18.292-.149H712.99V393.2H694.847Z" transform="translate(-694.698 -393.056)" fill="#e07e79"/></g><g transform="translate(109.754 109.754)"><path d="M756.88,411.5H738.438V393.056H756.88Zm-18.292-.149h18.144V393.2H738.587Z" transform="translate(-738.438 -393.056)" fill="#e07e79"/></g><g transform="translate(128.047 109.754)"><path d="M800.621,411.5H782.18V393.056h18.442V411.5Zm-18.292-.149h18.144V393.2H782.329Z" transform="translate(-782.18 -393.056)" fill="#e07e79"/></g><g transform="translate(146.339 109.754)"><path d="M844.362,411.5H825.921V393.056h18.441Zm-18.292-.149h18.143V393.2H826.07Z" transform="translate(-825.921 -393.056)" fill="#e07e79"/></g><g transform="translate(164.631 109.754)"><path d="M888.1,411.5H869.661V393.056H888.1Zm-18.292-.149h18.143V393.2H869.81Z" transform="translate(-869.661 -393.056)" fill="#e07e79"/></g><g transform="translate(182.923 109.754)"><path d="M931.843,411.5H913.4V393.056h18.441Zm-18.292-.149h18.143V393.2H913.551Z" transform="translate(-913.402 -393.056)" fill="#e07e79"/></g><g transform="translate(201.215 109.754)"><path d="M975.584,411.5H957.142V393.056h18.442Zm-18.292-.149h18.143V393.2H957.291Z" transform="translate(-957.142 -393.056)" fill="#e07e79"/></g></g><g transform="translate(3015.507 -5856.056)"><path d="M113.969,0c62.944,0,113.969,2.213,113.969,4.942S176.913,9.884,113.969,9.884,0,7.671,0,4.942,51.026,0,113.969,0Z" transform="translate(9.445 162.726)" fill="#66757e" opacity="0.2"/><g transform="translate(0 0)"><path d="M931.926,370.253a27.184,27.184,0,0,0,4.89-6.958l.033-.068-4.1-2.012a22.547,22.547,0,0,0,2.061-6.766l4.53.636a27.071,27.071,0,0,0-.156-8.507l-4.509.8a22.828,22.828,0,0,0-2.306-6.687l4.047-2.149a27.1,27.1,0,0,0-5.118-6.8l-3.177,3.292A22.523,22.523,0,0,0,922.375,331l-.049-.023,2-4.1a27.178,27.178,0,0,0-8.13-2.494l-.639,4.531a22.576,22.576,0,0,0-7.072.129l-.8-4.51a27.288,27.288,0,0,0-8.038,2.763l2.145,4.047a22.576,22.576,0,0,0-5.659,4.244l-3.289-3.179a27.193,27.193,0,0,0-4.859,6.927l-.016.034,4.108,1.991A22.551,22.551,0,0,0,890,348.137l-4.528-.643a27.065,27.065,0,0,0,.143,8.508l4.509-.793a22.818,22.818,0,0,0,2.295,6.693l-4.047,2.141a27.077,27.077,0,0,0,5.106,6.807l3.182-3.285a22.536,22.536,0,0,0,5.772,4.063l.016.008-2.008,4.1a27.158,27.158,0,0,0,8.125,2.507l.647-4.527a22.567,22.567,0,0,0,7.073-.119l.789,4.51a27.281,27.281,0,0,0,8.042-2.75l-2.137-4.049a22.577,22.577,0,0,0,5.665-4.236Zm-24.789-8.212a11.952,11.952,0,1,1,16-5.463A11.966,11.966,0,0,1,907.137,362.041Z" transform="translate(-700.487 -212.116)" fill="#215278"/><path d="M467.611,179.171a14.021,14.021,0,0,0,2.523-3.59l.017-.035-2.115-1.038a11.624,11.624,0,0,0,1.063-3.491l2.337.328a13.975,13.975,0,0,0-.081-4.389l-2.326.413a11.771,11.771,0,0,0-1.19-3.45l2.088-1.109a13.988,13.988,0,0,0-2.641-3.507l-1.639,1.7a11.6,11.6,0,0,0-2.965-2.083l-.025-.012,1.033-2.117A14.021,14.021,0,0,0,459.5,155.5l-.33,2.338a11.658,11.658,0,0,0-3.649.066l-.411-2.327a14.084,14.084,0,0,0-4.147,1.425l1.107,2.088a11.657,11.657,0,0,0-2.919,2.19l-1.7-1.64a14.035,14.035,0,0,0-2.507,3.574l-.008.018,2.119,1.027a11.624,11.624,0,0,0-1.074,3.5l-2.336-.332a13.954,13.954,0,0,0,.074,4.39l2.326-.409a11.765,11.765,0,0,0,1.184,3.453l-2.088,1.1a13.967,13.967,0,0,0,2.634,3.512l1.641-1.695a11.621,11.621,0,0,0,2.978,2.1l.008,0L451.368,182a14.019,14.019,0,0,0,4.192,1.293l.333-2.336a11.646,11.646,0,0,0,3.649-.061l.407,2.327A14.077,14.077,0,0,0,464.1,181.8l-1.1-2.089a11.639,11.639,0,0,0,2.922-2.186Zm-12.789-4.236a6.166,6.166,0,1,1,8.252-2.818A6.173,6.173,0,0,1,454.822,174.935Z" transform="translate(-443.507 -113.866)" fill="#2f73a8"/><path d="M823.607,70.974a8.9,8.9,0,0,0,1.6-2.28l.011-.022-1.343-.66a7.377,7.377,0,0,0,.675-2.217l1.485.208a8.87,8.87,0,0,0-.051-2.788l-1.478.262a7.493,7.493,0,0,0-.756-2.192l1.326-.7a8.874,8.874,0,0,0-1.677-2.228l-1.041,1.079a7.4,7.4,0,0,0-1.883-1.323l-.016-.008.656-1.345a8.892,8.892,0,0,0-2.664-.817l-.209,1.485a7.4,7.4,0,0,0-2.318.042l-.261-1.478a8.943,8.943,0,0,0-2.634.905l.7,1.327a7.4,7.4,0,0,0-1.855,1.391L810.8,58.568a8.906,8.906,0,0,0-1.592,2.27l-.005.011,1.346.652a7.377,7.377,0,0,0-.682,2.223l-1.484-.211a8.863,8.863,0,0,0,.047,2.789l1.477-.26a7.483,7.483,0,0,0,.752,2.193l-1.327.7a8.88,8.88,0,0,0,1.674,2.231l1.043-1.077a7.382,7.382,0,0,0,1.892,1.332l.005,0-.658,1.343a8.9,8.9,0,0,0,2.663.822l.212-1.484a7.4,7.4,0,0,0,2.318-.039l.258,1.478a8.935,8.935,0,0,0,2.635-.9l-.7-1.327a7.4,7.4,0,0,0,1.856-1.388Zm-8.124-2.691a3.917,3.917,0,1,1,5.242-1.79A3.922,3.922,0,0,1,815.483,68.283Z" transform="translate(-655.741 -55.939)" fill="#215278"/><g transform="translate(15.967 57.973)"><path d="M998.984,209.741l-8.761-15.175-8.76,15.175h4.517v13.8h8.489v-13.8Z" transform="translate(-772.457 -194.566)" fill="#66757e"/><path d="M493.786,343.457l-6.049-10.478-6.05,10.478h3.118v9.532h5.862v-9.532Z" transform="translate(-481.687 -275.095)" fill="#66757e"/></g></g><g transform="translate(39.725 22.272)"><g transform="translate(4.169 18.947)"><g transform="translate(53.229 89.953)"><path d="M725.3,403.532l-3.845-33.93H689.7l-3.845,33.93-7.538.149h54.521Z" transform="translate(-677.243 -369.602)" fill="#2e3442"/><path d="M677.253,449.876h53.66a1.646,1.646,0,0,1,1.5,1.758h0a1.646,1.646,0,0,1-1.5,1.758h-53.66a1.646,1.646,0,0,1-1.5-1.758h0A1.646,1.646,0,0,1,677.253,449.876Z" transform="translate(-675.75 -416.306)" fill="#fff"/></g><path d="M548.467,161.423V251.9c0,3.816,2.836,6.912,6.331,6.912H705.346c3.494,0,6.331-3.1,6.331-6.912V161.423c0-3.824-2.836-6.919-6.331-6.919H554.8C551.3,154.5,548.467,157.6,548.467,161.423Z" transform="translate(-548.467 -154.504)" fill="#2e3442"/><path d="M548.467,377.362v4.2c0,3.816,2.836,6.912,6.331,6.912H705.346c3.494,0,6.331-3.1,6.331-6.912v-4.2Z" transform="translate(-548.467 -284.163)" fill="#fff"/><path d="M564.721,167.477H710.736a3.094,3.094,0,0,1,3.094,3.094v75.982a3.094,3.094,0,0,1-3.094,3.094H564.721a3.094,3.094,0,0,1-3.094-3.094V170.571A3.094,3.094,0,0,1,564.721,167.477Z" transform="translate(-556.124 -162.052)" fill="#2f73a8"/><g transform="translate(33.249 5.425)" opacity="0.1"><path d="M684.743,249.648h27.691l53.758-82.171h-27.7Z" transform="translate(-661.001 -167.477)" fill="#fff"/><path d="M627.972,249.648h13.855l53.751-82.171H681.73Z" transform="translate(-627.972 -167.477)" fill="#fff"/></g></g><rect width="64.372" height="53.968" transform="translate(0 6.275)" fill="#cfdcf9"/><g transform="translate(4.586 53.087)"><rect width="10.079" height="1.566" transform="translate(5.662 1.2)" fill="#3f4977"/><path d="M553.428,238.123a1.983,1.983,0,1,1-1.983-1.983A1.983,1.983,0,0,1,553.428,238.123Z" transform="translate(-549.463 -236.14)" fill="#eb9331"/><g transform="translate(40.351)"><rect width="10.079" height="1.566" transform="translate(5.662 1.2)" fill="#3f4977"/><path d="M649.917,238.123a1.983,1.983,0,1,1-1.983-1.983A1.983,1.983,0,0,1,649.917,238.123Z" transform="translate(-645.952 -236.14)" fill="#e44a4a"/></g></g><path d="M599.886,109.2H541.481a2.983,2.983,0,0,0-2.983,2.983v3.292H602.87V112.18A2.984,2.984,0,0,0,599.886,109.2Z" transform="translate(-538.498 -109.197)" fill="#5669af"/><g transform="translate(2.763 1.695)"><path d="M547.991,114.693a1.443,1.443,0,1,1-1.443-1.443A1.443,1.443,0,0,1,547.991,114.693Z" transform="translate(-545.105 -113.25)" fill="#fff"/><path d="M558.654,114.693a1.443,1.443,0,1,1-1.443-1.443A1.443,1.443,0,0,1,558.654,114.693Z" transform="translate(-551.309 -113.25)" fill="#fff"/><path d="M569.317,114.693a1.443,1.443,0,1,1-1.443-1.443A1.443,1.443,0,0,1,569.317,114.693Z" transform="translate(-557.513 -113.25)" fill="#fff"/></g><circle cx="20.769" cy="20.769" r="20.769" transform="translate(5.194 19.335) rotate(-21.801)" fill="#fff"/><g transform="translate(16.353 16.553)"><path d="M596.01,163.865l-4.89-12.385a13.307,13.307,0,1,1-8.239,10.178Z" transform="translate(-580.566 -149.811)" fill="#fcd004"/><path d="M577.6,158.956a13.33,13.33,0,0,1,8.239-10.178l4.89,12.386Z" transform="translate(-577.6 -148.778)" fill="#44a6f1"/></g><g transform="translate(69.468 45.346)"><rect width="86.699" height="50.711" transform="translate(0 5.263)" fill="#fff"/><path d="M788.807,217.629H707.112a2.5,2.5,0,0,0-2.5,2.5v2.761h86.7v-2.761A2.5,2.5,0,0,0,788.807,217.629Z" transform="translate(-704.61 -217.629)" fill="#5669af"/><g transform="translate(2.318 1.421)"><circle cx="1.21" cy="1.21" r="1.21" fill="#fff"/><path d="M721.514,222.238a1.21,1.21,0,1,1-1.21-1.21A1.21,1.21,0,0,1,721.514,222.238Z" transform="translate(-715.354 -221.028)" fill="#fff"/><circle cx="1.21" cy="1.21" r="1.21" transform="translate(7.479)" fill="#fff"/></g><g transform="translate(5.804 9.625)"><path d="M793.386,281.407h-74.9V240.644h.506V280.9h74.391Z" transform="translate(-718.489 -240.644)" fill="#3f4977"/><g transform="translate(3.557 1.454)"><rect width="7.335" height="15.015" transform="translate(0 21.309)" fill="#eb9331"/><rect width="7.335" height="36.323" transform="translate(11.877)" fill="#5669af"/><rect width="7.335" height="27.4" transform="translate(23.754 8.924)" fill="#cfdcf9"/><rect width="7.335" height="22.624" transform="translate(35.632 13.7)" fill="#eb9331"/><rect width="7.335" height="16.784" transform="translate(47.509 19.539)" fill="#5669af"/><rect width="7.335" height="36.323" transform="translate(59.386)" fill="#cfdcf9"/><g transform="translate(0 41.077)"><rect width="7.335" height="0.818" fill="#3f4977"/><rect width="7.335" height="0.818" transform="translate(11.877)" fill="#3f4977"/><rect width="7.335" height="0.818" transform="translate(23.754)" fill="#3f4977"/><rect width="7.335" height="0.818" transform="translate(35.632)" fill="#3f4977"/><rect width="7.335" height="0.818" transform="translate(47.509)" fill="#3f4977"/><rect width="7.335" height="0.818" transform="translate(59.386)" fill="#3f4977"/></g></g></g></g><g transform="translate(35.389 67.681)"><path d="M650.131,291.143H624.56a1.44,1.44,0,0,1-1.44-1.44V272.477a1.44,1.44,0,0,1,1.44-1.44h25.571a1.44,1.44,0,0,1,1.44,1.44V289.7A1.44,1.44,0,0,1,650.131,291.143Z" transform="translate(-623.12 -271.037)" fill="#fff"/><path d="M630.6,283.557l7.5-4.9,3.542,2.569,3.8-4.7,3.67,2.328,3.67-5.058" transform="translate(-627.472 -272.646)" fill="none" stroke="#4a5889" stroke-miterlimit="10" stroke-width="0.5"/><g transform="translate(2.574 0.602)"><path d="M648.329,284.647a.554.554,0,1,1-.554-.554A.554.554,0,0,1,648.329,284.647Z" transform="translate(-639.716 -279.235)" fill="#eb9331"/><path d="M656.907,290.584a.554.554,0,1,1-.554-.554A.554.554,0,0,1,656.907,290.584Z" transform="translate(-644.707 -282.689)" fill="#fcc549"/><path d="M665.88,279.718a.554.554,0,1,1-.554-.554A.554.554,0,0,1,665.88,279.718Z" transform="translate(-649.928 -276.368)" fill="#c1404c"/><path d="M674.656,284.7a.554.554,0,1,1-.554-.554A.554.554,0,0,1,674.656,284.7Z" transform="translate(-655.034 -279.263)" fill="#eb9331"/><path d="M683.431,273.031a.554.554,0,1,1-.554-.554A.554.554,0,0,1,683.431,273.031Z" transform="translate(-660.139 -272.477)" fill="#fcc549"/><path d="M630.384,296.358a.554.554,0,1,1-.554-.554A.554.554,0,0,1,630.384,296.358Z" transform="translate(-629.276 -286.049)" fill="#c1404c"/></g><g transform="translate(2.303 3.782)"><g transform="translate(0 9.099)"><path d="M630.608,303.129a1.025,1.025,0,1,0-1.98,0v2a1.025,1.025,0,1,0,1.98,0Z" transform="translate(-628.628 -301.839)" fill="#3f4977"/></g><g transform="translate(3.67 7.026)"><path d="M639.384,298.171a1.025,1.025,0,1,0-1.98,0v4.072a1.025,1.025,0,1,0,1.98,0Z" transform="translate(-637.404 -296.881)" fill="#3f4977"/></g><g transform="translate(7.34 4.865)"><path d="M648.159,293a1.025,1.025,0,1,0-1.98,0v6.232a1.025,1.025,0,1,0,1.98,0Z" transform="translate(-646.179 -291.715)" fill="#3f4977"/></g><g transform="translate(11.009 6.562)"><path d="M656.934,297.062a1.025,1.025,0,1,0-1.98,0V301.6a1.025,1.025,0,1,0,1.98,0Z" transform="translate(-654.954 -295.772)" fill="#3f4977"/></g><g transform="translate(14.68 2.733)"><path d="M665.71,287.907a1.025,1.025,0,1,0-1.98,0v8.364a1.025,1.025,0,1,0,1.98,0Z" transform="translate(-663.73 -286.617)" fill="#3f4977"/></g><g transform="translate(18.349 4.495)"><path d="M674.485,292.12a1.025,1.025,0,1,0-1.98,0v6.6a1.025,1.025,0,1,0,1.98,0Z" transform="translate(-672.505 -290.83)" fill="#3f4977"/></g><g transform="translate(22.019)"><path d="M683.26,281.371a1.025,1.025,0,1,0-1.98,0v11.1a1.025,1.025,0,1,0,1.98,0Z" transform="translate(-681.28 -280.081)" fill="#3f4977"/></g></g></g></g><g transform="translate(31.814 46.744)"><g transform="translate(127.185)"><g transform="translate(34.606 35.066)"><line x2="6.353" y2="6.668" transform="translate(1.253 1.192)" fill="#fff"/><rect width="3.463" height="9.21" transform="matrix(0.724, -0.69, 0.69, 0.724, 0, 2.389)" fill="#2e3442"/></g><path d="M940.323,281.846a2.378,2.378,0,0,1-.732,1.763l-1.71,1.623-.915.872a2.481,2.481,0,0,1-3.507-.159L916.835,268.5l0-3.526.853-.814h.01l1.759-1.681,3.517.159L939.6,280.088A2.616,2.616,0,0,1,940.323,281.846Z" transform="translate(-877.889 -222.85)" fill="#5669af"/><path d="M940.323,290.223a2.378,2.378,0,0,1-.732,1.763l-1.71,1.623-.915.872a2.481,2.481,0,0,1-3.507-.159L916.835,276.88Z" transform="translate(-877.889 -231.227)" fill="#2e3442" opacity="0.4"/><path d="M868.135,192.882a19.258,19.258,0,0,1-29.747,16.157,18.857,18.857,0,0,1-3.507-2.919,19.258,19.258,0,0,1,13.681-32.492c.1-.005.207-.005.313-.005a19.253,19.253,0,0,1,6.523,1.132,18.9,18.9,0,0,1,4.08,2.048,19.233,19.233,0,0,1,8.657,16.08Z" transform="translate(-827.142 -171.151)" fill="#fff" opacity="0.6"/><g transform="translate(3.958 2.471)" opacity="0.2"><path d="M879.662,192.2l-15.81,24.168a19.36,19.36,0,0,1-2.765.2,19.144,19.144,0,0,1-10.487-3.107l21.09-32.237A19.283,19.283,0,0,1,879.662,192.2Z" transform="translate(-843.311 -178.046)" fill="#fff"/><path d="M857.469,174.754l-20.517,31.365a19.121,19.121,0,0,1-3.781-5.8l17.463-26.692c.1-.005.207-.005.313-.005A19.261,19.261,0,0,1,857.469,174.754Z" transform="translate(-833.171 -173.622)" fill="#fff"/></g><path d="M836.811,209.387A21.727,21.727,0,1,0,825.5,180.819,21.727,21.727,0,0,0,836.811,209.387Zm24.866-12.915a17.693,17.693,0,1,1-9.213-23.263A17.713,17.713,0,0,1,861.677,196.472Z" transform="translate(-823.706 -167.714)" fill="#fcc549"/></g><g transform="translate(0 51.492)"><path d="M560.525,311.315A20.472,20.472,0,1,0,522.7,322.172l-.012.008s.1.147.28.41c.057.087.114.174.172.26,1.695,2.569,7.61,12.149,7.61,20.693h18.624c0-9.971,8.063-21.362,8.063-21.362l-.024-.015A20.369,20.369,0,0,0,560.525,311.315Z" transform="translate(-519.58 -290.843)" fill="#fcc549"/><g transform="translate(4.251 3.096)"><path d="M557.332,412.023H546.065v9.562l5.14,4.25h9.023l5.14-4.25v-9.562Z" transform="translate(-539.24 -364.442)" fill="#3f4977"/><g transform="translate(5.804 24.773)"><path d="M549.039,379.608l-5.414-20.138.524.41c.031.024,2.942,2.275,5.248,1.986-1.246-2.006-.689-3.165-.325-3.623a2.005,2.005,0,0,1,2.461-.542c.755.427.96,1.336.549,2.433a3.357,3.357,0,0,1-1.952,2.015,11.252,11.252,0,0,0,.84,1.018c1.547,1.676,3.007,1.4,3.957.872a5.643,5.643,0,0,0,2.055-2.121,4.064,4.064,0,0,1-.8-.384,2.779,2.779,0,0,1-1.5-2.8,1.649,1.649,0,0,1,1.752-1.058,1.527,1.527,0,0,1,1.662,1.154,4.4,4.4,0,0,1-.475,2.827c2.205.491,4.349-1.17,5.036-1.77l.493-.431-4.021,20.137-.436-.087,3.771-18.882a5.8,5.8,0,0,1-5.042,1.422,6.1,6.1,0,0,1-2.277,2.38,3.479,3.479,0,0,1-4.5-.96,11.866,11.866,0,0,1-.975-1.195c-1.956.37-4.266-.988-5.279-1.674l5.079,18.893Zm1.625-21.685a1.611,1.611,0,0,0-1.243.6c-.593.747-.417,1.909.448,3.247a2.894,2.894,0,0,0,1.8-1.8c.329-.879.2-1.568-.354-1.882A1.323,1.323,0,0,0,550.664,357.923Zm5.832.2h-.055c-.728.008-1.2.269-1.332.735a2.379,2.379,0,0,0,1.311,2.3,3.844,3.844,0,0,0,.768.376,4.006,4.006,0,0,0,.478-2.585A1.08,1.08,0,0,0,556.5,358.121Z" transform="translate(-543.625 -357.483)" fill="#3f4977"/></g><path d="M542.8,298.841c1.536,1.536-.008,5.571-3.448,9.012s-7.475,4.984-9.012,3.448.008-5.571,3.448-9.012S541.264,297.3,542.8,298.841Z" transform="translate(-529.746 -298.246)" fill="#fff" opacity="0.1"/><path d="M562.448,310.816s3.592,28.949-27.018,25.239c0,0,5.263,8.172,5.411,15.733H557a51.885,51.885,0,0,1,5.578-15.474C566.858,328.828,569.972,319.044,562.448,310.816Z" transform="translate(-533.053 -305.559)" fill="#2e3442" opacity="0.5"/><path d="M563.171,408.789h-21.1a1.235,1.235,0,1,0,0,2.464h21.1a1.235,1.235,0,1,0,0-2.464Z" transform="translate(-536.146 -362.56)" fill="#5669af"/><path d="M563.171,417.829h-21.1a1.235,1.235,0,1,0,0,2.464h21.1a1.235,1.235,0,1,0,0-2.464Z" transform="translate(-536.146 -367.82)" fill="#5669af"/><path d="M563.171,426.868h-21.1a1.235,1.235,0,1,0,0,2.464h21.1a1.235,1.235,0,1,0,0-2.464Z" transform="translate(-536.146 -373.079)" fill="#5669af"/></g><path d="M558.355,445.051v.061a4.509,4.509,0,1,0,9.018,0v-.061Z" transform="translate(-542.139 -380.562)" fill="#5669af"/></g></g></g></g></g></svg>