<svg xmlns="http://www.w3.org/2000/svg" xmlns:xlink="http://www.w3.org/1999/xlink" width="295" height="179.804" viewBox="0 0 295 179.804"><defs><clipPath id="a"><rect width="255.065" height="179.804" fill="none"/></clipPath><clipPath id="c"><rect width="48.951" height="48.93" fill="none"/></clipPath><clipPath id="d"><rect width="53.928" height="53.926" fill="none"/></clipPath><clipPath id="e"><rect width="38.705" height="38.709" fill="none"/></clipPath></defs><g transform="translate(-285 -4925.486)"><g transform="translate(285 4943.657)"><g transform="translate(6.006 4.897)"><path d="M66.133,0A66.132,66.132,0,1,1,0,66.132,66.132,66.132,0,0,1,66.133,0Z" transform="translate(0)" fill="#44a6f1" opacity="0.444" style="mix-blend-mode:multiply;isolation:isolate"/><g transform="translate(25.82 27.339)"><path d="M416.01,51.082a.9.9,0,1,1-.9-.858A.879.879,0,0,1,416.01,51.082Z" transform="translate(-414.214 -50.224)" fill="#44a6f1"/><path d="M424.456,51.082a.9.9,0,1,1-.9-.858A.879.879,0,0,1,424.456,51.082Z" transform="translate(-414.578 -50.224)" fill="#44a6f1"/><path d="M432.9,51.082a.9.9,0,1,1-.9-.858A.879.879,0,0,1,432.9,51.082Z" transform="translate(-414.943 -50.224)" fill="#44a6f1"/><path d="M441.349,51.082a.9.9,0,1,1-.9-.858A.879.879,0,0,1,441.349,51.082Z" transform="translate(-415.307 -50.224)" fill="#44a6f1"/><path d="M449.8,51.082a.9.9,0,1,1-.9-.858A.879.879,0,0,1,449.8,51.082Z" transform="translate(-415.671 -50.224)" fill="#44a6f1"/><path d="M458.241,51.082a.9.9,0,1,1-.9-.858A.879.879,0,0,1,458.241,51.082Z" transform="translate(-416.036 -50.224)" fill="#44a6f1"/><path d="M466.688,51.082a.9.9,0,1,1-.9-.858A.88.88,0,0,1,466.688,51.082Z" transform="translate(-416.4 -50.224)" fill="#44a6f1"/><path d="M475.134,51.082a.9.9,0,1,1-.9-.858A.879.879,0,0,1,475.134,51.082Z" transform="translate(-416.764 -50.224)" fill="#44a6f1"/><path d="M483.58,51.082a.9.9,0,1,1-.9-.858A.879.879,0,0,1,483.58,51.082Z" transform="translate(-417.128 -50.224)" fill="#44a6f1"/><path d="M492.027,51.082a.9.9,0,1,1-.9-.858A.88.88,0,0,1,492.027,51.082Z" transform="translate(-417.493 -50.224)" fill="#44a6f1"/><path d="M500.473,51.082a.9.9,0,1,1-.9-.858A.879.879,0,0,1,500.473,51.082Z" transform="translate(-417.857 -50.224)" fill="#44a6f1"/><g transform="translate(0 6.87)"><path d="M416.01,58.59a.9.9,0,1,1-.9-.858A.879.879,0,0,1,416.01,58.59Z" transform="translate(-414.214 -57.732)" fill="#44a6f1"/><path d="M424.456,58.59a.9.9,0,1,1-.9-.858A.879.879,0,0,1,424.456,58.59Z" transform="translate(-414.578 -57.732)" fill="#44a6f1"/><path d="M432.9,58.59a.9.9,0,1,1-.9-.858A.879.879,0,0,1,432.9,58.59Z" transform="translate(-414.943 -57.732)" fill="#44a6f1"/><path d="M441.349,58.59a.9.9,0,1,1-.9-.858A.879.879,0,0,1,441.349,58.59Z" transform="translate(-415.307 -57.732)" fill="#44a6f1"/><path d="M449.8,58.59a.9.9,0,1,1-.9-.858A.879.879,0,0,1,449.8,58.59Z" transform="translate(-415.671 -57.732)" fill="#44a6f1"/><path d="M458.241,58.59a.9.9,0,1,1-.9-.858A.879.879,0,0,1,458.241,58.59Z" transform="translate(-416.036 -57.732)" fill="#44a6f1"/><path d="M466.688,58.59a.9.9,0,1,1-.9-.858A.88.88,0,0,1,466.688,58.59Z" transform="translate(-416.4 -57.732)" fill="#44a6f1"/><path d="M475.134,58.59a.9.9,0,1,1-.9-.858A.879.879,0,0,1,475.134,58.59Z" transform="translate(-416.764 -57.732)" fill="#44a6f1"/><path d="M483.58,58.59a.9.9,0,1,1-.9-.858A.879.879,0,0,1,483.58,58.59Z" transform="translate(-417.128 -57.732)" fill="#44a6f1"/><path d="M492.027,58.59a.9.9,0,1,1-.9-.858A.88.88,0,0,1,492.027,58.59Z" transform="translate(-417.493 -57.732)" fill="#44a6f1"/><path d="M500.473,58.59a.9.9,0,1,1-.9-.858A.879.879,0,0,1,500.473,58.59Z" transform="translate(-417.857 -57.732)" fill="#44a6f1"/></g><g transform="translate(0 13.741)"><ellipse cx="0.898" cy="0.859" rx="0.898" ry="0.859" fill="#44a6f1"/><path d="M424.456,66.1a.9.9,0,1,1-.9-.858A.879.879,0,0,1,424.456,66.1Z" transform="translate(-414.578 -65.24)" fill="#44a6f1"/><ellipse cx="0.898" cy="0.859" rx="0.898" ry="0.859" transform="translate(16.164)" fill="#44a6f1"/><path d="M441.349,66.1a.9.9,0,1,1-.9-.858A.88.88,0,0,1,441.349,66.1Z" transform="translate(-415.307 -65.24)" fill="#44a6f1"/><path d="M449.8,66.1a.9.9,0,1,1-.9-.858A.879.879,0,0,1,449.8,66.1Z" transform="translate(-415.671 -65.24)" fill="#44a6f1"/><ellipse cx="0.898" cy="0.859" rx="0.898" ry="0.859" transform="translate(40.41)" fill="#44a6f1"/><path d="M466.688,66.1a.9.9,0,1,1-.9-.858A.88.88,0,0,1,466.688,66.1Z" transform="translate(-416.4 -65.24)" fill="#44a6f1"/><ellipse cx="0.898" cy="0.859" rx="0.898" ry="0.859" transform="translate(56.574)" fill="#44a6f1"/><ellipse cx="0.898" cy="0.859" rx="0.898" ry="0.859" transform="translate(64.656)" fill="#44a6f1"/><path d="M492.027,66.1a.9.9,0,1,1-.9-.858A.88.88,0,0,1,492.027,66.1Z" transform="translate(-417.492 -65.24)" fill="#44a6f1"/><path d="M500.473,66.1a.9.9,0,1,1-.9-.858A.88.88,0,0,1,500.473,66.1Z" transform="translate(-417.857 -65.24)" fill="#44a6f1"/></g><g transform="translate(0 20.61)"><ellipse cx="0.898" cy="0.859" rx="0.898" ry="0.859" transform="translate(0 0)" fill="#44a6f1"/><path d="M424.456,73.606a.9.9,0,1,1-.9-.859A.878.878,0,0,1,424.456,73.606Z" transform="translate(-414.578 -72.747)" fill="#44a6f1"/><ellipse cx="0.898" cy="0.859" rx="0.898" ry="0.859" transform="translate(16.164 0)" fill="#44a6f1"/><path d="M441.349,73.606a.9.9,0,1,1-.9-.859A.879.879,0,0,1,441.349,73.606Z" transform="translate(-415.307 -72.747)" fill="#44a6f1"/><path d="M449.8,73.606a.9.9,0,1,1-.9-.859A.879.879,0,0,1,449.8,73.606Z" transform="translate(-415.671 -72.747)" fill="#44a6f1"/><ellipse cx="0.898" cy="0.859" rx="0.898" ry="0.859" transform="translate(40.41 0)" fill="#44a6f1"/><path d="M466.688,73.606a.9.9,0,1,1-.9-.859A.879.879,0,0,1,466.688,73.606Z" transform="translate(-416.4 -72.747)" fill="#44a6f1"/><ellipse cx="0.898" cy="0.859" rx="0.898" ry="0.859" transform="translate(56.574 0)" fill="#44a6f1"/><ellipse cx="0.898" cy="0.859" rx="0.898" ry="0.859" transform="translate(64.656 0)" fill="#44a6f1"/><path d="M492.027,73.606a.9.9,0,1,1-.9-.859A.879.879,0,0,1,492.027,73.606Z" transform="translate(-417.492 -72.747)" fill="#44a6f1"/><path d="M500.473,73.606a.9.9,0,1,1-.9-.859A.879.879,0,0,1,500.473,73.606Z" transform="translate(-417.857 -72.747)" fill="#44a6f1"/></g><g transform="translate(0 27.48)"><path d="M416.01,81.114a.9.9,0,1,1-.9-.859A.879.879,0,0,1,416.01,81.114Z" transform="translate(-414.214 -80.255)" fill="#44a6f1"/><path d="M424.456,81.114a.9.9,0,1,1-.9-.859A.878.878,0,0,1,424.456,81.114Z" transform="translate(-414.578 -80.255)" fill="#44a6f1"/><path d="M432.9,81.114a.9.9,0,1,1-.9-.859A.879.879,0,0,1,432.9,81.114Z" transform="translate(-414.943 -80.255)" fill="#44a6f1"/><path d="M441.349,81.114a.9.9,0,1,1-.9-.859A.879.879,0,0,1,441.349,81.114Z" transform="translate(-415.307 -80.255)" fill="#44a6f1"/><path d="M449.8,81.114a.9.9,0,1,1-.9-.859A.879.879,0,0,1,449.8,81.114Z" transform="translate(-415.671 -80.255)" fill="#44a6f1"/><path d="M458.241,81.114a.9.9,0,1,1-.9-.859A.879.879,0,0,1,458.241,81.114Z" transform="translate(-416.036 -80.255)" fill="#44a6f1"/><path d="M466.688,81.114a.9.9,0,1,1-.9-.859A.879.879,0,0,1,466.688,81.114Z" transform="translate(-416.4 -80.255)" fill="#44a6f1"/><path d="M475.134,81.114a.9.9,0,1,1-.9-.859A.879.879,0,0,1,475.134,81.114Z" transform="translate(-416.764 -80.255)" fill="#44a6f1"/><path d="M483.58,81.114a.9.9,0,1,1-.9-.859A.879.879,0,0,1,483.58,81.114Z" transform="translate(-417.128 -80.255)" fill="#44a6f1"/><path d="M492.027,81.114a.9.9,0,1,1-.9-.859A.879.879,0,0,1,492.027,81.114Z" transform="translate(-417.493 -80.255)" fill="#44a6f1"/><path d="M500.473,81.114a.9.9,0,1,1-.9-.859A.879.879,0,0,1,500.473,81.114Z" transform="translate(-417.857 -80.255)" fill="#44a6f1"/></g><g transform="translate(0 34.351)"><ellipse cx="0.898" cy="0.859" rx="0.898" ry="0.859" transform="translate(0 0)" fill="#44a6f1"/><path d="M424.456,88.622a.9.9,0,1,1-.9-.859A.878.878,0,0,1,424.456,88.622Z" transform="translate(-414.578 -87.763)" fill="#44a6f1"/><ellipse cx="0.898" cy="0.859" rx="0.898" ry="0.859" transform="translate(16.164 0)" fill="#44a6f1"/><path d="M441.349,88.622a.9.9,0,1,1-.9-.859A.879.879,0,0,1,441.349,88.622Z" transform="translate(-415.307 -87.763)" fill="#44a6f1"/><path d="M449.8,88.622a.9.9,0,1,1-.9-.859A.879.879,0,0,1,449.8,88.622Z" transform="translate(-415.671 -87.763)" fill="#44a6f1"/><ellipse cx="0.898" cy="0.859" rx="0.898" ry="0.859" transform="translate(40.41 0)" fill="#44a6f1"/><path d="M466.688,88.622a.9.9,0,1,1-.9-.859A.879.879,0,0,1,466.688,88.622Z" transform="translate(-416.4 -87.763)" fill="#44a6f1"/><ellipse cx="0.898" cy="0.859" rx="0.898" ry="0.859" transform="translate(56.574 0)" fill="#44a6f1"/><ellipse cx="0.898" cy="0.859" rx="0.898" ry="0.859" transform="translate(64.656 0)" fill="#44a6f1"/><path d="M492.027,88.622a.9.9,0,1,1-.9-.859A.879.879,0,0,1,492.027,88.622Z" transform="translate(-417.492 -87.763)" fill="#44a6f1"/><path d="M500.473,88.622a.9.9,0,1,1-.9-.859A.879.879,0,0,1,500.473,88.622Z" transform="translate(-417.857 -87.763)" fill="#44a6f1"/></g><g transform="translate(0 41.221)"><ellipse cx="0.898" cy="0.859" rx="0.898" ry="0.859" fill="#44a6f1"/><path d="M424.456,96.129a.9.9,0,1,1-.9-.858A.879.879,0,0,1,424.456,96.129Z" transform="translate(-414.578 -95.271)" fill="#44a6f1"/><ellipse cx="0.898" cy="0.859" rx="0.898" ry="0.859" transform="translate(16.164)" fill="#44a6f1"/><path d="M441.349,96.129a.9.9,0,1,1-.9-.858A.879.879,0,0,1,441.349,96.129Z" transform="translate(-415.307 -95.271)" fill="#44a6f1"/><path d="M449.8,96.129a.9.9,0,1,1-.9-.858A.879.879,0,0,1,449.8,96.129Z" transform="translate(-415.671 -95.271)" fill="#44a6f1"/><ellipse cx="0.898" cy="0.859" rx="0.898" ry="0.859" transform="translate(40.41)" fill="#44a6f1"/><path d="M466.688,96.129a.9.9,0,1,1-.9-.858A.88.88,0,0,1,466.688,96.129Z" transform="translate(-416.4 -95.271)" fill="#44a6f1"/><ellipse cx="0.898" cy="0.859" rx="0.898" ry="0.859" transform="translate(56.574)" fill="#44a6f1"/><ellipse cx="0.898" cy="0.859" rx="0.898" ry="0.859" transform="translate(64.656)" fill="#44a6f1"/><path d="M492.027,96.129a.9.9,0,1,1-.9-.858A.88.88,0,0,1,492.027,96.129Z" transform="translate(-417.492 -95.271)" fill="#44a6f1"/><path d="M500.473,96.129a.9.9,0,1,1-.9-.858A.879.879,0,0,1,500.473,96.129Z" transform="translate(-417.857 -95.271)" fill="#44a6f1"/></g><g transform="translate(0 48.091)"><path d="M416.01,103.637a.9.9,0,1,1-.9-.858A.879.879,0,0,1,416.01,103.637Z" transform="translate(-414.214 -102.779)" fill="#44a6f1"/><path d="M424.456,103.637a.9.9,0,1,1-.9-.858A.879.879,0,0,1,424.456,103.637Z" transform="translate(-414.578 -102.779)" fill="#44a6f1"/><path d="M432.9,103.637a.9.9,0,1,1-.9-.858A.879.879,0,0,1,432.9,103.637Z" transform="translate(-414.943 -102.779)" fill="#44a6f1"/><path d="M441.349,103.637a.9.9,0,1,1-.9-.858A.879.879,0,0,1,441.349,103.637Z" transform="translate(-415.307 -102.779)" fill="#44a6f1"/><path d="M449.8,103.637a.9.9,0,1,1-.9-.858A.879.879,0,0,1,449.8,103.637Z" transform="translate(-415.671 -102.779)" fill="#44a6f1"/><path d="M458.241,103.637a.9.9,0,1,1-.9-.858A.879.879,0,0,1,458.241,103.637Z" transform="translate(-416.036 -102.779)" fill="#44a6f1"/><path d="M466.688,103.637a.9.9,0,1,1-.9-.858A.88.88,0,0,1,466.688,103.637Z" transform="translate(-416.4 -102.779)" fill="#44a6f1"/><path d="M475.134,103.637a.9.9,0,1,1-.9-.858A.879.879,0,0,1,475.134,103.637Z" transform="translate(-416.764 -102.779)" fill="#44a6f1"/><path d="M483.58,103.637a.9.9,0,1,1-.9-.858A.879.879,0,0,1,483.58,103.637Z" transform="translate(-417.128 -102.779)" fill="#44a6f1"/><path d="M492.027,103.637a.9.9,0,1,1-.9-.858A.88.88,0,0,1,492.027,103.637Z" transform="translate(-417.493 -102.779)" fill="#44a6f1"/><path d="M500.473,103.637a.9.9,0,1,1-.9-.858A.879.879,0,0,1,500.473,103.637Z" transform="translate(-417.857 -102.779)" fill="#44a6f1"/></g><g transform="translate(0 54.962)"><ellipse cx="0.898" cy="0.859" rx="0.898" ry="0.859" fill="#44a6f1"/><path d="M424.456,111.145a.9.9,0,1,1-.9-.858A.879.879,0,0,1,424.456,111.145Z" transform="translate(-414.578 -110.287)" fill="#44a6f1"/><ellipse cx="0.898" cy="0.859" rx="0.898" ry="0.859" transform="translate(16.164)" fill="#44a6f1"/><path d="M441.349,111.145a.9.9,0,1,1-.9-.858A.88.88,0,0,1,441.349,111.145Z" transform="translate(-415.307 -110.287)" fill="#44a6f1"/><path d="M449.8,111.145a.9.9,0,1,1-.9-.858A.879.879,0,0,1,449.8,111.145Z" transform="translate(-415.671 -110.287)" fill="#44a6f1"/><ellipse cx="0.898" cy="0.859" rx="0.898" ry="0.859" transform="translate(40.41)" fill="#44a6f1"/><path d="M466.688,111.145a.9.9,0,1,1-.9-.858A.88.88,0,0,1,466.688,111.145Z" transform="translate(-416.4 -110.287)" fill="#44a6f1"/><ellipse cx="0.898" cy="0.859" rx="0.898" ry="0.859" transform="translate(56.574)" fill="#44a6f1"/><ellipse cx="0.898" cy="0.859" rx="0.898" ry="0.859" transform="translate(64.656)" fill="#44a6f1"/><path d="M492.027,111.145a.9.9,0,1,1-.9-.858A.88.88,0,0,1,492.027,111.145Z" transform="translate(-417.492 -110.287)" fill="#44a6f1"/><path d="M500.473,111.145a.9.9,0,1,1-.9-.858A.88.88,0,0,1,500.473,111.145Z" transform="translate(-417.857 -110.287)" fill="#44a6f1"/></g><g transform="translate(0 61.831)"><path d="M416.01,118.653a.9.9,0,1,1-.9-.859A.88.88,0,0,1,416.01,118.653Z" transform="translate(-414.214 -117.794)" fill="#44a6f1"/><path d="M424.456,118.653a.9.9,0,1,1-.9-.859A.879.879,0,0,1,424.456,118.653Z" transform="translate(-414.578 -117.794)" fill="#44a6f1"/><path d="M432.9,118.653a.9.9,0,1,1-.9-.859A.879.879,0,0,1,432.9,118.653Z" transform="translate(-414.943 -117.794)" fill="#44a6f1"/><path d="M441.349,118.653a.9.9,0,1,1-.9-.859A.88.88,0,0,1,441.349,118.653Z" transform="translate(-415.307 -117.794)" fill="#44a6f1"/><path d="M449.8,118.653a.9.9,0,1,1-.9-.859A.879.879,0,0,1,449.8,118.653Z" transform="translate(-415.671 -117.794)" fill="#44a6f1"/><path d="M458.241,118.653a.9.9,0,1,1-.9-.859A.879.879,0,0,1,458.241,118.653Z" transform="translate(-416.036 -117.794)" fill="#44a6f1"/><path d="M466.688,118.653a.9.9,0,1,1-.9-.859A.88.88,0,0,1,466.688,118.653Z" transform="translate(-416.4 -117.794)" fill="#44a6f1"/><path d="M475.134,118.653a.9.9,0,1,1-.9-.859A.879.879,0,0,1,475.134,118.653Z" transform="translate(-416.764 -117.794)" fill="#44a6f1"/><path d="M483.58,118.653a.9.9,0,1,1-.9-.859A.88.88,0,0,1,483.58,118.653Z" transform="translate(-417.128 -117.794)" fill="#44a6f1"/><path d="M492.027,118.653a.9.9,0,1,1-.9-.859A.88.88,0,0,1,492.027,118.653Z" transform="translate(-417.493 -117.794)" fill="#44a6f1"/><path d="M500.473,118.653a.9.9,0,1,1-.9-.859A.88.88,0,0,1,500.473,118.653Z" transform="translate(-417.857 -117.794)" fill="#44a6f1"/></g><g transform="translate(0 68.701)"><ellipse cx="0.898" cy="0.859" rx="0.898" ry="0.859" transform="translate(0 0)" fill="#44a6f1"/><path d="M424.456,126.161a.9.9,0,1,1-.9-.859A.878.878,0,0,1,424.456,126.161Z" transform="translate(-414.578 -125.302)" fill="#44a6f1"/><ellipse cx="0.898" cy="0.859" rx="0.898" ry="0.859" transform="translate(16.164 0)" fill="#44a6f1"/><path d="M441.349,126.161a.9.9,0,1,1-.9-.859A.879.879,0,0,1,441.349,126.161Z" transform="translate(-415.307 -125.302)" fill="#44a6f1"/><path d="M449.8,126.161a.9.9,0,1,1-.9-.859A.879.879,0,0,1,449.8,126.161Z" transform="translate(-415.671 -125.302)" fill="#44a6f1"/><ellipse cx="0.898" cy="0.859" rx="0.898" ry="0.859" transform="translate(40.41 0)" fill="#44a6f1"/><path d="M466.688,126.161a.9.9,0,1,1-.9-.859A.879.879,0,0,1,466.688,126.161Z" transform="translate(-416.4 -125.302)" fill="#44a6f1"/><ellipse cx="0.898" cy="0.859" rx="0.898" ry="0.859" transform="translate(56.574 0)" fill="#44a6f1"/><ellipse cx="0.898" cy="0.859" rx="0.898" ry="0.859" transform="translate(64.656 0)" fill="#44a6f1"/><path d="M492.027,126.161a.9.9,0,1,1-.9-.859A.879.879,0,0,1,492.027,126.161Z" transform="translate(-417.492 -125.302)" fill="#44a6f1"/><path d="M500.473,126.161a.9.9,0,1,1-.9-.859A.879.879,0,0,1,500.473,126.161Z" transform="translate(-417.857 -125.302)" fill="#44a6f1"/></g><g transform="translate(0 75.572)"><ellipse cx="0.898" cy="0.859" rx="0.898" ry="0.859" transform="translate(0 0)" fill="#44a6f1"/><path d="M424.456,133.669a.9.9,0,1,1-.9-.859A.878.878,0,0,1,424.456,133.669Z" transform="translate(-414.578 -132.81)" fill="#44a6f1"/><ellipse cx="0.898" cy="0.859" rx="0.898" ry="0.859" transform="translate(16.164 0)" fill="#44a6f1"/><path d="M441.349,133.669a.9.9,0,1,1-.9-.859A.879.879,0,0,1,441.349,133.669Z" transform="translate(-415.307 -132.81)" fill="#44a6f1"/><path d="M449.8,133.669a.9.9,0,1,1-.9-.859A.879.879,0,0,1,449.8,133.669Z" transform="translate(-415.671 -132.81)" fill="#44a6f1"/><ellipse cx="0.898" cy="0.859" rx="0.898" ry="0.859" transform="translate(40.41 0)" fill="#44a6f1"/><path d="M466.688,133.669a.9.9,0,1,1-.9-.859A.879.879,0,0,1,466.688,133.669Z" transform="translate(-416.4 -132.81)" fill="#44a6f1"/><ellipse cx="0.898" cy="0.859" rx="0.898" ry="0.859" transform="translate(56.574 0)" fill="#44a6f1"/><ellipse cx="0.898" cy="0.859" rx="0.898" ry="0.859" transform="translate(64.656 0)" fill="#44a6f1"/><path d="M492.027,133.669a.9.9,0,1,1-.9-.859A.879.879,0,0,1,492.027,133.669Z" transform="translate(-417.492 -132.81)" fill="#44a6f1"/><path d="M500.473,133.669a.9.9,0,1,1-.9-.859A.879.879,0,0,1,500.473,133.669Z" transform="translate(-417.857 -132.81)" fill="#44a6f1"/></g></g></g><g fill="none" stroke="#44a6f1" stroke-linecap="round" stroke-width="1" stroke-dasharray="5"><circle cx="71.731" cy="71.731" r="71.731" stroke="none"/><circle cx="71.731" cy="71.731" r="71.231" fill="none"/></g></g><g transform="translate(324.935 4925.486)"><g clip-path="url(#a)"><g clip-path="url(#a)"><path d="M216.98,47.525A19.522,19.522,0,1,1,236.5,28,19.543,19.543,0,0,1,216.98,47.525m0-37.512A17.991,17.991,0,1,0,234.97,28a18.01,18.01,0,0,0-17.99-17.99" transform="translate(-46.296 -1.989)" fill="#a8aeb5"/><rect width="2.846" height="13.057" transform="translate(169.262)" fill="#a8aeb5"/><rect width="2.846" height="13.058" transform="translate(169.262 38.969)" fill="#a8aeb5"/><rect width="13.058" height="2.845" transform="translate(183.64 24.592)" fill="#a8aeb5"/><rect width="13.056" height="2.844" transform="translate(144.672 24.592)" fill="#a8aeb5"/><rect width="2.502" height="14.465" transform="translate(163.478 15.779)" fill="#a8aeb5"/><rect width="2.502" height="12.931" transform="translate(166.878 17.314)" fill="#a8aeb5"/><rect width="2.501" height="8.895" transform="translate(170.278 21.349)" fill="#a8aeb5"/><rect width="2.502" height="11.453" transform="translate(173.675 18.791)" fill="#a8aeb5"/><rect width="2.5" height="6.302" transform="translate(177.076 23.942)" fill="#a8aeb5"/><rect width="3.711" height="0.766" transform="translate(172.526 32.18)" fill="#00c8e6"/><rect width="4.079" height="0.766" transform="translate(167.606 32.18)" fill="#00c8e6"/><rect width="1.632" height="0.766" transform="translate(165.132 32.18)" fill="#00c8e6"/><rect width="5.579" height="0.766" transform="translate(170.658 34.076)" fill="#00c8e6"/><rect width="4.684" height="0.766" transform="translate(165.132 34.076)" fill="#00c8e6"/><rect width="3.106" height="0.766" transform="translate(173.131 35.97)" fill="#00c8e6"/><rect width="4.975" height="0.766" transform="translate(167.316 35.97)" fill="#00c8e6"/><rect width="1.341" height="0.766" transform="translate(165.132 35.97)" fill="#00c8e6"/><path d="M217.838,45.579a16.717,16.717,0,1,1,16.718-16.716,16.735,16.735,0,0,1-16.718,16.716m0-32.668a15.951,15.951,0,1,0,15.952,15.952,15.97,15.97,0,0,0-15.952-15.952" transform="translate(-47.154 -2.847)" fill="#a8aeb5"/><path d="M2.963,0h53a2.962,2.962,0,0,1,2.962,2.962V74.323a2.963,2.963,0,0,1-2.963,2.963h-53A2.963,2.963,0,0,1,0,74.323V2.963A2.963,2.963,0,0,1,2.963,0Z" transform="translate(172.759 26.231)" fill="#464646"/><rect width="54.391" height="72.753" transform="translate(175.027 28.498)" fill="#f5f5f5"/><rect width="27.586" height="72.753" transform="translate(201.832 28.498)" fill="#fff"/><rect width="16.619" height="8.689" transform="translate(193.913 23.255)" fill="#ffc800"/><path d="M263.173,32.607a3.212,3.212,0,1,1,3.21-3.214,3.217,3.217,0,0,1-3.21,3.214m0-5.29a2.078,2.078,0,1,0,2.077,2.076,2.08,2.08,0,0,0-2.077-2.076" transform="translate(-60.95 -6.139)" fill="#ffc800"/><rect width="3.738" height="21.63" transform="translate(201.832 34.341)" fill="#fcd004"/><rect width="3.74" height="19.335" transform="translate(206.915 36.636)" fill="#feec9a"/><rect width="3.74" height="13.302" transform="translate(211.997 42.668)" fill="#fefae4"/><rect width="3.739" height="17.127" transform="translate(217.079 38.844)" fill="#af9002"/><rect width="3.741" height="9.425" transform="translate(222.159 46.546)" fill="#7d6701"/><rect width="18.981" height="2.268" transform="translate(178.127 34.341)" fill="#b4b4b4"/><rect width="18.982" height="2.268" transform="translate(178.125 38.212)" fill="#b4b4b4"/><rect width="18.981" height="2.268" transform="translate(178.127 42.084)" fill="#b4b4b4"/><rect width="18.981" height="2.265" transform="translate(178.127 45.959)" fill="#b4b4b4"/><rect width="18.981" height="2.265" transform="translate(178.127 49.83)" fill="#b4b4b4"/><rect width="47.774" height="2.268" transform="translate(178.127 58.631)" fill="#b4b4b4"/><rect width="47.774" height="2.268" transform="translate(178.127 62.608)" fill="#b4b4b4"/><path d="M244.472,106.907l9.539-6.93a11.79,11.79,0,1,1-16.47-2.609,11.286,11.286,0,0,1,6.931-2.251Z" transform="translate(-54.553 -22.301)" fill="#007896"/><path d="M248.083,106.907V95.117a11.434,11.434,0,0,1,9.539,4.86Z" transform="translate(-58.165 -22.301)" fill="#dcdcdc"/><rect width="47.774" height="2.265" transform="translate(178.127 66.583)" fill="#b4b4b4"/><rect width="18.984" height="2.268" transform="translate(206.916 82.513)" fill="#b4b4b4"/><rect width="18.981" height="2.265" transform="translate(206.92 86.388)" fill="#b4b4b4"/><rect width="18.981" height="2.265" transform="translate(206.92 90.259)" fill="#b4b4b4"/><rect width="18.981" height="2.268" transform="translate(206.92 94.131)" fill="#b4b4b4"/><rect width="18.984" height="5.022" transform="translate(206.916 72.815)" fill="#b4b4b4"/><path d="M313.31,70l-1.679-2.989L309.954,70l.291,3.153h2.771Z" transform="translate(-72.671 -15.71)" fill="#ffdc00"/><path d="M309.955,70l.291,3.153h1.385V67.008Z" transform="translate(-72.671 -15.71)" fill="#ffc800"/><path d="M312.89,73.151h.314L313.431,70l-1.288-2.989.9,2.989Z" transform="translate(-73.184 -15.711)" fill="#fff064"/><path d="M312.033,71.586a.368.368,0,0,1-.364-.367.364.364,0,0,1,.729,0,.367.367,0,0,1-.365.367" transform="translate(-73.073 -16.613)" fill="#5a2800"/><path d="M309.687,75.117v-.33a.291.291,0,0,1,.085-.206.3.3,0,0,1,.207-.086l3.178.005a.291.291,0,0,1,.291.291v.334Z" transform="translate(-72.608 -17.466)" fill="#ffdc00"/><path d="M312.124,67.008l.1,3.309h-.212l.1-3.309Z" transform="translate(-73.152 -15.71)" fill="#5a2800"/><path d="M309.453,85.183l.216-9.878,3.691-.005.217,9.883Z" transform="translate(-72.553 -17.654)" fill="#007896"/><path d="M309.479,88.9a.216.216,0,0,1-.217-.213v-.265a.218.218,0,0,1,.217-.217h3.984a.218.218,0,0,1,.216.217v.265a.215.215,0,0,1-.216.213Z" transform="translate(-72.508 -20.681)" fill="#ffdc00"/><path d="M311.422,124.088c-.792,0-1.44-.913-1.44-2.039v-.008h0s-.073-1.369-.184-3.41c-.014-.273-.026-.555-.043-.844-.264-5.11-.675-13.277-.685-15.635-.028-4.727.265-13.036.265-13.036h4.179s.292,8.309.27,13.036c-.011,2.359-.418,10.525-.687,15.635-.011.289-.025.571-.04.844-.108,2.041-.185,3.417-.185,3.417h0c0,1.126-.645,2.039-1.443,2.039" transform="translate(-72.462 -20.894)" fill="#007896"/><path d="M312.144,124.088V89.116h2.089s.292,8.309.27,13.036c-.011,2.359-.418,10.525-.687,15.635q-.017.434-.04.844c-.108,2.041-.185,3.417-.185,3.417h0c0,1.126-.645,2.039-1.443,2.039" transform="translate(-73.184 -20.894)" fill="#0082a0"/><path d="M312.144,75.3v9.878h2.063l-.216-9.883Z" transform="translate(-73.184 -17.654)" fill="#0082a0"/><rect width="1.586" height="35.886" transform="translate(41.448 28.704)" fill="#464646"/><rect width="1.585" height="35.886" transform="translate(94.434 28.704)" fill="#464646"/><rect width="105.434" height="12.488" rx="2.071" transform="translate(28.416 16.217)" fill="#ffc800"/><path d="M2.071,0H40.922a2.072,2.072,0,0,1,2.072,2.072V17.853a2.072,2.072,0,0,1-2.072,2.072H2.071A2.071,2.071,0,0,1,0,17.854V2.071A2.071,2.071,0,0,1,2.071,0Z" transform="translate(20.745 37.754)" fill="#007896"/><path d="M2.072,0H40.921a2.071,2.071,0,0,1,2.071,2.071v5.82a2.071,2.071,0,0,1-2.071,2.071H2.071A2.071,2.071,0,0,1,0,7.891V2.072A2.072,2.072,0,0,1,2.072,0Z" transform="translate(73.73 37.755)" fill="#007896"/><rect width="42.992" height="20.413" rx="2.071" transform="translate(73.73 54.139)" fill="#a8aeb5"/><rect width="42.994" height="13.886" rx="2.071" transform="translate(20.745 64.591)" fill="#fff"/><path d="M2.072,0H15.234a2.071,2.071,0,0,1,2.071,2.071v19a2.071,2.071,0,0,1-2.071,2.071H2.071A2.071,2.071,0,0,1,0,21.066V2.072A2.072,2.072,0,0,1,2.072,0Z" transform="translate(126.893 37.754)" fill="#a8aeb5"/><path d="M2.071,0H30.576a2.071,2.071,0,0,1,2.071,2.071V14.389a2.072,2.072,0,0,1-2.072,2.072H2.072A2.072,2.072,0,0,1,0,14.389V2.071A2.071,2.071,0,0,1,2.071,0Z" transform="translate(101.203 85.564)" fill="#dcdcdc"/><path d="M2.071,0h28.5a2.072,2.072,0,0,1,2.072,2.072V14.389a2.072,2.072,0,0,1-2.072,2.072H2.071A2.071,2.071,0,0,1,0,14.39V2.071A2.071,2.071,0,0,1,2.071,0Z" transform="translate(59.279 85.564)" fill="#ffc800"/><rect width="10.169" height="1.585" transform="translate(116.722 41.943)" fill="#464646"/><rect width="1.585" height="11.012" transform="translate(81.946 74.552)" fill="#646464"/><rect width="1.586" height="11.012" transform="translate(108.496 74.552)" fill="#646464"/><rect width="9.614" height="1.585" transform="translate(119.834 19.586)" fill="#fff"/><rect width="15.263" height="1.585" transform="translate(102.986 19.586)" fill="#fff"/><rect width="7.234" height="1.585" transform="translate(94.166 19.586)" fill="#fff"/><rect width="17.343" height="1.585" transform="translate(75.236 19.586)" fill="#fff"/><rect width="6.343" height="1.585" transform="translate(67.307 19.586)" fill="#fff"/><rect width="9.416" height="1.585" transform="translate(56.305 19.586)" fill="#fff"/><rect width="15.164" height="1.585" transform="translate(39.556 19.586)" fill="#fff"/><rect width="5.154" height="1.585" transform="translate(32.817 19.586)" fill="#fff"/><rect width="15.957" height="1.585" transform="translate(113.492 23.749)" fill="#fff"/><rect width="14.769" height="1.585" transform="translate(97.138 23.749)" fill="#fff"/><rect width="14.468" height="1.585" transform="translate(81.083 23.749)" fill="#fff"/><rect width="7.532" height="1.585" transform="translate(71.965 23.749)" fill="#fff"/><rect width="11.201" height="1.585" transform="translate(59.178 23.749)" fill="#fff"/><rect width="14.172" height="1.585" transform="translate(43.421 23.749)" fill="#fff"/><rect width="9.019" height="1.585" transform="translate(32.817 23.749)" fill="#fff"/><path d="M31.432,92.4c0-4.194,1.053-5.065,2.293-5.065s2.306.85,2.306,5.065c0,4.106-1.059,5.157-2.306,5.157s-2.293-1.052-2.293-5.157m3.528,0c0-3.023-.343-4.166-1.235-4.166S32.5,89.385,32.5,92.4c0,3.11.362,4.266,1.234,4.266S34.96,95.531,34.96,92.4" transform="translate(-7.369 -20.476)" fill="#787878"/><path d="M39.891,97.03V89.016c0-.139-.044-.2-.1-.188,0,0-.6.153-.606.153-.1.014-.154-.041-.154-.264V88.18c0-.181.07-.237.161-.257l1.589-.418a.424.424,0,0,1,.09-.015c.09,0,.139.063.139.293V97.03c0,.3-.069.467-.167.467h-.794c-.1,0-.16-.167-.16-.467" transform="translate(-9.152 -20.513)" fill="#787878"/><path d="M44.431,97.03V89.016c0-.139-.04-.2-.1-.188,0,0-.6.153-.607.153-.1.014-.154-.041-.154-.264V88.18c0-.181.07-.237.16-.257l1.589-.418a.445.445,0,0,1,.091-.015c.091,0,.139.063.139.293V97.03c0,.3-.07.467-.167.467h-.795c-.1,0-.162-.167-.162-.467" transform="translate(-10.216 -20.513)" fill="#787878"/><path d="M48.347,92.4c0-4.194,1.052-5.065,2.292-5.065s2.307.85,2.307,5.065c0,4.106-1.059,5.157-2.307,5.157s-2.292-1.052-2.292-5.157m3.525,0c0-3.023-.341-4.166-1.233-4.166s-1.226,1.15-1.226,4.166c0,3.11.362,4.266,1.233,4.266s1.226-1.135,1.226-4.266" transform="translate(-11.335 -20.476)" fill="#787878"/><path d="M56.8,97.03V89.016c0-.139-.041-.2-.1-.188,0,0-.6.153-.606.153-.1.014-.154-.041-.154-.264V88.18c0-.181.07-.237.16-.257l1.589-.418a.443.443,0,0,1,.092-.015c.091,0,.139.063.139.293V97.03c0,.3-.069.467-.167.467h-.795c-.1,0-.161-.167-.161-.467" transform="translate(-13.117 -20.513)" fill="#787878"/><path d="M60.719,92.4c0-4.194,1.052-5.065,2.292-5.065s2.307.85,2.307,5.065c0,4.106-1.06,5.157-2.307,5.157s-2.292-1.052-2.292-5.157m3.525,0c0-3.023-.341-4.166-1.233-4.166s-1.226,1.15-1.226,4.166c0,3.11.362,4.266,1.232,4.266s1.227-1.135,1.227-4.266" transform="translate(-14.236 -20.476)" fill="#787878"/><path d="M69.175,97.03V89.016c0-.139-.041-.2-.1-.188,0,0-.6.153-.607.153-.1.014-.153-.041-.153-.264V88.18c0-.181.07-.237.159-.257l1.588-.418a.451.451,0,0,1,.092-.015c.091,0,.139.063.139.293V97.03c0,.3-.07.467-.168.467h-.794c-.1,0-.162-.167-.162-.467" transform="translate(-16.018 -20.513)" fill="#787878"/><path d="M73.091,92.4c0-4.194,1.052-5.065,2.292-5.065s2.307.85,2.307,5.065c0,4.106-1.058,5.157-2.307,5.157s-2.292-1.052-2.292-5.157m3.525,0c0-3.023-.341-4.166-1.233-4.166s-1.227,1.15-1.227,4.166c0,3.11.363,4.266,1.233,4.266s1.226-1.135,1.226-4.266" transform="translate(-17.137 -20.476)" fill="#787878"/><rect width="5.65" height="1.585" transform="translate(54.72 40.947)" fill="#fff"/><rect width="5.484" height="1.585" transform="translate(47.65 40.947)" fill="#fff"/><rect width="14.604" height="1.585" transform="translate(31.461 40.947)" fill="#fff"/><rect width="5.761" height="1.585" transform="translate(24.115 40.947)" fill="#fff"/><rect width="8.887" height="1.585" transform="translate(51.482 44.932)" fill="#fff"/><rect width="6.21" height="1.585" transform="translate(43.686 44.932)" fill="#fff"/><rect width="7.401" height="1.585" transform="translate(34.7 44.932)" fill="#fff"/><rect width="8.999" height="1.585" transform="translate(24.115 44.932)" fill="#fff"/><rect width="10.34" height="1.585" transform="translate(50.029 48.916)" fill="#fff"/><rect width="2.512" height="1.585" transform="translate(45.932 48.916)" fill="#fff"/><rect width="14.999" height="1.585" transform="translate(29.347 48.916)" fill="#fff"/><rect width="3.647" height="1.585" transform="translate(24.115 48.916)" fill="#fff"/><rect width="6.442" height="1.585" transform="translate(53.927 52.901)" fill="#fff"/><rect width="13.479" height="1.585" transform="translate(38.863 52.901)" fill="#fff"/><rect width="7.863" height="1.585" transform="translate(29.414 52.901)" fill="#fff"/><rect width="3.714" height="1.585" transform="translate(24.115 52.901)" fill="#fff"/><rect width="2.759" height="15.956" transform="translate(130.415 41.345)" fill="#215278"/><rect width="2.758" height="14.264" transform="translate(134.164 43.037)" fill="#215278"/><rect width="2.76" height="9.812" transform="translate(137.913 47.489)" fill="#215278"/><rect width="36.532" height="1.585" transform="translate(76.961 40.282)" fill="#fff"/><rect width="36.532" height="1.585" transform="translate(76.961 43.603)" fill="#fff"/><rect width="7.632" height="1.586" transform="translate(105.861 57.429)" fill="#fff"/><rect width="11.495" height="1.586" transform="translate(92.779 57.429)" fill="#fff"/><rect width="9.219" height="1.586" transform="translate(81.975 57.429)" fill="#fff"/><rect width="3.429" height="1.586" transform="translate(76.96 57.429)" fill="#fff"/><rect width="12.191" height="1.585" transform="translate(101.302 61.512)" fill="#fff"/><rect width="14.47" height="1.585" transform="translate(85.246 61.512)" fill="#fff"/><rect width="6.699" height="1.585" transform="translate(76.961 61.512)" fill="#fff"/><rect width="8.821" height="1.585" transform="translate(104.671 65.595)" fill="#fff"/><rect width="9.019" height="1.585" transform="translate(94.067 65.595)" fill="#fff"/><rect width="9.317" height="1.585" transform="translate(83.164 65.595)" fill="#fff"/><rect width="4.618" height="1.585" transform="translate(76.961 65.595)" fill="#fff"/><rect width="6.343" height="1.585" transform="translate(107.149 69.678)" fill="#fff"/><rect width="11.299" height="1.585" transform="translate(94.264 69.678)" fill="#fff"/><rect width="5.451" height="1.585" transform="translate(87.228 69.678)" fill="#fff"/><rect width="8.681" height="1.585" transform="translate(76.961 69.678)" fill="#fff"/><path d="M95.73,128.1l-3.208-4.913-4.042,4.3-.867-.814,5.076-5.409,3.135,4.8,5.979-7.543.932.739Z" transform="translate(-20.541 -27.79)" fill="#fff"/><path d="M108.024,115.336a17.977,17.977,0,0,0-.942,5.74l-1.582-2.558-2.851-.955a17.961,17.961,0,0,0,5.374-2.226" transform="translate(-24.067 -27.041)" fill="#fff"/><rect width="27.017" height="1.585" transform="translate(104.017 88.888)" fill="#787878"/><rect width="27.017" height="1.585" transform="translate(104.017 93.003)" fill="#787878"/><rect width="27.017" height="1.585" transform="translate(104.017 97.118)" fill="#787878"/><path d="M51.928,176.611c-.463-.116-.925-.229-1.359-.329.014-.16.036-.325.036-.475.053-1.035.089-1.723.089-1.723s-.036-.691-.089-1.725c0-.149-.022-.315-.038-.475.436-.1.9-.213,1.36-.33,1.757-.439,3.5-.964,3.5-.964s-.06-.4-.149-.994c-.048-.3-.1-.645-.161-1.018s-.184-.756-.282-1.148a20.1,20.1,0,0,0-.6-2.127l-.343-.946s-1.794.348-3.558.773c-.462.11-.918.224-1.342.334-.059-.149-.12-.307-.174-.444l-.749-1.554a2.643,2.643,0,0,0-.22-.42c-.158-.258-.381-.629-.65-1.07-.078-.125-.167-.27-.25-.406.333-.29.688-.6,1.044-.921,1.366-1.22,2.653-2.491,2.653-2.491l-.6-.807a16.807,16.807,0,0,0-1.4-1.709,22.93,22.93,0,0,0-2.264-2.274s-1.429,1.141-2.793,2.337c-.358.311-.71.625-1.035.919l-.361-.311c-.83-.621-1.381-1.035-1.381-1.035a2.418,2.418,0,0,0-.393-.266l-1.069-.65c-.128-.074-.275-.159-.41-.243.16-.413.331-.857.5-1.3.641-1.706,1.2-3.434,1.2-3.434l-.906-.437L38.8,148.5c-.344-.155-.728-.281-1.1-.423a22.143,22.143,0,0,0-3.07-.962s-.733,1.673-1.382,3.368c-.171.441-.338.881-.489,1.293l-.462-.109-1.707-.261s-.17-.031-.469-.066c-.3-.017-.734-.038-1.25-.063l-.478-.025c-.048-.438-.1-.906-.166-1.376-.113-.909-.244-1.818-.351-2.5l-.185-1.123s-.4.02-1,.047c-.6.049-1.408.028-2.2.165L22.3,146.8c-.586.142-.976.238-.976.238s.128,1.83.338,3.636c.051.472.111.936.167,1.37-.155.041-.318.083-.462.12a10.727,10.727,0,0,0-1.184.4l-.446.163-.446.162a9.872,9.872,0,0,0-1.141.51c-.136.059-.286.136-.433.207-.247-.364-.511-.753-.783-1.14-1.043-1.5-2.165-2.957-2.165-2.957l-.245.127-.625.374c-.51.321-1.218.71-1.872,1.174-.644.482-1.288.962-1.769,1.324-.467.381-.755.66-.755.66s.966,1.56,1.993,3.062c.266.39.533.776.787,1.135-.12.107-.247.223-.355.322a11.087,11.087,0,0,0-.865.9c-.2.224-.318.351-.318.351l-.321.352a11.083,11.083,0,0,0-.773.982c-.093.116-.191.253-.288.382-.387-.209-.8-.429-1.223-.646-1.619-.844-3.287-1.618-3.287-1.618a1.436,1.436,0,0,0-.156.227c-.093.15-.224.364-.381.62-.3.521-.759,1.188-1.115,1.908s-.7,1.45-.958,1.994c-.23.557-.361.938-.361.938s1.577.935,3.186,1.786c.416.224.833.44,1.223.64l-.164.449a10.823,10.823,0,0,0-.346,1.2c-.074.293-.117.46-.117.46l-.118.459a8.808,8.808,0,0,0-.229,1.228c-.018.147-.048.314-.075.472-.439,0-.909,0-1.382,0-1.826.009-3.662.1-3.662.1a7.593,7.593,0,0,0-.088,1c-.03.6-.068,1.4-.108,2.2.04.8.078,1.6.108,2.2a7.518,7.518,0,0,0,.089,1s1.836.092,3.661.1c.472.006.943.005,1.382,0,.027.157.057.328.075.473a8.806,8.806,0,0,0,.229,1.23l.118.459.119.459a10.418,10.418,0,0,0,.344,1.2c.051.142.109.3.164.451-.39.2-.806.416-1.223.639-1.609.854-3.186,1.788-3.186,1.788s.13.38.361.937c.261.547.609,1.271.958,2s.811,1.386,1.115,1.906c.157.258.288.473.381.622a1.54,1.54,0,0,0,.156.23s1.668-.775,3.287-1.621c.421-.217.836-.438,1.223-.647.1.13.2.267.288.382a10.41,10.41,0,0,0,.773.981c.2.225.321.351.321.351l.318.353a11.082,11.082,0,0,0,.865.9c.109.1.235.214.355.322-.254.358-.521.745-.787,1.135-1.027,1.5-1.993,3.06-1.993,3.06s.291.279.756.661c.481.362,1.125.843,1.768,1.324.655.464,1.363.854,1.873,1.174l.625.374.247.127s1.119-1.458,2.163-2.959c.272-.387.537-.775.785-1.138.145.07.3.146.432.205a9.386,9.386,0,0,0,1.141.51l.446.164.446.162a10.847,10.847,0,0,0,1.184.4c.145.036.308.079.462.119-.056.436-.116.9-.167,1.37-.211,1.809-.338,3.638-.338,3.638l.978.237,2.185.337c.794.137,1.6.116,2.2.165l1,.046.185-1.122c.106-.682.238-1.589.354-2.5.061-.47.115-.939.163-1.379.163-.008.331-.015.478-.023l1.25-.061c.3-.035.471-.067.471-.067l1.706-.26.462-.112c.152.411.318.853.489,1.3.648,1.693,1.384,3.368,1.384,3.368a22.143,22.143,0,0,0,3.068-.962c.375-.145.759-.268,1.1-.423s.659-.315.929-.444c.545-.263.906-.439.906-.439s-.556-1.729-1.2-3.433c-.165-.446-.338-.889-.5-1.3.135-.083.282-.167.41-.243l1.069-.649a2.358,2.358,0,0,0,.393-.266l1.381-1.036c.112-.1.239-.2.361-.311.325.3.678.607,1.035.92,1.363,1.2,2.793,2.336,2.793,2.336a22.7,22.7,0,0,0,2.264-2.275,16.2,16.2,0,0,0,1.4-1.709c.36-.482.6-.8.6-.8s-1.289-1.273-2.655-2.493c-.354-.319-.711-.632-1.044-.919l.25-.41c.269-.442.492-.81.65-1.068a2.585,2.585,0,0,0,.22-.42s.3-.622.749-1.556l.174-.444c.424.109.88.224,1.342.335,1.764.426,3.559.772,3.558.772s.137-.378.345-.946a20.452,20.452,0,0,0,.6-2.127c.1-.39.206-.779.279-1.148s.113-.72.161-1.016c.089-.6.149-1,.149-1s-1.744-.522-3.5-.964m-7.5,6.617c-.133.213-.317.52-.543.885-.112.183-.232.383-.358.592-.149.2-.306.4-.467.616A10.743,10.743,0,0,1,42,186.626a20.042,20.042,0,0,1-2.263,2.186l-1.147.857a1.578,1.578,0,0,1-.325.22l-.889.537c-.183.108-.375.243-.594.354s-.455.218-.7.332a10.558,10.558,0,0,1-1.539.665,20.5,20.5,0,0,1-3.011.881l-1.413.214s-.14.029-.388.057l-1.039.049a9,9,0,0,1-1.468.012c-.533-.049-1.115-.012-1.678-.118s-1.135-.159-1.659-.263l-1.416-.367a8.448,8.448,0,0,1-.981-.328c-.233-.088-.367-.136-.367-.136s-.133-.05-.369-.132a7.218,7.218,0,0,1-.945-.423,19.386,19.386,0,0,1-2.73-1.553l-1.344-1.011-1.086-.989a8.52,8.52,0,0,1-.717-.75l-.265-.292-.267-.291a7.94,7.94,0,0,1-.638-.814,19,19,0,0,1-1.7-2.643c-.239-.52-.5-1.026-.72-1.516-.183-.5-.354-.972-.5-1.375A8.08,8.08,0,0,1,9.559,179l-.1-.38-.1-.379a6.461,6.461,0,0,1-.187-1.02c-.051-.424-.173-.913-.2-1.451s-.057-1.11-.087-1.683c.03-.573.06-1.145.087-1.685s.149-1.025.2-1.45a6.432,6.432,0,0,1,.187-1.019c.064-.242.1-.38.1-.38l.1-.38a8.008,8.008,0,0,1,.282-.994c.149-.4.319-.873.5-1.374.217-.49.482-1,.72-1.516a19.05,19.05,0,0,1,1.7-2.644,8.136,8.136,0,0,1,.638-.815c.171-.185.267-.291.267-.291s.1-.1.265-.29a8.993,8.993,0,0,1,.717-.75l1.086-.989c.43-.323.886-.668,1.344-1.012a19.386,19.386,0,0,1,2.73-1.553,7.43,7.43,0,0,1,.945-.423c.236-.083.369-.133.369-.133l.367-.134a8.089,8.089,0,0,1,.981-.331l1.416-.365c.524-.1,1.094-.168,1.659-.264s1.142-.07,1.678-.12a9.153,9.153,0,0,1,1.468.015l1.039.048c.248.03.388.057.388.057l1.413.213a21,21,0,0,1,3.011.882,10.514,10.514,0,0,1,1.538.666c.243.114.476.226.7.331s.411.246.594.354c.368.221.673.407.889.537a1.579,1.579,0,0,1,.325.22s.459.342,1.146.858A20.064,20.064,0,0,1,42,161.536a11.047,11.047,0,0,1,1.058,1.307l.467.618.358.593c.225.366.41.67.541.883a1.661,1.661,0,0,1,.181.349s.25.514.62,1.286a19.978,19.978,0,0,1,.984,2.978c.066.279.158.55.2.828s.082.553.119.817a9.518,9.518,0,0,1,.173,1.456l.077,1.433-.077,1.431a9.424,9.424,0,0,1-.173,1.456c-.037.266-.079.538-.119.817s-.139.55-.2.828a20.187,20.187,0,0,1-.981,2.977c-.373.773-.622,1.288-.622,1.288a1.707,1.707,0,0,1-.18.348" transform="translate(0 -34.29)" fill="#215278"/><path d="M31.484,162.476a15.409,15.409,0,1,0,15.41,15.408,15.408,15.408,0,0,0-15.41-15.408m0,21.613a6.2,6.2,0,1,1,6.2-6.2,6.2,6.2,0,0,1-6.2,6.2" transform="translate(-3.769 -38.094)" fill="#215278"/><path d="M82.18,140.231c.016-.1.036-.215.048-.312.056-.338.041-.626.06-.824s.015-.315.015-.315-.005-.114-.015-.313,0-.487-.06-.825c-.012-.1-.032-.207-.048-.313.288-.085.595-.178.9-.279,1.186-.379,2.352-.851,2.352-.851s-.072-.29-.182-.724a12.8,12.8,0,0,0-.521-1.555,14.428,14.428,0,0,0-1.117-2.1s-1.148.482-2.259,1.058c-.289.146-.573.3-.837.44-.062-.086-.127-.178-.189-.253a6.669,6.669,0,0,0-.539-.628c-.134-.148-.209-.233-.209-.233s-.087-.077-.233-.211a7,7,0,0,0-.628-.539c-.077-.063-.168-.126-.254-.188.143-.265.295-.548.441-.837.574-1.112,1.056-2.258,1.056-2.258a14.322,14.322,0,0,0-2.1-1.118,12.687,12.687,0,0,0-1.556-.521l-.723-.182s-.472,1.166-.851,2.353c-.1.306-.194.614-.279.9-.1-.016-.214-.036-.312-.047-.338-.057-.626-.042-.824-.061L73,129.474l-.315.017c-.2.019-.488,0-.825.061-.1.012-.207.031-.312.047-.086-.287-.179-.595-.279-.9-.379-1.187-.852-2.353-.852-2.353l-.723.182a12.811,12.811,0,0,0-1.555.521,14.275,14.275,0,0,0-2.1,1.118s.482,1.146,1.057,2.258c.145.289.3.572.442.835-.087.064-.178.127-.256.19a6.97,6.97,0,0,0-.627.539l-.232.211s-.076.085-.212.233a6.907,6.907,0,0,0-.539.628c-.062.076-.126.168-.188.253-.264-.143-.548-.294-.836-.44-1.114-.575-2.26-1.058-2.26-1.058a14.475,14.475,0,0,0-1.118,2.1,13.212,13.212,0,0,0-.521,1.555c-.111.435-.183.724-.183.724s1.166.472,2.352.851c.309.1.616.194.9.279-.018.106-.038.216-.05.313a7.974,7.974,0,0,0-.06.825l-.017.313.017.315a7.973,7.973,0,0,0,.06.824c.011.1.031.208.05.312-.289.085-.6.178-.9.279-1.186.38-2.352.852-2.352.852s.072.289.183.723a13.212,13.212,0,0,0,.521,1.555,14.442,14.442,0,0,0,1.118,2.1s1.146-.481,2.26-1.056c.288-.147.572-.3.836-.442.062.087.126.178.188.254a7.02,7.02,0,0,0,.539.628c.136.147.212.233.212.233l.232.211a6.838,6.838,0,0,0,.627.54c.077.061.169.126.256.188-.145.263-.3.547-.442.836-.575,1.112-1.057,2.259-1.057,2.259a14.4,14.4,0,0,0,2.1,1.117,13.1,13.1,0,0,0,1.555.522l.723.182s.473-1.166.852-2.353c.1-.307.193-.613.279-.9.1.018.214.038.312.048.338.057.628.042.825.061l.315.016.313-.016c.2-.019.487,0,.824-.061.1-.011.208-.031.312-.048.085.289.179.595.279.9.379,1.187.851,2.353.851,2.353l.723-.182a12.968,12.968,0,0,0,1.556-.522,14.444,14.444,0,0,0,2.1-1.117s-.482-1.147-1.056-2.259c-.146-.289-.3-.573-.441-.836.086-.063.178-.127.254-.188a6.866,6.866,0,0,0,.628-.54c.147-.134.233-.211.233-.211s.075-.086.209-.233a6.774,6.774,0,0,0,.539-.628c.062-.076.127-.167.189-.254.263.144.547.295.837.442,1.112.574,2.259,1.056,2.259,1.056a14.4,14.4,0,0,0,1.117-2.1,12.8,12.8,0,0,0,.521-1.555c.11-.434.182-.723.182-.723s-1.166-.472-2.352-.852c-.307-.1-.614-.194-.9-.279m-4.656,3.391a4.575,4.575,0,0,1-.447.385,7.023,7.023,0,0,1-1.539.9,7.1,7.1,0,0,1-1.724.449c-.241.044-.448.025-.589.043l-.224.015-.225-.015c-.142-.018-.351,0-.59-.043a7.1,7.1,0,0,1-1.725-.449,7,7,0,0,1-1.538-.9,4.48,4.48,0,0,1-.447-.385l-.168-.149-.149-.168a4.517,4.517,0,0,1-.385-.449,6.98,6.98,0,0,1-.9-1.538,7.106,7.106,0,0,1-.449-1.723,5.664,5.664,0,0,1-.043-.59c-.009-.144-.015-.226-.015-.226s.005-.081.015-.224a5.676,5.676,0,0,1,.043-.591,7.106,7.106,0,0,1,.449-1.723,6.98,6.98,0,0,1,.9-1.538,4.5,4.5,0,0,1,.385-.448l.149-.168.168-.149a4.281,4.281,0,0,1,.447-.386,7.058,7.058,0,0,1,1.538-.9,7.164,7.164,0,0,1,1.725-.448c.24-.044.448-.025.59-.043l.225-.015.224.015c.142.018.348,0,.589.043a7.168,7.168,0,0,1,1.724.448,7.084,7.084,0,0,1,1.539.9,4.367,4.367,0,0,1,.447.386l.168.149.148.168a4.117,4.117,0,0,1,.386.448,7.043,7.043,0,0,1,.906,1.538,7.25,7.25,0,0,1,.449,1.723c.042.241.025.449.041.591s.015.224.015.224-.005.082-.015.226,0,.35-.041.59a7.25,7.25,0,0,1-.449,1.723,7.043,7.043,0,0,1-.906,1.538,4.135,4.135,0,0,1-.386.449l-.148.168-.168.149" transform="translate(-14.2 -29.623)" fill="#66757e"/><path d="M14.344,125.509v-6.088c0-.106-.033-.154-.075-.143,0,0-.454.116-.46.116-.074.011-.116-.031-.116-.2v-.407c0-.138.053-.181.122-.2l1.206-.318a.353.353,0,0,1,.069-.011c.067,0,.106.047.106.223v7.025c0,.227-.053.354-.127.354h-.6c-.075,0-.122-.127-.122-.354" transform="translate(-3.21 -27.727)" fill="#00c8e6"/><path d="M17.317,121.993c0-3.188.8-3.849,1.742-3.849s1.753.646,1.753,3.849c0,3.119-.8,3.918-1.753,3.918s-1.742-.8-1.742-3.918m2.678,0c0-2.3-.259-3.166-.936-3.166s-.932.873-.932,3.166c0,2.362.276,3.24.937,3.24s.932-.863.932-3.24" transform="translate(-4.06 -27.7)" fill="#00c8e6"/><path d="M23.265,121.993c0-3.188.8-3.849,1.742-3.849s1.753.646,1.753,3.849c0,3.119-.805,3.918-1.753,3.918s-1.742-.8-1.742-3.918m2.678,0c0-2.3-.259-3.166-.936-3.166s-.932.873-.932,3.166c0,2.362.275,3.24.936,3.24s.932-.863.932-3.24" transform="translate(-5.455 -27.7)" fill="#00c8e6"/><path d="M29.69,125.509v-6.088c0-.106-.031-.154-.073-.143,0,0-.456.116-.462.116-.074.011-.116-.031-.116-.2v-.407c0-.138.053-.181.122-.2l1.207-.318a.371.371,0,0,1,.069-.011c.07,0,.106.047.106.223v7.025c0,.227-.053.354-.127.354h-.6c-.074,0-.122-.127-.122-.354" transform="translate(-6.808 -27.727)" fill="#00c8e6"/><path d="M32.664,121.993c0-3.188.8-3.849,1.742-3.849s1.753.646,1.753,3.849c0,3.119-.805,3.918-1.753,3.918s-1.742-.8-1.742-3.918m2.678,0c0-2.3-.259-3.166-.936-3.166s-.932.873-.932,3.166c0,2.362.275,3.24.936,3.24s.932-.863.932-3.24" transform="translate(-7.658 -27.7)" fill="#00c8e6"/><path d="M39.089,125.509v-6.088c0-.106-.031-.154-.073-.143,0,0-.456.116-.462.116-.073.011-.116-.031-.116-.2v-.407c0-.138.053-.181.122-.2l1.206-.318a.369.369,0,0,1,.07-.011c.069,0,.106.047.106.223v7.025c0,.227-.053.354-.127.354h-.6c-.074,0-.122-.127-.122-.354" transform="translate(-9.012 -27.727)" fill="#00c8e6"/><path d="M42.064,121.993c0-3.188.8-3.849,1.741-3.849s1.753.646,1.753,3.849c0,3.119-.8,3.918-1.753,3.918s-1.741-.8-1.741-3.918m2.678,0c0-2.3-.259-3.166-.937-3.166s-.932.873-.932,3.166c0,2.362.276,3.24.936,3.24s.932-.863.932-3.24" transform="translate(-9.862 -27.7)" fill="#00c8e6"/><path d="M48.488,125.509v-6.088c0-.106-.031-.154-.073-.143,0,0-.456.116-.462.116-.073.011-.116-.031-.116-.2v-.407c0-.138.053-.181.122-.2l1.207-.318a.369.369,0,0,1,.07-.011c.069,0,.106.047.106.223v7.025c0,.227-.053.354-.127.354h-.6c-.074,0-.122-.127-.122-.354" transform="translate(-11.216 -27.727)" fill="#00c8e6"/><path d="M51.463,121.993c0-3.188.8-3.849,1.741-3.849s1.753.646,1.753,3.849c0,3.119-.8,3.918-1.753,3.918s-1.741-.8-1.741-3.918m2.678,0c0-2.3-.259-3.166-.937-3.166s-.932.873-.932,3.166c0,2.362.276,3.24.936,3.24s.932-.863.932-3.24" transform="translate(-12.066 -27.7)" fill="#00c8e6"/><path d="M13.865,135.078c0-3.187.8-3.849,1.742-3.849s1.752.646,1.752,3.849c0,3.118-.805,3.918-1.752,3.918s-1.742-.8-1.742-3.918m2.68,0c0-2.3-.26-3.166-.938-3.166s-.932.874-.932,3.166c0,2.362.276,3.24.938,3.24s.932-.863.932-3.24" transform="translate(-3.251 -30.768)" fill="#00c8e6"/><path d="M20.292,138.594v-6.088c0-.106-.033-.154-.076-.143,0,0-.453.116-.459.116-.074.011-.116-.031-.116-.2v-.407c0-.138.053-.18.122-.2l1.206-.318a.415.415,0,0,1,.069-.01c.067,0,.106.047.106.222v7.026c0,.227-.054.354-.127.354h-.6c-.075,0-.122-.127-.122-.354" transform="translate(-4.605 -30.795)" fill="#00c8e6"/><path d="M23.742,138.594v-6.088c0-.106-.031-.154-.073-.143,0,0-.456.116-.462.116-.073.011-.116-.031-.116-.2v-.407c0-.138.054-.18.122-.2l1.206-.318a.447.447,0,0,1,.07-.01c.069,0,.106.047.106.222v7.026c0,.227-.054.354-.128.354h-.6c-.074,0-.122-.127-.122-.354" transform="translate(-5.414 -30.795)" fill="#00c8e6"/><path d="M26.716,135.078c0-3.187.8-3.849,1.742-3.849s1.753.646,1.753,3.849c0,3.118-.8,3.918-1.753,3.918s-1.742-.8-1.742-3.918m2.678,0c0-2.3-.259-3.166-.936-3.166s-.932.874-.932,3.166c0,2.362.276,3.24.936,3.24s.932-.863.932-3.24" transform="translate(-6.264 -30.768)" fill="#00c8e6"/><path d="M33.141,138.594v-6.088c0-.106-.031-.154-.073-.143,0,0-.456.116-.462.116-.073.011-.116-.031-.116-.2v-.407c0-.138.054-.18.122-.2l1.206-.318a.447.447,0,0,1,.07-.01c.069,0,.106.047.106.222v7.026c0,.227-.053.354-.127.354h-.6c-.074,0-.122-.127-.122-.354" transform="translate(-7.617 -30.795)" fill="#00c8e6"/><path d="M36.116,135.078c0-3.187.8-3.849,1.742-3.849s1.752.646,1.752,3.849c0,3.118-.8,3.918-1.752,3.918s-1.742-.8-1.742-3.918m2.678,0c0-2.3-.259-3.166-.936-3.166s-.932.874-.932,3.166c0,2.362.275,3.24.936,3.24s.932-.863.932-3.24" transform="translate(-8.468 -30.768)" fill="#00c8e6"/><path d="M42.541,138.594v-6.088c0-.106-.031-.154-.073-.143,0,0-.456.116-.462.116-.073.011-.116-.031-.116-.2v-.407c0-.138.054-.18.122-.2l1.206-.318a.447.447,0,0,1,.07-.01c.07,0,.106.047.106.222v7.026c0,.227-.053.354-.127.354h-.6c-.074,0-.122-.127-.122-.354" transform="translate(-9.821 -30.795)" fill="#00c8e6"/><path d="M45.515,135.078c0-3.187.8-3.849,1.742-3.849s1.752.646,1.752,3.849c0,3.118-.8,3.918-1.752,3.918s-1.742-.8-1.742-3.918m2.678,0c0-2.3-.259-3.166-.936-3.166s-.932.874-.932,3.166c0,2.362.275,3.24.936,3.24s.932-.863.932-3.24" transform="translate(-10.671 -30.768)" fill="#00c8e6"/><path d="M51.463,135.078c0-3.187.8-3.849,1.741-3.849s1.753.646,1.753,3.849c0,3.118-.8,3.918-1.753,3.918s-1.741-.8-1.741-3.918m2.678,0c0-2.3-.259-3.166-.937-3.166s-.932.874-.932,3.166c0,2.362.276,3.24.936,3.24s.932-.863.932-3.24" transform="translate(-12.066 -30.768)" fill="#00c8e6"/><rect width="3.975" height="22.995" transform="translate(60.999 127.579)" fill="#00c8e6"/><rect width="3.976" height="20.555" transform="translate(66.404 130.019)" fill="#00c8e6"/><rect width="3.977" height="14.14" transform="translate(71.806 136.434)" fill="#00c8e6"/><rect width="5.308" height="1.204" transform="translate(71.027 155.212)" fill="#00c8e6"/><rect width="5.836" height="1.204" transform="translate(63.986 155.212)" fill="#00c8e6"/><rect width="2.334" height="1.204" transform="translate(60.448 155.212)" fill="#00c8e6"/><rect width="7.982" height="1.204" transform="translate(68.354 157.923)" fill="#00c8e6"/><rect width="6.702" height="1.204" transform="translate(60.447 157.923)" fill="#00c8e6"/><rect width="4.442" height="1.204" transform="translate(71.893 160.634)" fill="#00c8e6"/><rect width="7.117" height="1.204" transform="translate(63.571 160.634)" fill="#00c8e6"/><rect width="1.919" height="1.204" transform="translate(60.447 160.634)" fill="#00c8e6"/><path d="M295.007,186.314V173.157a12.758,12.758,0,0,1,10.642,5.422Z" transform="translate(-69.166 -40.598)" fill="#af9002"/><rect width="2.972" height="17.188" transform="translate(239.977 107.537)" fill="#af9002"/><rect width="2.973" height="15.364" transform="translate(244.015 109.361)" fill="#af9002"/><rect width="2.973" height="10.569" transform="translate(248.053 114.156)" fill="#af9002"/><rect width="2.973" height="13.608" transform="translate(252.093 111.117)" fill="#af9002"/><path d="M275.5,196.954H247.924a1.1,1.1,0,0,0-1.1,1.1v11.6a1.1,1.1,0,0,0,1.1,1.1H275.5a1.1,1.1,0,0,0,1.1-1.1v-11.6a1.1,1.1,0,0,0-1.1-1.1m-10.042,2.21h3.8v1.1h-3.8Zm-2.745,2.759h4.3v1.1h-4.3Zm3.293,3.855h-1.739v-1.1h1.739Zm-11.758-6.614h10.112v1.1H254.247Zm7.366,3.857H256.49v-1.1h5.124Zm-12.454-3.857h3.989v1.1H249.16Zm0,2.759h6.232v1.1H249.16Zm0,2.758h2.526v1.1H249.16Zm2.571,3.858H249.16v-1.1h2.571Zm1.052-3.858h10.385v1.1H252.783Zm5.49,3.858H252.83v-1.1h5.443Zm10.431,0h-9.332v-1.1H268.7Zm5.559,0H269.8v-1.1h4.462Zm0-2.761H267.1v-1.1h7.16Zm0-2.757h-6.153v-1.1h6.153Zm0-2.76h-3.911v-1.1h3.911Z" transform="translate(-57.87 -46.177)" fill="#af9002"/><path d="M302.167,179.426l-10.6,7.7-1.585,1.152V173.2a12.564,12.564,0,0,0-6.738,2.476,13.16,13.16,0,0,0-4.775,14.708h4.3a2.1,2.1,0,0,1,2.1,2.1v5.475c.109.06.218.124.331.178a12.881,12.881,0,0,0,1.3.556c.047.017.1.027.143.044q.6.208,1.207.358c.152.037.306.064.459.1.309.064.621.121.933.163.173.023.347.04.52.057q.456.041.915.052c.2.005.391.013.586.008.132,0,.263-.008.394-.015.269-.014.539-.037.807-.067.122-.013.246-.025.367-.042.345-.049.688-.11,1.032-.187.037-.008.078-.015.117-.024.379-.088.754-.2,1.128-.32.11-.038.221-.08.331-.12.264-.095.528-.2.786-.31.127-.057.253-.114.379-.174.253-.119.5-.25.751-.388.111-.061.221-.119.331-.184.35-.207.7-.428,1.03-.672a13.153,13.153,0,0,0,3.456-17.542" transform="translate(-65.138 -40.609)" fill="#215278"/><path d="M308.643,180.153c1.536-.354,3.258-.82,4.621-1.229A24.86,24.86,0,0,0,311.8,173c-1.358.261-3.073.643-4.656,1.052a20.424,20.424,0,0,0-1.941-3.7c1.14-.991,2.353-2.1,3.513-3.243a25.029,25.029,0,0,0-4.047-4.55c-1.09.868-2.572,2.121-3.637,3.1a21.773,21.773,0,0,0-3.437-2.383c.376-.968.971-2.513,1.611-4.5a24.313,24.313,0,0,0-5.709-2.153c-.547,1.244-1.219,2.919-1.778,4.429a19.933,19.933,0,0,0-4.149-.5c-.255-2.3-.508-3.785-.669-4.752a27.389,27.389,0,0,0-6.048.749c.1,1.376.262,3.076.481,4.757a21.51,21.51,0,0,0-3.908,1.482c-.857-1.264-1.8-2.588-2.8-3.894a27.545,27.545,0,0,0-5,3.477c.818,1.321,1.866,2.892,2.643,3.988a21.391,21.391,0,0,0-2.776,3.126c-1.426-.769-3.018-1.562-4.286-2.152a27.86,27.86,0,0,0-2.823,5.406c1.171.694,2.726,1.557,4.189,2.3a21.433,21.433,0,0,0-1,4.06c-1.4-.007-2.951,0-4.792.1a29.93,29.93,0,0,0,0,6.088c1.319.067,3.236.113,4.792.094.048.293.092.594.148.924H269.6c-2.723-12.623,7.15-23.774,20.958-21.72a17.934,17.934,0,0,1,6.4,2.634,1.5,1.5,0,0,1,.308.211,17.872,17.872,0,0,1,5.544,6.121,1.609,1.609,0,0,1,.173.331c3.953,8.174,1.56,16.293-2.477,20.282a18.919,18.919,0,0,1-3.241,2.891,19.322,19.322,0,0,1-3.844,2A17.209,17.209,0,0,1,280.829,199v1a2.1,2.1,0,0,1-2.1,2.1H278.3a20.128,20.128,0,0,0,3.034,1.082c-.217,1.671-.382,3.364-.48,4.759a27.369,27.369,0,0,0,6.047.746c.161-.965.416-2.463.669-4.752a20.745,20.745,0,0,0,4.149-.5c.585,1.587,1.236,3.192,1.78,4.43a23.761,23.761,0,0,0,5.707-2.153c-.574-1.786-1.135-3.273-1.611-4.5a20.778,20.778,0,0,0,3.437-2.379c.954.866,2.389,2.1,3.637,3.1a26.414,26.414,0,0,0,4.051-4.551c-.988-.972-2.336-2.224-3.516-3.242a20.659,20.659,0,0,0,1.941-3.7c2.5.645,4.656,1.051,4.656,1.051a21.144,21.144,0,0,0,1.463-5.924c-1.382-.412-3.149-.888-4.62-1.228a20.44,20.44,0,0,0,0-4.181" transform="translate(-61.104 -36.528)" fill="#2f73a8"/><path d="M272.384,216.28l-.01.015s.276.267.719.631a30.132,30.132,0,0,0,4.287,2.849s1.1-1.415,2.528-3.495Z" transform="translate(-63.86 -50.708)" fill="#00c8e6"/><rect width="143.302" height="95.861" rx="5.124" transform="translate(59.384 71.909)" fill="#464646"/><rect width="133.238" height="83.84" transform="translate(64.417 76.936)" fill="#fff"/><rect width="133.238" height="5.039" transform="translate(64.417 76.936)" fill="#007896"/><rect width="133.238" height="3.032" transform="translate(64.417 157.745)" fill="#007896"/><rect width="133.232" height="5.769" transform="translate(64.417 81.975)" fill="#dcdcdc"/><path d="M206.147,181.978H98.609V128.835h1.628v51.514H206.147Z" transform="translate(-23.119 -30.206)" fill="#b4b4b4"/><path d="M243.37,196a24.554,24.554,0,0,1-6.96-3.872l1.4,3.872-1.4,3.871A24.534,24.534,0,0,1,243.37,196" transform="translate(-55.428 -45.047)" fill="#b4b4b4"/><path d="M98.485,122.417a24.625,24.625,0,0,0,3.872,6.96l-3.872-1.4-3.872,1.4a24.55,24.55,0,0,0,3.872-6.96" transform="translate(-22.183 -28.701)" fill="#b4b4b4"/><g transform="translate(64.417 76.929)" opacity="0.1" style="mix-blend-mode:screen;isolation:isolate"><g clip-path="url(#c)"><path d="M133.1,100.489l-48.951,48.93V122.3l21.819-21.815Z" transform="translate(-84.145 -100.489)" fill="#fff"/></g></g><g transform="translate(143.721 106.847)" opacity="0.1" style="mix-blend-mode:screen;isolation:isolate"><g clip-path="url(#d)"><path d="M241.665,139.57v35.113L222.853,193.5H187.737Z" transform="translate(-187.737 -139.57)" fill="#fff"/></g></g><path d="M203.67,169.839,187.821,141.7l-21.87,25.72-25.549-23-28.764,16.7-1.089-1.879,30.132-17.495,25.064,22.567,21.076-24.787V135.5l18.742,33.278Z" transform="translate(-25.919 -31.768)" fill="#b4b4b4"/><path d="M113.991,166.531a3.935,3.935,0,1,1-3.936-3.935,3.936,3.936,0,0,1,3.936,3.935" transform="translate(-24.881 -38.122)" fill="#007896"/><path d="M152.457,144.2a3.936,3.936,0,1,1-3.936-3.936,3.936,3.936,0,0,1,3.936,3.936" transform="translate(-33.899 -32.885)" fill="#007896"/><path d="M185.514,173.316a3.936,3.936,0,1,1-3.936-3.936,3.935,3.935,0,0,1,3.936,3.936" transform="translate(-41.65 -39.712)" fill="#007896"/><path d="M214.328,140.071a3.936,3.936,0,1,1-3.936-3.936,3.937,3.937,0,0,1,3.936,3.936" transform="translate(-48.405 -31.918)" fill="#007896"/><path d="M236.157,178.456a3.935,3.935,0,1,1-3.936-3.935,3.936,3.936,0,0,1,3.936,3.935" transform="translate(-53.523 -40.918)" fill="#007896"/><rect width="9.567" height="2.171" transform="translate(141.198 93.851)" fill="#b4b4b4"/><rect width="10.517" height="2.171" transform="translate(128.51 93.851)" fill="#b4b4b4"/><rect width="4.207" height="2.171" transform="translate(122.133 93.851)" fill="#b4b4b4"/><rect width="14.384" height="2.173" transform="translate(136.382 98.735)" fill="#b4b4b4"/><rect width="12.076" height="2.173" transform="translate(122.133 98.735)" fill="#b4b4b4"/><rect width="8.007" height="2.171" transform="translate(142.759 103.622)" fill="#b4b4b4"/><rect width="12.827" height="2.171" transform="translate(127.762 103.622)" fill="#b4b4b4"/><rect width="3.457" height="2.171" transform="translate(122.133 103.622)" fill="#b4b4b4"/><rect width="3.776" height="21.847" transform="translate(104.47 124.207)" fill="#ff6400"/><rect width="3.778" height="19.53" transform="translate(109.603 126.524)" fill="#ffc800"/><rect width="3.779" height="13.435" transform="translate(114.736 132.619)" fill="#00a0b4"/><rect width="3.779" height="17.297" transform="translate(119.869 128.758)" fill="#96b400"/><path d="M269.462,210.571l-30.1-30.1,2.947-2.944,30.093,30.1Z" transform="translate(-56.12 -41.623)" fill="#323232"/><path d="M214.945,177.045a23.918,23.918,0,0,1-11.96-44.633,24.331,24.331,0,0,1,23.925,0,23.917,23.917,0,0,1-11.965,44.633m0-42.982a19.062,19.062,0,0,0-9.527,35.578,19.4,19.4,0,0,0,19.064,0,19.064,19.064,0,0,0-9.536-35.578" transform="translate(-44.788 -30.308)" fill="#323232"/><path d="M275.031,214.185a2.773,2.773,0,0,1-3.921,0L248.027,191.1a1.386,1.386,0,0,1,0-1.961l2.943-2.941a1.387,1.387,0,0,1,1.961,0l23.082,23.083a2.771,2.771,0,0,1,0,3.922Z" transform="translate(-58.056 -43.56)" fill="#007896"/><g transform="translate(150.804 103.464)" opacity="0.5"><g clip-path="url(#e)"><path d="M235.695,154.509a19.34,19.34,0,1,1-2.588-9.679,19.3,19.3,0,0,1,2.588,9.679" transform="translate(-196.99 -135.151)" fill="#e6ffff"/></g></g><path d="M253.539,186.2a1.383,1.383,0,0,0-1.957,0l-1.373,1.367,26.023,26.028.39-.393a2.76,2.76,0,0,0,0-3.917Z" transform="translate(-58.663 -43.56)" fill="#008caa"/><path d="M4.254,0H149.282a4.255,4.255,0,0,1,4.255,4.255V5.516a4.255,4.255,0,0,1-4.255,4.255H4.254A4.254,4.254,0,0,1,0,5.517V4.254A4.254,4.254,0,0,1,4.254,0Z" transform="translate(54.268 170.033)" fill="#464646"/><rect width="31.303" height="4.416" transform="translate(60.652 172.711)" fill="#323232"/><path d="M263.685,227.952a1.757,1.757,0,1,1-1.756-1.758,1.756,1.756,0,0,1,1.756,1.758" transform="translate(-60.999 -53.033)" fill="#ff6400"/><path d="M254.192,227.952a1.757,1.757,0,1,1-1.756-1.758,1.756,1.756,0,0,1,1.756,1.758" transform="translate(-58.773 -53.033)" fill="#96b400"/></g></g></g></g></svg>