<svg xmlns="http://www.w3.org/2000/svg" width="58.183" height="58.185" viewBox="0 0 58.183 58.185"><g transform="translate(-0.011 -0.009)"><path d="M60.823,57v3.637A1.824,1.824,0,0,1,59,62.456H40.819A1.824,1.824,0,0,1,39,60.637V57Z" transform="translate(-3.537 -5.171)" fill="#f2f6fc"/><path d="M55.093,27v1.819a1.824,1.824,0,0,1-1.819,1.819H47.819A1.824,1.824,0,0,1,46,28.819V27Z" transform="translate(-4.172 -2.449)" fill="#f2f6fc"/><path d="M60.823,28.819v25.46H39V28.819A1.824,1.824,0,0,1,40.819,27h4.546v1.819a1.824,1.824,0,0,0,1.819,1.819h5.456a1.824,1.824,0,0,0,1.819-1.819V27H59A1.824,1.824,0,0,1,60.823,28.819Z" transform="translate(-3.537 -2.449)" fill="#215278"/><path d="M40.819,60.637V57H39v3.637a1.824,1.824,0,0,0,1.819,1.819h1.819a1.824,1.824,0,0,1-1.819-1.819Z" transform="translate(-3.537 -5.171)" fill="#cdd2e1"/><path d="M42.637,27H40.819A1.824,1.824,0,0,0,39,28.819v25.46h1.819V28.819A1.824,1.824,0,0,1,42.637,27Z" transform="translate(-3.537 -2.449)" fill="#87c7ff"/><path d="M60.819,60.637V57h1.819v3.637a1.824,1.824,0,0,1-1.819,1.819H59a1.824,1.824,0,0,0,1.819-1.819Z" transform="translate(-5.352 -5.171)" fill="#cdd2e1"/><path d="M59,27h1.819a1.824,1.824,0,0,1,1.819,1.819v25.46H60.819V28.819A1.824,1.824,0,0,0,59,27Z" transform="translate(-5.352 -2.449)" fill="#4a7aff"/><path d="M48,59h5.456v1.819H48Z" transform="translate(-4.354 -5.352)" fill="#7e8596"/><circle cx="1.819" cy="1.819" r="1.819" transform="translate(44.555 17.277)" fill="#b3f2d7"/><path d="M50.456,15A5.461,5.461,0,0,0,45,20.456h1.819a3.637,3.637,0,1,1,7.274,0h1.819A5.461,5.461,0,0,0,50.456,15Z" transform="translate(-4.082 -1.36)" fill="#82d9b6"/><path d="M50.183,12A8.193,8.193,0,0,0,42,20.183h1.819a6.365,6.365,0,0,1,12.73,0h1.819A8.193,8.193,0,0,0,50.183,12Z" transform="translate(-3.81 -1.088)" fill="#00bd9d"/><path d="M57.548,41.274a7.26,7.26,0,0,1-4.474,6.71l-2.8,4.2-2.8-4.2a7.274,7.274,0,1,1,10.075-6.71Zm-4.546,0A2.728,2.728,0,1,0,50.274,44,2.728,2.728,0,0,0,53,41.274Z" transform="translate(-3.9 -3.084)" fill="#fcd004"/><circle cx="3.637" cy="3.637" r="3.637" transform="translate(15.459 15.458)" fill="#7d6701"/><path d="M37.881,2.854a6.329,6.329,0,0,1-6.01,10.62,6.239,6.239,0,0,1-4.61-4.61,6.329,6.329,0,0,1,10.62-6.01Z" transform="translate(-2.455 -0.089)" fill="#cdd2e1"/><path d="M37.918,28.952v8.893l-.036.036a6.329,6.329,0,0,1-10.62-6.01,6.239,6.239,0,0,1,4.61-4.61,6.3,6.3,0,0,1,6.01,1.655Z" transform="translate(-2.455 -2.455)" fill="#cdd2e1"/><path d="M31.565,14.26a17.625,17.625,0,0,1-2.519,3.255A8.144,8.144,0,0,0,23.7,12.169,17.625,17.625,0,0,1,26.955,9.65,6.239,6.239,0,0,0,31.565,14.26Z" transform="translate(-2.149 -0.875)" fill="#7e8596"/><path d="M29.047,23.7a17.625,17.625,0,0,1,2.519,3.255,6.239,6.239,0,0,0-4.61,4.61A17.625,17.625,0,0,1,23.7,29.047,8.144,8.144,0,0,0,29.047,23.7Z" transform="translate(-2.149 -2.149)" fill="#7e8596"/><path d="M27.985,17.728a8.179,8.179,0,1,1-15.6,4.91,8.179,8.179,0,1,1,15.6-4.91Zm-4.164,2.455a3.637,3.637,0,1,0-3.637,3.637A3.637,3.637,0,0,0,23.821,20.183Z" transform="translate(-1.088 -1.088)" fill="#cdd2e1"/><path d="M14.26,9.65a17.625,17.625,0,0,1,3.255,2.519,8.144,8.144,0,0,0-5.347,5.347A17.625,17.625,0,0,1,9.65,14.26a6.239,6.239,0,0,0,4.61-4.61Z" transform="translate(-0.875 -0.875)" fill="#7e8596"/><path d="M17.515,29.047a17.625,17.625,0,0,1-3.255,2.519,6.239,6.239,0,0,0-4.61-4.61A17.625,17.625,0,0,1,12.169,23.7a8.144,8.144,0,0,0,5.347,5.347Z" transform="translate(-0.875 -2.149)" fill="#7e8596"/><path d="M11.821,2.855a6.3,6.3,0,0,1,1.655,6.01,6.239,6.239,0,0,1-4.61,4.61,6.333,6.333,0,1,1,2.955-10.62Z" transform="translate(-0.09 -0.089)" fill="#cdd2e1"/><path d="M13.474,31.871a6.339,6.339,0,1,1-4.61-4.61A6.239,6.239,0,0,1,13.474,31.871Z" transform="translate(-0.088 -2.455)" fill="#cdd2e1"/><g transform="translate(2.729 2.729)"><path d="M20,20h1.819v1.819H20Z" transform="translate(-4.542 -4.542)" fill="#7e8596"/><path d="M38.546,7.546H36.728A2.728,2.728,0,0,0,34,4.819V3a4.552,4.552,0,0,1,4.546,4.546Z" transform="translate(-5.813 -3)" fill="#7e8596"/><path d="M33.546,12.546A4.552,4.552,0,0,1,29,8h1.819a2.728,2.728,0,0,0,2.728,2.728Z" transform="translate(-5.359 -3.454)" fill="#7e8596"/><path d="M33,7h1.819V8.819H33Z" transform="translate(-5.722 -3.363)" fill="#7e8596"/><path d="M33.546,38.546A4.552,4.552,0,0,1,29,34h1.819a2.728,2.728,0,0,0,2.728,2.728Z" transform="translate(-5.359 -5.813)" fill="#7e8596"/><path d="M33,33h1.819v1.819H33Z" transform="translate(-5.722 -5.722)" fill="#7e8596"/><path d="M12.546,33.546H10.728A2.728,2.728,0,0,0,8,30.819V29A4.552,4.552,0,0,1,12.546,33.546Z" transform="translate(-3.454 -5.359)" fill="#7e8596"/><path d="M7.546,38.546A4.552,4.552,0,0,1,3,34H4.819a2.728,2.728,0,0,0,2.728,2.728Z" transform="translate(-3 -5.813)" fill="#7e8596"/><path d="M7,33H8.819v1.819H7Z" transform="translate(-3.363 -5.722)" fill="#7e8596"/><path d="M12.546,7.546H10.728A2.728,2.728,0,0,0,8,4.819V3a4.552,4.552,0,0,1,4.546,4.546Z" transform="translate(-3.454 -3)" fill="#7e8596"/><path d="M7.546,12.546A4.552,4.552,0,0,1,3,8H4.819a2.728,2.728,0,0,0,2.728,2.728Z" transform="translate(-3 -3.454)" fill="#7e8596"/><path d="M7,7H8.819V8.819H7Z" transform="translate(-3.363 -3.363)" fill="#7e8596"/></g><path d="M20,33h1.819v1.819H20Z" transform="translate(-1.814 -2.993)" fill="#ffc247"/><path d="M20,37h1.819v1.819H20Z" transform="translate(-1.814 -3.356)" fill="#ffc247"/><path d="M20,41h1.819v1.819H20Z" transform="translate(-1.814 -3.719)" fill="#ffc247"/><path d="M20,45h1.819v1.819H20Z" transform="translate(-1.814 -4.082)" fill="#ffc247"/><path d="M20,49h1.819v1.819H20Z" transform="translate(-1.814 -4.445)" fill="#ffc247"/><path d="M24,49h1.819v1.819H24Z" transform="translate(-2.176 -4.445)" fill="#ffc247"/><path d="M28,49h1.819v1.819H28Z" transform="translate(-2.539 -4.445)" fill="#ffc247"/><path d="M32,49h1.819v1.819H32Z" transform="translate(-2.902 -4.445)" fill="#ffc247"/><path d="M36,49h2.728v1.819H36Z" transform="translate(-3.265 -4.445)" fill="#ffc247"/><path d="M20.546,16a4.546,4.546,0,1,0,4.546,4.546A4.546,4.546,0,0,0,20.546,16Zm0,7.274a2.728,2.728,0,1,1,2.728-2.728A2.728,2.728,0,0,1,20.546,23.274Z" transform="translate(-1.451 -1.451)"/><path d="M20,20h1.819v1.819H20Z" transform="translate(-1.814 -1.814)"/><path d="M36.728,7.546h1.819A4.552,4.552,0,0,0,34,3V4.819A2.728,2.728,0,0,1,36.728,7.546Z" transform="translate(-3.084 -0.271)"/><path d="M33.546,12.546V10.728A2.728,2.728,0,0,1,30.819,8H29A4.552,4.552,0,0,0,33.546,12.546Z" transform="translate(-2.63 -0.725)"/><path d="M33,7h1.819V8.819H33Z" transform="translate(-2.993 -0.634)"/><path d="M30.819,34H29a4.552,4.552,0,0,0,4.546,4.546V36.728A2.728,2.728,0,0,1,30.819,34Z" transform="translate(-2.63 -3.084)"/><path d="M33,33h1.819v1.819H33Z" transform="translate(-2.993 -2.993)"/><path d="M8,29v1.819a2.728,2.728,0,0,1,2.728,2.728h1.819A4.552,4.552,0,0,0,8,29Z" transform="translate(-0.725 -2.63)"/><path d="M4.819,34H3a4.552,4.552,0,0,0,4.546,4.546V36.728A2.728,2.728,0,0,1,4.819,34Z" transform="translate(-0.271 -3.084)"/><path d="M7,33H8.819v1.819H7Z" transform="translate(-0.634 -2.993)"/><path d="M8,3V4.819a2.728,2.728,0,0,1,2.728,2.728h1.819A4.552,4.552,0,0,0,8,3Z" transform="translate(-0.725 -0.271)"/><path d="M4.819,8H3a4.552,4.552,0,0,0,4.546,4.546V10.728A2.728,2.728,0,0,1,4.819,8Z" transform="translate(-0.271 -0.725)"/><path d="M7,7H8.819V8.819H7Z" transform="translate(-0.634 -0.634)"/><path d="M55.467,23.642H37.281a2.721,2.721,0,0,0-2.31,1.295,7.24,7.24,0,0,0-5.1-1.138,19.175,19.175,0,0,0-1.932-2.439l-.039-.045a8.77,8.77,0,0,0,0-4.439l.039-.045A19.294,19.294,0,0,0,29.867,14.4a7.318,7.318,0,1,0-6.074-6.074,19.3,19.3,0,0,0-2.427,1.925l-.045.039a8.77,8.77,0,0,0-4.439,0l-.045-.039a19.294,19.294,0,0,0-2.427-1.925A7.308,7.308,0,0,0,14.5,7.253,7.318,7.318,0,1,0,8.337,14.4a19.294,19.294,0,0,0,1.925,2.427l.039.045a8.77,8.77,0,0,0,0,4.439l-.039.045a19.294,19.294,0,0,0-1.925,2.427A7.309,7.309,0,0,0,7.26,23.7a7.322,7.322,0,1,0,7.154,6.169,19.3,19.3,0,0,0,2.427-1.925l.045-.039a8.77,8.77,0,0,0,4.439,0l.045.039a19.168,19.168,0,0,0,2.44,1.932,7.219,7.219,0,0,0,10.745,7.341v7.343H32.735v1.819h1.819v9.093a2.728,2.728,0,0,0,2.728,2.728H55.467a2.728,2.728,0,0,0,2.728-2.728V26.37a2.728,2.728,0,0,0-2.728-2.728Zm-12.73,1.819h7.274v.909a.909.909,0,0,1-.909.909H43.646a.909.909,0,0,1-.909-.909Zm-5.456,0h3.637v.909A2.728,2.728,0,0,0,43.646,29.1H49.1A2.728,2.728,0,0,0,51.83,26.37v-.909h3.637a.909.909,0,0,1,.909.909V50.92h-20V26.37A.909.909,0,0,1,37.281,25.461ZM27.107,3.409a5.427,5.427,0,1,1-1.177,5.915,5.427,5.427,0,0,1,1.177-5.915Zm-2.794,6.752a7.207,7.207,0,0,0,3.717,3.717c-.262.364-.55.72-.853,1.07a9.144,9.144,0,0,0-3.934-3.934C23.593,10.711,23.953,10.423,24.313,10.161Zm-20.9.923a5.426,5.426,0,1,1,3.838,1.59,5.426,5.426,0,0,1-3.838-1.59Zm6.752,2.794a7.207,7.207,0,0,0,3.717-3.717c.364.262.72.551,1.07.853a9.144,9.144,0,0,0-3.934,3.934c-.3-.35-.591-.71-.853-1.07Zm.923,20.9a5.427,5.427,0,1,1,1.589-3.838,5.427,5.427,0,0,1-1.589,3.838Zm2.794-6.752a7.207,7.207,0,0,0-3.717-3.717c.262-.364.551-.72.853-1.07a9.144,9.144,0,0,0,3.934,3.934c-.35.3-.71.591-1.07.853ZM11.822,19.1A7.274,7.274,0,1,1,19.1,26.37,7.274,7.274,0,0,1,11.822,19.1Zm15.356,4.147c.3.353.6.716.859,1.079a7.011,7.011,0,0,0-3.715,3.713c-.364-.263-.727-.554-1.078-.858a9.144,9.144,0,0,0,3.934-3.934ZM27.1,34.783a5.43,5.43,0,0,1-1.412-5.16,5.327,5.327,0,0,1,3.952-3.935,5.4,5.4,0,0,1,4.91,1.21v8.073A5.424,5.424,0,0,1,27.1,34.783ZM55.467,56.376H37.281a.909.909,0,0,1-.909-.909V52.739h20v2.728A.909.909,0,0,1,55.467,56.376Z" transform="translate(0 0)"/><path d="M48,59h5.456v1.819H48Z" transform="translate(-4.354 -5.352)"/><path d="M46.777,48.625l2.65,3.974a.909.909,0,0,0,1.513,0l2.65-3.974a8.183,8.183,0,1,0-6.812,0Zm3.406-13.806A6.365,6.365,0,0,1,52.63,47.059a.909.909,0,0,0-.406.335l-2.04,3.064-2.04-3.064a.909.909,0,0,0-.406-.335,6.365,6.365,0,0,1,2.447-12.241Z" transform="translate(-3.809 -2.993)"/><path d="M50.637,45.274A3.637,3.637,0,1,0,47,41.637,3.637,3.637,0,0,0,50.637,45.274Zm0-5.456a1.819,1.819,0,1,1-1.819,1.819A1.819,1.819,0,0,1,50.637,39.819Z" transform="translate(-4.263 -3.447)"/><path d="M50.728,18a2.728,2.728,0,1,0,2.728,2.728A2.728,2.728,0,0,0,50.728,18Zm0,3.637a.909.909,0,1,1,.909-.909A.909.909,0,0,1,50.728,21.637Z" transform="translate(-4.354 -1.632)"/><path d="M55.911,20.456a5.456,5.456,0,1,0-10.911,0h1.819a3.637,3.637,0,1,1,7.274,0Z" transform="translate(-4.082 -1.36)"/><path d="M43.819,20.183a6.365,6.365,0,0,1,12.73,0h1.819a8.183,8.183,0,1,0-16.367,0Z" transform="translate(-3.81 -1.088)"/><path d="M20,33h1.819v1.819H20Z" transform="translate(-1.814 -2.993)"/><path d="M20,37h1.819v1.819H20Z" transform="translate(-1.814 -3.356)"/><path d="M20,41h1.819v1.819H20Z" transform="translate(-1.814 -3.719)"/><path d="M20,45h1.819v1.819H20Z" transform="translate(-1.814 -4.082)"/><path d="M20,49h1.819v1.819H20Z" transform="translate(-1.814 -4.445)"/><path d="M24,49h1.819v1.819H24Z" transform="translate(-2.176 -4.445)"/><path d="M28,49h1.819v1.819H28Z" transform="translate(-2.539 -4.445)"/><path d="M32,49h1.819v1.819H32Z" transform="translate(-2.902 -4.445)"/></g></svg>