<svg xmlns="http://www.w3.org/2000/svg" width="59.5" height="59.5" viewBox="0 0 59.5 59.5"><g transform="translate(-7 -7)"><path d="M135.841,137.489H102.648A1.648,1.648,0,0,1,101,135.841V102.648A1.648,1.648,0,0,1,102.648,101h33.193a1.648,1.648,0,0,1,1.648,1.648v33.193A1.648,1.648,0,0,1,135.841,137.489Z" transform="translate(-82.495 -82.495)" fill="#ecf4ff"/><path d="M370.531,101H367a1.648,1.648,0,0,1,1.648,1.648v33.193A1.648,1.648,0,0,1,367,137.489h3.531a1.648,1.648,0,0,0,1.648-1.648V102.648A1.648,1.648,0,0,0,370.531,101Z" transform="translate(-317.185 -82.495)" fill="#ddeafb"/><path d="M164,184.245V165.412A1.412,1.412,0,0,1,165.412,164h18.833a1.413,1.413,0,0,1,1.412,1.412v18.833a1.413,1.413,0,0,1-1.412,1.412H165.412A1.413,1.413,0,0,1,164,184.245Z" transform="translate(-138.079 -138.079)" fill="#5c90b9"/><path d="M309.531,164H306a1.413,1.413,0,0,1,1.412,1.412v18.833A1.413,1.413,0,0,1,306,185.658h3.531a1.413,1.413,0,0,0,1.412-1.412V165.412A1.412,1.412,0,0,0,309.531,164Z" transform="translate(-263.365 -138.079)" fill="#4a80aa"/><path d="M164,291.324v5.259A1.412,1.412,0,0,0,165.412,298h18.833a1.413,1.413,0,0,0,1.412-1.412v-5.259Z" transform="translate(-138.079 -250.416)" fill="#b3dbf9"/><path d="M307.412,291.324v5.259A1.413,1.413,0,0,1,306,298h3.531a1.412,1.412,0,0,0,1.412-1.412v-5.259Z" transform="translate(-263.365 -250.416)" fill="#2f73a8"/><path d="M194,199.382v-4.41a.973.973,0,0,1,.973-.973h4.41a.973.973,0,0,1,.973.973v4.41a.973.973,0,0,1-.973.973h-4.41A.973.973,0,0,1,194,199.382Z" transform="translate(-164.548 -164.547)" fill="#ffd064"/><path d="M213.263,194h-3.531a.973.973,0,0,1,.973.973v4.41a.973.973,0,0,1-.973.973h3.531a.973.973,0,0,0,.973-.973v-4.41A.973.973,0,0,0,213.263,194Z" transform="translate(-178.428 -164.548)" fill="#ffc250"/><path d="M74.531,238.107l-1.845-.523A2.319,2.319,0,0,1,71,235.353h0a2.319,2.319,0,0,1,1.686-2.231l1.845-.523Z" transform="translate(-56.026 -198.603)" fill="#5c90b9"/><path d="M411,238.107l1.845-.523a2.319,2.319,0,0,0,1.686-2.231h0a2.319,2.319,0,0,0-1.686-2.231L411,232.6Z" transform="translate(-356.006 -198.603)" fill="#5c90b9"/><path d="M238.107,411l-.523,1.845a2.319,2.319,0,0,1-2.231,1.686h0a2.319,2.319,0,0,1-2.231-1.686L232.6,411Z" transform="translate(-198.603 -356.006)" fill="#5c90b9"/><path d="M238.107,74.531l-.523-1.845A2.319,2.319,0,0,0,235.353,71h0a2.319,2.319,0,0,0-2.231,1.686l-.523,1.845Z" transform="translate(-198.603 -56.026)" fill="#5c90b9"/><g transform="translate(7.5 7.5)"><g transform="translate(0 0)"><g transform="translate(0 20.609)"><path d="M9.812,199.87a17.3,17.3,0,0,1,0-17.282" transform="translate(-7.5 -182.588)" fill="none" stroke="#000" stroke-linecap="round" stroke-linejoin="round" stroke-miterlimit="10" stroke-width="1"/><path d="M39.348,211.793a13.776,13.776,0,0,1,0-13.609" transform="translate(-34.013 -196.348)" fill="none" stroke="#000" stroke-linecap="round" stroke-linejoin="round" stroke-miterlimit="10" stroke-width="1"/></g><g transform="translate(53.165 20.609)"><path d="M484.857,199.87a17.3,17.3,0,0,0,0-17.282" transform="translate(-481.834 -182.588)" fill="none" stroke="#000" stroke-linecap="round" stroke-linejoin="round" stroke-miterlimit="10" stroke-width="1"/><path d="M459.175,211.793a13.776,13.776,0,0,0,0-13.609" transform="translate(-459.175 -196.348)" fill="none" stroke="#000" stroke-linecap="round" stroke-linejoin="round" stroke-miterlimit="10" stroke-width="1"/></g><g transform="translate(20.609 53.165)"><path d="M199.87,484.857a17.3,17.3,0,0,1-17.282,0" transform="translate(-182.588 -481.834)" fill="none" stroke="#000" stroke-linecap="round" stroke-linejoin="round" stroke-miterlimit="10" stroke-width="1"/><path d="M211.793,459.175a13.776,13.776,0,0,1-13.609,0" transform="translate(-196.348 -459.175)" fill="none" stroke="#000" stroke-linecap="round" stroke-linejoin="round" stroke-miterlimit="10" stroke-width="1"/></g><g transform="translate(20.609)"><path d="M199.87,9.812a17.3,17.3,0,0,0-17.282,0" transform="translate(-182.588 -7.5)" fill="none" stroke="#000" stroke-linecap="round" stroke-linejoin="round" stroke-miterlimit="10" stroke-width="1"/><path d="M211.793,39.348a13.776,13.776,0,0,0-13.609,0" transform="translate(-196.348 -34.013)" fill="none" stroke="#000" stroke-linecap="round" stroke-linejoin="round" stroke-miterlimit="10" stroke-width="1"/></g></g><path d="M101,127.6V102.648A1.648,1.648,0,0,1,102.648,101h25.529" transform="translate(-89.995 -89.995)" fill="none" stroke="#000" stroke-linecap="round" stroke-linejoin="round" stroke-miterlimit="10" stroke-width="1"/><path d="M132.368,101h3.472a1.648,1.648,0,0,1,1.648,1.648v33.193a1.648,1.648,0,0,1-1.648,1.648H102.648A1.648,1.648,0,0,1,101,135.841v-4.264" transform="translate(-89.995 -89.995)" fill="none" stroke="#000" stroke-linecap="round" stroke-linejoin="round" stroke-miterlimit="10" stroke-width="1"/><path d="M164,184.245V165.412A1.412,1.412,0,0,1,165.412,164h18.833a1.413,1.413,0,0,1,1.412,1.412v18.833a1.413,1.413,0,0,1-1.412,1.412H165.412A1.413,1.413,0,0,1,164,184.245Z" transform="translate(-145.579 -145.579)" fill="none" stroke="#000" stroke-linecap="round" stroke-linejoin="round" stroke-miterlimit="10" stroke-width="1"/><path d="M194,199.382v-4.41a.973.973,0,0,1,.973-.973h4.41a.973.973,0,0,1,.973.973v4.41a.973.973,0,0,1-.973.973h-4.41A.973.973,0,0,1,194,199.382Z" transform="translate(-172.048 -172.047)" fill="none" stroke="#000" stroke-linecap="round" stroke-linejoin="round" stroke-miterlimit="10" stroke-width="1"/><g transform="translate(16.126 16.126)"><g transform="translate(6.65)"><line y2="2.119" fill="none" stroke="#000" stroke-linecap="round" stroke-linejoin="round" stroke-miterlimit="10" stroke-width="1"/><line y2="2.119" transform="translate(4.316)" fill="none" stroke="#000" stroke-linecap="round" stroke-linejoin="round" stroke-miterlimit="10" stroke-width="1"/><line y2="2.119" transform="translate(8.632)" fill="none" stroke="#000" stroke-linecap="round" stroke-linejoin="round" stroke-miterlimit="10" stroke-width="1"/><line y2="2.119" transform="translate(12.948)" fill="none" stroke="#000" stroke-linecap="round" stroke-linejoin="round" stroke-miterlimit="10" stroke-width="1"/><g transform="translate(0 24.13)"><line y2="2.119" fill="none" stroke="#000" stroke-linecap="round" stroke-linejoin="round" stroke-miterlimit="10" stroke-width="1"/><line y2="2.119" transform="translate(4.316)" fill="none" stroke="#000" stroke-linecap="round" stroke-linejoin="round" stroke-miterlimit="10" stroke-width="1"/><line y2="2.119" transform="translate(8.632)" fill="none" stroke="#000" stroke-linecap="round" stroke-linejoin="round" stroke-miterlimit="10" stroke-width="1"/><line y2="2.119" transform="translate(12.948)" fill="none" stroke="#000" stroke-linecap="round" stroke-linejoin="round" stroke-miterlimit="10" stroke-width="1"/></g></g><g transform="translate(0 6.65)"><g transform="translate(24.13)"><line x1="2.119" fill="none" stroke="#000" stroke-linecap="round" stroke-linejoin="round" stroke-miterlimit="10" stroke-width="1"/><line x1="2.119" transform="translate(0 4.316)" fill="none" stroke="#000" stroke-linecap="round" stroke-linejoin="round" stroke-miterlimit="10" stroke-width="1"/><line x1="2.119" transform="translate(0 8.632)" fill="none" stroke="#000" stroke-linecap="round" stroke-linejoin="round" stroke-miterlimit="10" stroke-width="1"/><line x1="2.119" transform="translate(0 12.948)" fill="none" stroke="#000" stroke-linecap="round" stroke-linejoin="round" stroke-miterlimit="10" stroke-width="1"/></g><line x1="2.119" fill="none" stroke="#000" stroke-linecap="round" stroke-linejoin="round" stroke-miterlimit="10" stroke-width="1"/><line x1="2.119" transform="translate(0 4.316)" fill="none" stroke="#000" stroke-linecap="round" stroke-linejoin="round" stroke-miterlimit="10" stroke-width="1"/><line x1="2.119" transform="translate(0 8.632)" fill="none" stroke="#000" stroke-linecap="round" stroke-linejoin="round" stroke-miterlimit="10" stroke-width="1"/><line x1="2.119" transform="translate(0 12.948)" fill="none" stroke="#000" stroke-linecap="round" stroke-linejoin="round" stroke-miterlimit="10" stroke-width="1"/></g></g><line x2="20.904" transform="translate(18.839 33.408)" fill="none" stroke="#000" stroke-linecap="round" stroke-linejoin="round" stroke-miterlimit="10" stroke-width="1"/><path d="M74.531,238.107l-1.845-.523A2.319,2.319,0,0,1,71,235.353h0a2.319,2.319,0,0,1,1.686-2.231l1.845-.523Z" transform="translate(-63.526 -206.103)" fill="none" stroke="#000" stroke-linecap="round" stroke-linejoin="round" stroke-miterlimit="10" stroke-width="1"/><path d="M411,238.107l1.845-.523a2.319,2.319,0,0,0,1.686-2.231h0a2.319,2.319,0,0,0-1.686-2.231L411,232.6Z" transform="translate(-363.506 -206.103)" fill="none" stroke="#000" stroke-linecap="round" stroke-linejoin="round" stroke-miterlimit="10" stroke-width="1"/><path d="M238.107,411l-.523,1.845a2.319,2.319,0,0,1-2.231,1.686h0a2.319,2.319,0,0,1-2.231-1.686L232.6,411Z" transform="translate(-206.103 -363.506)" fill="none" stroke="#000" stroke-linecap="round" stroke-linejoin="round" stroke-miterlimit="10" stroke-width="1"/><path d="M238.107,74.531l-.523-1.845A2.319,2.319,0,0,0,235.353,71h0a2.319,2.319,0,0,0-2.231,1.686l-.523,1.845Z" transform="translate(-206.103 -63.526)" fill="none" stroke="#000" stroke-linecap="round" stroke-linejoin="round" stroke-miterlimit="10" stroke-width="1"/></g></g></svg>