<svg xmlns="http://www.w3.org/2000/svg" xmlns:xlink="http://www.w3.org/1999/xlink" width="103.81" height="103.81" viewBox="0 0 103.81 103.81"><defs><filter id="a" x="0" y="0" width="103.81" height="103.81" filterUnits="userSpaceOnUse"><feOffset dy="3" input="SourceAlpha"/><feGaussianBlur stdDeviation="3" result="b"/><feFlood flood-opacity="0.412"/><feComposite operator="in" in2="b"/></filter><filter id="c" x="0" y="0" width="103.81" height="103.81" filterUnits="userSpaceOnUse"><feOffset dy="3" input="SourceAlpha"/><feGaussianBlur stdDeviation="3" result="d"/><feFlood flood-opacity="0.161" result="e"/><feComposite operator="out" in="SourceGraphic" in2="d"/><feComposite operator="in" in="e"/><feComposite operator="in" in2="SourceGraphic"/></filter><clipPath id="f"><rect width="74.319" height="66.88" fill="none"/></clipPath><clipPath id="h"><rect width="74.319" height="43.591" fill="none"/></clipPath><clipPath id="i"><path d="M105.251,109.127v.694l2.083,1.025a6.558,6.558,0,0,0,4.479.3c8.565-3.182,15.406-8.5,17.792-10.284a.775.775,0,0,0,.352-.6c0-.008-.024-1.273-.024-1.273s-.435.483-.665.352l-.06-.791Z" transform="translate(-105.251 -98.543)" fill="none"/></clipPath><linearGradient id="j" x1="-2.002" y1="1.578" x2="-1.983" y2="1.578" gradientUnits="objectBoundingBox"><stop offset="0" stop-color="#9b99ab"/><stop offset="0.021" stop-color="#9b99ab"/><stop offset="0.065" stop-color="#a5a3b7"/><stop offset="0.153" stop-color="#b5b4cb"/><stop offset="0.213" stop-color="#bcbbd3"/><stop offset="1" stop-color="#bcbbd3"/></linearGradient><clipPath id="l"><rect width="1.664" height="1.886" fill="none"/></clipPath><clipPath id="n"><rect width="12.169" height="26.322" fill="none"/></clipPath><clipPath id="o"><rect width="14.339" height="28.208" fill="none"/></clipPath><clipPath id="p"><rect width="12.394" height="13.884" fill="none"/></clipPath></defs><g transform="translate(11876.857 12040.592)"><g data-type="innerShadowGroup"><g transform="matrix(1, 0, 0, 1, -11876.86, -12040.59)" filter="url(#a)"><g transform="translate(9 6)" fill="#a8aeb5"><path d="M 42.90478134155273 84.3095703125 C 37.31450653076172 84.3095703125 31.89225578308105 83.21504211425781 26.78863143920898 81.056396484375 C 21.85835647583008 78.97105407714844 17.43020629882812 75.98542022705078 13.62718105316162 72.18238067626953 C 9.824156761169434 68.37935638427734 6.83850622177124 63.95120620727539 4.753181457519531 59.02093124389648 C 2.594531297683716 53.91730499267578 1.500006318092346 48.49505615234375 1.500006318092346 42.90478134155273 C 1.500006318092346 37.31450653076172 2.594531297683716 31.89225578308105 4.753181457519531 26.78863143920898 C 6.83850622177124 21.85835647583008 9.824156761169434 17.43020629882812 13.62718105316162 13.62718105316162 C 17.43020629882812 9.824156761169434 21.85835647583008 6.83850622177124 26.78863143920898 4.753181457519531 C 31.89225578308105 2.594531297683716 37.31450653076172 1.500006318092346 42.90478134155273 1.500006318092346 C 48.49505615234375 1.500006318092346 53.91730499267578 2.594531297683716 59.02093124389648 4.753181457519531 C 63.95120620727539 6.83850622177124 68.37935638427734 9.824156761169434 72.18238067626953 13.62718105316162 C 75.98542022705078 17.43020629882812 78.97105407714844 21.85835647583008 81.056396484375 26.78863143920898 C 83.21504211425781 31.89225578308105 84.3095703125 37.31450653076172 84.3095703125 42.90478134155273 C 84.3095703125 48.49505615234375 83.21504211425781 53.91730499267578 81.056396484375 59.02093124389648 C 78.97105407714844 63.95120620727539 75.98540496826172 68.37935638427734 72.18238067626953 72.18238067626953 C 68.37935638427734 75.98540496826172 63.95120620727539 78.97105407714844 59.02093124389648 81.056396484375 C 53.91730499267578 83.21504211425781 48.49505615234375 84.3095703125 42.90478134155273 84.3095703125 Z" stroke="none"/><path d="M 42.90478134155273 2.999992370605469 C 37.51634216308594 2.999992370605469 32.29068756103516 4.054649353027344 27.37295532226562 6.134674072265625 C 22.62147521972656 8.144378662109375 18.35358428955078 11.02207183837891 14.68783569335938 14.68783569335938 C 11.02207183837891 18.35358428955078 8.144378662109375 22.62147521972656 6.134674072265625 27.37295532226562 C 4.054649353027344 32.29068756103516 2.999992370605469 37.51634216308594 2.999992370605469 42.90478134155273 C 2.999992370605469 48.29320907592773 4.054649353027344 53.51885986328125 6.134674072265625 58.43659210205078 C 8.144378662109375 63.18807220458984 11.02207183837891 67.45595550537109 14.68783569335938 71.12171173095703 C 18.35358428955078 74.78746032714844 22.62147521972656 77.66516876220703 27.37295532226562 79.67487335205078 C 32.29068756103516 81.75489044189453 37.51634216308594 82.80955505371094 42.90478134155273 82.80955505371094 C 48.29320907592773 82.80955505371094 53.51885986328125 81.75489044189453 58.43659210205078 79.67487335205078 C 63.18806076049805 77.66516876220703 67.45595550537109 74.78746032714844 71.12171173095703 71.12171173095703 C 74.78746032714844 67.45595550537109 77.66516876220703 63.18806076049805 79.67487335205078 58.43659210205078 C 81.75489044189453 53.51885986328125 82.80955505371094 48.29320907592773 82.80955505371094 42.90478134155273 C 82.80955505371094 37.51634216308594 81.75489044189453 32.29068756103516 79.67487335205078 27.37295532226562 C 77.66516876220703 22.62147521972656 74.78746032714844 18.35358428955078 71.12171173095703 14.68783569335938 C 67.45595550537109 11.02207183837891 63.18807220458984 8.144378662109375 58.43659210205078 6.134674072265625 C 53.51885986328125 4.054649353027344 48.29320907592773 2.999992370605469 42.90478134155273 2.999992370605469 M 42.90478134155273 -7.62939453125e-06 C 66.60041809082031 -7.62939453125e-06 85.80955505371094 19.20911407470703 85.80955505371094 42.90478134155273 C 85.80955505371094 66.60041809082031 66.60041809082031 85.80955505371094 42.90478134155273 85.80955505371094 C 19.20911407470703 85.80955505371094 -7.62939453125e-06 66.60041809082031 -7.62939453125e-06 42.90478134155273 C -7.62939453125e-06 19.20911407470703 19.20911407470703 -7.62939453125e-06 42.90478134155273 -7.62939453125e-06 Z" stroke="none" fill="#fff"/></g></g><g transform="translate(-11867.856 -12034.592)" fill="#a8aeb5"><path d="M 42.90478134155273 84.3095703125 C 37.31450653076172 84.3095703125 31.89225578308105 83.21504211425781 26.78863143920898 81.056396484375 C 21.85835647583008 78.97105407714844 17.43020629882812 75.98542022705078 13.62718105316162 72.18238067626953 C 9.824156761169434 68.37935638427734 6.83850622177124 63.95120620727539 4.753181457519531 59.02093124389648 C 2.594531297683716 53.91730499267578 1.500006318092346 48.49505615234375 1.500006318092346 42.90478134155273 C 1.500006318092346 37.31450653076172 2.594531297683716 31.89225578308105 4.753181457519531 26.78863143920898 C 6.83850622177124 21.85835647583008 9.824156761169434 17.43020629882812 13.62718105316162 13.62718105316162 C 17.43020629882812 9.824156761169434 21.85835647583008 6.83850622177124 26.78863143920898 4.753181457519531 C 31.89225578308105 2.594531297683716 37.31450653076172 1.500006318092346 42.90478134155273 1.500006318092346 C 48.49505615234375 1.500006318092346 53.91730499267578 2.594531297683716 59.02093124389648 4.753181457519531 C 63.95120620727539 6.83850622177124 68.37935638427734 9.824156761169434 72.18238067626953 13.62718105316162 C 75.98542022705078 17.43020629882812 78.97105407714844 21.85835647583008 81.056396484375 26.78863143920898 C 83.21504211425781 31.89225578308105 84.3095703125 37.31450653076172 84.3095703125 42.90478134155273 C 84.3095703125 48.49505615234375 83.21504211425781 53.91730499267578 81.056396484375 59.02093124389648 C 78.97105407714844 63.95120620727539 75.98540496826172 68.37935638427734 72.18238067626953 72.18238067626953 C 68.37935638427734 75.98540496826172 63.95120620727539 78.97105407714844 59.02093124389648 81.056396484375 C 53.91730499267578 83.21504211425781 48.49505615234375 84.3095703125 42.90478134155273 84.3095703125 Z" stroke="none"/><path d="M 42.90478134155273 2.999992370605469 C 37.51634216308594 2.999992370605469 32.29068756103516 4.054649353027344 27.37295532226562 6.134674072265625 C 22.62147521972656 8.144378662109375 18.35358428955078 11.02207183837891 14.68783569335938 14.68783569335938 C 11.02207183837891 18.35358428955078 8.144378662109375 22.62147521972656 6.134674072265625 27.37295532226562 C 4.054649353027344 32.29068756103516 2.999992370605469 37.51634216308594 2.999992370605469 42.90478134155273 C 2.999992370605469 48.29320907592773 4.054649353027344 53.51885986328125 6.134674072265625 58.43659210205078 C 8.144378662109375 63.18807220458984 11.02207183837891 67.45595550537109 14.68783569335938 71.12171173095703 C 18.35358428955078 74.78746032714844 22.62147521972656 77.66516876220703 27.37295532226562 79.67487335205078 C 32.29068756103516 81.75489044189453 37.51634216308594 82.80955505371094 42.90478134155273 82.80955505371094 C 48.29320907592773 82.80955505371094 53.51885986328125 81.75489044189453 58.43659210205078 79.67487335205078 C 63.18806076049805 77.66516876220703 67.45595550537109 74.78746032714844 71.12171173095703 71.12171173095703 C 74.78746032714844 67.45595550537109 77.66516876220703 63.18806076049805 79.67487335205078 58.43659210205078 C 81.75489044189453 53.51885986328125 82.80955505371094 48.29320907592773 82.80955505371094 42.90478134155273 C 82.80955505371094 37.51634216308594 81.75489044189453 32.29068756103516 79.67487335205078 27.37295532226562 C 77.66516876220703 22.62147521972656 74.78746032714844 18.35358428955078 71.12171173095703 14.68783569335938 C 67.45595550537109 11.02207183837891 63.18807220458984 8.144378662109375 58.43659210205078 6.134674072265625 C 53.51885986328125 4.054649353027344 48.29320907592773 2.999992370605469 42.90478134155273 2.999992370605469 M 42.90478134155273 -7.62939453125e-06 C 66.60041809082031 -7.62939453125e-06 85.80955505371094 19.20911407470703 85.80955505371094 42.90478134155273 C 85.80955505371094 66.60041809082031 66.60041809082031 85.80955505371094 42.90478134155273 85.80955505371094 C 19.20911407470703 85.80955505371094 -7.62939453125e-06 66.60041809082031 -7.62939453125e-06 42.90478134155273 C -7.62939453125e-06 19.20911407470703 19.20911407470703 -7.62939453125e-06 42.90478134155273 -7.62939453125e-06 Z" stroke="none"/></g><g transform="matrix(1, 0, 0, 1, -11876.86, -12040.59)" filter="url(#c)"><g transform="translate(9 6)" fill="#fff"><path d="M 42.90478134155273 84.3095703125 C 37.31450653076172 84.3095703125 31.89225578308105 83.21504211425781 26.78863143920898 81.056396484375 C 21.85835647583008 78.97105407714844 17.43020629882812 75.98542022705078 13.62718105316162 72.18238067626953 C 9.824156761169434 68.37935638427734 6.83850622177124 63.95120620727539 4.753181457519531 59.02093124389648 C 2.594531297683716 53.91730499267578 1.500006318092346 48.49505615234375 1.500006318092346 42.90478134155273 C 1.500006318092346 37.31450653076172 2.594531297683716 31.89225578308105 4.753181457519531 26.78863143920898 C 6.83850622177124 21.85835647583008 9.824156761169434 17.43020629882812 13.62718105316162 13.62718105316162 C 17.43020629882812 9.824156761169434 21.85835647583008 6.83850622177124 26.78863143920898 4.753181457519531 C 31.89225578308105 2.594531297683716 37.31450653076172 1.500006318092346 42.90478134155273 1.500006318092346 C 48.49505615234375 1.500006318092346 53.91730499267578 2.594531297683716 59.02093124389648 4.753181457519531 C 63.95120620727539 6.83850622177124 68.37935638427734 9.824156761169434 72.18238067626953 13.62718105316162 C 75.98542022705078 17.43020629882812 78.97105407714844 21.85835647583008 81.056396484375 26.78863143920898 C 83.21504211425781 31.89225578308105 84.3095703125 37.31450653076172 84.3095703125 42.90478134155273 C 84.3095703125 48.49505615234375 83.21504211425781 53.91730499267578 81.056396484375 59.02093124389648 C 78.97105407714844 63.95120620727539 75.98540496826172 68.37935638427734 72.18238067626953 72.18238067626953 C 68.37935638427734 75.98540496826172 63.95120620727539 78.97105407714844 59.02093124389648 81.056396484375 C 53.91730499267578 83.21504211425781 48.49505615234375 84.3095703125 42.90478134155273 84.3095703125 Z" stroke="none"/><path d="M 42.90478134155273 2.999992370605469 C 37.51634216308594 2.999992370605469 32.29068756103516 4.054649353027344 27.37295532226562 6.134674072265625 C 22.62147521972656 8.144378662109375 18.35358428955078 11.02207183837891 14.68783569335938 14.68783569335938 C 11.02207183837891 18.35358428955078 8.144378662109375 22.62147521972656 6.134674072265625 27.37295532226562 C 4.054649353027344 32.29068756103516 2.999992370605469 37.51634216308594 2.999992370605469 42.90478134155273 C 2.999992370605469 48.29320907592773 4.054649353027344 53.51885986328125 6.134674072265625 58.43659210205078 C 8.144378662109375 63.18807220458984 11.02207183837891 67.45595550537109 14.68783569335938 71.12171173095703 C 18.35358428955078 74.78746032714844 22.62147521972656 77.66516876220703 27.37295532226562 79.67487335205078 C 32.29068756103516 81.75489044189453 37.51634216308594 82.80955505371094 42.90478134155273 82.80955505371094 C 48.29320907592773 82.80955505371094 53.51885986328125 81.75489044189453 58.43659210205078 79.67487335205078 C 63.18806076049805 77.66516876220703 67.45595550537109 74.78746032714844 71.12171173095703 71.12171173095703 C 74.78746032714844 67.45595550537109 77.66516876220703 63.18806076049805 79.67487335205078 58.43659210205078 C 81.75489044189453 53.51885986328125 82.80955505371094 48.29320907592773 82.80955505371094 42.90478134155273 C 82.80955505371094 37.51634216308594 81.75489044189453 32.29068756103516 79.67487335205078 27.37295532226562 C 77.66516876220703 22.62147521972656 74.78746032714844 18.35358428955078 71.12171173095703 14.68783569335938 C 67.45595550537109 11.02207183837891 63.18807220458984 8.144378662109375 58.43659210205078 6.134674072265625 C 53.51885986328125 4.054649353027344 48.29320907592773 2.999992370605469 42.90478134155273 2.999992370605469 M 42.90478134155273 -7.62939453125e-06 C 66.60041809082031 -7.62939453125e-06 85.80955505371094 19.20911407470703 85.80955505371094 42.90478134155273 C 85.80955505371094 66.60041809082031 66.60041809082031 85.80955505371094 42.90478134155273 85.80955505371094 C 19.20911407470703 85.80955505371094 -7.62939453125e-06 66.60041809082031 -7.62939453125e-06 42.90478134155273 C -7.62939453125e-06 19.20911407470703 19.20911407470703 -7.62939453125e-06 42.90478134155273 -7.62939453125e-06 Z" stroke="none"/></g></g><g transform="translate(-11867.856 -12034.592)" fill="none"><path d="M 42.90478134155273 84.3095703125 C 37.31450653076172 84.3095703125 31.89225578308105 83.21504211425781 26.78863143920898 81.056396484375 C 21.85835647583008 78.97105407714844 17.43020629882812 75.98542022705078 13.62718105316162 72.18238067626953 C 9.824156761169434 68.37935638427734 6.83850622177124 63.95120620727539 4.753181457519531 59.02093124389648 C 2.594531297683716 53.91730499267578 1.500006318092346 48.49505615234375 1.500006318092346 42.90478134155273 C 1.500006318092346 37.31450653076172 2.594531297683716 31.89225578308105 4.753181457519531 26.78863143920898 C 6.83850622177124 21.85835647583008 9.824156761169434 17.43020629882812 13.62718105316162 13.62718105316162 C 17.43020629882812 9.824156761169434 21.85835647583008 6.83850622177124 26.78863143920898 4.753181457519531 C 31.89225578308105 2.594531297683716 37.31450653076172 1.500006318092346 42.90478134155273 1.500006318092346 C 48.49505615234375 1.500006318092346 53.91730499267578 2.594531297683716 59.02093124389648 4.753181457519531 C 63.95120620727539 6.83850622177124 68.37935638427734 9.824156761169434 72.18238067626953 13.62718105316162 C 75.98542022705078 17.43020629882812 78.97105407714844 21.85835647583008 81.056396484375 26.78863143920898 C 83.21504211425781 31.89225578308105 84.3095703125 37.31450653076172 84.3095703125 42.90478134155273 C 84.3095703125 48.49505615234375 83.21504211425781 53.91730499267578 81.056396484375 59.02093124389648 C 78.97105407714844 63.95120620727539 75.98540496826172 68.37935638427734 72.18238067626953 72.18238067626953 C 68.37935638427734 75.98540496826172 63.95120620727539 78.97105407714844 59.02093124389648 81.056396484375 C 53.91730499267578 83.21504211425781 48.49505615234375 84.3095703125 42.90478134155273 84.3095703125 Z" stroke="none"/><path d="M 42.90478134155273 2.999992370605469 C 37.51634216308594 2.999992370605469 32.29068756103516 4.054649353027344 27.37295532226562 6.134674072265625 C 22.62147521972656 8.144378662109375 18.35358428955078 11.02207183837891 14.68783569335938 14.68783569335938 C 11.02207183837891 18.35358428955078 8.144378662109375 22.62147521972656 6.134674072265625 27.37295532226562 C 4.054649353027344 32.29068756103516 2.999992370605469 37.51634216308594 2.999992370605469 42.90478134155273 C 2.999992370605469 48.29320907592773 4.054649353027344 53.51885986328125 6.134674072265625 58.43659210205078 C 8.144378662109375 63.18807220458984 11.02207183837891 67.45595550537109 14.68783569335938 71.12171173095703 C 18.35358428955078 74.78746032714844 22.62147521972656 77.66516876220703 27.37295532226562 79.67487335205078 C 32.29068756103516 81.75489044189453 37.51634216308594 82.80955505371094 42.90478134155273 82.80955505371094 C 48.29320907592773 82.80955505371094 53.51885986328125 81.75489044189453 58.43659210205078 79.67487335205078 C 63.18806076049805 77.66516876220703 67.45595550537109 74.78746032714844 71.12171173095703 71.12171173095703 C 74.78746032714844 67.45595550537109 77.66516876220703 63.18806076049805 79.67487335205078 58.43659210205078 C 81.75489044189453 53.51885986328125 82.80955505371094 48.29320907592773 82.80955505371094 42.90478134155273 C 82.80955505371094 37.51634216308594 81.75489044189453 32.29068756103516 79.67487335205078 27.37295532226562 C 77.66516876220703 22.62147521972656 74.78746032714844 18.35358428955078 71.12171173095703 14.68783569335938 C 67.45595550537109 11.02207183837891 63.18807220458984 8.144378662109375 58.43659210205078 6.134674072265625 C 53.51885986328125 4.054649353027344 48.29320907592773 2.999992370605469 42.90478134155273 2.999992370605469 M 42.90478134155273 -7.62939453125e-06 C 66.60041809082031 -7.62939453125e-06 85.80955505371094 19.20911407470703 85.80955505371094 42.90478134155273 C 85.80955505371094 66.60041809082031 66.60041809082031 85.80955505371094 42.90478134155273 85.80955505371094 C 19.20911407470703 85.80955505371094 -7.62939453125e-06 66.60041809082031 -7.62939453125e-06 42.90478134155273 C -7.62939453125e-06 19.20911407470703 19.20911407470703 -7.62939453125e-06 42.90478134155273 -7.62939453125e-06 Z" stroke="none" fill="#fff"/></g></g><g transform="translate(-11860.329 -12024.215)"><g clip-path="url(#f)"><g clip-path="url(#f)"><g transform="translate(0 23.289)" style="mix-blend-mode:multiply;isolation:isolate"><g clip-path="url(#h)"><path d="M.636,64.851,47.764,92.1a7.5,7.5,0,0,0,3.466,1.029,11.008,11.008,0,0,0,5.341-1.416c1.309-.6,16.026-9.377,16.724-9.873,1.165-.83,1.592-1.393-.1-3.056C64.531,70.3,32.018,49.925,22.806,49.551,20.556,49.46,1.662,61.6.967,62.274s-1.6,1.845-.33,2.577" transform="translate(0 -49.551)" fill="#bdbdbd"/></g></g><path d="M12.362,63.508h.746l7.676-4.682L46.11,83.15a7.94,7.94,0,0,1,.793-.161c.039.021,4.6-2.721,4.6-2.721L44.03,67.142,12.362,54.64Z" transform="translate(-6.552 -28.959)" fill="#555767"/><path d="M92.882,110.652a8.8,8.8,0,0,0,3.993,6.888,3.264,3.264,0,0,0,4.923-2.82c0-2.531-2.717-5.072-4.923-6.345s-3.993-.254-3.993,2.277" transform="translate(-49.227 -57.148)" fill="#3a3a42"/><path d="M95.162,119.735l2.79-1.611-2.179-6.917-3.52-2.794-2.716,1.568Z" transform="translate(-47.454 -57.458)" fill="#3a3a42"/><path d="M87.023,114.035a8.8,8.8,0,0,0,3.993,6.888c2.206,1.274,3.994.254,3.994-2.277a8.8,8.8,0,0,0-3.994-6.888c-2.205-1.273-3.993-.254-3.993,2.277" transform="translate(-46.122 -58.941)" fill="#50505e"/><path d="M87.245,115.062a8.017,8.017,0,0,0,3.638,6.276c2.01,1.16,3.639.232,3.639-2.074a8.018,8.018,0,0,0-3.639-6.276c-2.009-1.16-3.638-.231-3.638,2.075" transform="translate(-46.239 -59.618)" fill="#42424d"/><path d="M95.01,118.646c0,2.531-1.788,3.55-3.994,2.277a8.8,8.8,0,0,1-3.993-6.888c0-2.531,1.788-3.55,3.993-2.277a8.8,8.8,0,0,1,3.994,6.888" transform="translate(-46.122 -58.94)" fill="#50505e"/><path d="M94.7,119.161c0,2.306-1.629,3.235-3.638,2.075a8.018,8.018,0,0,1-3.639-6.276c0-2.306,1.629-3.235,3.639-2.074a8.017,8.017,0,0,1,3.638,6.276" transform="translate(-46.333 -59.564)" fill="#42424d"/><path d="M94.477,120.277c0,.1-.005.2-.014.289a1.893,1.893,0,0,1-.436,1.126,1.647,1.647,0,0,1-2.146.063,5.717,5.717,0,0,1-2.593-4.474c0-1.014.443-1.654,1.118-1.8a1.681,1.681,0,0,1,.759.023,2.284,2.284,0,0,1,.351.118,2.832,2.832,0,0,1,.366.18,3.559,3.559,0,0,1,.349.229,4.768,4.768,0,0,1,.57.493,5.924,5.924,0,0,1,.64.776c.047.067.09.133.133.2a6.2,6.2,0,0,1,.526,1.014,5.169,5.169,0,0,1,.182.519,4.487,4.487,0,0,1,.164.776,3.666,3.666,0,0,1,.03.466" transform="translate(-47.323 -61.186)" fill="#9b99ab"/><path d="M92.037,115.132c-1.532-.884-2.773-.176-2.773,1.581a6.11,6.11,0,0,0,2.773,4.783c1.532.885,2.773.177,2.773-1.581a6.11,6.11,0,0,0-2.773-4.783m0,6.159a5.716,5.716,0,0,1-2.594-4.475c0-1.152.571-1.822,1.405-1.835a2.418,2.418,0,0,1,1.141.45,5.357,5.357,0,0,1,2.152,2.69,4.894,4.894,0,0,1,.491,1.691c0,1.644-1.161,2.306-2.594,1.479" transform="translate(-47.309 -60.817)" fill="#9b99ab"/><path d="M95.231,120.277c0,.1-.005.2-.014.289a1.892,1.892,0,0,1-.436,1.126,2.1,2.1,0,0,1-1.477-.322,5.717,5.717,0,0,1-2.593-4.475,2.066,2.066,0,0,1,.449-1.415,1.681,1.681,0,0,1,.759.023,2.284,2.284,0,0,1,.351.118,2.831,2.831,0,0,1,.366.18,3.559,3.559,0,0,1,.349.229,4.768,4.768,0,0,1,.57.493,5.924,5.924,0,0,1,.64.776c.047.067.09.133.133.2a6.2,6.2,0,0,1,.526,1.014,5.171,5.171,0,0,1,.182.519,4.487,4.487,0,0,1,.164.776,3.668,3.668,0,0,1,.03.466" transform="translate(-48.076 -61.186)" fill="#484660"/><path d="M91.681,115.337c-1.532-.884-2.773-.176-2.773,1.581a6.11,6.11,0,0,0,2.773,4.783c1.532.884,2.773.176,2.773-1.581a6.11,6.11,0,0,0-2.773-4.783m0,6.159a5.716,5.716,0,0,1-2.594-4.475c0-1.644,1.161-2.306,2.594-1.479a5.716,5.716,0,0,1,2.594,4.475c0,1.644-1.161,2.306-2.594,1.479" transform="translate(-47.121 -60.926)" fill="#cac9e8"/><path d="M95.885,120.75c0,.758-.536,1.064-1.2.682a2.636,2.636,0,0,1-1.2-2.064c0-.758.536-1.064,1.2-.682a2.636,2.636,0,0,1,1.2,2.064" transform="translate(-49.55 -62.816)" fill="#131313"/><path d="M95.745,121.03c0,.649-.458.909-1.023.583a2.254,2.254,0,0,1-1.023-1.764c0-.649.458-.909,1.023-.583a2.255,2.255,0,0,1,1.023,1.764" transform="translate(-49.66 -63.136)" fill="#9b99ab"/><path d="M95.4,121.319c0,.587-.415.823-.926.528a2.041,2.041,0,0,1-.926-1.6c0-.587.415-.823.926-.528a2.041,2.041,0,0,1,.926,1.6" transform="translate(-49.58 -63.384)" fill="#cac9e8"/><path d="M96.12,117.183a.22.22,0,0,1-.251-.012.733.733,0,0,1-.319-.481,4.767,4.767,0,0,1,.57.493" transform="translate(-50.641 -61.845)" fill="#131313"/><path d="M98.257,119.591a.544.544,0,0,1-.06-.073.914.914,0,0,1-.074-.129c.047.067.091.133.134.2" transform="translate(-52.005 -63.276)" fill="#131313"/><path d="M99.7,122.5a.775.775,0,0,1-.174-.322.439.439,0,0,1-.008-.2,5.226,5.226,0,0,1,.182.518" transform="translate(-52.741 -64.649)" fill="#131313"/><path d="M99.9,125.13c0,.1-.005.2-.014.289a.483.483,0,0,1-.143-.1.648.648,0,0,1-.211-.593c.048-.14.189-.162.337-.063a3.667,3.667,0,0,1,.03.466" transform="translate(-52.741 -66.039)" fill="#131313"/><path d="M98.055,126.612c-.106-.229-.074-.445.072-.482s.351.118.456.346.074.445-.072.482-.35-.118-.456-.346" transform="translate(-51.935 -66.846)" fill="#131313"/><path d="M95.534,125.851c0-.207.146-.29.327-.186a.72.72,0,0,1,.327.564c0,.207-.146.29-.327.186a.72.72,0,0,1-.327-.564" transform="translate(-50.632 -66.578)" fill="#131313"/><path d="M93.138,123.33c.106-.106.31-.025.456.181s.179.459.072.565-.31.025-.456-.18-.179-.459-.072-.565" transform="translate(-49.329 -65.34)" fill="#131313"/><path d="M91.783,120.011a.657.657,0,0,1,.412.478c.055.229-.039.386-.21.351a.657.657,0,0,1-.412-.478c-.055-.229.039-.386.21-.351" transform="translate(-48.525 -63.603)" fill="#131313"/><path d="M91.986,117.163a.65.65,0,0,1,.21.594c-.056.164-.24.166-.412,0a.649.649,0,0,1-.21-.593c.056-.165.24-.166.412,0" transform="translate(-48.526 -62.031)" fill="#131313"/><path d="M93.6,116.379c-.145.037-.349-.118-.456-.346-.095-.205-.078-.4.034-.466a2.288,2.288,0,0,1,.351.119.812.812,0,0,1,.145.212c.105.229.074.445-.073.481" transform="translate(-49.331 -61.25)" fill="#131313"/><path d="M20.435,68.815A8.8,8.8,0,0,0,24.428,75.7c2.206,1.274,3.994.254,3.994-2.277a8.8,8.8,0,0,0-3.994-6.888c-2.205-1.274-3.993-.254-3.993,2.277" transform="translate(-10.83 -34.974)" fill="#272727"/><path d="M22.715,77.9l2.79-1.611L23.327,69.37l-3.52-2.794-2.716,1.568Z" transform="translate(-9.058 -35.285)" fill="#3a3a42"/><path d="M14.576,72.2a8.8,8.8,0,0,0,3.994,6.888c2.205,1.274,3.993.254,3.993-2.277a8.8,8.8,0,0,0-3.993-6.888c-2.206-1.273-3.994-.254-3.994,2.277" transform="translate(-7.725 -36.767)" fill="#50505e"/><path d="M14.8,73.224A8.018,8.018,0,0,0,18.437,79.5c2.01,1.16,3.639.231,3.639-2.075a8.018,8.018,0,0,0-3.639-6.276c-2.009-1.16-3.638-.231-3.638,2.075" transform="translate(-7.843 -37.444)" fill="#42424d"/><path d="M14.576,72.2a8.8,8.8,0,0,0,3.994,6.888c2.205,1.273,3.993.254,3.993-2.277a8.8,8.8,0,0,0-3.993-6.888c-2.206-1.273-3.994-.254-3.994,2.277" transform="translate(-7.725 -36.767)" fill="#50505e"/><path d="M14.8,73.224A8.017,8.017,0,0,0,18.437,79.5c2.01,1.16,3.638.232,3.638-2.074a8.017,8.017,0,0,0-3.638-6.276c-2.009-1.16-3.638-.231-3.638,2.075" transform="translate(-7.843 -37.444)" fill="#42424d"/><path d="M19.879,74.469c-1.3-.752-2.36-.15-2.36,1.346a4.613,4.613,0,0,0,2.36,4.071c1.326.711,2.36.15,2.36-1.346a5.2,5.2,0,0,0-2.36-4.071m0,5.242A4.866,4.866,0,0,1,17.671,75.9c0-1.4.989-1.963,2.208-1.259a5.642,5.642,0,0,1,2.208,3.808c0,1.4-.989,1.963-2.208,1.259" transform="translate(-9.285 -39.296)" fill="#9b99ab"/><path d="M22.259,78.673v.006a2.435,2.435,0,0,1-.039.445,1.289,1.289,0,0,1-2.169.807,4.862,4.862,0,0,1-2.208-3.808,1.432,1.432,0,0,1,.839-1.5,1.7,1.7,0,0,1,1.368.245c.056.032.111.066.166.1a3.551,3.551,0,0,1,.451.354,4.674,4.674,0,0,1,.594.655,5.5,5.5,0,0,1,.325.488,5.293,5.293,0,0,1,.392.813,4.89,4.89,0,0,1,.176.563,3.6,3.6,0,0,1,.1.832" transform="translate(-9.457 -39.517)" fill="#9b99ab"/><path d="M22.682,78.673v.006a2.435,2.435,0,0,1-.039.445,1.431,1.431,0,0,1-.429.837,1.7,1.7,0,0,1-1.364-.246,4.866,4.866,0,0,1-2.208-3.809,1.675,1.675,0,0,1,.464-1.287,1.7,1.7,0,0,1,1.368.245c.056.032.111.066.166.1a3.467,3.467,0,0,1,.413.374,4.584,4.584,0,0,1,.575.654,5.521,5.521,0,0,1,.336.485,5.255,5.255,0,0,1,.36.823,4.657,4.657,0,0,1,.2.541,3.719,3.719,0,0,1,.157.828" transform="translate(-9.88 -39.517)" fill="#484660"/><path d="M23.33,75.79c-.006.135-.1.18-.226.109a.511.511,0,0,1-.232-.4.252.252,0,0,1,.01-.072,3.606,3.606,0,0,1,.447.363" transform="translate(-12.123 -39.976)" fill="#131313"/><path d="M20.689,75.124c.075.162.219.271.323.245s.126-.179.051-.341-.219-.271-.322-.245-.126.179-.051.341" transform="translate(-10.942 -39.633)" fill="#131313"/><path d="M19.289,76.587c.121.115.251.114.291,0a.46.46,0,0,0-.148-.42c-.121-.115-.252-.114-.291,0a.461.461,0,0,0,.149.42" transform="translate(-10.138 -40.322)" fill="#131313"/><path d="M19.571,79.439c.121.025.188-.086.148-.248a.464.464,0,0,0-.291-.338c-.121-.025-.188.086-.148.249a.464.464,0,0,0,.291.338" transform="translate(-10.212 -41.789)" fill="#131313"/><path d="M21.065,82.38c.075-.075.052-.254-.051-.4s-.248-.2-.323-.127-.052.254.051.4.248.2.323.127" transform="translate(-10.943 -43.364)" fill="#131313"/><path d="M23.337,84.366a.509.509,0,0,0-.231-.4c-.127-.073-.231-.015-.231.132a.508.508,0,0,0,.231.4c.127.074.231.015.231-.132" transform="translate(-12.124 -44.486)" fill="#131313"/><path d="M25.522,84.639c-.075-.162-.219-.271-.323-.245s-.126.179-.051.341.219.272.322.245.126-.179.051-.341" transform="translate(-13.305 -44.727)" fill="#131313"/><path d="M26.836,83.157a2.433,2.433,0,0,1-.039.444.278.278,0,0,1-.157-.084.461.461,0,0,1-.149-.419c.04-.118.17-.118.291,0a.422.422,0,0,1,.054.062" transform="translate(-14.034 -43.994)" fill="#131313"/><path d="M26.7,80.917a.481.481,0,0,1-.221-.321c-.03-.119-.025-.2.041-.23a4.592,4.592,0,0,1,.18.551" transform="translate(-14.027 -42.594)" fill="#131313"/><path d="M19.955,77.319a3.229,3.229,0,0,0,1.465,2.528c.809.467,1.466.094,1.466-.835a3.229,3.229,0,0,0-1.466-2.528c-.809-.468-1.465-.093-1.465.835" transform="translate(-10.576 -40.429)" fill="#131313"/><path d="M19.613,74.623c-1.3-.752-2.36-.15-2.36,1.346a5.2,5.2,0,0,0,2.36,4.071c1.3.752,2.36.15,2.36-1.346a5.2,5.2,0,0,0-2.36-4.071m0,5.242A4.866,4.866,0,0,1,17.4,76.056c0-1.4.989-1.963,2.208-1.259a4.865,4.865,0,0,1,2.208,3.808c0,1.4-.989,1.963-2.208,1.259" transform="translate(-9.144 -39.378)" fill="#cac9e8"/><path d="M19.422,77.627a3.229,3.229,0,0,0,1.465,2.528c.809.468,1.466.094,1.466-.835a3.23,3.23,0,0,0-1.466-2.528c-.809-.467-1.465-.093-1.465.836" transform="translate(-10.294 -40.592)" fill="#484660"/><path d="M21.589,77.443a.282.282,0,0,0,.18.2c.074.014.114-.056.088-.157a.281.281,0,0,0-.18-.2c-.074-.014-.114.056-.088.157" transform="translate(-11.438 -40.96)" fill="#9b99ab"/><path d="M20.493,77.886c.064.089.153.122.2.074s.029-.158-.035-.247-.153-.122-.2-.074-.029.158.035.247" transform="translate(-10.829 -41.137)" fill="#9b99ab"/><path d="M20.077,79.29c.078.044.141.005.14-.086a.313.313,0,0,0-.145-.243c-.078-.044-.141-.005-.14.086a.313.313,0,0,0,.145.243" transform="translate(-10.564 -41.839)" fill="#9b99ab"/><path d="M20.711,81.154c.063-.018.075-.113.028-.212s-.136-.165-.2-.147-.075.113-.028.212.136.165.2.147" transform="translate(-10.856 -42.819)" fill="#9b99ab"/><path d="M21.944,82.729a.287.287,0,0,0-.094-.258c-.075-.07-.155-.067-.177.006a.285.285,0,0,0,.094.258c.075.07.154.067.177-.006" transform="translate(-11.483 -43.683)" fill="#9b99ab"/><path d="M23.382,83.428a.281.281,0,0,0-.181-.2c-.074-.014-.113.056-.087.157a.28.28,0,0,0,.18.2c.074.014.114-.056.088-.157" transform="translate(-12.246 -44.107)" fill="#9b99ab"/><path d="M24.479,82.983c-.064-.089-.153-.122-.2-.074s-.029.159.035.247.153.122.2.074.029-.158-.035-.247" transform="translate(-12.855 -43.93)" fill="#9b99ab"/><path d="M24.814,81.566c-.078-.044-.141-.005-.139.086a.312.312,0,0,0,.145.243c.078.044.141.005.139-.086a.313.313,0,0,0-.145-.243" transform="translate(-13.078 -43.22)" fill="#9b99ab"/><path d="M24.26,79.716c-.063.018-.075.113-.028.212s.136.165.2.147.075-.113.027-.212-.136-.165-.2-.147" transform="translate(-12.828 -42.247)" fill="#9b99ab"/><path d="M23.027,78.141a.288.288,0,0,0,.094.258c.075.07.155.067.178-.006a.287.287,0,0,0-.095-.258c-.075-.07-.154-.067-.177.006" transform="translate(-12.201 -41.384)" fill="#9b99ab"/><path d="M21.477,77.5a.282.282,0,0,0,.18.205c.074.013.114-.057.088-.157a.281.281,0,0,0-.18-.2c-.074-.014-.114.057-.088.157" transform="translate(-11.379 -40.992)" fill="#bcbbd3"/><path d="M20.38,77.945c.064.089.153.122.2.074s.029-.158-.035-.247-.153-.122-.2-.074-.029.158.035.247" transform="translate(-10.769 -41.168)" fill="#bcbbd3"/><path d="M19.964,79.349c.078.044.141.005.14-.086a.313.313,0,0,0-.145-.243c-.078-.044-.141-.005-.14.086a.313.313,0,0,0,.145.243" transform="translate(-10.504 -41.87)" fill="#bcbbd3"/><path d="M20.6,81.213c.063-.018.075-.113.028-.212s-.136-.164-.2-.147-.075.113-.028.212.136.165.2.147" transform="translate(-10.796 -42.85)" fill="#bcbbd3"/><path d="M21.831,82.788a.288.288,0,0,0-.094-.258c-.075-.07-.155-.067-.177.006a.285.285,0,0,0,.094.258c.075.07.154.067.177-.006" transform="translate(-11.423 -43.714)" fill="#bcbbd3"/><path d="M23.269,83.487a.281.281,0,0,0-.181-.2c-.074-.014-.113.056-.087.157a.28.28,0,0,0,.18.2c.074.014.114-.056.088-.157" transform="translate(-12.186 -44.138)" fill="#bcbbd3"/><path d="M24.366,83.042c-.064-.089-.153-.122-.2-.074s-.029.158.035.247.153.122.2.074.029-.158-.035-.247" transform="translate(-12.796 -43.961)" fill="#bcbbd3"/><path d="M24.7,81.624c-.078-.044-.141-.005-.139.086a.312.312,0,0,0,.145.243c.078.044.141.005.139-.086a.312.312,0,0,0-.145-.243" transform="translate(-13.018 -43.251)" fill="#bcbbd3"/><path d="M24.147,79.775c-.063.018-.075.113-.028.212s.137.165.2.147.075-.113.027-.212-.136-.165-.2-.147" transform="translate(-12.768 -42.278)" fill="#bcbbd3"/><path d="M22.914,78.2a.288.288,0,0,0,.094.258c.075.07.155.067.177-.006a.285.285,0,0,0-.094-.258c-.075-.07-.154-.067-.177.006" transform="translate(-12.141 -41.415)" fill="#bcbbd3"/><path d="M21.006,79.135a1.588,1.588,0,0,0,.721,1.244c.4.23.721.046.721-.411a1.59,1.59,0,0,0-.721-1.244c-.4-.23-.721-.046-.721.411" transform="translate(-11.133 -41.67)" fill="#9b99ab"/><path d="M20.739,79.288a1.588,1.588,0,0,0,.721,1.244c.4.23.721.046.721-.411a1.59,1.59,0,0,0-.721-1.244c-.4-.23-.721-.046-.721.411" transform="translate(-10.992 -41.752)" fill="#bcbbd3"/><path d="M21.385,79.9a.921.921,0,0,0,.418.721c.231.133.417.026.417-.238a.921.921,0,0,0-.417-.721c-.231-.133-.418-.026-.418.238" transform="translate(-11.334 -42.192)" fill="#9b99ab"/><path d="M21.119,80.058a.92.92,0,0,0,.418.721c.231.133.417.026.417-.238a.92.92,0,0,0-.417-.721c-.231-.133-.418-.026-.418.238" transform="translate(-11.193 -42.274)" fill="#cac9e8"/><path d="M110.078,114.843a6.519,6.519,0,0,1-2.162-.293l-2.49-1.084-.174-1.787,23.456-9.629,1.249.066a6.649,6.649,0,0,1-.288,1.658.82.82,0,0,1-.208.36c-2.17,2.424-13.08,9.032-17.394,10.191a9.7,9.7,0,0,1-1.988.52" transform="translate(-55.782 -54.085)" fill="#a4a2b6"/></g><g transform="translate(49.469 46.316)"><g clip-path="url(#i)"><rect width="24.705" height="13.031" transform="translate(0)" fill="url(#j)"/></g></g><g clip-path="url(#f)"><path d="M129.606,98.063c-1.456,1.318-10.886,8.3-17.792,10.283-1.128.323-2.8.853-3.831.36-.061-.029-2.672-1.12-2.732-1.154l.64-.417L128.077,95.57l1.031.6.486.332a1.053,1.053,0,0,1,.011,1.563" transform="translate(-55.782 -50.652)" fill="#cbcadd"/><path d="M111.069,108.679a2.6,2.6,0,0,1-1.149-.244c-.055-.026-1.354-.072-1.408-.1l.532-.392,20.944-12.014,1.153.881a.825.825,0,0,1-.049,1.036c-1.25,1.131-11.057,8.468-18.086,10.481a7.255,7.255,0,0,1-1.938.357" transform="translate(-57.511 -50.839)" fill="#d7d7e8"/><path d="M129.156,97.686c-1.453,1.321-11.113,8.487-18.021,10.466a8.633,8.633,0,0,1-1.736.354c-.061-.029-1.679-.263-1.74-.3l-.757-1.192,19.752-11.323,2.725.981a.792.792,0,0,1-.222,1.012" transform="translate(-56.657 -50.717)" fill="#b2b0c6"/><path d="M46.11,21.352l.6,5.627.478,2.753,4.4,2.958c.142.087.271.061.317-.067l.921-2.541c.424-1.174,1.589-1.455,2.9-.7l2.044,1.18a7.268,7.268,0,0,1,3.152,4.661l.49,3.24a.723.723,0,0,0,.317.485l22.94,13.217c.654.377,1.236.236,1.449-.35l.157-1.729c.425-1.174,1.589-1.455,2.9-.7l3.1,1.787a4.266,4.266,0,0,1,1.851,2.739l-.752,1.466,3.637,1.344.128-4.631-.989-1.26L85.982,44.919Z" transform="translate(-24.438 -11.316)" fill="#ab363b"/><path d="M47.644,6.377l.6,8.061.478,2.406,4.4,2.958c.142.087.27.061.317-.067l.921-2.541c.424-1.174,1.589-1.455,2.9-.7L58.7,18.024c1.5.863,3.394,2.439,3.749,4.312l.491,3.24a.722.722,0,0,0,.317.485l22.94,15.231c.654.377.638.586.851,0l.755-2.078c.424-1.174,1.589-1.455,2.9-.7l3.1,1.787c.879.507.713,2.181.922,3.282l.176.923,3.044,1.687V40.776l-.165-.358a7.606,7.606,0,0,0-1.279-1.928l-4.462-4.71-1.982-1.834L82.317,20.31a4.309,4.309,0,0,0-.769-.94c-.422-.36-5.743-3.659-5.743-3.659L48.593,0l-.911.329Z" transform="translate(-25.251)" fill="#d8dde9"/><path d="M47.644,18.008l.6,5.627.478,2.753,4.4,2.958c.142.087.27.061.317-.067l.921-2.541c.424-1.174,1.589-1.455,2.9-.7L58.7,27.568c1.5.863,3.394,2.439,3.749,4.312l.491,3.24a.723.723,0,0,0,.317.485l22.94,15.231c.654.377.638.586.851,0l.755-2.078c.424-1.174,1.589-1.455,2.9-.7l3.1,1.787c.879.507.713,2.181.922,3.282l.176.923,3.044,1.687V51.178l-.754-1.145-9.315-6.521Z" transform="translate(-25.251 -9.544)" fill="#ab363b"/><path d="M117.808,59.314l-9.17-5.294-.6-11.755L106.8,34.576l5.361,3.246a4.834,4.834,0,0,1,1.576,1.663l5.113,7.94a3.43,3.43,0,0,1,.509,1.676l-.007,5.291Zm-8.892-5.464,8.726,5.038,1.434-4.561V49.1a3.136,3.136,0,0,0-.468-1.527L113.5,39.636a4.558,4.558,0,0,0-1.481-1.569l-4.833-2.926,1.137,7.094Z" transform="translate(-56.605 -18.325)" fill="#68635d"/><path d="M114.484,41.986l4.373,4.482a14.077,14.077,0,0,1,.592,3.892v.748c0,.307-.217.431-.484.276l-7.813-6.525a1.067,1.067,0,0,1-.484-.835l-1.186-4.947c0-.307.217-.431.484-.276l3.223,1.861a3.891,3.891,0,0,1,1.3,1.324" transform="translate(-58.024 -20.53)" fill="#68635d"/><path d="M62.174,40.2a8.542,8.542,0,0,0,3.876,6.686c2.14,1.236,3.876.246,3.876-2.21a8.541,8.541,0,0,0-3.876-6.686c-2.141-1.236-3.876-.246-3.876,2.209" transform="translate(-32.952 -19.85)" fill="#68635d"/><path d="M133.221,86.977a8.54,8.54,0,0,0,3.876,6.685c2.14,1.236,2.947.79,2.947-1.667S139.238,86,137.1,84.767s-3.876-.246-3.876,2.21" transform="translate(-70.606 -44.644)" fill="#68635d"/><path d="M46.853,28.355,47.966,29l.334,2.849-.745-.431-.7-1.656Z" transform="translate(-24.832 -15.028)" fill="#68635d"/><path d="M93.337,34.752a.812.812,0,0,1-.4-.119l-8.558-4.941a2.173,2.173,0,0,1-.912-1.707l-1.186-3.839a.883.883,0,0,1,.363-.8.674.674,0,0,1,.692.043l8.558,4.941a2.173,2.173,0,0,1,.912,1.708l1.186,3.839a.882.882,0,0,1-.363.8.572.572,0,0,1-.288.076m-8.819-5.308,8.558,4.941a.412.412,0,0,0,.406.043.6.6,0,0,0,.219-.533l-1.186-3.839a1.885,1.885,0,0,0-.769-1.481l-8.558-4.942a.411.411,0,0,0-.406-.043.6.6,0,0,0-.22.533l1.186,3.839a1.887,1.887,0,0,0,.769,1.481" transform="translate(-43.606 -12.331)" fill="#68635d"/><path d="M66.909,19.495a.814.814,0,0,1-.4-.119l-5.8-3.348A2.172,2.172,0,0,1,59.8,14.32L58.609,10.48a.882.882,0,0,1,.363-.8.675.675,0,0,1,.692.043l5.8,3.348a2.172,2.172,0,0,1,.912,1.707l1.186,3.84a.881.881,0,0,1-.363.8.566.566,0,0,1-.288.077M58.9,10.459,60.082,14.3a1.888,1.888,0,0,0,.768,1.482l5.8,3.347a.412.412,0,0,0,.406.043.6.6,0,0,0,.219-.533L66.088,14.8a1.886,1.886,0,0,0-.768-1.481l-5.8-3.348a.413.413,0,0,0-.406-.043.6.6,0,0,0-.22.533" transform="translate(-31.062 -5.089)" fill="#68635d"/><path d="M94.413,45.854,81.195,36.161l-1.82-17.4,13.217,7.631ZM81.466,36l12.6,9.242L92.321,26.562l-12.6-7.277Z" transform="translate(-42.068 -9.941)" fill="#68635d"/><path d="M76.981,46.563l-19.1,11.119-5.892-7.957L8.109,11.447,26.729.7l3.915,2.7L60.869,20.013,69.2,33.366l7.78,7.78Z" transform="translate(-4.298 -0.371)" fill="#d8dde9"/><path d="M27.64,0C26.168.125,8.585,10.288,8.109,11.075l18.94,10.943c2.016,1.128,21.414-9.171,19.531-11.076C45.853,10.208,27.64,0,27.64,0" transform="translate(-4.298)" fill="#d8dde9"/><path d="M55.754,63.674l-.6,5.758-4-1.234-.177-.925a4.288,4.288,0,0,0-1.851-2.739l-3.1-1.786c-1.307-.753-2.9-.744-3.325.428l-.985,1.933c-.214.586-.136,1.145-.787.769L17.99,52.66a.721.721,0,0,1-.316-.484l-.488-3.242a7.26,7.26,0,0,0-3.153-4.66l-2.042-1.181c-1.311-.753-2.916-1.428-3.339-.256l-1.12,1.888c-.042.125.065,1.493-.075,1.409l-4-2.693-.479-2.4V33.786L5.387,23.193l.911-.326L33.51,38.577s5.325,3.3,5.744,3.66a4.254,4.254,0,0,1,.772.94l5.358,13,1.982,1.837,6.325,4.5Z" transform="translate(-1.578 -12.119)" fill="#bdc2ca"/><g transform="translate(4.182 15.711)" style="mix-blend-mode:multiply;isolation:isolate"><g clip-path="url(#l)"><path d="M9.055,33.681l-.151.961c-.058.368.287.775.546.646l.958-.477c.259-.129.174-.666-.134-.852l-.807-.483a.258.258,0,0,0-.411.2" transform="translate(-8.897 -33.427)" fill="#ff8e8c"/></g></g><g transform="translate(5.56 19.225)" style="mix-blend-mode:multiply;isolation:isolate"><g clip-path="url(#l)"><path d="M13.336,42.535l.15-.961c.058-.368-.287-.776-.546-.646l-.958.478c-.259.129-.174.666.134.851l.807.483a.258.258,0,0,0,.412-.2" transform="translate(-11.829 -40.904)" fill="#ff8e8c"/></g></g><path d="M9.055,33.681l-.151.961c-.058.368.287.775.546.646l.958-.477c.259-.129.174-.666-.134-.852l-.807-.483a.258.258,0,0,0-.411.2" transform="translate(-4.716 -17.716)" fill="#50505e"/><path d="M13.336,42.535l.15-.961c.058-.368-.287-.776-.546-.646l-.958.478c-.259.129-.174.666.134.851l.807.483a.258.258,0,0,0,.412-.2" transform="translate(-6.269 -21.679)" fill="#50505e"/><path d="M8.511,39.554l.807.484c.309.185.533-.167.356-.558l-.657-1.444c-.178-.391-.58-.43-.637-.063l-.151.961a.658.658,0,0,0,.282.62" transform="translate(-4.358 -19.991)" fill="#5263ff"/><path d="M14.048,36.118l-.807-.484c-.309-.185-.533.167-.356.558l.656,1.444c.178.391.58.43.638.063l.151-.961a.658.658,0,0,0-.282-.62" transform="translate(-6.796 -18.859)" fill="#5263ff"/><path d="M18.144,39.014l.506.3a1.3,1.3,0,0,1,.555,1.222.508.508,0,0,1-.81.4l-.506-.3Zm.167,1.418.151.091a.241.241,0,0,0,.384-.192.614.614,0,0,0-.263-.577l-.151-.091Z" transform="translate(-9.481 -20.677)" fill="#50505e"/><path d="M21.2,40.843l.848.508-.055.353-.49-.293-.041.265.433.259-.056.36-.433-.259-.047.3.49.293-.055.35-.848-.508Z" transform="translate(-11.1 -21.647)" fill="#50505e"/><path d="M23.549,42.25l.359.215-.188,1.2.492.294-.068.429-.85-.509Z" transform="translate(-12.345 -22.393)" fill="#50505e"/><path d="M25.9,43.659l.358.214L26,45.5l-.359-.214Z" transform="translate(-13.591 -23.139)" fill="#50505e"/><path d="M28.715,45.168l-.891,1.247-.164-.1-.381-2.009.36.215.213,1.14.505-.709Z" transform="translate(-14.458 -23.483)" fill="#50505e"/><path d="M30.379,46.342l.848.508-.055.353-.49-.293-.041.264.433.259-.056.36-.433-.259-.047.3.489.293-.055.349-.848-.507Z" transform="translate(-15.965 -24.561)" fill="#50505e"/><path d="M33.265,49.849l-.143-.557-.222-.133-.068.431-.359-.215.256-1.625.575.344a.954.954,0,0,1,.408.9.421.421,0,0,1-.23.341l.2.762Zm-.307-1.059.222.133a.145.145,0,0,0,.233-.114.37.37,0,0,0-.16-.352l-.222-.133Z" transform="translate(-17.211 -25.307)" fill="#50505e"/><path d="M36.238,50.8l-.094.6-.355-.212.094-.6-.337-1.326.413.247.177.7.349-.384.413.247Z" transform="translate(-18.839 -26.109)" fill="#50505e"/><path d="M17.71,44.617a.142.142,0,0,0-.06-.133.055.055,0,0,0-.086.045.138.138,0,0,0,.059.13.576.576,0,0,1,.244.542.222.222,0,0,1-.357.176.565.565,0,0,1-.244-.541l.228.136a.138.138,0,0,0,.059.132.055.055,0,0,0,.088-.042.141.141,0,0,0-.061-.133.565.565,0,0,1-.243-.535.222.222,0,0,1,.355-.179.567.567,0,0,1,.245.536Z" transform="translate(-9.148 -23.412)" fill="#50505e"/><path d="M19,44.879l.606.363-.04.252-.35-.21-.03.189.31.186-.04.257-.31-.185-.034.213.35.21-.039.25-.606-.363Z" transform="translate(-9.973 -23.786)" fill="#50505e"/><path d="M21.061,47.384l-.1-.4-.159-.1-.048.308-.256-.153.182-1.161.411.246a.683.683,0,0,1,.292.642.3.3,0,0,1-.165.243l.141.545Zm-.22-.757.159.095a.1.1,0,0,0,.166-.081.265.265,0,0,0-.114-.251l-.159-.095Z" transform="translate(-10.862 -24.318)" fill="#50505e"/><path d="M23.743,47.593l-.637.891-.117-.071-.273-1.435.258.155.153.814.361-.506Z" transform="translate(-12.04 -24.898)" fill="#50505e"/><path d="M24.928,48.43l.256.153L25,49.744l-.256-.153Z" transform="translate(-13.115 -25.668)" fill="#50505e"/><path d="M26.524,50a.387.387,0,0,0-.152-.174c-.133-.079-.247-.023-.272.135a.417.417,0,0,0,.186.409.177.177,0,0,0,.176.021l.149.323a.383.383,0,0,1-.373-.036.925.925,0,0,1-.4-.872.363.363,0,0,1,.579-.289.834.834,0,0,1,.317.375Z" transform="translate(-13.691 -26.208)" fill="#50505e"/><path d="M28.027,50.287l.606.363-.04.252-.35-.21-.03.189.31.186-.04.257-.31-.186-.034.214.35.21-.039.25-.606-.363Z" transform="translate(-14.758 -26.652)" fill="#50505e"/><path d="M58.47,63.674a2.394,2.394,0,0,1-2.376-.4c-2.457-1.574-8.036-5.178-8.226-5.44a18.38,18.38,0,0,1-.94-2.476L41.775,42.684,9.067,23.383l-.963-.19.911-.326,27.211,15.71s5.325,3.3,5.744,3.66a4.254,4.254,0,0,1,.772.94l5.358,13,1.982,1.837,6.325,4.5Z" transform="translate(-4.295 -12.119)" fill="#c9cfd7"/><path d="M55.143,76.8l-.381.307-.126,4.632-.139.27-2.242-.181L50.167,80.78l-.177-.925a4.265,4.265,0,0,0-1.851-2.739l-3.1-1.786c-1.088-.628-2.079-.54-2.618.191a1.867,1.867,0,0,0-.274.511L41.1,78.018c-.214.586-.5.819-1.153.442L17,65.242a.73.73,0,0,1-.316-.488L16.314,62.3V62.28l-.116-.763a7.26,7.26,0,0,0-3.153-4.66L11,55.676c-1.2-.693-2.274-.517-2.772.414a.036.036,0,0,0,0,.014,1.578,1.578,0,0,0-.125.27L7.18,58.913c-.046.13-.172.158-.316.07l-4.4-2.958L1.99,53.271l.158-5.911.307-1.26L42.833,69.549,53,76.4Z" transform="translate(-1.055 -24.433)" fill="#acb2b9"/><path d="M4.248,49.957v1.534L43.341,74.073l9.112,5.149v-.844l-8.234-5.586Z" transform="translate(-2.252 -26.477)" fill="#5263ff"/><path d="M95.756,112.812l-.177-.925a4.263,4.263,0,0,0-1.851-2.739l-3.1-1.786c-1.089-.628-2.079-.54-2.618.191h0s.516-1.033,1.345-1.014a3.824,3.824,0,0,1,2.2.739,24.17,24.17,0,0,1,3.292,2.009c.423.46,1.646,2.535.912,3.525" transform="translate(-46.643 -56.465)" fill="#c9cfd7"/><path d="M23.351,72l-.116-.763a7.26,7.26,0,0,0-3.153-4.66L18.04,65.392c-1.2-.693-2.274-.516-2.772.414.042-.149.979-1.641,1.918-1.332,1.08.171,3.782,2.009,4.461,2.511s1.635,3.35,1.7,5.01" transform="translate(-8.092 -34.149)" fill="#c9cfd7"/><path d="M21.962,58.336l7.874,4.546V61.729l-7.874-4.546Z" transform="translate(-11.64 -30.306)" fill="#3a3a42"/><g transform="translate(30.465 27.084)" style="mix-blend-mode:multiply;isolation:isolate"><g clip-path="url(#n)"><path d="M73.937,83.946l-9.119-5.265.133-9.45,1.072-11.608,5.256,3.182A2.829,2.829,0,0,1,72.253,62c.074.134.153.277.242.426l4.253,12.126a2.521,2.521,0,0,1,.23,1.415c0,.1-.007.2-.007.29v3.1L75.35,80.767Zm-8.885-5.4,8.777,5.068,1.348-3.008,1.561-1.36V76.257c0-.095,0-.2.007-.3a2.33,2.33,0,0,0-.2-1.3l-.01-.021L72.285,62.525c-.08-.13-.16-.275-.235-.412a2.615,2.615,0,0,0-.892-1.108l-4.938-2.99L65.183,69.244Z" transform="translate(-64.818 -57.624)" fill="#f6f6f6"/></g></g><path d="M73.151,64.655l2.524,7.412a2.578,2.578,0,0,1,.3,1.56l-.093.751c-.039.308-.233.368-.5.211L67.8,70.216a1.078,1.078,0,0,1-.489-.844s.35-4.556.739-7.688c.039-.307.262-.4.533-.248l3.258,1.881a3.929,3.929,0,0,1,1.31,1.338" transform="translate(-35.674 -32.522)" fill="#484660"/><path d="M75.5,74.657a.627.627,0,0,1-.313-.1L67.61,70.185a1.191,1.191,0,0,1-.548-.945c0-.055.355-4.6.741-7.7a.469.469,0,0,1,.235-.384.5.5,0,0,1,.471.05l3.258,1.88a4.039,4.039,0,0,1,1.351,1.378l.011.023L75.653,71.9a2.673,2.673,0,0,1,.3,1.612l-.093.751a.426.426,0,0,1-.211.362.341.341,0,0,1-.152.034m-7.286-13.31a.157.157,0,0,0-.071.016.25.25,0,0,0-.108.2c-.385,3.093-.736,7.636-.739,7.682a.964.964,0,0,0,.431.735L75.3,74.358a.3.3,0,0,0,.245.057c.042-.021.072-.086.084-.183l.093-.751a2.46,2.46,0,0,0-.288-1.5l-2.523-7.407a3.805,3.805,0,0,0-1.262-1.288l-3.258-1.88a.376.376,0,0,0-.18-.058" transform="translate(-35.542 -32.39)" fill="#131313"/><path d="M131.474,53.6c1.094-.746,1.536-.969,1.843-.709a6.966,6.966,0,0,1,.26,3.151,3.3,3.3,0,0,1-1.453,1.583,1.181,1.181,0,0,1-1.276-.224,14.178,14.178,0,0,1-.094-2.714,1.634,1.634,0,0,1,.721-1.087" transform="translate(-69.29 -27.978)" fill="#42424d"/><path d="M134.081,53.549a2.025,2.025,0,0,0-1.138.488,1.865,1.865,0,0,0-.914,1.363c-.014.7.234,2.906.926,2.546a2.574,2.574,0,0,0,1.356-1.747,8.066,8.066,0,0,0-.23-2.649" transform="translate(-69.975 -28.379)" fill="#4a4a55"/><path d="M83.955,89.7a1.249,1.249,0,0,0,.494-.011c.164-.066.19-.489.013-.7s-.9-.1-.984-.181-.8-.018-.8-.018l.062.516Z" transform="translate(-43.818 -47.043)" fill="#42424d"/><path d="M79.14,82.676c.614-.154,1.241.047,1.324.744a5.357,5.357,0,0,1-.5,2.678,5.33,5.33,0,0,1-2.127.485c-1.064.012-1.193-.556-1.193-.935,0-.054,0-1.642,0-1.692.03-.54.225-.7.587-.808.781-.233,1.9-.472,1.9-.472" transform="translate(-40.622 -43.792)" fill="#42424d"/><path d="M80.733,83.316a3.4,3.4,0,0,0-1.8.239c-.7.209-1.257.281-1.314.978-.006.068-.008,1.212-.009,1.3,0,.792.207,1.029.476,1.071a4.185,4.185,0,0,0,1.716-.206c.851-.248.971-.387,1.1-.622s.182-2.646-.17-2.756" transform="translate(-41.131 -44.131)" fill="#4a4a55"/><path d="M43.248,56.274l7.863,4.539c.424.245.781,0,.792-.535l.679-6.1a1.753,1.753,0,0,0-.752-1.426l-7.862-4.539c-.425-.245-.781,0-.792.535l-.679,6.1a1.755,1.755,0,0,0,.752,1.426" transform="translate(-22.523 -25.499)" fill="#484660"/><path d="M51.3,60.894a.759.759,0,0,1-.378-.112l-7.862-4.539a1.877,1.877,0,0,1-.81-1.529l.68-6.115a.75.75,0,0,1,.328-.667.627.627,0,0,1,.638.045l7.863,4.539a1.877,1.877,0,0,1,.81,1.529l-.68,6.115a.748.748,0,0,1-.327.667.525.525,0,0,1-.261.068M43.518,48.1a.292.292,0,0,0-.147.037.539.539,0,0,0-.21.48l-.68,6.115a1.644,1.644,0,0,0,.694,1.312l7.862,4.539a.413.413,0,0,0,.408.043.539.539,0,0,0,.21-.479l.68-6.115a1.645,1.645,0,0,0-.694-1.313l-7.863-4.539a.533.533,0,0,0-.261-.08" transform="translate(-22.392 -25.368)" fill="#131313"/><g transform="translate(17.552 20.066)" style="mix-blend-mode:multiply;isolation:isolate"><g clip-path="url(#o)"><path d="M50.487,70.9,37.343,63.313l.529-9.269L39.3,42.693l12.384,7.15L50.622,61.331Zm-12.9-7.718L50.26,70.5l.129-9.183L51.437,49.97l-11.951-6.9L38.1,54.064Z" transform="translate(-37.343 -42.693)" fill="#f6f6f6"/></g></g><path d="M120.634,74.513l-19.13,11.9L93.2,80.085l20.992-12.116Z" transform="translate(-49.395 -36.023)" fill="#d8dde9"/><path d="M99.057,41.79,80.162,52.264,86.289,66.21l20.992-12.116Z" transform="translate(-42.485 -22.149)" fill="#c9cfd7"/><path d="M92.581,37.358l-6.017-3.931L67.944,44.173l5.743,3.659Z" transform="translate(-36.01 -17.716)" fill="#e5eaf6"/><path d="M133.1,86.755l-.2.181c-1.174,1.05-2.9,2.185-4.192,3.1L120.352,94.9c-1.408.637-2.87,1.462-4.3,2.038l-1.461.59L114,103.29l3.414-1.446L129.976,94.6l3.127-2.429.241-5.04Z" transform="translate(-60.42 -45.98)" fill="#bdc2ca"/><path d="M130.843,89.277V92.2a1.505,1.505,0,0,1-.185.729,1.222,1.222,0,0,1-.292.341C123.61,98.728,116,102.823,112.3,103.78a2.525,2.525,0,0,1-1.958,0l-1.475.024c-.341-1.5.873-5.561,1.3-4.956.228.329,1.519-.369,1.918-.442l1.1-.483,0,0a88.316,88.316,0,0,0,14.19-7.888q.525-.356,1.041-.717v0l1.8-1.418a2.766,2.766,0,0,0,.376-.345.048.048,0,0,0,.006.014l0,.015s.254,1.425.244,1.693" transform="translate(-57.666 -46.404)" fill="#acb2b9"/><path d="M93.2,80.063a2.319,2.319,0,0,0,1.246,0,31.141,31.141,0,0,0,6.186-2.891c2.5-1.537,11.923-6.682,12.591-7.38s1.3-1.16.969-1.845C113.836,67.416,93.886,78.1,93.2,80.063" transform="translate(-49.395 -36.002)" fill="#c9cfd7"/><path d="M99.057,41.79a.635.635,0,0,1-.131.8,59.038,59.038,0,0,1-8.028,5.2c-2.907,1.473-8.875,4.451-9.34,4.474s-1.4,0-1.4,0l10.045-7.341Z" transform="translate(-42.485 -22.148)" fill="#e5eaf6"/><path d="M106.935,101.878l-.072-.454-10.1-6.1,10.478,6.022.085.329Z" transform="translate(-51.284 -50.521)" fill="#bdc2ca"/><path d="M145.544,79.61l.028-.5-6.726-7.9,6.891,7.728.083.47Z" transform="translate(-73.587 -37.742)" fill="#bdc2ca"/><path d="M106.577,56.6a67.477,67.477,0,0,1-8.376,5.26,54.568,54.568,0,0,1-9.274,4.507,2.919,2.919,0,0,1-2.479-.846,8.618,8.618,0,0,1-.5-1.019c-1.144-2.577-3.688-9.046-3.725-9.678-.047-.758.735-.957,1.493-1.218s6.683-3.168,9.069-4.475c1-.549,2.479-1.409,3.879-2.3a18.32,18.32,0,0,0,3.66-2.762,1.075,1.075,0,0,0,.219-.377s4.493,6.827,6.358,9.823a13.3,13.3,0,0,1,.8,1.368c.116.493-.488,1.134-1.121,1.716" transform="translate(-43.578 -23.158)" fill="#484660"/><path d="M120.984,53.719c.018.251-.135.27-.382.093l-7-4.944a1.52,1.52,0,0,1-.549-.791l-.1-.818a18.324,18.324,0,0,0,3.66-2.763,7.067,7.067,0,0,1,.484.6l3.33,6.646a2.9,2.9,0,0,1,.507,1.363Z" transform="translate(-59.864 -23.583)" fill="#7c7b8e"/><path d="M112.092,100.141a4.508,4.508,0,0,1-2.108-.256,1.1,1.1,0,0,0-.151.231,5.485,5.485,0,0,0-.05.665c0,1.356,0,2.252.02,2.394a9.283,9.283,0,0,0,2.319.444,14.114,14.114,0,0,0,3.132-1.109c2.194-1.044,4.594-2.218,6.086-3.077a85.408,85.408,0,0,0,8-5.31c1.7-1.33,2.024-1.777,2.024-2.087v-2.05s-.154-1.169-.141-1.09a2.534,2.534,0,0,1-.529.593c-.618.484-1.68,1.261-2.691,2.024-1.439,1.085-8.127,5-10.685,6.337a47.311,47.311,0,0,1-5.223,2.292" transform="translate(-58.184 -47.112)" fill="#484660"/><path d="M110.21,99.786l.285-.127a8.911,8.911,0,0,0,1.708.176,33.552,33.552,0,0,0,3.394-1.36s4-1.932,5.915-3.123,5.723-3.444,6.8-4.128,2.745-2.054,2.745-2.054l.373-.465.157,1.034s-6.822,6.965-6.981,7.212-11.74,4.787-11.74,4.787Z" transform="translate(-58.411 -47.013)" fill="#484660"/><path d="M121.671,107.877c.492.374.807.783,1.156.651s4.052-2.066,6.436-3.563c1.872-1.176,5.265-3.547,5.4-3.706a6.162,6.162,0,0,0,.269-1.308Z" transform="translate(-64.485 -52.973)" fill="#484660"/><path d="M115.3,113.795a13.594,13.594,0,0,1-3.142,1.113,6.653,6.653,0,0,1-1.774-.345,16.036,16.036,0,0,1-.078-1.6l.052-1.02.176-.149a11.2,11.2,0,0,0,1.852.1c.707-.246,2.915-1.138,2.915-1.138l.087.252.145,2.6Z" transform="translate(-58.459 -58.698)" fill="#e5e6ea"/><path d="M116.713,111.825v1.928l-2.4.824-.028-1.889Z" transform="translate(-60.568 -59.267)" fill="#fff"/><path d="M112.374,113.55l-1.531-.1-.126.1a11.861,11.861,0,0,0,.039,2.151c.087.155,1.192.281,1.192.281l.454-.02Z" transform="translate(-58.662 -60.129)" fill="#f39737"/><path d="M149.868,94.341c-.256.3,2.67-1.947,2.67-2.359V90.071s-.1-.682-.116-.739a1.508,1.508,0,0,1-.615.669l-2.069,1.63Z" transform="translate(-79.36 -47.345)" fill="#e5e6ea"/><path d="M151.665,92.976,149.9,94.4l-.021-1.669,1.742-1.537Z" transform="translate(-79.433 -48.333)" fill="#fff"/><path d="M154.9,89.653l-.125.3.081,1.985.159.108.194-.189V90.072l-.116-.739Z" transform="translate(-82.029 -47.346)" fill="#f39737"/><path d="M110.779,66.792a67.477,67.477,0,0,1-8.376,5.26,54.567,54.567,0,0,1-9.274,4.507,2.919,2.919,0,0,1-2.479-.846,8.622,8.622,0,0,1-.5-1.019l1.879-.316,7.92-4.506,1.074-2.763,6.948-4.185,3.06.776.07.009a13.3,13.3,0,0,1,.8,1.368c.116.493-.488,1.134-1.121,1.716" transform="translate(-47.781 -33.349)" fill="#5b5873"/><path d="M99.237,55.641c.342.7,1.276.5,1.541.338s2.477-1.416,2.812-1.671-.085-1.069-.085-1.069-2.461,1.45-4.268,2.4" transform="translate(-52.595 -28.216)" fill="#131313"/><path d="M102.475,56.516l-.854.493a14.961,14.961,0,0,0-1.41.925.546.546,0,0,0-.194.525l.106.5a.25.25,0,0,0,.35.211,13.469,13.469,0,0,0,1.452-.728l.854-.493a15.054,15.054,0,0,0,1.41-.925.547.547,0,0,0,.194-.525l-.106-.5a.25.25,0,0,0-.35-.211,13.55,13.55,0,0,0-1.452.728" transform="translate(-53.004 -29.556)" fill="#5b5873"/><path d="M104.673,59.117c.208-.022.472-.145.462-.408Z" transform="translate(-55.476 -31.115)" fill="#5b5873"/><path d="M104.5,56.12a.357.357,0,0,1-.118.529.458.458,0,0,1-.589-.118.358.358,0,0,1,.118-.529.458.458,0,0,1,.589.118" transform="translate(-54.97 -29.649)" fill="#5e5b75"/><g transform="translate(38.608 28.84)" style="mix-blend-mode:screen;isolation:isolate"><g clip-path="url(#p)"><path d="M87.433,61.362a44.984,44.984,0,0,1,7.1,11.419A24.726,24.726,0,0,1,88.426,75.2a2.78,2.78,0,0,1-2.223-.7c-.417-.357-2.956-7.315-4.022-10.135-.25-.661.814-1.016.814-1.016a32.555,32.555,0,0,0,4.438-2" transform="translate(-82.143 -61.362)" fill="#1b1a1f"/></g></g><path d="M112.083,65.79c.082.246-.341,1.251-1.93,2.317s-8.11,5.041-11.2,6.628c-3.736,1.914-4.419,2.283-6.067,2.5a5.257,5.257,0,0,1-1.469.027s.294.56,1.452.789c1.523.3,3.446-.971,3.446-.971l4.951-2.5,4.857-2.773,4.945-3.18,1.146-1.1.371-.766a4.458,4.458,0,0,0-.215-.551c-.081-.139-.282-.417-.282-.417" transform="translate(-48.448 -34.868)" fill="#131313"/><path d="M88.426,66.192a2.964,2.964,0,0,1-2.2-.926,8.409,8.409,0,0,1-.51-1.04,103.821,103.821,0,0,1-3.735-9.718c-.048-.79.689-1.038,1.4-1.277l.17-.058c.755-.261,6.656-3.154,9.051-4.466,2.856-1.572,7.472-4.419,7.7-5.362l.063-.26.147.223c.045.069,4.515,6.863,6.359,9.825a8.377,8.377,0,0,1,.81,1.4c.131.554-.478,1.206-1.155,1.828a68.9,68.9,0,0,1-8.4,5.276c-4.954,2.809-8.483,4.357-9.308,4.52a2.091,2.091,0,0,1-.392.034m12.006-22.58c-.926,1.543-7.649,5.258-7.721,5.3-2.4,1.316-8.326,4.219-9.087,4.482l-.172.059c-.687.231-1.281.431-1.243,1.043.033.575,2.5,6.895,3.715,9.638a8.284,8.284,0,0,0,.486,1,2.831,2.831,0,0,0,2.362.8,54.71,54.71,0,0,0,9.238-4.494,68.954,68.954,0,0,0,8.355-5.244c.56-.515,1.19-1.163,1.086-1.6a12.078,12.078,0,0,0-.781-1.333c-1.676-2.69-5.521-8.549-6.239-9.643" transform="translate(-43.446 -22.834)" fill="#131313"/><path d="M128.108,99.455c-2.824,1.644-5.105,2.7-5.105,2.7l.13,2.718.672.546c.146.014,4.6-2.4,6.273-3.441s4.727-3.213,4.74-3.253.112-.572.157-.838-.126-2.569-.126-2.569Z" transform="translate(-65.191 -50.52)" fill="#383640"/><path d="M134.6,105.727c.112.305.587.331,1.062.057s.768-.744.656-1.049-.587-.331-1.062-.057-.768.744-.656,1.049" transform="translate(-71.324 -55.378)" fill="#c8ded9"/><path d="M134.87,105.8c.085.243.483.249.889.014s.667-.621.582-.864-.483-.249-.889-.014-.667.621-.582.864" transform="translate(-71.472 -55.527)" fill="#9c9aab"/><path d="M66.747,84.573a1.015,1.015,0,0,0-.183.862,8.867,8.867,0,0,0,2.02,1.239c.172.034.278-.441.248-.585a22.582,22.582,0,0,0-2.084-1.516" transform="translate(-35.259 -44.823)" fill="#bdc2ca"/><path d="M68.374,85.19,67.182,84.5c-.154-.089-.279-.017-.279.159v.062a.615.615,0,0,0,.279.482l1.639.946c.184.107.279-.092.152-.319a1.71,1.71,0,0,0-.6-.642" transform="translate(-35.458 -44.765)" fill="#393f47"/><path d="M67.577,85.218c0,.1-.067.134-.15.086a.331.331,0,0,1-.15-.259c0-.1.067-.134.15-.086a.331.331,0,0,1,.15.259" transform="translate(-35.656 -45.017)" fill="#cac9e8"/><path d="M2.213,48.785a.788.788,0,0,0,.29.591,2.177,2.177,0,0,0,.5.32v3.517l-.583-.368s-.3-.251-.3-.406.1-3.653.1-3.653" transform="translate(-1.122 -25.856)" fill="#3a3a42"/><path d="M2.232,49.864s.183.515.634.559v1.606s-.688-.239-.688-.734Z" transform="translate(-1.154 -26.428)" fill="#ff3f41"/><path d="M2.162,53.554s.23.537.681.58v1.184s-.708-.219-.708-.713Z" transform="translate(-1.132 -28.383)" fill="#ff3f41"/><path d="M105.877,81.364l-3.011.213,1.508-.78-.268-.171-6.91,3.61-.133.354,4.259-2.084.754-.435,3.327-.293Z" transform="translate(-51.442 -42.731)" fill="#303039"/><path d="M122.443,71.549l-3.008.249,1.5-.8-.27-.168L113.8,74.521l-.129.355,4.235-2.133.749-.443,3.323-.332Z" transform="translate(-60.242 -37.54)" fill="#303039"/><path d="M1.638,61.548v2.1L.9,63.218l-.422-.49-.2-.578L.211,61l.06-.242Z" transform="translate(-0.112 -32.202)" fill="#a4a2b6"/><path d="M.339,60.021l.8-.654-.024.524.153.156.749.456v2.157l-.312.248v-2.1Z" transform="translate(-0.18 -31.464)" fill="#a4a2b6"/></g></g></g></g></svg>