<svg xmlns="http://www.w3.org/2000/svg" xmlns:xlink="http://www.w3.org/1999/xlink" width="104.678" height="96.595" viewBox="0 0 104.678 96.595"><defs><filter id="a" x="2.574" y="7.316" width="89.278" height="89.278" filterUnits="userSpaceOnUse"><feOffset dy="3" input="SourceAlpha"/><feGaussianBlur stdDeviation="3" result="b"/><feFlood flood-opacity="0.412"/><feComposite operator="in" in2="b"/></filter><filter id="c" x="2.574" y="7.316" width="89.278" height="89.278" filterUnits="userSpaceOnUse"><feOffset dy="3" input="SourceAlpha"/><feGaussianBlur stdDeviation="3" result="d"/><feFlood flood-opacity="0.161" result="e"/><feComposite operator="out" in="SourceGraphic" in2="d"/><feComposite operator="in" in="e"/><feComposite operator="in" in2="SourceGraphic"/></filter><clipPath id="f"><rect width="104.678" height="81.176" fill="none"/></clipPath><clipPath id="i"><rect width="29.006" height="28.489" fill="none"/></clipPath><clipPath id="k"><rect width="16.833" height="9.719" fill="none"/></clipPath><clipPath id="m"><rect width="26.593" height="22.923" fill="none"/></clipPath></defs><g transform="translate(11796.623 12270.509)"><g data-type="innerShadowGroup"><g transform="matrix(1, 0, 0, 1, -11796.62, -12270.51)" filter="url(#a)"><g transform="translate(11.57 13.32)" fill="#a8aeb5"><path d="M 35.63915634155273 69.77815246582031 C 31.02973365783691 69.77815246582031 26.55899047851562 68.87572479248047 22.35111236572266 67.095947265625 C 18.2860221862793 65.37656402587891 14.63488960266113 62.9148063659668 11.49912261962891 59.77903747558594 C 8.363356590270996 56.64328384399414 5.901589870452881 52.99214935302734 4.182211875915527 48.92707061767578 C 2.402422904968262 44.71920394897461 1.500000834465027 40.24847412109375 1.500000834465027 35.63907241821289 C 1.500000834465027 31.02966117858887 2.402422904968262 26.55892753601074 4.182211875915527 22.35106086730957 C 5.901589870452881 18.28598403930664 8.363356590270996 14.63486099243164 11.49912261962891 11.49910545349121 C 14.63488960266113 8.363349914550781 18.2860221862793 5.901583671569824 22.35111236572266 4.182205677032471 C 26.55899047851562 2.402427911758423 31.02973365783691 1.500005722045898 35.63915634155273 1.500005722045898 C 40.24857711791992 1.500005722045898 44.71931076049805 2.402427911758423 48.92718887329102 4.182205677032471 C 52.99227905273438 5.901583671569824 56.6434211730957 8.363349914550781 59.77917861938477 11.49910545349121 C 62.91494369506836 14.63486099243164 65.376708984375 18.28598403930664 67.09609985351562 22.35106086730957 C 68.87589263916016 26.55893898010254 69.77831268310547 31.02966117858887 69.77831268310547 35.63907241821289 C 69.77831268310547 40.24847412109375 68.87589263916016 44.71920394897461 67.09609985351562 48.92707061767578 C 65.376708984375 52.99214935302734 62.91494369506836 56.64328384399414 59.77917861938477 59.77903747558594 C 56.6434211730957 62.9148063659668 52.99227905273438 65.37656402587891 48.92718887329102 67.095947265625 C 44.71931076049805 68.87572479248047 40.24856567382812 69.77815246582031 35.63915634155273 69.77815246582031 Z" stroke="none"/><path d="M 35.63915634155273 3 C 31.2315788269043 3 26.95742797851562 3.862556457519531 22.93544006347656 5.563705444335938 C 19.04915618896484 7.207473754882812 15.55827331542969 9.561283111572266 12.55979156494141 12.55976486206055 C 9.561298370361328 15.55825042724609 7.207473754882812 19.04911804199219 5.563720703125 22.93539047241211 C 3.862556457519531 26.95736694335938 3 31.23150634765625 3 35.63907241821289 C 3 40.04663848876953 3.862556457519531 44.32076644897461 5.563720703125 48.34274291992188 C 7.207473754882812 52.22902679443359 9.561298370361328 55.71989440917969 12.55979156494141 58.71837615966797 C 15.55827331542969 61.71686172485352 19.04915618896484 64.07067108154297 22.93544006347656 65.71443939208984 C 26.95742797851562 67.41558837890625 31.2315788269043 68.27814483642578 35.63915634155273 68.27814483642578 C 40.04673004150391 68.27814483642578 44.32087326049805 67.41558837890625 48.34286499023438 65.71443939208984 C 52.22915649414062 64.07067108154297 55.72002792358398 61.71686172485352 58.71852111816406 58.71837615966797 C 61.71701431274414 55.71988296508789 64.07082366943359 52.22902679443359 65.71459197998047 48.34274291992188 C 67.41575622558594 44.32076644897461 68.27831268310547 40.04663848876953 68.27831268310547 35.63907241821289 C 68.27831268310547 31.23150634765625 67.41575622558594 26.95736694335938 65.71459197998047 22.93539047241211 C 64.07082366943359 19.04911804199219 61.71701431274414 15.55825042724609 58.71852111816406 12.55976486206055 C 55.72002792358398 9.561283111572266 52.22915649414062 7.207473754882812 48.34286499023438 5.563705444335938 C 44.32088470458984 3.862556457519531 40.04673004150391 3 35.63915634155273 3 M 35.63915634155273 0 C 55.32210922241211 0 71.27831268310547 15.95615386962891 71.27831268310547 35.63907241821289 C 71.27831268310547 55.32197952270508 55.32210922241211 71.27814483642578 35.63915634155273 71.27814483642578 C 15.95619201660156 71.27814483642578 0 55.32197952270508 0 35.63907241821289 C 0 15.95615386962891 15.95619201660156 0 35.63915634155273 0 Z" stroke="none" fill="#fff"/></g></g><g transform="translate(-11785.048 -12257.192)" fill="#a8aeb5"><path d="M 35.63915634155273 69.77815246582031 C 31.02973365783691 69.77815246582031 26.55899047851562 68.87572479248047 22.35111236572266 67.095947265625 C 18.2860221862793 65.37656402587891 14.63488960266113 62.9148063659668 11.49912261962891 59.77903747558594 C 8.363356590270996 56.64328384399414 5.901589870452881 52.99214935302734 4.182211875915527 48.92707061767578 C 2.402422904968262 44.71920394897461 1.500000834465027 40.24847412109375 1.500000834465027 35.63907241821289 C 1.500000834465027 31.02966117858887 2.402422904968262 26.55892753601074 4.182211875915527 22.35106086730957 C 5.901589870452881 18.28598403930664 8.363356590270996 14.63486099243164 11.49912261962891 11.49910545349121 C 14.63488960266113 8.363349914550781 18.2860221862793 5.901583671569824 22.35111236572266 4.182205677032471 C 26.55899047851562 2.402427911758423 31.02973365783691 1.500005722045898 35.63915634155273 1.500005722045898 C 40.24857711791992 1.500005722045898 44.71931076049805 2.402427911758423 48.92718887329102 4.182205677032471 C 52.99227905273438 5.901583671569824 56.6434211730957 8.363349914550781 59.77917861938477 11.49910545349121 C 62.91494369506836 14.63486099243164 65.376708984375 18.28598403930664 67.09609985351562 22.35106086730957 C 68.87589263916016 26.55893898010254 69.77831268310547 31.02966117858887 69.77831268310547 35.63907241821289 C 69.77831268310547 40.24847412109375 68.87589263916016 44.71920394897461 67.09609985351562 48.92707061767578 C 65.376708984375 52.99214935302734 62.91494369506836 56.64328384399414 59.77917861938477 59.77903747558594 C 56.6434211730957 62.9148063659668 52.99227905273438 65.37656402587891 48.92718887329102 67.095947265625 C 44.71931076049805 68.87572479248047 40.24856567382812 69.77815246582031 35.63915634155273 69.77815246582031 Z" stroke="none"/><path d="M 35.63915634155273 3 C 31.2315788269043 3 26.95742797851562 3.862556457519531 22.93544006347656 5.563705444335938 C 19.04915618896484 7.207473754882812 15.55827331542969 9.561283111572266 12.55979156494141 12.55976486206055 C 9.561298370361328 15.55825042724609 7.207473754882812 19.04911804199219 5.563720703125 22.93539047241211 C 3.862556457519531 26.95736694335938 3 31.23150634765625 3 35.63907241821289 C 3 40.04663848876953 3.862556457519531 44.32076644897461 5.563720703125 48.34274291992188 C 7.207473754882812 52.22902679443359 9.561298370361328 55.71989440917969 12.55979156494141 58.71837615966797 C 15.55827331542969 61.71686172485352 19.04915618896484 64.07067108154297 22.93544006347656 65.71443939208984 C 26.95742797851562 67.41558837890625 31.2315788269043 68.27814483642578 35.63915634155273 68.27814483642578 C 40.04673004150391 68.27814483642578 44.32087326049805 67.41558837890625 48.34286499023438 65.71443939208984 C 52.22915649414062 64.07067108154297 55.72002792358398 61.71686172485352 58.71852111816406 58.71837615966797 C 61.71701431274414 55.71988296508789 64.07082366943359 52.22902679443359 65.71459197998047 48.34274291992188 C 67.41575622558594 44.32076644897461 68.27831268310547 40.04663848876953 68.27831268310547 35.63907241821289 C 68.27831268310547 31.23150634765625 67.41575622558594 26.95736694335938 65.71459197998047 22.93539047241211 C 64.07082366943359 19.04911804199219 61.71701431274414 15.55825042724609 58.71852111816406 12.55976486206055 C 55.72002792358398 9.561283111572266 52.22915649414062 7.207473754882812 48.34286499023438 5.563705444335938 C 44.32088470458984 3.862556457519531 40.04673004150391 3 35.63915634155273 3 M 35.63915634155273 0 C 55.32210922241211 0 71.27831268310547 15.95615386962891 71.27831268310547 35.63907241821289 C 71.27831268310547 55.32197952270508 55.32210922241211 71.27814483642578 35.63915634155273 71.27814483642578 C 15.95619201660156 71.27814483642578 0 55.32197952270508 0 35.63907241821289 C 0 15.95615386962891 15.95619201660156 0 35.63915634155273 0 Z" stroke="none"/></g><g transform="matrix(1, 0, 0, 1, -11796.62, -12270.51)" filter="url(#c)"><g transform="translate(11.57 13.32)" fill="#fff"><path d="M 35.63915634155273 69.77815246582031 C 31.02973365783691 69.77815246582031 26.55899047851562 68.87572479248047 22.35111236572266 67.095947265625 C 18.2860221862793 65.37656402587891 14.63488960266113 62.9148063659668 11.49912261962891 59.77903747558594 C 8.363356590270996 56.64328384399414 5.901589870452881 52.99214935302734 4.182211875915527 48.92707061767578 C 2.402422904968262 44.71920394897461 1.500000834465027 40.24847412109375 1.500000834465027 35.63907241821289 C 1.500000834465027 31.02966117858887 2.402422904968262 26.55892753601074 4.182211875915527 22.35106086730957 C 5.901589870452881 18.28598403930664 8.363356590270996 14.63486099243164 11.49912261962891 11.49910545349121 C 14.63488960266113 8.363349914550781 18.2860221862793 5.901583671569824 22.35111236572266 4.182205677032471 C 26.55899047851562 2.402427911758423 31.02973365783691 1.500005722045898 35.63915634155273 1.500005722045898 C 40.24857711791992 1.500005722045898 44.71931076049805 2.402427911758423 48.92718887329102 4.182205677032471 C 52.99227905273438 5.901583671569824 56.6434211730957 8.363349914550781 59.77917861938477 11.49910545349121 C 62.91494369506836 14.63486099243164 65.376708984375 18.28598403930664 67.09609985351562 22.35106086730957 C 68.87589263916016 26.55893898010254 69.77831268310547 31.02966117858887 69.77831268310547 35.63907241821289 C 69.77831268310547 40.24847412109375 68.87589263916016 44.71920394897461 67.09609985351562 48.92707061767578 C 65.376708984375 52.99214935302734 62.91494369506836 56.64328384399414 59.77917861938477 59.77903747558594 C 56.6434211730957 62.9148063659668 52.99227905273438 65.37656402587891 48.92718887329102 67.095947265625 C 44.71931076049805 68.87572479248047 40.24856567382812 69.77815246582031 35.63915634155273 69.77815246582031 Z" stroke="none"/><path d="M 35.63915634155273 3 C 31.2315788269043 3 26.95742797851562 3.862556457519531 22.93544006347656 5.563705444335938 C 19.04915618896484 7.207473754882812 15.55827331542969 9.561283111572266 12.55979156494141 12.55976486206055 C 9.561298370361328 15.55825042724609 7.207473754882812 19.04911804199219 5.563720703125 22.93539047241211 C 3.862556457519531 26.95736694335938 3 31.23150634765625 3 35.63907241821289 C 3 40.04663848876953 3.862556457519531 44.32076644897461 5.563720703125 48.34274291992188 C 7.207473754882812 52.22902679443359 9.561298370361328 55.71989440917969 12.55979156494141 58.71837615966797 C 15.55827331542969 61.71686172485352 19.04915618896484 64.07067108154297 22.93544006347656 65.71443939208984 C 26.95742797851562 67.41558837890625 31.2315788269043 68.27814483642578 35.63915634155273 68.27814483642578 C 40.04673004150391 68.27814483642578 44.32087326049805 67.41558837890625 48.34286499023438 65.71443939208984 C 52.22915649414062 64.07067108154297 55.72002792358398 61.71686172485352 58.71852111816406 58.71837615966797 C 61.71701431274414 55.71988296508789 64.07082366943359 52.22902679443359 65.71459197998047 48.34274291992188 C 67.41575622558594 44.32076644897461 68.27831268310547 40.04663848876953 68.27831268310547 35.63907241821289 C 68.27831268310547 31.23150634765625 67.41575622558594 26.95736694335938 65.71459197998047 22.93539047241211 C 64.07082366943359 19.04911804199219 61.71701431274414 15.55825042724609 58.71852111816406 12.55976486206055 C 55.72002792358398 9.561283111572266 52.22915649414062 7.207473754882812 48.34286499023438 5.563705444335938 C 44.32088470458984 3.862556457519531 40.04673004150391 3 35.63915634155273 3 M 35.63915634155273 0 C 55.32210922241211 0 71.27831268310547 15.95615386962891 71.27831268310547 35.63907241821289 C 71.27831268310547 55.32197952270508 55.32210922241211 71.27814483642578 35.63915634155273 71.27814483642578 C 15.95619201660156 71.27814483642578 0 55.32197952270508 0 35.63907241821289 C 0 15.95615386962891 15.95619201660156 0 35.63915634155273 0 Z" stroke="none"/></g></g><g transform="translate(-11785.048 -12257.192)" fill="none"><path d="M 35.63915634155273 69.77815246582031 C 31.02973365783691 69.77815246582031 26.55899047851562 68.87572479248047 22.35111236572266 67.095947265625 C 18.2860221862793 65.37656402587891 14.63488960266113 62.9148063659668 11.49912261962891 59.77903747558594 C 8.363356590270996 56.64328384399414 5.901589870452881 52.99214935302734 4.182211875915527 48.92707061767578 C 2.402422904968262 44.71920394897461 1.500000834465027 40.24847412109375 1.500000834465027 35.63907241821289 C 1.500000834465027 31.02966117858887 2.402422904968262 26.55892753601074 4.182211875915527 22.35106086730957 C 5.901589870452881 18.28598403930664 8.363356590270996 14.63486099243164 11.49912261962891 11.49910545349121 C 14.63488960266113 8.363349914550781 18.2860221862793 5.901583671569824 22.35111236572266 4.182205677032471 C 26.55899047851562 2.402427911758423 31.02973365783691 1.500005722045898 35.63915634155273 1.500005722045898 C 40.24857711791992 1.500005722045898 44.71931076049805 2.402427911758423 48.92718887329102 4.182205677032471 C 52.99227905273438 5.901583671569824 56.6434211730957 8.363349914550781 59.77917861938477 11.49910545349121 C 62.91494369506836 14.63486099243164 65.376708984375 18.28598403930664 67.09609985351562 22.35106086730957 C 68.87589263916016 26.55893898010254 69.77831268310547 31.02966117858887 69.77831268310547 35.63907241821289 C 69.77831268310547 40.24847412109375 68.87589263916016 44.71920394897461 67.09609985351562 48.92707061767578 C 65.376708984375 52.99214935302734 62.91494369506836 56.64328384399414 59.77917861938477 59.77903747558594 C 56.6434211730957 62.9148063659668 52.99227905273438 65.37656402587891 48.92718887329102 67.095947265625 C 44.71931076049805 68.87572479248047 40.24856567382812 69.77815246582031 35.63915634155273 69.77815246582031 Z" stroke="none"/><path d="M 35.63915634155273 3 C 31.2315788269043 3 26.95742797851562 3.862556457519531 22.93544006347656 5.563705444335938 C 19.04915618896484 7.207473754882812 15.55827331542969 9.561283111572266 12.55979156494141 12.55976486206055 C 9.561298370361328 15.55825042724609 7.207473754882812 19.04911804199219 5.563720703125 22.93539047241211 C 3.862556457519531 26.95736694335938 3 31.23150634765625 3 35.63907241821289 C 3 40.04663848876953 3.862556457519531 44.32076644897461 5.563720703125 48.34274291992188 C 7.207473754882812 52.22902679443359 9.561298370361328 55.71989440917969 12.55979156494141 58.71837615966797 C 15.55827331542969 61.71686172485352 19.04915618896484 64.07067108154297 22.93544006347656 65.71443939208984 C 26.95742797851562 67.41558837890625 31.2315788269043 68.27814483642578 35.63915634155273 68.27814483642578 C 40.04673004150391 68.27814483642578 44.32087326049805 67.41558837890625 48.34286499023438 65.71443939208984 C 52.22915649414062 64.07067108154297 55.72002792358398 61.71686172485352 58.71852111816406 58.71837615966797 C 61.71701431274414 55.71988296508789 64.07082366943359 52.22902679443359 65.71459197998047 48.34274291992188 C 67.41575622558594 44.32076644897461 68.27831268310547 40.04663848876953 68.27831268310547 35.63907241821289 C 68.27831268310547 31.23150634765625 67.41575622558594 26.95736694335938 65.71459197998047 22.93539047241211 C 64.07082366943359 19.04911804199219 61.71701431274414 15.55825042724609 58.71852111816406 12.55976486206055 C 55.72002792358398 9.561283111572266 52.22915649414062 7.207473754882812 48.34286499023438 5.563705444335938 C 44.32088470458984 3.862556457519531 40.04673004150391 3 35.63915634155273 3 M 35.63915634155273 0 C 55.32210922241211 0 71.27831268310547 15.95615386962891 71.27831268310547 35.63907241821289 C 71.27831268310547 55.32197952270508 55.32210922241211 71.27814483642578 35.63915634155273 71.27814483642578 C 15.95619201660156 71.27814483642578 0 55.32197952270508 0 35.63907241821289 C 0 15.95615386962891 15.95619201660156 0 35.63915634155273 0 Z" stroke="none" fill="#fff"/></g></g><g transform="translate(-11796.622 -12270.509)"><g transform="translate(0 0)" clip-path="url(#f)"><path d="M71.221,97.6l-3.06-1.768V92.321l3.06,1.768Zm-2.86-1.884,2.659,1.535V94.2L68.362,92.67Z" transform="translate(-24.684 -33.433)" fill="#87623f"/><path d="M70.706,97.61l-.675-.39V95.451l.675.39Z" transform="translate(-25.361 -34.567)" fill="#87623f"/><path d="M70.993,96.177l-2-1.156,1-.63Z" transform="translate(-24.984 -34.183)" fill="#87623f"/><path d="M62.909,82.714l14.5-8.373-.161-.092-14.5,8.373Z" transform="translate(-22.724 -26.888)" fill="#d1a986"/><path d="M74.455,101.123l14.5-8.373V81.007l-14.5,8.373Z" transform="translate(-26.963 -29.336)" fill="#c99a6b"/><g clip-path="url(#f)"><g transform="translate(32.989 43.298)" style="mix-blend-mode:multiply;isolation:isolate"><g clip-path="url(#i)"><path d="M80.724,84.276l-8.54,5.257s1.926,2.176-.247,3.536-5.716,3.3-5.716,3.3V84.627l-14.5-8.373,14.5-8.374,14.5,8.374Z" transform="translate(-51.718 -67.88)" fill="#dbd9d0"/></g></g></g><path d="M66.222,101.123l-14.5-8.373V81.007l14.5,8.373Z" transform="translate(-18.729 -29.336)" fill="#ae835b"/><path d="M66.222,84.627l-14.5-8.373,14.5-8.373,14.5,8.373Z" transform="translate(-18.729 -24.582)" fill="#e8b687"/><path d="M63.366,94.306l-2.33-1.345V86.387l2.33,1.345Z" transform="translate(-22.104 -31.284)" fill="#9c754e"/><g clip-path="url(#f)"><g transform="translate(38.932 46.729)" style="mix-blend-mode:screen;isolation:isolate"><g clip-path="url(#k)"><path d="M63.366,82.978l14.5-8.373-2.33-1.345-14.5,8.373Z" transform="translate(-61.036 -73.26)" fill="#54493e"/></g></g></g><path d="M51.719,81.007l14.5,8.373L58.4,85.194Z" transform="translate(-18.729 -29.336)" fill="#87623f"/><g clip-path="url(#f)"><path d="M95.109,81.2a1.02,1.02,0,0,0-.463-.8.33.33,0,0,0-.318-.035h-.01l-.085.05L73.738,92.226l0,0-.01.006a.328.328,0,0,0-.124.29,1.02,1.02,0,0,0,.462.8.343.343,0,0,0,.27.044l.005.01.027-.015c.005,0,.012,0,.017,0h.01l7.89-4.57L94.972,81.5h0l.01-.006a.328.328,0,0,0,.125-.29" transform="translate(-26.654 -29.094)" fill="#3a3d46"/><path d="M67.017,59.571a1.02,1.02,0,0,0-.463-.8.328.328,0,0,0-.318-.035h-.01l-.085.05L42.378,72.515l0,0-.01.006a.328.328,0,0,0-.125.29,1.02,1.02,0,0,0,.463.8.341.341,0,0,0,.269.044l.005.01.027-.015c.005,0,.011,0,.017,0h.008l7.892-4.572,15.958-9.2h0l.01-.006a.328.328,0,0,0,.125-.29" transform="translate(-15.297 -21.262)" fill="#3a3d46"/><path d="M68.688,83.631H67.58V78.5a13.079,13.079,0,0,0-5.927-10.222L53.7,63.685c-1.479-.854-2.844-1.007-3.842-.431s-1.531,1.809-1.531,3.488v5.13H47.215v-5.13c0-2.092.741-3.672,2.086-4.448s3.114-.63,4.949.431l7.957,4.593A14.306,14.306,0,0,1,68.688,78.5Z" transform="translate(-17.098 -22.381)" fill="#3a3d46"/><path d="M80.087,95.617a.867.867,0,0,0-.783,0c-.216.124-.215.327,0,.452a.867.867,0,0,0,.783,0,.239.239,0,0,0,0-.452" transform="translate(-28.661 -34.593)" fill="#3a3d46"/><path d="M100.654,83.836a.869.869,0,0,0-.783,0c-.216.124-.215.327,0,.452a.867.867,0,0,0,.783,0,.239.239,0,0,0,0-.453" transform="translate(-36.109 -30.327)" fill="#3a3d46"/><path d="M89.255,71.85H88.147V66.72A13.073,13.073,0,0,0,82.218,56.5L74.263,51.9c-1.479-.854-2.845-1.007-3.842-.431s-1.532,1.81-1.532,3.488V64H67.781V54.962c0-2.092.741-3.671,2.086-4.448s3.113-.63,4.95.431l7.956,4.594A14.3,14.3,0,0,1,89.255,66.72Z" transform="translate(-24.546 -18.115)" fill="#3a3d46"/><path d="M18.794,51.808a5.7,5.7,0,0,1-5.16-.01c-1.43-.825-1.437-2.159-.017-2.979a5.7,5.7,0,0,1,5.161.01c1.429.825,1.436,2.159.016,2.979" transform="translate(-4.547 -17.458)" fill="#b6b3c8"/><path d="M11.4,47.785l.811,2.784,7.053.243.9-3.023Z" transform="translate(-4.128 -17.305)" fill="#b6b3c8"/><path d="M68.087,23.349a5.7,5.7,0,0,1-5.16-.01c-1.43-.825-1.437-2.159-.017-2.979a5.706,5.706,0,0,1,5.161.01c1.429.825,1.436,2.159.016,2.979" transform="translate(-22.398 -7.152)" fill="#b6b3c8"/><path d="M60.763,19.624l.759,2.572H68.7l.758-2.572Z" transform="translate(-22.005 -7.107)" fill="#b6b3c8"/><path d="M67.268,24.127l2.5,11.913L62.219,40.4l1.9-15.89Z" transform="translate(-22.532 -8.737)" fill="#b6b3c8"/><path d="M23.331,51.363,39.68,54.253l7.552-4.36L22.63,49.3Z" transform="translate(-8.195 -17.855)" fill="#b6b3c8"/><path d="M68.191,19.439a6.857,6.857,0,0,1-6.2-.011c-1.718-.993-1.727-2.6-.019-3.582a6.857,6.857,0,0,1,6.2.011c1.718.992,1.727,2.6.019,3.582" transform="translate(-21.979 -5.472)" fill="#f4f3fd"/><path d="M62.261,15.808c-1.618.934-1.61,2.454.019,3.394a6.5,6.5,0,0,0,5.879.011c1.618-.934,1.61-2.454-.019-3.394a6.5,6.5,0,0,0-5.879-.011" transform="translate(-22.11 -5.472)" fill="#eae9fb"/><path d="M67.451,23.6,69.77,32.66l-4.138,1.4-3.413,2.96,1.824-13.191,1.543-.735Z" transform="translate(-22.532 -8.363)" fill="#eae9fb"/><path d="M65.632,34.059l-.047-10.966-1.543.736L62.219,37.02Z" transform="translate(-22.532 -8.363)" fill="#f4f3fd"/><path d="M23.655,48.959l16.4.917,3.282-3.768,4.27-.592-23,1.452Z" transform="translate(-8.566 -16.483)" fill="#eae9fb"/><path d="M43.333,46.443,24.36,48.053l-.7,1.242,16.4.917Z" transform="translate(-8.566 -16.819)" fill="#f4f3fd"/><path d="M84.728,47.646a4.064,4.064,0,0,1-.025.438,5.5,5.5,0,0,1-2.937,4.005L74.78,54.88,69.2,59.257c-3.578,2.065-9.04,2.292-12.138.5L50.379,55.9a3.943,3.943,0,0,1-2.051-2.87,3.423,3.423,0,0,1-.039-.531,4.527,4.527,0,0,1,.908-2.634c.491-.679-.2-.422.681-.928l1.284-.742,9.994-9.123L63.82,40.89c3.576-2.065,9.038-2.292,12.138-.5l5.689,3.286.991.572a4.442,4.442,0,0,1,1.212,1.005,3.676,3.676,0,0,1,.878,2.4" transform="translate(-17.487 -14.151)" fill="#d2d0dd"/><path d="M111.458,55.486l-23.18,3.627v1.574l-3.664,2.08,26.181-4.635Z" transform="translate(-30.642 -20.094)" fill="#b6b3c8"/><path d="M77.917,76.464,77.5,69.126v-3l7.551-4.36.651,1.2L81.065,76.081Z" transform="translate(-28.065 -22.367)" fill="#b6b3c8"/><path d="M84.728,45.565v4.86l-.025.009-8.755,3.411-1.126.438-10.654,3.8-.147.056-.143-.025-8.367-.35-7.184-2.384-.039-.007V50.3l.009,0,2.864.251,16.182-2.4,14.3-2.123,3.073-.457Z" transform="translate(-17.488 -16.501)" fill="#d2d0dd"/><path d="M84.72,40.844a3.7,3.7,0,0,1-.869,2.033,5.749,5.749,0,0,1-.71.744c-.3.263-5.026,3.857-7.191,5.5-.649.49-1.066.808-1.066.808s-6.976,2.494-7.686,2.742a14.641,14.641,0,0,1-3.027.692c-.1.011-.193.023-.29.032a11.748,11.748,0,0,1-6.817-1.128l-.177-.1L50.38,48.41A5.084,5.084,0,0,1,49.2,47.5a3.085,3.085,0,0,1-.9-1.922c-.107-1.438.9-2.984,2.952-4.171l6.556-2.283,6.013-4.885c3.576-2.065,9.038-2.292,12.138-.5l6.681,3.858a3.516,3.516,0,0,1,2.081,3.256" transform="translate(-17.488 -11.779)" fill="#eae9fb"/><g transform="translate(30.802 23.894)" style="mix-blend-mode:screen;isolation:isolate"><g clip-path="url(#m)"><path d="M74.882,51.718l-.1,2.578L69.2,58.674c-3.578,2.065-9.04,2.292-12.138.5l-6.683-3.858a3.941,3.941,0,0,1-2.051-2.87l-.039-.007V47.364l.01,0c-.107-1.439.9-2.984,2.952-4.171l6.556-2.283,1.456-3.447,1.893,1.03,6.188,6.722,7.127.524.351,5.612Z" transform="translate(-48.29 -37.461)" fill="#464647"/></g></g><path d="M51.983,62.493,57.5,65.675c.432.249.786-.018.786-.594a1.889,1.889,0,0,0-.786-1.5L51.983,60.4c-.432-.249-.786.018-.786.594a1.889,1.889,0,0,0,.786,1.5" transform="translate(-18.541 -21.838)" fill="#3a3d46"/><path d="M59.795,66.59l.089.052c.151.087.275-.006.275-.208a.661.661,0,0,0-.275-.526l-.089-.052c-.151-.087-.275.006-.275.208a.662.662,0,0,0,.275.526" transform="translate(-21.555 -23.838)" fill="#6bffff"/><path d="M56.525,64.7l.089.052c.151.087.275-.006.275-.208a.662.662,0,0,0-.275-.526l-.089-.052c-.152-.087-.276.006-.276.208a.661.661,0,0,0,.276.526" transform="translate(-20.37 -23.154)" fill="#6bffff"/><path d="M53.254,62.813l.089.052c.151.087.275-.006.275-.208a.662.662,0,0,0-.275-.526l-.089-.052c-.151-.087-.275.006-.275.208a.662.662,0,0,0,.275.526" transform="translate(-19.186 -22.47)" fill="#6bffff"/><path d="M61.08,52.053a9.175,9.175,0,0,1-4.474-.994L49.923,47.2c-.483-.279-1.3-.867-1.3-1.666,0-.826.83-1.819,2.167-2.591l8.589-6.955L67.3,33.858a13.627,13.627,0,0,1,3.509-.459,9.182,9.182,0,0,1,4.474.994l6.682,3.858c.483.279,1.3.867,1.3,1.666a2.437,2.437,0,0,1-.849,1.605c-.349.347-7.82,2.743-7.82,2.743s-7.552,5.866-9.493,6.97a8.335,8.335,0,0,1-4.022.818" transform="translate(-17.61 -12.095)" fill="#f4f3fd"/><path d="M88.075,38.251l-6.682-3.858a9.179,9.179,0,0,0-4.475-.994,13.619,13.619,0,0,0-3.508.459l-7.918,2.132L80.7,44.265s7.471-2.4,7.82-2.743a2.437,2.437,0,0,0,.849-1.605c0-.8-.812-1.387-1.3-1.666" transform="translate(-23.717 -12.095)" fill="#eae9fb"/><path d="M87.781,38.286,81.1,34.428a8.175,8.175,0,0,0-3.241-.931,7.358,7.358,0,0,1,2.261.781L86.8,38.136c.484.279,1.3.867,1.3,1.666a2.437,2.437,0,0,1-.849,1.605c-.349.346-7.82,2.743-7.82,2.743s-8.749,6.945-9.493,7.18a13.514,13.514,0,0,1-4.022.609c-.424,0-.834-.023-1.233-.063a11.66,11.66,0,0,0,2.213.213,8.3,8.3,0,0,0,4.022-.818c.723-.291,9.492-6.97,9.492-6.97s7.471-2.4,7.82-2.743a2.437,2.437,0,0,0,.849-1.605c0-.8-.812-1.387-1.3-1.666" transform="translate(-23.424 -12.131)" fill="#f9f8fe"/><path d="M96.244,40.883a1.828,1.828,0,0,0,.314-.931,1.526,1.526,0,0,0-.466-1.028,3.451,3.451,0,0,0-.635-.519c-.069-.044-.135-.084-.195-.119l-6.682-3.858,0,0a6.024,6.024,0,0,0-.819-.38c-.1-.038-.2-.07-.3-.1q-.311-.1-.647-.188c-.127-.031-.253-.063-.384-.089-.244-.05-.5-.088-.756-.121-.111-.015-.216-.035-.328-.047a7.362,7.362,0,0,1,2.262.781l6.682,3.858c.484.279,1.3.867,1.3,1.666a2.436,2.436,0,0,1-.849,1.6c-.3.3-5.787,2.086-7.379,2.6l.538.293s1.051-.337,2.382-.776l.686-.227a43,43,0,0,0,4.752-1.739,3.608,3.608,0,0,0,.535-.674" transform="translate(-30.905 -12.13)" fill="#efeefc"/><path d="M111.656,54.95l-13.747-.612-3.3.033L90.358,58.7l21.656-1.766Z" transform="translate(-32.722 -19.678)" fill="#eae9fb"/><path d="M77.917,75.6,77.5,66.121,80.7,62.4l4.346-.636L81.065,75.216Z" transform="translate(-28.065 -22.366)" fill="#eae9fb"/><path d="M80.7,62.759,79.466,75.4l-1.549.559L77.5,66.483Z" transform="translate(-28.065 -22.728)" fill="#f4f3fd"/><path d="M94.607,54.389l17.049.826.357,1.736L90.357,58.716Z" transform="translate(-32.722 -19.697)" fill="#f4f3fd"/><path d="M76.69,85.225c-1.421.82-1.414,2.154.016,2.979a5.7,5.7,0,0,0,5.161.01c1.421-.82,1.413-2.154-.017-2.979a5.7,5.7,0,0,0-5.16-.01" transform="translate(-27.388 -30.642)" fill="#b6b3c8"/><path d="M83.247,84.243l-.818,2.824-7.163-.17-.759-2.554Z" transform="translate(-26.982 -30.508)" fill="#b6b3c8"/><path d="M75.731,80.711c-1.708.986-1.7,2.59.019,3.582a6.857,6.857,0,0,0,6.2.011c1.708-.986,1.7-2.59-.019-3.582a6.855,6.855,0,0,0-6.2-.011" transform="translate(-26.963 -28.962)" fill="#f4f3fd"/><path d="M76.049,80.673c-1.618.934-1.61,2.454.019,3.394a6.5,6.5,0,0,0,5.879.011c1.618-.934,1.61-2.454-.019-3.394a6.5,6.5,0,0,0-5.879-.011" transform="translate(-27.103 -28.962)" fill="#eae9fb"/><path d="M18.9,47.9a6.855,6.855,0,0,1-6.2-.011c-1.718-.992-1.727-2.6-.019-3.582a6.855,6.855,0,0,1,6.2.011c1.718.992,1.727,2.6.019,3.582" transform="translate(-4.128 -15.778)" fill="#f4f3fd"/><path d="M12.962,44.328c-1.618.934-1.61,2.454.018,3.394a6.5,6.5,0,0,0,5.879.011c1.618-.934,1.61-2.454-.018-3.394a6.5,6.5,0,0,0-5.879-.011" transform="translate(-4.256 -15.8)" fill="#eae9fb"/><path d="M125.966,56.766c-1.421.82-1.413,2.154.016,2.979a5.7,5.7,0,0,0,5.161.01c1.421-.82,1.413-2.154-.017-2.979a5.7,5.7,0,0,0-5.16-.01" transform="translate(-45.233 -20.336)" fill="#b6b3c8"/><path d="M124.655,58.6,123.9,55.99l8.675-.289-.8,2.782Z" transform="translate(-44.87 -20.172)" fill="#b6b3c8"/><path d="M125.024,52.252c-1.708.986-1.7,2.59.02,3.582a6.856,6.856,0,0,0,6.2.011c1.708-.986,1.7-2.59-.019-3.582a6.855,6.855,0,0,0-6.2-.011" transform="translate(-44.815 -18.656)" fill="#f4f3fd"/><path d="M125.317,52.093c-1.618.934-1.61,2.454.019,3.394a6.5,6.5,0,0,0,5.879.011c1.618-.934,1.61-2.454-.018-3.394a6.5,6.5,0,0,0-5.879-.011" transform="translate(-44.945 -18.612)" fill="#eae9fb"/><path d="M131.039,53a4.968,4.968,0,0,0-4.495.008c-1.245.719-1.251,1.88-.014,2.595a4.968,4.968,0,0,0,4.5-.008c1.245-.719,1.251-1.88.014-2.595" transform="translate(-45.487 -19.002)" fill="#c5c8d4"/><path d="M131.249,52.787V54.46a.613.613,0,0,1-.361.5,1.913,1.913,0,0,1-1.729,0,.6.6,0,0,1-.355-.5V52.8Z" transform="translate(-46.645 -19.116)" fill="#a3b0b8"/><path d="M129.159,52.9a1.91,1.91,0,0,0,1.729,0,.527.527,0,0,0,.005-1,1.91,1.91,0,0,0-1.729,0,.527.527,0,0,0-.005,1" transform="translate(-46.645 -18.721)" fill="#73727d"/><path d="M112.484,36.4l3.083.308s3.888,2.706,5.243,3.984,3.661,5.8,3.661,5.8l-.9.513S111.66,37.1,112.484,36.4" transform="translate(-40.72 -13.184)" fill="#bfd5e3"/><path d="M151.89,51.582l-2.035,1.382s-6.03.584-8.633.621-10.544-1.077-10.544-1.077l-.309-.705s20.9-.98,21.52-.22" transform="translate(-47.212 -18.575)" fill="#d1e1eb"/><path d="M115.161,63.706l-1.122-1.684a44.12,44.12,0,0,1,3.221-4.673c1.2-1.338,6.728-4.843,6.728-4.843l1.223.176s-8.593,11.066-10.05,11.023" transform="translate(-41.298 -19.015)" fill="#abbfcc"/><path d="M129.165,50.683a1.348,1.348,0,0,1,1.729,0,1,1,0,0,1,.355.75V51.6a.612.612,0,0,1-.36.5,1.912,1.912,0,0,1-1.729,0,.6.6,0,0,1-.355-.5v-.17a1.008,1.008,0,0,1,.36-.76" transform="translate(-46.645 -18.24)" fill="#a3b0b8"/><path d="M63.55,16.6a4.968,4.968,0,0,1,4.495.008c1.245.719,1.251,1.88.014,2.595a4.968,4.968,0,0,1-4.495-.008c-1.245-.719-1.251-1.88-.014-2.595" transform="translate(-22.68 -5.818)" fill="#c5c8d4"/><path d="M65.562,16.382v1.673a.613.613,0,0,0,.361.5,1.913,1.913,0,0,0,1.729,0,.6.6,0,0,0,.355-.5V16.4Z" transform="translate(-23.743 -5.933)" fill="#a3b0b8"/><path d="M67.652,16.5a1.91,1.91,0,0,1-1.729,0,.527.527,0,0,1-.005-1,1.91,1.91,0,0,1,1.729,0,.527.527,0,0,1,.005,1" transform="translate(-23.743 -5.537)" fill="#73727d"/><path d="M78.887,0,75.8.308s-3.888,2.706-5.243,3.984-3.66,5.8-3.66,5.8l.9.513S79.711.7,78.887,0" transform="translate(-24.228)" fill="#bfd5e3"/><path d="M34.092,15.177l2.035,1.382s6.03.585,8.633.621S55.3,16.1,55.3,16.1l.308-.705s-20.9-.98-21.519-.22" transform="translate(-12.346 -5.392)" fill="#d1e1eb"/><path d="M76.7,27.3l1.122-1.684A44.176,44.176,0,0,0,74.6,20.943c-1.2-1.337-6.728-4.842-6.728-4.842l-1.223.176S75.238,27.343,76.7,27.3" transform="translate(-24.135 -5.831)" fill="#abbfcc"/><path d="M67.647,14.277a1.348,1.348,0,0,0-1.729,0,1,1,0,0,0-.355.749V15.2a.613.613,0,0,0,.361.5,1.911,1.911,0,0,0,1.729,0,.6.6,0,0,0,.355-.5v-.17a1.013,1.013,0,0,0-.361-.76" transform="translate(-23.743 -5.056)" fill="#a3b0b8"/><path d="M18.6,45.058a4.968,4.968,0,0,0-4.495.008c-1.245.719-1.251,1.88-.014,2.595a4.97,4.97,0,0,0,4.495-.008c1.245-.72,1.251-1.881.014-2.6" transform="translate(-4.767 -16.124)" fill="#c5c8d4"/><path d="M18.806,44.841v1.673a.613.613,0,0,1-.361.5,1.911,1.911,0,0,1-1.729,0,.6.6,0,0,1-.355-.5V44.856Z" transform="translate(-5.925 -16.239)" fill="#a3b0b8"/><path d="M16.716,44.957a1.91,1.91,0,0,0,1.729,0,.527.527,0,0,0,.005-1,1.91,1.91,0,0,0-1.729,0,.527.527,0,0,0-.005,1" transform="translate(-5.925 -15.844)" fill="#73727d"/><path d="M.041,28.459l3.083.308s3.888,2.706,5.243,3.984,3.66,5.8,3.66,5.8l-.9.513S-.783,29.157.041,28.459" transform="translate(0 -10.306)" fill="#bfd5e3"/><path d="M39.446,43.636l-2.035,1.382s-6.03.584-8.632.621-10.544-1.077-10.544-1.077l-.309-.705s20.9-.98,21.519-.22" transform="translate(-6.492 -15.698)" fill="#d1e1eb"/><path d="M2.718,55.76,1.6,54.076A44.176,44.176,0,0,1,4.817,49.4c1.2-1.337,6.728-4.842,6.728-4.842l1.223.176S4.175,55.8,2.718,55.76" transform="translate(-0.578 -16.137)" fill="#abbfcc"/><path d="M16.721,42.737a1.348,1.348,0,0,1,1.729,0,1,1,0,0,1,.355.749v.177a.613.613,0,0,1-.361.5,1.911,1.911,0,0,1-1.729,0,.605.605,0,0,1-.356-.5V43.5a1.013,1.013,0,0,1,.361-.76" transform="translate(-5.925 -15.362)" fill="#a3b0b8"/><path d="M77.5,81.463A4.968,4.968,0,0,1,82,81.471c1.245.719,1.251,1.88.014,2.595a4.968,4.968,0,0,1-4.495-.008c-1.245-.719-1.251-1.88-.014-2.595" transform="translate(-27.733 -29.308)" fill="#c5c8d4"/><path d="M79.515,81.246v1.673a.613.613,0,0,0,.361.5,1.913,1.913,0,0,0,1.729,0,.6.6,0,0,0,.355-.5V81.261Z" transform="translate(-28.796 -29.423)" fill="#a3b0b8"/><path d="M81.605,81.362a1.91,1.91,0,0,1-1.729,0,.527.527,0,0,1-.005-1,1.91,1.91,0,0,1,1.729,0,.527.527,0,0,1,.005,1" transform="translate(-28.796 -29.028)" fill="#73727d"/><path d="M92.84,64.864l-3.083.308s-3.888,2.706-5.243,3.984-3.66,5.8-3.66,5.8l.9.513S93.665,65.562,92.84,64.864" transform="translate(-29.281 -23.49)" fill="#bfd5e3"/><path d="M48.045,80.041l2.035,1.382s6.03.584,8.632.621,10.544-1.077,10.544-1.077l.308-.705s-20.9-.98-21.519-.22" transform="translate(-17.399 -28.882)" fill="#d1e1eb"/><path d="M90.648,92.165l1.122-1.684a44.175,44.175,0,0,0-3.221-4.674c-1.2-1.337-6.728-4.843-6.728-4.843l-1.223.177s8.593,11.066,10.05,11.023" transform="translate(-29.188 -29.321)" fill="#abbfcc"/><path d="M81.6,79.142a1.348,1.348,0,0,0-1.729,0,1,1,0,0,0-.355.749v.177a.613.613,0,0,0,.361.5,1.911,1.911,0,0,0,1.729,0,.605.605,0,0,0,.356-.5V79.9a1.013,1.013,0,0,0-.361-.76" transform="translate(-28.796 -28.546)" fill="#a3b0b8"/></g></g></g></g></svg>