<svg xmlns="http://www.w3.org/2000/svg" xmlns:xlink="http://www.w3.org/1999/xlink" width="90.067" height="106.616" viewBox="0 0 90.067 106.616"><defs><filter id="a" x="0" y="16.549" width="90.067" height="90.067" filterUnits="userSpaceOnUse"><feOffset dy="3" input="SourceAlpha"/><feGaussianBlur stdDeviation="3" result="b"/><feFlood flood-opacity="0.412"/><feComposite operator="in" in2="b"/></filter><filter id="c" x="0" y="16.549" width="90.067" height="90.067" filterUnits="userSpaceOnUse"><feOffset dy="3" input="SourceAlpha"/><feGaussianBlur stdDeviation="3" result="d"/><feFlood flood-opacity="0.161" result="e"/><feComposite operator="out" in="SourceGraphic" in2="d"/><feComposite operator="in" in="e"/><feComposite operator="in" in2="SourceGraphic"/></filter><clipPath id="f"><rect width="65.309" height="94.616" fill="none"/></clipPath><clipPath id="h"><rect width="65.309" height="37.73" fill="none"/></clipPath><clipPath id="i"><path d="M29.968,72.4,9.456,84.322a.358.358,0,0,1,.361.035,1.112,1.112,0,0,1,.5.874.353.353,0,0,1-.147.325l20.512-11.92a.353.353,0,0,0,.148-.325,1.111,1.111,0,0,0-.505-.875.464.464,0,0,0-.227-.07.256.256,0,0,0-.133.034" transform="translate(-9.456 -72.367)" fill="none"/></clipPath><linearGradient id="j" x1="-0.202" y1="2.079" x2="-0.173" y2="2.079" gradientUnits="objectBoundingBox"><stop offset="0" stop-color="#e09d28"/><stop offset="0.413" stop-color="#e09d28"/><stop offset="0.419" stop-color="#e09d28"/><stop offset="0.611" stop-color="#f4ae33"/><stop offset="0.74" stop-color="#fcb538"/><stop offset="0.982" stop-color="#f4a923"/><stop offset="1" stop-color="#f4a923"/></linearGradient><clipPath id="l"><path d="M47.27,44.294,24.726,57.373a.356.356,0,0,1,.36.035,1.113,1.113,0,0,1,.505.874.353.353,0,0,1-.148.325L47.988,45.53a.354.354,0,0,0,.147-.325,1.113,1.113,0,0,0-.5-.875.466.466,0,0,0-.228-.07.259.259,0,0,0-.133.034" transform="translate(-24.726 -44.26)" fill="none"/></clipPath><linearGradient id="m" x1="-0.587" y1="2.776" x2="-0.56" y2="2.776" xlink:href="#j"/><clipPath id="o"><path d="M47.27,21.594,24.726,34.673a.358.358,0,0,1,.36.035,1.113,1.113,0,0,1,.505.875.354.354,0,0,1-.148.325L47.988,22.829a.353.353,0,0,0,.147-.325,1.112,1.112,0,0,0-.5-.874.462.462,0,0,0-.227-.07.262.262,0,0,0-.133.034" transform="translate(-24.726 -21.56)" fill="none"/></clipPath><linearGradient id="p" x1="-0.587" y1="3.466" x2="-0.56" y2="3.466" xlink:href="#j"/><clipPath id="r"><rect width="3.406" height="35.615" fill="none"/></clipPath><clipPath id="s"><rect width="21.737" height="12.55" fill="none"/></clipPath><clipPath id="u"><rect width="24.606" height="14.206" fill="none"/></clipPath></defs><g transform="translate(11408.954 12109.08)"><g data-type="innerShadowGroup"><g transform="matrix(1, 0, 0, 1, -11408.95, -12109.08)" filter="url(#a)"><g transform="translate(9 22.55)" fill="#a8aeb5"><path d="M 36.03353118896484 70.56706237792969 C 31.37087631225586 70.56706237792969 26.84848594665527 69.65420532226562 22.59198760986328 67.85386657714844 C 18.47993087768555 66.11460876464844 14.78662014007568 63.62440872192383 11.61464214324951 60.45241928100586 C 8.442653656005859 57.28044128417969 5.95245361328125 53.58713150024414 4.213197708129883 49.47507476806641 C 2.412853479385376 45.21857452392578 1.499997854232788 40.69618606567383 1.499997854232788 36.03353118896484 C 1.499997854232788 31.37087631225586 2.412853479385376 26.84848594665527 4.213197708129883 22.59198760986328 C 5.95245361328125 18.47993087768555 8.442653656005859 14.78662014007568 11.61464214324951 11.61464214324951 C 14.78662014007568 8.442653656005859 18.47993087768555 5.95245361328125 22.59198760986328 4.213197708129883 C 26.84848594665527 2.412853479385376 31.37087631225586 1.499997854232788 36.03353118896484 1.499997854232788 C 40.69618606567383 1.499997854232788 45.21857452392578 2.412853479385376 49.47507476806641 4.213197708129883 C 53.58713150024414 5.95245361328125 57.28044128417969 8.442653656005859 60.45241928100586 11.61464214324951 C 63.62440872192383 14.78662014007568 66.11460876464844 18.47993087768555 67.85386657714844 22.59198760986328 C 69.65420532226562 26.84848594665527 70.56706237792969 31.37087631225586 70.56706237792969 36.03353118896484 C 70.56706237792969 40.69618606567383 69.65420532226562 45.21857452392578 67.85386657714844 49.47507476806641 C 66.11460876464844 53.58713150024414 63.62440872192383 57.28044128417969 60.45241928100586 60.45241928100586 C 57.28044128417969 63.62440872192383 53.58713150024414 66.11460876464844 49.47507476806641 67.85386657714844 C 45.21857452392578 69.65420532226562 40.69618606567383 70.56706237792969 36.03353118896484 70.56706237792969 Z" stroke="none"/><path d="M 36.03353118896484 3 C 31.57270812988281 3 27.24691772460938 3.872993469238281 23.17630767822266 5.594711303710938 C 19.24306106567383 7.258331298828125 15.71000289916992 9.640590667724609 12.67529678344727 12.67529678344727 C 9.640590667724609 15.71000289916992 7.258331298828125 19.24306106567383 5.594711303710938 23.17630767822266 C 3.872993469238281 27.24691772460938 3 31.57270812988281 3 36.03353118896484 C 3 40.49435424804688 3.872993469238281 44.82014465332031 5.594711303710938 48.89075469970703 C 7.258331298828125 52.82400131225586 9.640590667724609 56.35704803466797 12.67529678344727 59.39176559448242 C 15.71000289916992 62.42647171020508 19.24306106567383 64.80873107910156 23.17630767822266 66.47235107421875 C 27.24691772460938 68.19406890869141 31.57270812988281 69.06706237792969 36.03353118896484 69.06706237792969 C 40.49435424804688 69.06706237792969 44.82014465332031 68.19406890869141 48.89075469970703 66.47235107421875 C 52.82400131225586 64.80873107910156 56.35704803466797 62.42647171020508 59.39176559448242 59.39176559448242 C 62.42647171020508 56.35704803466797 64.80873107910156 52.82400131225586 66.47235107421875 48.89075469970703 C 68.19406890869141 44.82014465332031 69.06706237792969 40.49435424804688 69.06706237792969 36.03353118896484 C 69.06706237792969 31.57270812988281 68.19406890869141 27.24691772460938 66.47235107421875 23.17630767822266 C 64.80873107910156 19.24306106567383 62.42647171020508 15.71000289916992 59.39176559448242 12.67529678344727 C 56.35704803466797 9.640590667724609 52.82400131225586 7.258331298828125 48.89075469970703 5.594711303710938 C 44.82014465332031 3.872993469238281 40.49435424804688 3 36.03353118896484 3 M 36.03353118896484 0 C 55.93429565429688 0 72.06706237792969 16.13275527954102 72.06706237792969 36.03353118896484 C 72.06706237792969 55.93429565429688 55.93429565429688 72.06706237792969 36.03353118896484 72.06706237792969 C 16.13275527954102 72.06706237792969 0 55.93429565429688 0 36.03353118896484 C 0 16.13275527954102 16.13275527954102 0 36.03353118896484 0 Z" stroke="none" fill="#fff"/></g></g><g transform="translate(-11399.954 -12086.53)" fill="#a8aeb5"><path d="M 36.03353118896484 70.56706237792969 C 31.37087631225586 70.56706237792969 26.84848594665527 69.65420532226562 22.59198760986328 67.85386657714844 C 18.47993087768555 66.11460876464844 14.78662014007568 63.62440872192383 11.61464214324951 60.45241928100586 C 8.442653656005859 57.28044128417969 5.95245361328125 53.58713150024414 4.213197708129883 49.47507476806641 C 2.412853479385376 45.21857452392578 1.499997854232788 40.69618606567383 1.499997854232788 36.03353118896484 C 1.499997854232788 31.37087631225586 2.412853479385376 26.84848594665527 4.213197708129883 22.59198760986328 C 5.95245361328125 18.47993087768555 8.442653656005859 14.78662014007568 11.61464214324951 11.61464214324951 C 14.78662014007568 8.442653656005859 18.47993087768555 5.95245361328125 22.59198760986328 4.213197708129883 C 26.84848594665527 2.412853479385376 31.37087631225586 1.499997854232788 36.03353118896484 1.499997854232788 C 40.69618606567383 1.499997854232788 45.21857452392578 2.412853479385376 49.47507476806641 4.213197708129883 C 53.58713150024414 5.95245361328125 57.28044128417969 8.442653656005859 60.45241928100586 11.61464214324951 C 63.62440872192383 14.78662014007568 66.11460876464844 18.47993087768555 67.85386657714844 22.59198760986328 C 69.65420532226562 26.84848594665527 70.56706237792969 31.37087631225586 70.56706237792969 36.03353118896484 C 70.56706237792969 40.69618606567383 69.65420532226562 45.21857452392578 67.85386657714844 49.47507476806641 C 66.11460876464844 53.58713150024414 63.62440872192383 57.28044128417969 60.45241928100586 60.45241928100586 C 57.28044128417969 63.62440872192383 53.58713150024414 66.11460876464844 49.47507476806641 67.85386657714844 C 45.21857452392578 69.65420532226562 40.69618606567383 70.56706237792969 36.03353118896484 70.56706237792969 Z" stroke="none"/><path d="M 36.03353118896484 3 C 31.57270812988281 3 27.24691772460938 3.872993469238281 23.17630767822266 5.594711303710938 C 19.24306106567383 7.258331298828125 15.71000289916992 9.640590667724609 12.67529678344727 12.67529678344727 C 9.640590667724609 15.71000289916992 7.258331298828125 19.24306106567383 5.594711303710938 23.17630767822266 C 3.872993469238281 27.24691772460938 3 31.57270812988281 3 36.03353118896484 C 3 40.49435424804688 3.872993469238281 44.82014465332031 5.594711303710938 48.89075469970703 C 7.258331298828125 52.82400131225586 9.640590667724609 56.35704803466797 12.67529678344727 59.39176559448242 C 15.71000289916992 62.42647171020508 19.24306106567383 64.80873107910156 23.17630767822266 66.47235107421875 C 27.24691772460938 68.19406890869141 31.57270812988281 69.06706237792969 36.03353118896484 69.06706237792969 C 40.49435424804688 69.06706237792969 44.82014465332031 68.19406890869141 48.89075469970703 66.47235107421875 C 52.82400131225586 64.80873107910156 56.35704803466797 62.42647171020508 59.39176559448242 59.39176559448242 C 62.42647171020508 56.35704803466797 64.80873107910156 52.82400131225586 66.47235107421875 48.89075469970703 C 68.19406890869141 44.82014465332031 69.06706237792969 40.49435424804688 69.06706237792969 36.03353118896484 C 69.06706237792969 31.57270812988281 68.19406890869141 27.24691772460938 66.47235107421875 23.17630767822266 C 64.80873107910156 19.24306106567383 62.42647171020508 15.71000289916992 59.39176559448242 12.67529678344727 C 56.35704803466797 9.640590667724609 52.82400131225586 7.258331298828125 48.89075469970703 5.594711303710938 C 44.82014465332031 3.872993469238281 40.49435424804688 3 36.03353118896484 3 M 36.03353118896484 0 C 55.93429565429688 0 72.06706237792969 16.13275527954102 72.06706237792969 36.03353118896484 C 72.06706237792969 55.93429565429688 55.93429565429688 72.06706237792969 36.03353118896484 72.06706237792969 C 16.13275527954102 72.06706237792969 0 55.93429565429688 0 36.03353118896484 C 0 16.13275527954102 16.13275527954102 0 36.03353118896484 0 Z" stroke="none"/></g><g transform="matrix(1, 0, 0, 1, -11408.95, -12109.08)" filter="url(#c)"><g transform="translate(9 22.55)" fill="#fff"><path d="M 36.03353118896484 70.56706237792969 C 31.37087631225586 70.56706237792969 26.84848594665527 69.65420532226562 22.59198760986328 67.85386657714844 C 18.47993087768555 66.11460876464844 14.78662014007568 63.62440872192383 11.61464214324951 60.45241928100586 C 8.442653656005859 57.28044128417969 5.95245361328125 53.58713150024414 4.213197708129883 49.47507476806641 C 2.412853479385376 45.21857452392578 1.499997854232788 40.69618606567383 1.499997854232788 36.03353118896484 C 1.499997854232788 31.37087631225586 2.412853479385376 26.84848594665527 4.213197708129883 22.59198760986328 C 5.95245361328125 18.47993087768555 8.442653656005859 14.78662014007568 11.61464214324951 11.61464214324951 C 14.78662014007568 8.442653656005859 18.47993087768555 5.95245361328125 22.59198760986328 4.213197708129883 C 26.84848594665527 2.412853479385376 31.37087631225586 1.499997854232788 36.03353118896484 1.499997854232788 C 40.69618606567383 1.499997854232788 45.21857452392578 2.412853479385376 49.47507476806641 4.213197708129883 C 53.58713150024414 5.95245361328125 57.28044128417969 8.442653656005859 60.45241928100586 11.61464214324951 C 63.62440872192383 14.78662014007568 66.11460876464844 18.47993087768555 67.85386657714844 22.59198760986328 C 69.65420532226562 26.84848594665527 70.56706237792969 31.37087631225586 70.56706237792969 36.03353118896484 C 70.56706237792969 40.69618606567383 69.65420532226562 45.21857452392578 67.85386657714844 49.47507476806641 C 66.11460876464844 53.58713150024414 63.62440872192383 57.28044128417969 60.45241928100586 60.45241928100586 C 57.28044128417969 63.62440872192383 53.58713150024414 66.11460876464844 49.47507476806641 67.85386657714844 C 45.21857452392578 69.65420532226562 40.69618606567383 70.56706237792969 36.03353118896484 70.56706237792969 Z" stroke="none"/><path d="M 36.03353118896484 3 C 31.57270812988281 3 27.24691772460938 3.872993469238281 23.17630767822266 5.594711303710938 C 19.24306106567383 7.258331298828125 15.71000289916992 9.640590667724609 12.67529678344727 12.67529678344727 C 9.640590667724609 15.71000289916992 7.258331298828125 19.24306106567383 5.594711303710938 23.17630767822266 C 3.872993469238281 27.24691772460938 3 31.57270812988281 3 36.03353118896484 C 3 40.49435424804688 3.872993469238281 44.82014465332031 5.594711303710938 48.89075469970703 C 7.258331298828125 52.82400131225586 9.640590667724609 56.35704803466797 12.67529678344727 59.39176559448242 C 15.71000289916992 62.42647171020508 19.24306106567383 64.80873107910156 23.17630767822266 66.47235107421875 C 27.24691772460938 68.19406890869141 31.57270812988281 69.06706237792969 36.03353118896484 69.06706237792969 C 40.49435424804688 69.06706237792969 44.82014465332031 68.19406890869141 48.89075469970703 66.47235107421875 C 52.82400131225586 64.80873107910156 56.35704803466797 62.42647171020508 59.39176559448242 59.39176559448242 C 62.42647171020508 56.35704803466797 64.80873107910156 52.82400131225586 66.47235107421875 48.89075469970703 C 68.19406890869141 44.82014465332031 69.06706237792969 40.49435424804688 69.06706237792969 36.03353118896484 C 69.06706237792969 31.57270812988281 68.19406890869141 27.24691772460938 66.47235107421875 23.17630767822266 C 64.80873107910156 19.24306106567383 62.42647171020508 15.71000289916992 59.39176559448242 12.67529678344727 C 56.35704803466797 9.640590667724609 52.82400131225586 7.258331298828125 48.89075469970703 5.594711303710938 C 44.82014465332031 3.872993469238281 40.49435424804688 3 36.03353118896484 3 M 36.03353118896484 0 C 55.93429565429688 0 72.06706237792969 16.13275527954102 72.06706237792969 36.03353118896484 C 72.06706237792969 55.93429565429688 55.93429565429688 72.06706237792969 36.03353118896484 72.06706237792969 C 16.13275527954102 72.06706237792969 0 55.93429565429688 0 36.03353118896484 C 0 16.13275527954102 16.13275527954102 0 36.03353118896484 0 Z" stroke="none"/></g></g><g transform="translate(-11399.954 -12086.53)" fill="none"><path d="M 36.03353118896484 70.56706237792969 C 31.37087631225586 70.56706237792969 26.84848594665527 69.65420532226562 22.59198760986328 67.85386657714844 C 18.47993087768555 66.11460876464844 14.78662014007568 63.62440872192383 11.61464214324951 60.45241928100586 C 8.442653656005859 57.28044128417969 5.95245361328125 53.58713150024414 4.213197708129883 49.47507476806641 C 2.412853479385376 45.21857452392578 1.499997854232788 40.69618606567383 1.499997854232788 36.03353118896484 C 1.499997854232788 31.37087631225586 2.412853479385376 26.84848594665527 4.213197708129883 22.59198760986328 C 5.95245361328125 18.47993087768555 8.442653656005859 14.78662014007568 11.61464214324951 11.61464214324951 C 14.78662014007568 8.442653656005859 18.47993087768555 5.95245361328125 22.59198760986328 4.213197708129883 C 26.84848594665527 2.412853479385376 31.37087631225586 1.499997854232788 36.03353118896484 1.499997854232788 C 40.69618606567383 1.499997854232788 45.21857452392578 2.412853479385376 49.47507476806641 4.213197708129883 C 53.58713150024414 5.95245361328125 57.28044128417969 8.442653656005859 60.45241928100586 11.61464214324951 C 63.62440872192383 14.78662014007568 66.11460876464844 18.47993087768555 67.85386657714844 22.59198760986328 C 69.65420532226562 26.84848594665527 70.56706237792969 31.37087631225586 70.56706237792969 36.03353118896484 C 70.56706237792969 40.69618606567383 69.65420532226562 45.21857452392578 67.85386657714844 49.47507476806641 C 66.11460876464844 53.58713150024414 63.62440872192383 57.28044128417969 60.45241928100586 60.45241928100586 C 57.28044128417969 63.62440872192383 53.58713150024414 66.11460876464844 49.47507476806641 67.85386657714844 C 45.21857452392578 69.65420532226562 40.69618606567383 70.56706237792969 36.03353118896484 70.56706237792969 Z" stroke="none"/><path d="M 36.03353118896484 3 C 31.57270812988281 3 27.24691772460938 3.872993469238281 23.17630767822266 5.594711303710938 C 19.24306106567383 7.258331298828125 15.71000289916992 9.640590667724609 12.67529678344727 12.67529678344727 C 9.640590667724609 15.71000289916992 7.258331298828125 19.24306106567383 5.594711303710938 23.17630767822266 C 3.872993469238281 27.24691772460938 3 31.57270812988281 3 36.03353118896484 C 3 40.49435424804688 3.872993469238281 44.82014465332031 5.594711303710938 48.89075469970703 C 7.258331298828125 52.82400131225586 9.640590667724609 56.35704803466797 12.67529678344727 59.39176559448242 C 15.71000289916992 62.42647171020508 19.24306106567383 64.80873107910156 23.17630767822266 66.47235107421875 C 27.24691772460938 68.19406890869141 31.57270812988281 69.06706237792969 36.03353118896484 69.06706237792969 C 40.49435424804688 69.06706237792969 44.82014465332031 68.19406890869141 48.89075469970703 66.47235107421875 C 52.82400131225586 64.80873107910156 56.35704803466797 62.42647171020508 59.39176559448242 59.39176559448242 C 62.42647171020508 56.35704803466797 64.80873107910156 52.82400131225586 66.47235107421875 48.89075469970703 C 68.19406890869141 44.82014465332031 69.06706237792969 40.49435424804688 69.06706237792969 36.03353118896484 C 69.06706237792969 31.57270812988281 68.19406890869141 27.24691772460938 66.47235107421875 23.17630767822266 C 64.80873107910156 19.24306106567383 62.42647171020508 15.71000289916992 59.39176559448242 12.67529678344727 C 56.35704803466797 9.640590667724609 52.82400131225586 7.258331298828125 48.89075469970703 5.594711303710938 C 44.82014465332031 3.872993469238281 40.49435424804688 3 36.03353118896484 3 M 36.03353118896484 0 C 55.93429565429688 0 72.06706237792969 16.13275527954102 72.06706237792969 36.03353118896484 C 72.06706237792969 55.93429565429688 55.93429565429688 72.06706237792969 36.03353118896484 72.06706237792969 C 16.13275527954102 72.06706237792969 0 55.93429565429688 0 36.03353118896484 C 0 16.13275527954102 16.13275527954102 0 36.03353118896484 0 Z" stroke="none" fill="#fff"/></g></g><g transform="translate(-11399.954 -12109.079)"><g clip-path="url(#f)"><g clip-path="url(#f)"><g transform="translate(0 56.886)" style="mix-blend-mode:multiply;isolation:isolate"><g clip-path="url(#h)"><path d="M0,91.329l41.561,24.006,23.748-13.719L23.726,77.605Z" transform="translate(0 -77.605)" fill="#bdbdbd"/></g></g><path d="M39.531,115.982a2.433,2.433,0,0,1-1.208-.356L36.031,114.3a4.953,4.953,0,0,1-2.195-3.213l-.882-4.581,1.355-.261.882,4.581a3.605,3.605,0,0,0,1.53,2.279l2.293,1.324a.806.806,0,0,0,.648.147.441.441,0,0,0,.2-.312l.882-3.563,1.34.331L41.2,114.6a1.76,1.76,0,0,1-1,1.251,1.71,1.71,0,0,1-.67.133" transform="translate(-8.798 -28.365)" fill="#dd9a36"/><path d="M24.284,102.514l10.025,5.79,13.735,7.223,23.748-13.719v-.722l-47.508-.006Z" transform="translate(-6.483 -26.986)" fill="#dd9a36"/><path d="M43.335,75.622l-1.579.918a3.568,3.568,0,0,0,1.506-3.211,11.349,11.349,0,0,0-5.06-8.972,3.7,3.7,0,0,0-3.768-.413l1.579-.918a3.7,3.7,0,0,1,3.768.413,11.347,11.347,0,0,1,5.06,8.972,3.571,3.571,0,0,1-1.506,3.211" transform="translate(-9.193 -16.733)" fill="#484660"/><path d="M35.789,70.9c.026-1.427,1.063-1.977,2.316-1.229a4.983,4.983,0,0,1,2.222,3.939c-.026,1.427-1.063,1.977-2.316,1.229A4.983,4.983,0,0,1,35.789,70.9" transform="translate(-9.555 -18.51)" fill="#dd9a36"/><path d="M37.328,72.1c.013-.717.534-.993,1.163-.617a2.5,2.5,0,0,1,1.116,1.979c-.012.718-.534.994-1.163.618a2.5,2.5,0,0,1-1.116-1.98" transform="translate(-9.966 -19.039)" fill="#3b3f40"/><path d="M35.2,70.836c.028-1.546,1.139-2.152,2.492-1.372l.213.123c-1.235-.713-2.25-.159-2.275,1.253a4.981,4.981,0,0,0,2.222,3.939c1.253.748,2.289.2,2.316-1.229v-.073c0,.082,0,.164,0,.246,0,.026,0,.053,0,.079-.028,1.563-1.163,2.165-2.536,1.345A5.455,5.455,0,0,1,35.2,70.836" transform="translate(-9.398 -18.454)" fill="#ffe25b"/><path d="M45.729,71.94c0,.121-.006.283-.02.4-.026.227-.061.532-.111.756a5.011,5.011,0,0,1-.136.493,5.093,5.093,0,0,1-.227.551,4.541,4.541,0,0,1-.287.484,3.4,3.4,0,0,1-.278.346,2.967,2.967,0,0,1-.289.279c-.059.048-.137.113-.2.157-.079.056-.188.128-.272.177a3.568,3.568,0,0,0,1.506-3.211A11.344,11.344,0,0,0,40.357,63.4a3.7,3.7,0,0,0-3.768-.413c.067-.035.155-.089.225-.119a5.038,5.038,0,0,1,.475-.183,4.541,4.541,0,0,1,.453-.1c.081-.015.189-.023.27-.031s.211-.01.3-.01.21,0,.3.014c.168.019.391.052.558.084.1.019.235.059.335.085a4,4,0,0,1,.526.185c.111.049.259.111.367.166.15.075.35.179.493.268.117.073.273.169.386.248.136.093.312.222.441.323a9.7,9.7,0,0,1,.734.644,10.491,10.491,0,0,1,.716.776c.319.38.55.715.638.841.108.155.324.479.558.894.078.137.177.322.248.462s.162.328.226.472c.081.181.231.52.383.965.048.142.11.334.152.479s.1.351.132.5a8.849,8.849,0,0,1,.174.992c.015.135.032.315.039.451.008.162.016.379.011.541" transform="translate(-9.768 -16.699)" fill="#403e59"/><path d="M37.05,75.765c1.713,1.023,3.131.271,3.166-1.68,0-.033,0-.066,0-.1A6.841,6.841,0,0,0,37.179,68.7l-.056-.032c-1.688-.975-3.076-.218-3.111,1.712a6.813,6.813,0,0,0,3.038,5.386M34.885,70.6c.028-1.546,1.139-2.152,2.492-1.371l.065.039c.043.027.1.063.141.092.06.041.14.1.2.144.1.079.226.19.319.275.062.056.139.136.2.2s.125.133.174.194c.1.124.234.293.329.422,0,0,.15.207.3.471.043.073.1.171.136.245s.095.181.13.261c.065.147.147.345.205.5.031.079.065.187.089.268a4.77,4.77,0,0,1,.126.51c.015.094.037.219.046.314s.016.232.019.332c0,.026,0,.053,0,.079-.028,1.563-1.163,2.165-2.536,1.345A5.455,5.455,0,0,1,34.885,70.6" transform="translate(-9.08 -18.219)" fill="#3d3b55"/><path d="M32.388,69.109c.049-2.7,2.011-3.741,4.382-2.325a9.43,9.43,0,0,1,4.2,7.455c-.049,2.7-2.011,3.741-4.382,2.325a9.429,9.429,0,0,1-4.2-7.455m1.191.712a6.813,6.813,0,0,0,3.038,5.386c1.713,1.023,3.131.271,3.166-1.68a6.813,6.813,0,0,0-3.038-5.386c-1.713-1.023-3.131-.271-3.166,1.68" transform="translate(-8.646 -17.661)" fill="#3d3b55"/><path d="M31.9,68.529c.008.15.023.35.045.5.04.283.109.659.167.939.032.152.089.351.131.5s.1.339.153.484.117.336.177.477.134.334.2.472c.135.281.316.653.468.924.076.136.183.314.265.447s.2.3.284.434.213.3.3.422.221.284.32.4.237.279.345.394.259.279.378.39c.213.2.505.454.729.64.126.1.3.23.439.323.114.078.269.176.386.247.144.088.342.2.493.269a5.768,5.768,0,0,0,.559.24c.2.07.474.152.681.2a4.353,4.353,0,0,0,.568.085,3.839,3.839,0,0,0,.614,0,4.194,4.194,0,0,0,.548-.084A3.047,3.047,0,0,0,40.6,77.1c.147-.058.334-.153.474-.227a3.569,3.569,0,0,0,1.506-3.211,11.346,11.346,0,0,0-5.059-8.972,3.7,3.7,0,0,0-3.768-.413c-.1.062-.233.15-.33.219-.064.045-.141.116-.2.166a3.113,3.113,0,0,0-.295.3,3.321,3.321,0,0,0-.283.367,5.536,5.536,0,0,0-.288.505,5.015,5.015,0,0,0-.227.583,4.072,4.072,0,0,0-.107.405c-.049.227-.086.534-.113.764-.014.122-.014.284-.02.407,0,.162,0,.379.011.541m.353-.014c.049-2.7,2.011-3.741,4.382-2.325a9.429,9.429,0,0,1,4.2,7.455c-.049,2.7-2.011,3.741-4.382,2.325a9.429,9.429,0,0,1-4.2-7.455" transform="translate(-8.514 -17.067)" fill="#403e59"/><path d="M47.466,74.845l.475-.276L37.894,71.715l-.475.276Z" transform="translate(-9.99 -19.146)" fill="#ffe25b"/><path d="M54.155,82.083l.475-.276.012-4.44-.475.276Z" transform="translate(-14.458 -20.655)" fill="#847018"/><path d="M53.359,77.174l.475-.276L51.6,75.608l-.475.276Z" transform="translate(-13.649 -20.185)" fill="#ad931f"/><path d="M47.465,74.945,37.417,72.092l0,1.5,12.272,7.085.013-4.44Z" transform="translate(-9.988 -19.247)" fill="#dd9a36"/></g><g transform="translate(6.931 53.047)"><g clip-path="url(#i)"><rect width="25.109" height="22.112" transform="matrix(0.866, -0.5, 0.5, 0.866, -5.711, 3.297)" fill="url(#j)"/></g></g><g clip-path="url(#f)"><path d="M9.763,88.7c-.28-.161-.507-.032-.508.29a1.111,1.111,0,0,0,.5.874c.28.161.507.032.509-.29a1.114,1.114,0,0,0-.505-.874" transform="translate(-2.471 -23.662)" fill="#aa9025"/><path d="M19.438,91.061l.475-.276L9.866,87.931l-.475.276Z" transform="translate(-2.507 -23.475)" fill="#ffe25b"/><path d="M26.127,98.3l.475-.276.012-4.441-.475.276Z" transform="translate(-6.975 -24.984)" fill="#847018"/><path d="M25.331,93.39l.475-.276-2.234-1.289L23.1,92.1Z" transform="translate(-6.166 -24.515)" fill="#ffe25b"/><path d="M19.437,91.161,9.389,88.307l0,1.5,12.272,7.085.013-4.44Z" transform="translate(-2.506 -23.576)" fill="#dd9a36"/><path d="M11.443,94.069l-1.579.918a3.568,3.568,0,0,0,1.506-3.211A11.349,11.349,0,0,0,6.311,82.8a3.7,3.7,0,0,0-3.768-.413l1.579-.918a3.7,3.7,0,0,1,3.768.413,11.344,11.344,0,0,1,5.059,8.972,3.569,3.569,0,0,1-1.506,3.211" transform="translate(-0.679 -21.658)" fill="#484660"/><path d="M3.9,89.343c.026-1.427,1.063-1.977,2.316-1.229a4.983,4.983,0,0,1,2.222,3.939c-.026,1.427-1.063,1.977-2.316,1.229A4.983,4.983,0,0,1,3.9,89.343" transform="translate(-1.04 -23.435)" fill="#dd9a36"/><path d="M5.437,90.546c.013-.717.534-.993,1.163-.617a2.5,2.5,0,0,1,1.116,1.979c-.012.718-.534.994-1.163.618a2.5,2.5,0,0,1-1.116-1.98" transform="translate(-1.451 -23.964)" fill="#3d3b55"/><path d="M7.362,92.043c0,.611-.432.858-.965.55a2.125,2.125,0,0,1-.965-1.663c0-.611.432-.858.965-.55a2.126,2.126,0,0,1,.965,1.664" transform="translate(-1.45 -24.094)" fill="#9b99ab"/><path d="M7.09,92.158c0,.553-.391.776-.874.5a1.924,1.924,0,0,1-.873-1.506c0-.553.391-.776.873-.5a1.923,1.923,0,0,1,.874,1.506" transform="translate(-1.426 -24.169)" fill="#cac9e8"/><path d="M3.311,89.283C3.339,87.737,4.45,87.13,5.8,87.911l.214.123c-1.235-.712-2.25-.159-2.275,1.253a4.979,4.979,0,0,0,2.222,3.939c1.253.748,2.289.2,2.316-1.229v-.073c0,.082,0,.164,0,.246,0,.026,0,.053,0,.079-.028,1.563-1.163,2.165-2.536,1.345a5.455,5.455,0,0,1-2.432-4.313" transform="translate(-0.884 -23.379)" fill="#ffe25b"/><path d="M13.837,90.387c0,.121-.006.283-.02.4-.026.227-.061.532-.111.756a5.012,5.012,0,0,1-.136.493,5.094,5.094,0,0,1-.227.551,4.542,4.542,0,0,1-.287.484,3.4,3.4,0,0,1-.278.346,2.968,2.968,0,0,1-.289.279c-.059.048-.137.113-.2.157-.079.056-.188.128-.272.177a3.568,3.568,0,0,0,1.506-3.211,11.344,11.344,0,0,0-5.059-8.972A3.7,3.7,0,0,0,4.7,81.438c.067-.035.155-.089.225-.119.14-.06.329-.139.476-.183a4.491,4.491,0,0,1,.453-.1c.08-.015.188-.023.27-.031s.211-.01.3-.01.21,0,.3.014c.169.02.391.053.558.084.1.019.235.059.335.085a4,4,0,0,1,.526.185c.111.049.259.111.368.166.15.076.35.179.492.268.117.073.273.169.387.248.135.093.311.223.44.323a9.558,9.558,0,0,1,.734.644,10.332,10.332,0,0,1,.716.776c.319.38.551.715.638.841.108.156.323.479.558.894.077.137.176.322.247.462s.162.328.226.472c.081.182.231.52.383.965.048.142.11.334.152.479s.1.352.132.5a8.85,8.85,0,0,1,.174.992c.015.135.032.315.039.451.008.162.016.379.011.541" transform="translate(-1.254 -21.624)" fill="#403e59"/><path d="M5.158,94.212c1.713,1.023,3.131.271,3.166-1.68,0-.033,0-.066,0-.1a6.841,6.841,0,0,0-3.038-5.287l-.056-.032c-1.688-.975-3.076-.218-3.111,1.712a6.813,6.813,0,0,0,3.038,5.386M2.993,89.047c.028-1.546,1.139-2.152,2.491-1.371l.066.039c.043.027.1.063.141.092.06.041.14.1.2.144.1.079.226.19.319.275.062.056.139.136.2.2s.125.133.174.194c.1.124.234.293.33.422,0,0,.15.207.3.471.043.073.1.171.136.245s.095.181.13.261c.065.147.147.345.205.5.031.079.065.187.089.268a4.771,4.771,0,0,1,.126.51c.015.094.037.219.046.314s.016.232.019.332c0,.026,0,.053,0,.079C7.933,93.578,6.8,94.18,5.425,93.36a5.455,5.455,0,0,1-2.432-4.313" transform="translate(-0.566 -23.144)" fill="#383651"/><path d="M.5,87.556c.049-2.7,2.011-3.741,4.382-2.325a9.43,9.43,0,0,1,4.2,7.455c-.049,2.7-2.011,3.741-4.382,2.325A9.429,9.429,0,0,1,.5,87.556m1.191.712a6.813,6.813,0,0,0,3.038,5.386c1.713,1.023,3.131.271,3.166-1.68a6.813,6.813,0,0,0-3.038-5.386c-1.713-1.023-3.131-.271-3.166,1.68" transform="translate(-0.132 -22.585)" fill="#3d3b55"/><path d="M.011,86.976c.008.15.023.35.045.5.04.283.109.659.167.939.032.152.089.351.131.5s.1.339.153.483.117.337.177.477.134.334.2.473c.135.28.316.653.468.924.076.136.183.314.265.447s.2.3.284.434.213.3.3.422.221.284.32.4.237.279.345.394.259.279.378.39c.213.2.505.454.729.64.126.1.3.23.439.323.114.078.269.175.386.247.144.088.342.2.493.269a5.77,5.77,0,0,0,.559.24c.2.07.474.152.681.2a4.362,4.362,0,0,0,.567.085,3.847,3.847,0,0,0,.615,0,4.457,4.457,0,0,0,.548-.084,3.047,3.047,0,0,0,.444-.136c.147-.058.334-.153.474-.227a3.569,3.569,0,0,0,1.506-3.211,11.346,11.346,0,0,0-5.059-8.972,3.7,3.7,0,0,0-3.768-.413c-.1.062-.233.15-.33.219-.064.045-.141.116-.2.166a3.029,3.029,0,0,0-.295.3,3.322,3.322,0,0,0-.283.367,5.537,5.537,0,0,0-.288.505,5.017,5.017,0,0,0-.227.583,4.071,4.071,0,0,0-.107.405c-.049.227-.086.534-.113.764-.014.121-.014.284-.02.407,0,.162,0,.379.011.541m.353-.014c.049-2.7,2.011-3.741,4.382-2.325a9.429,9.429,0,0,1,4.2,7.455c-.049,2.7-2.011,3.741-4.382,2.325a9.43,9.43,0,0,1-4.2-7.455" transform="translate(0 -21.992)" fill="#403e59"/><path d="M24.284,96.083l23.76,13.724L71.792,96.089,48.01,82.36Z" transform="translate(-6.483 -21.988)" fill="#ffe25b"/><path d="M26.127,91.747V81.2L47.169,69.038,26.822,92.148Z" transform="translate(-6.975 -18.431)" fill="#dd6f36"/><path d="M27.075,92.294V81.743L48.117,69.586,48.1,80.131Z" transform="translate(-7.228 -18.578)" fill="#dd9a36"/><path d="M47.169,69.038l.695.4L26.822,81.6l-.695-.4Z" transform="translate(-6.975 -18.431)" fill="#ffe25b"/><path d="M38.314,0a.812.812,0,0,0-.4.117,2.008,2.008,0,0,0-.927,1.569.835.835,0,0,0,.1.432l.179.306a.953.953,0,0,1-.111-.493A2.3,2.3,0,0,1,38.211.136.935.935,0,0,1,38.669,0l-.354,0" transform="translate(-9.875 0)" fill="#403e59"/><path d="M39,.075a.728.728,0,0,0-.726.062,2.3,2.3,0,0,0-1.06,1.794.745.745,0,0,0,.3.692L43.95,6.362a.743.743,0,0,1-.3-.692,2.3,2.3,0,0,1,1.06-1.794.726.726,0,0,1,.725-.062Z" transform="translate(-9.934 -0.001)" fill="#484660"/><path d="M47.968,5.375c-.169-.291-.516-.361-.919-.136a2.294,2.294,0,0,0-1.06,1.794c-.006.478.228.759.572.762l.355,0c-.3,0-.507-.248-.5-.666a2.008,2.008,0,0,1,.927-1.57c.353-.2.656-.135.8.119l-.178-.306" transform="translate(-12.278 -1.363)" fill="#403e59"/><path d="M46.57,7.255c-.007.586.4.832.9.551A2.01,2.01,0,0,0,48.4,6.236c.007-.586-.4-.832-.9-.551a2.008,2.008,0,0,0-.927,1.569" transform="translate(-12.433 -1.487)" fill="#3d3b55"/><path d="M47.1,7.22c0,.338.229.48.52.318a1.159,1.159,0,0,0,.535-.907c0-.338-.229-.48-.52-.317a1.161,1.161,0,0,0-.535.906" transform="translate(-12.574 -1.668)" fill="#dd9a36"/><path d="M54.452,62.813H52.965V12.422A2.73,2.73,0,0,0,51.6,10.064l-4.321-2.5.743-1.288,4.322,2.494a4.223,4.223,0,0,1,2.105,3.647Z" transform="translate(-12.623 -1.677)" fill="#dd9a36"/></g><g transform="translate(18.125 32.444)"><g clip-path="url(#l)"><rect width="27.448" height="24.131" transform="translate(-6.213 3.587) rotate(-30)" fill="url(#m)"/></g></g><g clip-path="url(#f)"><path d="M25.032,62.172c-.28-.161-.507-.032-.508.29a1.111,1.111,0,0,0,.5.875c.28.161.508.032.509-.29a1.114,1.114,0,0,0-.505-.875" transform="translate(-6.547 -16.58)" fill="#aa9025"/></g><g transform="translate(18.125 15.804)"><g clip-path="url(#o)"><rect width="27.448" height="24.131" transform="translate(-6.213 3.587) rotate(-30)" fill="url(#p)"/></g></g><g clip-path="url(#f)"><path d="M25.032,39.472c-.28-.161-.507-.032-.508.29a1.111,1.111,0,0,0,.5.875c.28.161.508.032.509-.29a1.114,1.114,0,0,0-.505-.874" transform="translate(-6.547 -10.519)" fill="#aa9025"/><path d="M7.693,17.679a.812.812,0,0,0-.4.117,2.008,2.008,0,0,0-.927,1.569.835.835,0,0,0,.1.432l.179.306a.953.953,0,0,1-.111-.493,2.3,2.3,0,0,1,1.06-1.794.935.935,0,0,1,.457-.133l-.354,0" transform="translate(-1.7 -4.72)" fill="#403e59"/><path d="M8.376,17.754a.728.728,0,0,0-.726.062A2.3,2.3,0,0,0,6.59,19.61a.743.743,0,0,0,.3.692l6.435,3.739a.743.743,0,0,1-.3-.692,2.294,2.294,0,0,1,1.06-1.794.726.726,0,0,1,.725-.062Z" transform="translate(-1.759 -4.721)" fill="#484660"/><path d="M17.348,23.053c-.17-.29-.516-.361-.92-.136a2.3,2.3,0,0,0-1.06,1.794c-.005.478.229.759.572.762l.355,0c-.3,0-.506-.248-.5-.666a2,2,0,0,1,.927-1.569c.352-.2.655-.136.8.118l-.177-.306" transform="translate(-4.103 -6.083)" fill="#403e59"/><path d="M15.949,24.934c-.007.586.4.832.9.551a2.01,2.01,0,0,0,.927-1.569c.007-.586-.4-.832-.9-.551a2.008,2.008,0,0,0-.927,1.569" transform="translate(-4.258 -6.207)" fill="#3d3b55"/><path d="M16.476,24.9c0,.338.229.48.52.318a1.162,1.162,0,0,0,.536-.907c0-.338-.229-.48-.52-.317a1.159,1.159,0,0,0-.536.906" transform="translate(-4.399 -6.388)" fill="#dd9a36"/><path d="M23.832,80.492H22.344V30.1a2.73,2.73,0,0,0-1.362-2.358l-4.32-2.5.743-1.289,4.321,2.5A4.225,4.225,0,0,1,23.832,30.1Z" transform="translate(-4.448 -6.396)" fill="#dd9a36"/><path d="M47.147,100.45,28.816,89.866V56.208L47.147,66.791Z" transform="translate(-7.693 -15.006)" fill="#c99a6b"/><path d="M53.823,99.847l21.2-12.239V53.948l-21.2,12.239Z" transform="translate(-14.369 -14.403)" fill="#ae835b"/><path d="M47.147,62.333l21.2-12.239L50.016,39.511,28.816,51.75Z" transform="translate(-7.693 -10.548)" fill="#e8b687"/><g transform="translate(48.56 44.561)" style="mix-blend-mode:screen;isolation:isolate"><g clip-path="url(#r)"><path d="M66.246,96.406l3.406-1.967V60.791l-3.406,1.967Z" transform="translate(-66.246 -60.791)" fill="#33271b"/></g></g><g transform="translate(30.229 33.978)" style="mix-blend-mode:screen;isolation:isolate"><g clip-path="url(#s)"><path d="M59.569,58.9,41.239,48.319l3.406-1.967L62.976,56.936Z" transform="translate(-41.239 -46.353)" fill="#54493e"/></g></g><g transform="translate(28.149 45.258)" style="mix-blend-mode:screen;isolation:isolate"><g clip-path="url(#r)"><path d="M41.808,97.357,38.4,95.39V61.742l3.406,1.967Z" transform="translate(-38.402 -61.742)" fill="#382c20"/></g></g><g transform="translate(28.149 33.019)" style="mix-blend-mode:screen;isolation:isolate"><g clip-path="url(#u)"><path d="M41.808,59.251l21.2-12.239L59.6,45.045,38.4,57.284Z" transform="translate(-38.402 -45.045)" fill="#3d3125"/></g></g></g></g></g></g></svg>