<svg xmlns="http://www.w3.org/2000/svg" width="83" height="83" viewBox="0 0 83 83"><g transform="translate(-745.911 9212.29)"><circle cx="41.5" cy="41.5" r="41.5" transform="translate(745.911 -9212.29)" fill="#cfeaea"/><g transform="translate(736.921 -9202.667)"><g transform="translate(28.643 8)"><path d="M122.026,300.6l-18.484.3-4.583-5.131,3.97-4.358c1.9-1.74,5.687-4.161,9.77-.895a.771.771,0,0,0,.479.168l5.392.1c1.328,0,2.374,1.449,2.72,2.318a.831.831,0,0,0,.085.271c.038.149-.217.277-.217.413a.849.849,0,0,1-.25.652c-.219.2-.825.164-1.319.164h-7.913a.767.767,0,0,0-.768.768c0,.425.344.492.768.492h7.913a2.555,2.555,0,0,0,1.949-.616,2.013,2.013,0,0,0,.76-1.6,9.273,9.273,0,0,0-.353-.864l6.263-5.934c.855-1.216,4.212-1.712,6.916.613l-13.1,13.147Z" transform="translate(-92.203 -259.128)" fill="#f1d5ca" fill-rule="evenodd"/><path d="M48.179,372.016l-7.661-8.32a1.413,1.413,0,0,1,.055-1.994l1.978-1.85a1.4,1.4,0,0,1,.587-.332c.237.066.058.1.239.3l7.272,8.375c.267.283.8.74.788,1.1a1.408,1.408,0,0,1-.44.986l-1.588,1.8a1.411,1.411,0,0,1-.587.333,1.405,1.405,0,0,1-.643-.388Z" transform="translate(-39.029 -325.743)" fill="#a99eaa" fill-rule="evenodd"/><path d="M105.153,434.161a.756.756,0,0,1,1.118-1.019l2,2.2a.756.756,0,0,1-1.118,1.019Z" transform="translate(-97.622 -392.067)" fill="#282828" fill-rule="evenodd"/><path d="M72.12,278.74c-3.157-3.249-6.471-2.594-8.52-.9-.016.012-.031.027-.046.04l-5.35,5.2a4.415,4.415,0,0,0-3.6-1.911h-4.72c-3.592-2.727-7.791-2.32-11.56,1.138-1.189,1.216-2.494,2.417-3.722,3.605l-1.619-1.745a.766.766,0,0,0-1.084-.041l-3,2.786a.78.78,0,0,0-.056,1.1l9.144,10.048a.843.843,0,0,0,1.219-.035l3-2.786a.768.768,0,0,0,.041-1.084l-1.019-1.1h16.95a.763.763,0,0,0,.534-.217L72.1,279.826a.759.759,0,0,0,.233-.539.768.768,0,0,0-.216-.546Zm-41.638,8.794,1.9-1.761,8.219,8.859-1.984,1.84-8.133-8.938Zm27.385,3.983H39.8l-4.151-4.484c3.7-3.585,8.01-8.879,13.488-4.5a.771.771,0,0,0,.479.168H54.6a2.853,2.853,0,0,1,2.624,1.766.738.738,0,0,0,.085.255,1.725,1.725,0,0,1,.059.429.849.849,0,0,1-.25.652,1.617,1.617,0,0,1-1.092.308H48.116a.768.768,0,1,0,0,1.535h7.913a3.04,3.04,0,0,0,2.128-.712,2.376,2.376,0,0,0,.749-1.783,3.129,3.129,0,0,0-.053-.564l5.748-5.586c.9-.737,3.157-2.049,5.86.278L57.867,291.518Z" transform="translate(-28.643 -250.642)" fill="#282828" fill-rule="evenodd"/><path d="M281.478,17.839h5.142a.767.767,0,0,0,.768-.768v-8.3A.768.768,0,0,0,286.62,8h-5.142a.768.768,0,0,0-.768.768v8.3a.768.768,0,0,0,.768.768Zm.768-8.3h3.606V16.3h-3.606V9.536Z" transform="translate(-256.489 -8)" fill="#282828" fill-rule="evenodd"/></g><path d="M294.5,19.86h4.028v7.56H294.5Z" transform="translate(-240.311 -10.72)" fill="#ffd67a"/><path d="M399.53,17.072v-8.3a.768.768,0,0,1,1.536,0v8.3a.768.768,0,0,1-1.536,0Z" transform="translate(-335.249 0)" fill="#282828" fill-rule="evenodd"/><path d="M215.4,17.072v-8.3a.767.767,0,1,1,1.535,0v8.3a.767.767,0,1,1-1.535,0Z" transform="translate(-168.812 0)" fill="#282828" fill-rule="evenodd"/><path d="M227.22,157.538v8.3a.769.769,0,0,0,.768.768h5.14a.768.768,0,0,0,.768-.768v-8.3a.768.768,0,0,0-.768-.768h-5.14A.767.767,0,0,0,227.22,157.538Zm1.536.768h3.605v6.77h-3.605Z" transform="translate(-179.496 -134.475)" fill="#282828" fill-rule="evenodd"/><path d="M241,168.63h4.027v7.56H241Z" transform="translate(-191.952 -145.195)" fill="#76b4e2"/><path d="M96.58,165.842v-8.3a.768.768,0,0,1,1.536,0v8.3a.768.768,0,1,1-1.536,0Z" transform="translate(-61.409 -134.475)" fill="#282828" fill-rule="evenodd"/><path d="M162.658,156.77a.767.767,0,0,1,.768.768v8.3a.768.768,0,1,1-1.536,0v-8.3A.768.768,0,0,1,162.658,156.77Z" transform="translate(-120.444 -134.475)" fill="#282828" fill-rule="evenodd"/><path d="M97.348,17.839h5.142a.768.768,0,0,0,.768-.768v-8.3A.768.768,0,0,0,102.49,8H97.348a.768.768,0,0,0-.768.768v8.3a.768.768,0,0,0,.768.768Zm.768-8.3h3.606V16.3H98.116V9.536Z" transform="translate(-61.409)" fill="#282828" fill-rule="evenodd"/><path d="M110.36,19.86h4.028v7.56H110.36Z" transform="translate(-73.865 -10.72)" fill="#f37f80"/><path d="M346.04,157.538v8.3a.769.769,0,0,0,.768.768h5.14a.768.768,0,0,0,.768-.768v-8.3a.768.768,0,0,0-.768-.768h-5.14A.767.767,0,0,0,346.04,157.538Zm1.535.768h3.605v6.77h-3.605Z" transform="translate(-286.899 -134.475)" fill="#282828" fill-rule="evenodd"/><path d="M359.82,168.63h4.027v7.56H359.82Z" transform="translate(-299.355 -145.195)" fill="#c3da60"/></g></g></svg>