<svg xmlns="http://www.w3.org/2000/svg" width="83" height="83" viewBox="0 0 83 83"><g transform="translate(-745.911 8434.29)"><circle cx="41.5" cy="41.5" r="41.5" transform="translate(745.911 -8434.29)" fill="#cfeaea"/><g transform="translate(766.549 -8421)"><ellipse cx="6.73" cy="6.393" rx="6.73" ry="6.393" transform="translate(12.113 28.231)" fill="#fcd004"/><path d="M104.773,161.956v22.818H80V165.867h5.867V160h18.906Zm-5.867,12.387a6.519,6.519,0,1,0-6.519,6.519A6.522,6.522,0,0,0,98.906,174.343Z" transform="translate(-73.481 -139.613)" fill="#fff"/><g transform="translate(6.519 20.387)"><rect width="4.038" height="22.881" transform="translate(24.437 1.788)" fill="#d4d8da"/><path d="M85.867,160v5.867H80Z" transform="translate(-80 -160)" fill="#d4d8da"/></g><g transform="translate(0.652 13.867)"><path d="M75.2,112v28.685h-3.26V117.867H68.033v-1.956H49.127l-5.867,5.867v18.906H40V112Z" transform="translate(-37.392 -109.392)" fill="#e7eced"/><path d="M48.42,80.652V113.9H8V80H48.42Zm-2.608,30.641V82.608h-35.2v28.685h35.2Z" transform="translate(-8 -80)" fill="#e7eced"/></g><rect width="40.378" height="5.384" transform="translate(0.673 8.715)" fill="#d9ecfc"/><path d="M41.072,8H.652A.652.652,0,0,0,0,8.652V47.768a.652.652,0,0,0,.652.652h40.42a.651.651,0,0,0,.652-.652V8.652A.651.651,0,0,0,41.072,8ZM40.42,9.3v3.912H1.3V9.3Zm0,37.812H1.3v-32.6H40.42Z"/><rect width="1.346" height="1.346" transform="translate(2.692 10.734)"/><rect width="1.346" height="1.346" transform="translate(5.384 10.734)"/><rect width="1.346" height="1.346" transform="translate(37.686 10.734)"/><path d="M32.652,133.989h35.2a.651.651,0,0,0,.652-.652V104.652a.651.651,0,0,0-.652-.652h-35.2a.652.652,0,0,0-.652.652v28.685A.652.652,0,0,0,32.652,133.989Zm27.381-1.3H36.564v-17.6h5.215a.652.652,0,0,0,.652-.652v-5.215h17.6ZM37.485,113.779l3.642-3.642v3.642Zm23.852-2.608h2.608v21.514H61.337ZM33.3,105.3H67.2v27.381H65.249V110.519a.651.651,0,0,0-.652-.652h-3.26v-1.3a.652.652,0,0,0-.652-.652H41.779a.65.65,0,0,0-.461.191l-5.867,5.867a.649.649,0,0,0-.191.461v18.254H33.3Z" transform="translate(-29.392 -88.177)"/><path d="M144,255.171A7.171,7.171,0,1,0,151.171,248,7.18,7.18,0,0,0,144,255.171Zm7.171-5.867a5.867,5.867,0,1,1-5.867,5.867A5.874,5.874,0,0,1,151.171,249.3Z" transform="translate(-132.265 -220.442)"/><rect width="6.73" height="1.346" transform="translate(22.208 22.847)"/><rect width="1.346" height="1.346" transform="translate(27.592 25.539)"/><rect width="1.346" height="1.346" transform="translate(24.9 25.539)"/><path d="M180.3,304.481a.652.652,0,0,0,.922,0l5.215-5.215-.922-.922-4.755,4.755-1.495-1.495-.922.922Z" transform="translate(-163.81 -266.683)"/></g></g></svg>