<svg xmlns="http://www.w3.org/2000/svg" width="83" height="83" viewBox="0 0 83 83"><g transform="translate(-745.911 7642.29)"><circle cx="41.5" cy="41.5" r="41.5" transform="translate(745.911 -7642.29)" fill="#cfeaea"/><g transform="translate(755.912 -7632.29)"><path d="M45.056,308.677,53.7,303.67c1.623-.941,3.273-1.608,5.057-1.029a60.494,60.494,0,0,0,8.546,2.626,2.4,2.4,0,0,1,1.662,2.877,2.327,2.327,0,0,1-2.879,1.662l1.159.185a5.374,5.374,0,0,0,3.7-.646l8.311-4.841c6.462-3.762,7.41,2.027,5.263,3.351l-15.086,9.288a5.537,5.537,0,0,1-4.479.631l-10.94-2.931-4.054,2.34a1.638,1.638,0,0,1-2.23-.6l-3.278-5.675A1.639,1.639,0,0,1,45.056,308.677Z" transform="translate(-33.562 -266.24)" fill="#f6dccd" fill-rule="evenodd"/><path d="M212.974,346.744a2.372,2.372,0,0,1-2.681,1.144c-1.79-.474-3.583-.959-5.372-1.438a.9.9,0,1,1,.466-1.738Z" transform="translate(-177.768 -304.322)" fill="#f1cbbc" fill-rule="evenodd"/><path d="M45.056,308.677,53.7,303.67c1.623-.941,3.273-1.608,5.057-1.029,1.063.344,2.488.9,4.088,1.436L46.1,313.748l-1.639-2.84A1.639,1.639,0,0,1,45.056,308.677Z" transform="translate(-33.562 -266.24)" fill="#f1cbbc" fill-rule="evenodd"/><path d="M20.488,334.84l6.858,12.115a1.229,1.229,0,0,1-.461,1.667l-2.335,1.321a1.229,1.229,0,0,1-1.668-.464l-6.855-12.115a1.224,1.224,0,0,1,.461-1.668l2.332-1.321A1.228,1.228,0,0,1,20.488,334.84Z" transform="translate(-7.991 -294.894)" fill="#44a6f1" fill-rule="evenodd"/><path d="M53.241,343.165l1.212,2.144,1.2,2.121a1.226,1.226,0,0,1-.459,1.665l.834-.472a1.229,1.229,0,0,0,.461-1.667l-1.2-2.129-2.418-4.273-2.421-4.276-.815-1.438a1.229,1.229,0,0,0-1.425-.568l1.41,2.491,2.418,4.273,1.2,2.126Z" transform="translate(-37.135 -294.893)" fill="#b1b1b5" fill-rule="evenodd"/><path d="M214.4,69.811a13.023,13.023,0,1,0-13.024-13.024A13.05,13.05,0,0,0,214.4,69.811Z" transform="translate(-175.173 -33.13)" fill="#fcd004" fill-rule="evenodd"/><path d="M325.166,43.764a13.023,13.023,0,1,1,0,26.047c-.3,0-.591-.01-.883-.03a13.023,13.023,0,0,0,0-25.987c.292-.02.586-.03.883-.03Z" transform="translate(-285.94 -33.13)" fill="#af9002" fill-rule="evenodd"/><path d="M256.866,107.622a8.369,8.369,0,1,0-8.369-8.37A8.386,8.386,0,0,0,256.866,107.622Z" transform="translate(-217.64 -75.596)" fill="#eceff1" fill-rule="evenodd"/><path d="M256.866,90.885c.2,0,.394.007.589.02a8.369,8.369,0,0,0,0,16.7c-.2.013-.391.02-.589.02a8.369,8.369,0,1,1,0-16.737Z" transform="translate(-217.64 -75.596)" fill="#d1d1d6" fill-rule="evenodd"/><path d="M299.333,145.435a3.714,3.714,0,1,0-3.715-3.715A3.722,3.722,0,0,0,299.333,145.435Z" transform="translate(-260.106 -118.064)" fill="#af9002" fill-rule="evenodd"/><path d="M299.333,138.007a3.714,3.714,0,1,0,0,7.428,3.617,3.617,0,0,0,.589-.047,3.714,3.714,0,0,1,0-7.334A3.617,3.617,0,0,0,299.333,138.007Z" transform="translate(-260.106 -118.064)" fill="#7d6701" fill-rule="evenodd"/><path d="M405.459,19.965l-4.57,4.571a.575.575,0,0,1-.541.159l-3.7-.8-.8-3.7a.573.573,0,0,1,.16-.541l4.57-4.57a.295.295,0,0,1,.5.147l.751,3.484,3.484.751a.294.294,0,0,1,.147.5Z" transform="translate(-350.425 -7.207)" fill="#fff6cc" fill-rule="evenodd"/><path d="M410.965,59.55l-4.57,4.571a.575.575,0,0,1-.541.159l-3.7-.8-.209-.968,3.538.763a.578.578,0,0,0,.541-.16l4.191-4.192.6.13a.294.294,0,0,1,.147.5Z" transform="translate(-355.931 -46.793)" fill="#af9002" fill-rule="evenodd"/><path d="M19.41,50.4l.695,1.227v0a2.037,2.037,0,0,1-.768,2.764l-2.361,1.338h0a2.037,2.037,0,0,1-2.765-.769L7.265,42.7a2.034,2.034,0,0,1,.764-2.767l2.364-1.338h0a2.039,2.039,0,0,1,2.765.766v0l.569,1.005,6.225-3.6c1.847-1.068,3.734-1.769,5.763-1.11a60.882,60.882,0,0,0,8.553,2.634.789.789,0,0,1,.1.026,3.218,3.218,0,0,1,2.2,3.872,3.55,3.55,0,0,1-.327.816,4.611,4.611,0,0,0,1.179-.489l8.42-4.9c3.018-1.758,5.029-1.577,6.168-.812a3.3,3.3,0,0,1,1.395,2.864,3.261,3.261,0,0,1-1.422,2.7L36.708,51.764a6.369,6.369,0,0,1-5.155.733h0L20.785,49.611Zm-4.9-8.663,4.124,7.287,1.646-.951a.79.79,0,0,1,.6-.079l11.083,2.97a4.839,4.839,0,0,0,3.918-.551h0l15.28-9.408a1.617,1.617,0,0,0,.664-1.271,1.669,1.669,0,0,0-1.292-1.878c-.9-.188-2.166.108-3.889,1.111l-8.42,4.9a6.225,6.225,0,0,1-4.277.753l-1.081-.177c-1.9-.39-3.661-.964-5.616-1.489a.79.79,0,0,1,.41-1.526c1.912.514,3.635,1.077,5.491,1.461a1.587,1.587,0,0,0,1.9-1.125h0a1.64,1.64,0,0,0-1.116-1.943,63.241,63.241,0,0,1-8.7-2.676h0c-1.586-.515-3.039.139-4.484.975Zm-2.722-1.6h0a.453.453,0,0,0-.613-.17L8.808,41.307h0a.449.449,0,0,0-.167.612h0l6.945,12.271h0a.452.452,0,0,0,.614.169l2.36-1.338h0a.452.452,0,0,0,.169-.614Zm-.927,1.314a.98.98,0,1,1-.829,1.11A.98.98,0,0,1,10.859,41.454ZM51.37,17.5a13.4,13.4,0,0,1,1.492,6.156,13.663,13.663,0,1,1-7.431-12.072l4.388-4.355a.79.79,0,0,1,1.329.393l.551,2.534.3-.3a.79.79,0,0,1,1.113,1.122l-.286.284,2.546.544a.79.79,0,0,1,.391,1.334Zm-6.91-4.634a11.976,11.976,0,1,0,6.821,10.79,11.821,11.821,0,0,0-1.2-5.2.791.791,0,0,1-.165-.017l-3.556-.76-.216.214a8.925,8.925,0,0,1,2.111,5.765,9.061,9.061,0,1,1-3.229-6.881l.217-.215-.764-3.515a.786.786,0,0,1-.018-.178Zm5.908-1.39-.459-2.11-3.795,3.766.458,2.108ZM47.7,16.351l2.128.455,3.785-3.754L51.486,12.6ZM43.9,17.9a7.408,7.408,0,1,0,2.776,5.763,7.347,7.347,0,0,0-1.656-4.648l-2.154,2.136a4.4,4.4,0,0,1,.784,2.512,4.455,4.455,0,1,1-1.9-3.632Zm-3.3,3.273a2.891,2.891,0,0,0-4.3,2.49,2.885,2.885,0,0,0,5.771,0,2.821,2.821,0,0,0-.353-1.371l-1.962,1.946a.79.79,0,0,1-1.113-1.122Z" fill-rule="evenodd"/></g></g></svg>