<svg xmlns="http://www.w3.org/2000/svg" width="47.723" height="41.743" viewBox="0 0 47.723 41.743"><g transform="translate(-.998 -32.948)"><g transform="translate(1.747 33.697)"><path fill="#8d9ca8" fill-rule="evenodd" d="M16.765 0h6.716v3.37a17 17 0 0 1 6.113 2.534l2.384-2.384 4.749 4.749-2.384 2.383a17 17 0 0 1 2.533 6.113h3.37v6.716h-3.37a17 17 0 0 1-2.534 6.113l2.384 2.384-4.749 4.749-2.384-2.384a17 17 0 0 1-6.113 2.534v3.37h-6.715v-3.37a17 17 0 0 1-6.113-2.533l-2.384 2.384-4.749-4.749L5.9 29.594a17 17 0 0 1-2.534-6.113H0v-6.716h3.37a17 17 0 0 1 2.53-6.113L3.516 8.268l4.749-4.749 2.384 2.384a17 17 0 0 1 6.113-2.533Z"/><circle cx="12.818" cy="12.818" r="12.818" fill="#eff4f7" transform="rotate(-45 25.287 7.656)"/><g fill-rule="evenodd" transform="translate(17.487 4.635)"><path fill="#215278" d="M.627 18.96h3.344a.49.49 0 0 1 .487.487v5.025a.49.49 0 0 1-.487.487H.627a.49.49 0 0 1-.487-.487v-5.023a.49.49 0 0 1 .487-.489"/><path fill="#feec9a" d="M8.167 15.008h3.344a.49.49 0 0 1 .487.487v8.977a.49.49 0 0 1-.487.487H8.167a.49.49 0 0 1-.487-.487v-8.977a.487.487 0 0 1 .487-.487"/><path fill="#af9002" d="M15.706 11.056h3.344a.49.49 0 0 1 .487.487v12.93a.49.49 0 0 1-.487.487h-3.344a.49.49 0 0 1-.487-.487v-12.93a.49.49 0 0 1 .487-.487"/><path fill="#b3dbf9" d="M27.077 8.111v16.36a.49.49 0 0 1-.487.487h-3.342a.49.49 0 0 1-.487-.487V8.111h-1.379a.281.281 0 0 1-.206-.473l3.41-3.653a.457.457 0 0 1 .668 0l3.41 3.653a.281.281 0 0 1-.206.473Z"/><path fill="#fcd004" d="m16.847 1.81-.71-1.23a.386.386 0 0 1 .386-.576l4.658.629a.386.386 0 0 1 .305.529l-1.784 4.354a.386.386 0 0 1-.692.046l-.71-1.23-16.594 9.58a.507.507 0 0 1-.691-.185l-.948-1.641a.507.507 0 0 1 .185-.691Z"/></g></g><path fill-rule="evenodd" d="m20.072 50.249.706 1.221 16.382-9.459a.75.75 0 0 1 1.024.274l.34.591 1.324-3.232-3.46-.468.34.591a.75.75 0 0 1-.274 1.023Zm14.652-10.963a1.134 1.134 0 0 1 1.134-1.692l4.656.63a1.132 1.132 0 0 1 .9 1.555l-1.787 4.349a1.132 1.132 0 0 1-2.03.136l-.335-.582-15.945 9.206a1.26 1.26 0 0 1-1.717-.459l-.944-1.642a1.25 1.25 0 0 1 .459-1.713l15.945-9.206Zm-14.6 23.256h2.82v-4.5h-2.82Zm-.75 1.5a.75.75 0 0 1-.75-.748v-6a.75.75 0 0 1 .75-.748h4.316a.75.75 0 0 1 .75.748v6a.75.75 0 0 1-.75.748Zm11.108-9.951h-2.82v8.453h2.82Zm.75 9.951a.75.75 0 0 0 .746-.748V53.34a.75.75 0 0 0-.746-.748h-4.319a.75.75 0 0 0-.746.748v9.951a.75.75 0 0 0 .746.748h4.321ZM46.614 45.7l-2.463-2.639-2.462 2.639h.3a.75.75 0 0 1 .75.748v16.1h2.82v-16.1a.75.75 0 0 1 .75-.748Zm2.021.877a1.03 1.03 0 0 1-.944.62h-.631v16.1a.75.75 0 0 1-.746.748h-4.321a.75.75 0 0 1-.746-.748v-16.1h-.631a1.031 1.031 0 0 1-.755-1.733l3.411-3.653a1.2 1.2 0 0 1 1.761 0l3.411 3.653a1.03 1.03 0 0 1 .19 1.113Zm-10.614 3.559v12.405H35.2V50.136Zm1.5-.748v13.9a.75.75 0 0 1-.75.748h-4.316a.75.75 0 0 1-.75-.748v-13.9a.75.75 0 0 1 .75-.749h4.316a.75.75 0 0 1 .751.749ZM21.873 41.75A12.07 12.07 0 1 0 27.5 64.5a.748.748 0 1 1 .7 1.324 13.567 13.567 0 1 1 .243-23.877.748.748 0 0 1-.724 1.309 12.1 12.1 0 0 0-5.843-1.507Zm17.132 23.4a.75.75 0 0 1 0 1.059l-4.749 4.749a.75.75 0 0 1-1.059 0L31.238 69a17.6 17.6 0 0 1-5.261 2.181v2.767a.75.75 0 0 1-.75.748h-6.713a.75.75 0 0 1-.75-.748v-2.771A17.7 17.7 0 0 1 12.5 69l-1.96 1.957a.75.75 0 0 1-1.059 0L4.736 66.2a.75.75 0 0 1 0-1.059L6.7 63.188a17.6 17.6 0 0 1-2.18-5.261H1.748a.75.75 0 0 1-.748-.75v-6.715a.75.75 0 0 1 .75-.749h2.765A17.6 17.6 0 0 1 6.7 44.452l-1.96-1.958a.756.756 0 0 1 0-1.058l4.749-4.749a.75.75 0 0 1 1.059 0l1.96 1.957a17.6 17.6 0 0 1 5.261-2.181V33.7a.75.75 0 0 1 .75-.748h6.713a.75.75 0 0 1 .75.748v2.767a17.7 17.7 0 0 1 5.261 2.181l1.96-1.958a.749.749 0 1 1 1.059 1.059l-2.388 2.384a.75.75 0 0 1-.944.094 16.2 16.2 0 0 0-5.849-2.427.75.75 0 0 1-.6-.734v-2.621H19.26v2.621a.75.75 0 0 1-.6.734 16.2 16.2 0 0 0-5.843 2.422.75.75 0 0 1-.944-.094l-1.858-1.854-3.689 3.69 1.854 1.854a.74.74 0 0 1 .093.945 16.2 16.2 0 0 0-2.418 5.844.75.75 0 0 1-.737.6H2.494v5.219h2.622a.75.75 0 0 1 .737.6 16.2 16.2 0 0 0 2.418 5.844.74.74 0 0 1-.093.944l-1.853 1.86 3.689 3.69 1.854-1.855a.754.754 0 0 1 .949-.094 16.2 16.2 0 0 0 5.843 2.422.75.75 0 0 1 .6.734v2.621h5.221v-2.619a.75.75 0 0 1 .6-.734 16.2 16.2 0 0 0 5.843-2.422.754.754 0 0 1 .949.094l1.854 1.855 4.219-4.22a.75.75 0 0 1 1.059 0Z"/></g></svg>