<svg xmlns="http://www.w3.org/2000/svg" width="83" height="83" viewBox="0 0 83 83"><g transform="translate(874.101 9212.29)"><circle cx="41.5" cy="41.5" r="41.5" transform="translate(-874.101 -9212.29)" fill="#cfeaea"/><g transform="translate(-856.582 -9211.909)"><g transform="translate(1.952 26.687)"><rect width="7.141" height="3.059" transform="translate(30.522 3.076)" fill="#ffce00"/><rect width="7.141" height="3.059" fill="#ffce00"/></g><rect width="23.381" height="18.301" transform="translate(9.093 19.611)" fill="#e0e0e3"/><rect width="23.381" height="2.134" transform="translate(9.093 19.611)" fill="#eaeaea"/><path d="M120.452,106.4v8.022H97.071v-11.1h1.7l3.074,3.073Z" transform="translate(-87.978 -76.512)" fill="#d1d1d1"/><path d="M47.662,137.67v24.7H7.5V134.6h8.838l3.074,3.073Z" transform="translate(-6.797 -104.851)" fill="#ffda2d"/><g transform="translate(0.703 37.226)"><path d="M252.353,215.38v19.354H234.869a13.962,13.962,0,0,1,17.484-19.354Z" transform="translate(-212.192 -214.438)" fill="#ffce00"/><rect width="40.162" height="4.407" transform="translate(0 15.889)" fill="#ffce00"/></g><path d="M47.665,137.672v3.135H18.131l-3.58-3.58H7.5V134.6h8.838l3.074,3.073Z" transform="translate(-6.8 -104.853)" fill="#ffe571"/><path d="M283.018,252.66a11.446,11.446,0,1,1-11.446-11.446A11.447,11.447,0,0,1,283.018,252.66Z" transform="translate(-235.757 -201.48)" fill="#44a6f1"/><path d="M393.761,252.66H382.315V241.214a11.445,11.445,0,0,1,11.446,11.446Z" transform="translate(-346.501 -201.48)" fill="#dbdee1"/><path d="M391.561,245.912l-4.2,2.939-4.984,3.809h-.067V241.213A11.43,11.43,0,0,1,391.561,245.912Z" transform="translate(-346.501 -201.479)" fill="#ffda2d"/><circle cx="6.692" cy="6.692" r="6.692" transform="translate(29.122 44.488)" fill="#e0e0e3"/><path d="M365.926,336.979a2.027,2.027,0,1,1-1.325-3.832c1.058-.366,6.056-1.134,6.422-.076S366.984,336.613,365.926,336.979Z" transform="translate(-329.209 -284.246)" fill="#6b7f9e"/><path d="M149.4,59.479h-15.14a.7.7,0,1,0,0,1.405H149.4a.7.7,0,1,0,0-1.405Z" transform="translate(-121.047 -36.77)"/><path d="M149.4,94.444h-15.14a.7.7,0,0,0,0,1.405H149.4a.7.7,0,1,0,0-1.405Z" transform="translate(-121.047 -68.459)"/><path d="M149.4,129.411h-15.14a.7.7,0,0,0,0,1.405H149.4a.7.7,0,1,0,0-1.405Z" transform="translate(-121.047 -100.151)"/><path d="M28.947,374.847h3.571a.7.7,0,0,0,0-1.405H28.947a.7.7,0,0,0,0,1.405Z" transform="translate(-25.598 -321.322)"/><path d="M28.947,395.913h3.571a.7.7,0,1,0,0-1.405H28.947a.7.7,0,0,0,0,1.405Z" transform="translate(-25.598 -340.414)"/><path d="M45.572,43.952a12.238,12.238,0,0,0-4-3.469V32.82a.7.7,0,0,0-.7-.7h-.547V29.763a.7.7,0,0,0-.7-.7H33.177V24.944a.7.7,0,1,0-1.405,0v7.174H12.906L10.038,29.25a.7.7,0,0,0-.242-.157V20.314H31.772V22.54a.7.7,0,0,0,1.405,0V19.612a.7.7,0,0,0-.7-.7H9.093a.7.7,0,0,0-.7.7v6.373H1.952a.7.7,0,0,0-.7.7v2.356H.7a.7.7,0,0,0-.7.7v6.532a.7.7,0,1,0,1.405,0v-5.83H9.25l2.868,2.868a.7.7,0,0,0,.5.206H39.577l.038,0,.038,0h.509v6.314a12.149,12.149,0,0,0-11.74,1.7,12.232,12.232,0,0,0-4.3,6.331.7.7,0,1,0,1.352.382,10.783,10.783,0,0,1,9.637-7.789v3.357a7.395,7.395,0,1,0,8.063,8.063h3.359a10.743,10.743,0,0,1-21.464-.7.7.7,0,0,0-1.405,0,12.074,12.074,0,0,0,1.391,5.64H1.405V39.215a.7.7,0,0,0-1.405,0V57.523a.7.7,0,0,0,.7.7H25.922A12.144,12.144,0,1,0,45.676,44.095.987.987,0,0,0,45.572,43.952ZM2.655,27.39H8.391v1.654H2.655Zm30.522,3.076h5.736v1.652H33.177Zm8.955,16.876,2.746-1.923a10.673,10.673,0,0,1,1.656,5.059H43.174A7.343,7.343,0,0,0,42.132,47.341Zm1.914-3.056L41.29,46.216a7.382,7.382,0,0,0-4.773-2.4V40.46A10.73,10.73,0,0,1,44.046,44.285ZM35.814,57.17a5.99,5.99,0,1,1,4.809-9.556,11.545,11.545,0,0,0-1.812.015,18.329,18.329,0,0,0-3.648.609,2.73,2.73,0,1,0,1.785,5.16h0a18.344,18.344,0,0,0,3.245-1.775,10.783,10.783,0,0,0,1.559-1.228,5.98,5.98,0,0,1-5.937,6.775ZM41.03,49.1a7.53,7.53,0,0,1-1.9,1.543,16.762,16.762,0,0,1-2.641,1.43,1.325,1.325,0,1,1-.866-2.5,16.739,16.739,0,0,1,2.96-.508c.535-.049.967-.068,1.313-.068A4.534,4.534,0,0,1,41.03,49.1Z"/></g></g></svg>