<svg xmlns="http://www.w3.org/2000/svg" width="43.72" height="43.72" viewBox="0 0 43.72 43.72"><g transform="translate(-1 -1)"><g transform="translate(1.705 1.705)"><path fill="#af9002" d="M35.258 1.41v2.821H22.565V.705A.707.707 0 0 1 23.27 0h11.283a.707.707 0 0 1 .705.705Z"/><path fill="#a8aeb5" d="M22.565 1.41v2.821h-3.526a.707.707 0 0 0-.705.705v11.543l-.571-.571-1.664.86c-.19-.106-.388-.2-.585-.3V4.231a2.82 2.82 0 0 1 2.82-2.821Zm19.744 2.821v31.027a2.82 2.82 0 0 1-2.821 2.821H19.272l-.938-2.821h20.45a.707.707 0 0 0 .705-.705V4.936a.707.707 0 0 0-.705-.705h-3.526V1.41h4.231a2.82 2.82 0 0 1 2.82 2.821"/><path fill="#fefae4" d="M38.783 4.231H19.037a.707.707 0 0 0-.705.705l-.24 29.6h-.005l.247.726h20.45a.707.707 0 0 0 .705-.705V4.936a.707.707 0 0 0-.706-.705"/><path fill="#fcd004" d="M28.206 7.052h8.462v8.462h-8.462Zm0 11.282h8.462v8.462h-8.462Z"/><path fill="#d9ecfc" d="M22.565 26.796v.707l-1.791.571a10.3 10.3 0 0 1-.874 2.129l.86 1.664-2.665 2.665h-.007l-1.5-4.513a7.052 7.052 0 1 0-10.606 0l-1.5 4.513h-.011l-2.666-2.666.86-1.664a10.3 10.3 0 0 1-.874-2.13L0 27.503V23.27l1.791-.567a10.3 10.3 0 0 1 .874-2.13l-.86-1.67 3-3 1.664.86a10.3 10.3 0 0 1 2.13-.874l.568-1.786H13.4l.571 1.791a9.7 9.7 0 0 1 1.544.578q.3.136.585.3l1.664-.86.571.571 2.425 2.42-.86 1.664a10.3 10.3 0 0 1 .874 2.13l1.791.571v3.526Z"/><path fill="#e6e9ed" d="M19.621 39.115a2.4 2.4 0 0 1 .127.769 2.426 2.426 0 0 1-2.427 2.425H5.247a2.42 2.42 0 0 1-2.3-3.194l1.53-4.584 1.5-4.513 1.594-4.781a3.91 3.91 0 0 1 7.418 0l1.594 4.781 1.5 4.513.247.726.938 2.821Z"/><circle cx="1.68" cy="1.68" r="1.68" fill="#fcd004" transform="translate(9.374 36.295)"/><path fill="#fcd004" d="M12.693 26.726a1 1 0 0 1-.007.134l-.628 6.283a.779.779 0 0 1-1.551 0l-.628-6.283a1 1 0 0 1-.007-.134 1.34 1.34 0 0 1 1.34-1.34h.141a1.34 1.34 0 0 1 1.34 1.34"/></g><g transform="translate(1 1)"><path d="M11.987 36.668a2.115 2.115 0 1 0 2.115 2.115 2.12 2.12 0 0 0-2.115-2.115m0 2.821a.705.705 0 1 1 .705-.705.706.706 0 0 1-.705.705m.067-14.103h-.134a2.05 2.05 0 0 0-2.048 2.048 2 2 0 0 0 .01.2l.628 6.283a1.485 1.485 0 0 0 2.955 0l.628-6.283a2 2 0 0 0 .01-.2 2.05 2.05 0 0 0-2.049-2.048m.006 8.395a.076.076 0 0 1-.147 0l-.628-6.283v-.063a.64.64 0 0 1 .638-.638h.134a.65.65 0 0 1 .635.7Z"/><path d="M40.194 1.41h-3.526A1.41 1.41 0 0 0 35.258 0H23.975a1.41 1.41 0 0 0-1.41 1.41h-3.526a3.53 3.53 0 0 0-3.526 3.526v11.2c-.093-.033-.183-.071-.278-.1l-.618-1.936h-5.26l-.617 1.931a10.6 10.6 0 0 0-1.572.648l-1.8-.925-3.717 3.719.925 1.8a10.6 10.6 0 0 0-.648 1.572L0 23.461v5.26l1.928.618a10.5 10.5 0 0 0 .648 1.572l-.925 1.8 2.72 2.72-1.39 4.169a3.134 3.134 0 0 0 2.971 4.12h12.07a3.132 3.132 0 0 0 2.972-4.12l-.036-.109h19.236a3.53 3.53 0 0 0 3.526-3.526V4.936a3.53 3.53 0 0 0-3.526-3.526M21.4 30.911a10.5 10.5 0 0 0 .648-1.572l1.928-.618v-.514H26.8V26.8h-2.825v-1.41H26.8v-1.41h-2.825v-.514l-1.928-.618a10.5 10.5 0 0 0-.648-1.572l.925-1.8-2.58-2.58V5.641h19.745v29.617H19.774l2.551-2.55ZM35.258 1.41v2.821H23.975V1.41ZM19.039 2.821h3.526v1.41h-2.821a1.41 1.41 0 0 0-1.41 1.41v10.253l-1.41.726V4.936a2.12 2.12 0 0 1 2.115-2.115M3.376 32.438l.8-1.548-.185-.33a9 9 0 0 1-.813-1.972l-.1-.365-1.668-.531v-3.2l1.661-.532.1-.365a9 9 0 0 1 .813-1.972l.185-.331-.8-1.547 2.264-2.265 1.548.8.33-.185a9.2 9.2 0 0 1 1.972-.812l.365-.1.532-1.661h3.2l.532 1.661.365.1a9.2 9.2 0 0 1 1.972.812l.33.185 1.548-.8 2.273 2.264-.8 1.547.185.331a9 9 0 0 1 .813 1.972l.1.365 1.661.531v3.2l-1.661.532-.1.365a9 9 0 0 1-.813 1.972l-.185.33.8 1.548-1.494 1.494-1.022-3.067a7.757 7.757 0 1 0-12.191 0L4.87 33.931Zm3.078-3.26a6.346 6.346 0 1 1 11.067 0l-1.151-3.455a4.619 4.619 0 0 0-8.764 0Zm11.569 13.131H5.952a1.722 1.722 0 0 1-1.633-2.266L8.944 26.17a3.208 3.208 0 0 1 6.088 0l4.624 13.874a1.722 1.722 0 0 1-1.632 2.266Zm24.286-6.346a2.12 2.12 0 0 1-2.115 2.115H20.488l-.47-1.41h19.471a1.41 1.41 0 0 0 1.41-1.41V5.641a1.41 1.41 0 0 0-1.41-1.41h-2.821v-1.41h3.526a2.12 2.12 0 0 1 2.115 2.115Z"/><path d="M38.078 7.052h-9.872v9.872h9.872Zm-1.41 8.462h-7.052V8.462h7.052Z"/><path d="m36.461 10.371-1-1-3.026 3.03-.912-.912-1 1 1.912 1.906Zm1.617 7.963h-9.872v9.872h9.872Zm-1.41 8.462h-7.052v-7.052h7.052Z"/><path d="m36.461 21.653-1-1-3.026 3.03-.912-.912-1 1 1.912 1.906ZM21.155 7.052h5.641v1.41h-5.641Zm0 2.82h5.641v1.41h-5.641Zm0 2.821h5.641v1.41h-5.641Zm0 2.82h5.641v1.41h-5.641Zm2.82 2.821h2.821v1.41h-2.821Zm0 2.821h2.821v1.41h-2.821Zm0 8.462h14.1v1.41h-14.1Zm12.693 2.82h1.41v1.41h-1.41Zm-12.693 0h11.283v1.41H23.975Z"/></g></g></svg>