<svg xmlns="http://www.w3.org/2000/svg" width="43.079" height="45.537" viewBox="0 0 43.079 45.537"><g transform="translate(-17.604 -4.001)"><g transform="translate(19.131 5.409)"><path fill="#2f73a8" d="M10.114 40.25a.785.785 0 0 0 0-1.1l-6.657-6.657a.78.78 0 0 0-1.1 0l-2.359 2.349 7.761 7.761 2.353-2.353Z"/><path fill="#b3dbf9" d="m8.912 9.434.851 2.054a.63.63 0 0 1-.059.594l-.567.846 1.286 1.285.846-.567a.63.63 0 0 1 .594-.059l2.054.851a.63.63 0 0 1 .378.462l.2 1h1.818l.2-1a.63.63 0 0 1 .378-.462l2.054-.851a.63.63 0 0 1 .594.059l.846.567 1.286-1.286-.567-.846a.63.63 0 0 1-.059-.594l.851-2.054a.63.63 0 0 1 .462-.378l1-.2V7.041l-1-.2a.63.63 0 0 1-.462-.378l-.851-2.054a.63.63 0 0 1 .059-.594l.567-.846-1.288-1.283-.846.567a.63.63 0 0 1-.594.059l-2.06-.851a.63.63 0 0 1-.378-.462l-.2-1h-1.818l-.2 1a.63.63 0 0 1-.378.462l-2.054.851a.63.63 0 0 1-.594-.059l-.846-.567-1.286 1.285.567.846a.63.63 0 0 1 .059.594l-.851 2.054a.63.63 0 0 1-.462.378l-1 .2v1.818l1 .2a.63.63 0 0 1 .47.373M15.4 2.916a5.034 5.034 0 1 1-5.034 5.034 5.04 5.04 0 0 1 5.035-5.029Z"/><path fill="#af9002" d="M33.23 13.779h2.776v11.259H33.23Zm-13.356 5.595h2.721v5.664h-2.721Z"/></g><path fill="#282828" d="M60.21 32.9a2.53 2.53 0 0 0-3.249-.235A81 81 0 0 1 47.693 37a2.525 2.525 0 0 0-2.551-3.014 21.1 21.1 0 0 1-8.868-2.022c-2.077-.861-3.87-1.605-5.992-1.092-2.142.518-4.421 2.293-7.363 5.739a2.05 2.05 0 0 0-2.331.4l-2.8 2.8a.633.633 0 0 0 0 .894l8.656 8.656a.633.633 0 0 0 .894 0l2.8-2.8a2.05 2.05 0 0 0 .463-2.175 13.94 13.94 0 0 1 6.321-.659c.572.034 1.173.083 1.809.134a45 45 0 0 0 4.578.214 15.3 15.3 0 0 0 7.624-2.31c2.6-1.375 8.134-4.66 9.169-6.02a2.18 2.18 0 0 0 .108-2.845M29.245 45.658l-2.353 2.353-7.761-7.761 2.353-2.35a.78.78 0 0 1 1.1 0l6.657 6.657a.785.785 0 0 1 0 1.1ZM59.1 34.971c-.728.957-5.384 3.883-8.754 5.668a14.27 14.27 0 0 1-7.06 2.163 45 45 0 0 1-4.449-.21c-.643-.052-1.249-.1-1.835-.136a14.94 14.94 0 0 0-7.178.884l-5.927-5.927c5.813-6.809 7.99-5.906 11.9-4.286a22.5 22.5 0 0 0 9.363 2.119h.024a1.253 1.253 0 0 1 1.116 1.889c-.432.727-2 1.1-4.186 1.008a14.4 14.4 0 0 1-4.932-1 .632.632 0 0 0-.584 1.122 15.4 15.4 0 0 0 5.461 1.144q.346.015.711.016a8.6 8.6 0 0 0 3.221-.515 71 71 0 0 0 11.6-5.144c.769-.444 1.4-.324 1.667-.024s.2.755-.165 1.232Zm-16.11-4.525v-6.3a.63.63 0 0 0-.632-.632h-3.986a.63.63 0 0 0-.632.632v6.3h-1.766a.632.632 0 1 0 0 1.265h22.194a.632.632 0 1 0 0-1.265H56.4V18.555a.63.63 0 0 0-.632-.632h-1.386V16.9a6.53 6.53 0 0 0 3.956-1.754 6.48 6.48 0 0 0 1.953-4.76.63.63 0 0 0-.5-.618 5.5 5.5 0 0 0-3.5.284 5.53 5.53 0 0 0-2.176-5.935.63.63 0 0 0-.727 0 5.53 5.53 0 0 0-2.176 5.935 5.5 5.5 0 0 0-3.5-.284.63.63 0 0 0-.5.618 6.48 6.48 0 0 0 1.953 4.76 6.53 6.53 0 0 0 3.952 1.754v1.024h-1.388a.63.63 0 0 0-.632.632v11.89h-1.429v-9.215a.63.63 0 0 0-.632-.632h-3.985a.63.63 0 0 0-.632.632v9.215ZM59 10.915a5.044 5.044 0 0 1-4.6 4.709 5.56 5.56 0 0 1 1.735-4 3.45 3.45 0 0 1 2.238-.748 5 5 0 0 1 .627.04Zm-5.251-5.478a4.27 4.27 0 0 1 .632 5.732V9.127a.632.632 0 1 0-1.265 0v2.041a4.27 4.27 0 0 1 .632-5.732Zm-5.255 5.478a3.66 3.66 0 0 1 2.865.708 5.56 5.56 0 0 1 1.735 4 5.044 5.044 0 0 1-4.6-4.708M39 24.783h2.721v5.664H39Zm13.357-5.6h2.776v11.263h-2.772Zm-6.678 2.676H48.4v8.583h-2.72Zm-19.852-6.451L27 15.64l.592 1.428-.668 1a.63.63 0 0 0 .078.8l2.021 2.021a.63.63 0 0 0 .8.078l1-.668 1.428.592.232 1.177a.63.63 0 0 0 .621.51h2.856a.63.63 0 0 0 .621-.51l.232-1.177 1.428-.592 1 .668a.63.63 0 0 0 .8-.078l2.021-2.021a.63.63 0 0 0 .078-.8l-.668-1 .592-1.428 1.177-.232a.63.63 0 0 0 .51-.621v-2.858a.63.63 0 0 0-.51-.621l-1.177-.232-.592-1.428.668-1a.63.63 0 0 0-.078-.8l-2.025-2.016a.63.63 0 0 0-.8-.078l-1 .668-1.428-.592-.232-1.177a.63.63 0 0 0-.621-.51H33.1a.63.63 0 0 0-.621.51l-.229 1.178-1.428.592-1-.668a.63.63 0 0 0-.8.078l-2.016 2.02a.63.63 0 0 0-.078.8l.668 1L27 11.077l-1.177.232a.63.63 0 0 0-.51.621v2.858a.63.63 0 0 0 .51.621Zm.755-2.958 1-.2a.63.63 0 0 0 .462-.378l.851-2.054a.63.63 0 0 0-.059-.594l-.567-.846 1.286-1.285.846.567a.63.63 0 0 0 .594.059l2.054-.851a.63.63 0 0 0 .378-.462l.2-1h1.818l.2 1a.63.63 0 0 0 .378.462l2.054.851a.63.63 0 0 0 .594-.059l.846-.567L40.8 8.38l-.567.846a.63.63 0 0 0-.059.594l.851 2.054a.63.63 0 0 0 .462.378l1 .2v1.818l-1 .2a.63.63 0 0 0-.462.378l-.856 2.052a.63.63 0 0 0 .059.594l.567.846-1.285 1.282-.846-.567A.63.63 0 0 0 38.07 19l-2.054.851a.63.63 0 0 0-.378.462l-.2 1h-1.815l-.2-1a.63.63 0 0 0-.378-.462L30.993 19a.63.63 0 0 0-.594.059l-.846.567-1.286-1.285.567-.846a.63.63 0 0 0 .059-.594l-.851-2.054a.63.63 0 0 0-.462-.378l-1-.2Zm7.95 5.943a5.034 5.034 0 1 0-5.032-5.035 5.04 5.04 0 0 0 5.034 5.034Zm0-8.8a3.769 3.769 0 1 1-3.769 3.769 3.773 3.773 0 0 1 3.769-3.772Zm-2.352 3.872a.632.632 0 1 1 1.1-.632l.49.849 2.123-2.123a.632.632 0 0 1 .894.894l-2.706 2.706a.633.633 0 0 1-.995-.131l-.9-1.563Z"/></g></svg>