<svg xmlns="http://www.w3.org/2000/svg" width="83" height="83" viewBox="0 0 83 83"><g transform="translate(-745.911 8823.29)"><circle cx="41.5" cy="41.5" r="41.5" transform="translate(745.911 -8823.29)" fill="#cfeaea"/><g transform="translate(762.327 -8861.826)"><g transform="translate(4.522 62.915)"><g transform="translate(0 19.808)"><path d="M42.3,283.911h5.415v15.646H42.3Z" transform="translate(-42.297 -283.911)" fill="#ffd54f" fill-rule="evenodd"/></g><g transform="translate(8.853 15.165)"><path d="M134.3,235.664h5.415v20.288H134.3Z" transform="translate(-134.304 -235.664)" fill="#af9002" fill-rule="evenodd"/></g><g transform="translate(17.705 19.035)"><path d="M226.31,275.879h5.415V292.3H226.31Z" transform="translate(-226.31 -275.879)" fill="#64b9fc" fill-rule="evenodd"/></g><g transform="translate(26.558 12.503)"><path d="M318.316,208h5.415v22.95h-5.415Z" transform="translate(-318.316 -207.996)" fill="#b3dbf9" fill-rule="evenodd"/></g><g transform="translate(2.706 19.808)"><path d="M70.422,283.911h2.709v15.646H70.422Z" transform="translate(-70.422 -283.911)" fill="#ffc328" fill-rule="evenodd"/></g><g transform="translate(11.548 15.154)"><path d="M162.428,235.664h2.709v20.288h-2.709Z" transform="translate(-162.417 -235.653)" fill="#7d6701" fill-rule="evenodd"/><path d="M165.045,255.86h-2.731V235.55h2.731Zm-2.709-.022h2.687V235.572h-2.687Z" transform="translate(-162.314 -235.55)" fill="#7d6701"/></g><g transform="translate(20.414 19.035)"><path d="M254.463,275.879h2.706V292.3h-2.706Z" transform="translate(-254.463 -275.879)" fill="#31a7fb" fill-rule="evenodd"/></g><g transform="translate(29.267 22.258)"><path d="M346.47,309.378h2.706v13.2H346.47Z" transform="translate(-346.47 -309.378)" fill="#44a6f1" fill-rule="evenodd"/></g><g transform="translate(32.692 15.456)"><path d="M382.616,239.577l.619-.52a1.569,1.569,0,0,1,2.208.187l8.08,9.576a1.573,1.573,0,0,1-.187,2.208l-.619.523a1.573,1.573,0,0,1-2.208-.187l-8.08-9.579A1.571,1.571,0,0,1,382.616,239.577Z" transform="translate(-382.061 -238.689)" fill="#fd4755" fill-rule="evenodd"/></g><g transform="translate(18.815 0)"><path d="M241.852,80.709A11.276,11.276,0,1,1,240.5,96.6,11.277,11.277,0,0,1,241.852,80.709Z" transform="translate(-237.847 -78.051)" fill="#dbdee1" fill-rule="evenodd"/></g><g transform="translate(21.579 2.763)"><path d="M280.574,121.789A8.519,8.519,0,0,1,267.2,118.5a8.423,8.423,0,0,1-.426-1.36,8.513,8.513,0,1,1,13.8,4.646Z" transform="translate(-266.573 -106.769)" fill="#c4f0f6" fill-rule="evenodd"/></g><g transform="translate(29.506 2.764)"><path d="M348.956,106.8a8.512,8.512,0,1,1,.008,16.985,8.512,8.512,0,0,0-.008-16.985Z" transform="translate(-348.956 -106.779)" fill="#abe1fa" fill-rule="evenodd"/></g><g transform="translate(26.558 13.812)"><path d="M323.731,227.368V221.6h-5.415v5.211A8.555,8.555,0,0,0,323.731,227.368Z" transform="translate(-318.316 -221.601)" fill="#d9ecfc" fill-rule="evenodd"/></g></g><path d="M49.146,87.9l-5.269-6.243A11.834,11.834,0,0,0,27.083,65.126h0a11.8,11.8,0,0,0-4.135,7.849L14.1,69.923a.673.673,0,0,0-.688.153L5.647,77.624a.672.672,0,1,0,.937.964l7.469-7.26,8.835,3.048a11.779,11.779,0,0,0,2.29,6.8H22.454a.672.672,0,0,0-.672.672V97.425H19.723V78.019a.672.672,0,0,0-.672-.672h-5.36a.672.672,0,0,0-.672.672V97.425H10.961V82.614a.672.672,0,0,0-.672-.672H4.929a.672.672,0,0,0-.672.672V97.425H1.845V61.975a.672.672,0,1,0-1.345,0V98.1a.672.672,0,0,0,.672.672H40.863a.672.672,0,0,0,0-1.345H37.251v-11.7a11.748,11.748,0,0,0,2.485-.84l5.4,6.4a2.2,2.2,0,0,0,1.512.781q.1.008.191.008a2.208,2.208,0,0,0,1.429-.522l.614-.516a2.23,2.23,0,0,0,.265-3.133ZM27.95,66.153h0A10.489,10.489,0,1,1,27.1,81.388l-.019-.02q-.2-.211-.389-.435A10.5,10.5,0,0,1,27.95,66.153ZM30.544,85.24V97.425H28.486V84.231A11.784,11.784,0,0,0,30.544,85.24Zm-7.418-2.718h3.2q.391.393.811.741V97.425H23.126v-14.9Zm-8.762-3.83h4.015V97.425H14.364ZM5.6,83.287H9.616V97.425H5.6ZM35.906,97.425H31.888V85.656A11.94,11.94,0,0,0,34.726,86q.591,0,1.181-.059V97.425ZM48.319,89.41a.873.873,0,0,1-.305.6l-.613.515a.882.882,0,0,1-1.239-.1l-5.219-6.185a11.874,11.874,0,0,0,1.4-1.017q.32-.27.615-.558l5.159,6.113a.869.869,0,0,1,.2.64ZM26.057,76.965a9.077,9.077,0,0,0,4.815,5.45.67.67,0,0,0,.143.065,9.153,9.153,0,0,0,5.657.573.662.662,0,0,0,.126-.03A9.1,9.1,0,1,0,26.034,76.9C26.041,76.92,26.048,76.943,26.057,76.965Zm5.832,4.423V77.35h4.018v4.479A7.817,7.817,0,0,1,31.888,81.388ZM29.714,68.244h0A7.694,7.694,0,0,1,34.7,66.415q.333,0,.669.028A7.752,7.752,0,0,1,37.251,81.5V76.677A.672.672,0,0,0,36.579,76H31.216a.672.672,0,0,0-.672.672v4.029a7.731,7.731,0,0,1-3.069-3.766l7.9-6.562v2.94a.672.672,0,0,0,1.345,0V68.808a.672.672,0,0,0-.672-.672H31.537a.672.672,0,0,0,0,1.345H34.35l-7.267,6.038a7.758,7.758,0,0,1,2.631-7.274Z"/></g></g></svg>