<svg xmlns="http://www.w3.org/2000/svg" width="83" height="83" viewBox="0 0 83 83"><g transform="translate(-746 8031)"><circle cx="41.5" cy="41.5" r="41.5" transform="translate(746 -8031)" fill="#cfeaea"/><g transform="translate(736.77 -8074.794)"><g transform="translate(25.135 68.917)"><path d="M215.81,371.56a5.291,5.291,0,1,1-5.29,5.292A5.294,5.294,0,0,1,215.81,371.56Z" transform="translate(-190.319 -343.586)" fill="#fcd004" fill-rule="evenodd"/><path d="M394.11,124.66a5.291,5.291,0,1,1-5.29,5.292A5.293,5.293,0,0,1,394.11,124.66Z" transform="translate(-348.417 -124.66)" fill="#a8aeb5" fill-rule="evenodd"/><path d="M37.51,124.66a5.291,5.291,0,1,1-5.29,5.292A5.293,5.293,0,0,1,37.51,124.66Z" transform="translate(-32.22 -124.66)" fill="#44a6f1" fill-rule="evenodd"/><path d="M162.937,130.812l-.809-2.152h-2.942l-.807,2.152a10.408,10.408,0,0,0-3.312,1.371l-2.094-.951-2.078,2.081.951,2.094a10.3,10.3,0,0,0-1.374,3.312l-2.152.806v2.942l2.152.809a10.359,10.359,0,0,0,1.374,3.312l-.951,2.09,2.078,2.081,2.094-.951a10.31,10.31,0,0,0,3.312,1.371l.807,2.152h2.942l.809-2.152a10.331,10.331,0,0,0,3.312-1.371l2.094.951,2.078-2.081-.951-2.09a10.426,10.426,0,0,0,1.374-3.312l2.148-.809v-2.942l-2.148-.806a10.383,10.383,0,0,0-1.374-3.312l.951-2.094-2.078-2.081-2.094.951A10.387,10.387,0,0,0,162.937,130.812Z" transform="translate(-135.166 -128.207)" fill="#2f73a8" fill-rule="evenodd"/><path d="M214.382,189.21a5.476,5.476,0,1,1-5.472,5.476,5.477,5.477,0,0,1,5.472-5.476Z" transform="translate(-188.891 -181.896)" fill="#fff6cc" fill-rule="evenodd"/></g><path d="M63.872,69,61.3,68.966a.9.9,0,0,1-.671-1.5l.466-.53A18.094,18.094,0,0,0,38.348,68.41a.9.9,0,0,1-1.227-1.329,19.9,19.9,0,0,1,25.17-1.509l.591-.678a.907.907,0,0,1,1.577.469l.378,2.6a.905.905,0,0,1-.767,1.024,1.075,1.075,0,0,1-.2.006ZM32.407,82.1l1.873,1.834a.9.9,0,0,1-.555,1.544v0l-.787.068a18.12,18.12,0,0,0,9.934,12.516A.905.905,0,1,1,42.1,99.7a19.965,19.965,0,0,1-10.978-13.99l-.809.07a.908.908,0,0,1-.777-1.481l1.49-2.09a.905.905,0,0,1,1.38-.113ZM50.63,75.324a6.381,6.381,0,1,1-6.381,6.381A6.382,6.382,0,0,1,50.63,75.324Zm3.23,3.151a4.569,4.569,0,1,0,0,6.462A4.573,4.573,0,0,0,53.86,78.475Zm-1.8-6.638-.588-1.561H49.782L49.2,71.837a.911.911,0,0,1-.668.572,9.446,9.446,0,0,0-3.006,1.25.9.9,0,0,1-.893.045l-1.487-.674-1.194,1.194.693,1.523a.911.911,0,0,1-.061.858,9.483,9.483,0,0,0-1.255,3.019.9.9,0,0,1-.565.651l-1.561.588v1.693l1.561.585a.907.907,0,0,1,.569.668,9.576,9.576,0,0,0,1.253,3.006.9.9,0,0,1,.042.893l-.674,1.486,1.194,1.194,1.523-.693a.91.91,0,0,1,.858.061,9.552,9.552,0,0,0,3.022,1.255.9.9,0,0,1,.651.565l.585,1.561h1.693l.588-1.561a.9.9,0,0,1,.665-.569,9.484,9.484,0,0,0,3.006-1.253.9.9,0,0,1,.9-.042l1.484.674,1.194-1.194-.69-1.525a.9.9,0,0,1,.061-.854h0a9.4,9.4,0,0,0,1.255-3.022.9.9,0,0,1,.569-.651l1.558-.585V80.864L60.5,80.276a.9.9,0,0,1-.572-.665,9.046,9.046,0,0,0-.492-1.548,9.193,9.193,0,0,0-.761-1.458.912.912,0,0,1-.042-.9l.674-1.484L58.114,73.03l-1.523.69a.9.9,0,0,1-.858-.061,9.763,9.763,0,0,0-1.458-.761v0a9.356,9.356,0,0,0-1.564-.5.9.9,0,0,1-.649-.567Zm.883-2.782.639,1.7a11.167,11.167,0,0,1,1.385.469v0a11.81,11.81,0,0,1,1.311.642l1.609-.729a.9.9,0,0,1,1.063.161l2.081,2.078v0a.9.9,0,0,1,.184,1.012l-.751,1.661a10.709,10.709,0,0,1,.642,1.31,10.986,10.986,0,0,1,.469,1.385l1.632.611a.908.908,0,0,1,.665.874V83.18h0a.908.908,0,0,1-.588.847l-1.705.639a11.3,11.3,0,0,1-1.111,2.694l.73,1.605a.91.91,0,0,1-.161,1.066l-2.081,2.081v0a.9.9,0,0,1-1.012.186l-1.66-.755a11.268,11.268,0,0,1-2.694,1.115l-.611,1.632a.908.908,0,0,1-.874.662H49.159v0a.9.9,0,0,1-.847-.588l-.639-1.7a11.331,11.331,0,0,1-2.694-1.115l-1.605.729a.909.909,0,0,1-1.066-.157l-2.081-2.081h0a.9.9,0,0,1-.186-1.012l.755-1.663a11.187,11.187,0,0,1-1.115-2.691l-1.632-.613a.909.909,0,0,1-.665-.874V80.236h0a.9.9,0,0,1,.588-.845l1.705-.639A11.192,11.192,0,0,1,40.8,76.058l-.732-1.609a.91.91,0,0,1,.161-1.066L42.308,71.3a.91.91,0,0,1,1.012-.186l1.66.755a11.469,11.469,0,0,1,2.694-1.115l.613-1.628a.905.905,0,0,1,.874-.665H52.1v0a.9.9,0,0,1,.842.587ZM27.512,74.5a.9.9,0,1,1,1.565-.9l.3.514,1.847-1.85A.906.906,0,1,1,32.5,73.546l-2.678,2.682,0,0a.906.906,0,0,1-1.423-.186Zm2.916-6.488a6.2,6.2,0,1,1-6.2,6.2A6.2,6.2,0,0,1,30.429,68.012Zm3.1,3.1a4.386,4.386,0,1,0,0,6.2A4.387,4.387,0,0,0,33.527,71.107ZM67.915,74.5a.9.9,0,1,1,1.565-.9l.3.514,1.847-1.85a.906.906,0,0,1,1.281,1.281l-2.678,2.682,0,0a.9.9,0,0,1-1.42-.186Zm2.916-6.488a6.2,6.2,0,1,1-6.2,6.2A6.2,6.2,0,0,1,70.832,68.012Zm3.1,3.1a4.386,4.386,0,1,0,0,6.2A4.387,4.387,0,0,0,73.93,71.107Zm-24,33.055a.906.906,0,1,1-1.281-1.281l.7-.7-.7-.7A.906.906,0,1,1,49.93,100.2l.7.7.7-.7a.907.907,0,1,1,1.285,1.281l-.7.7.7.7a.907.907,0,1,1-1.285,1.281l-.7-.7Zm.7-8.177a6.2,6.2,0,1,1-6.2,6.2A6.2,6.2,0,0,1,50.63,95.986Zm3.1,3.1a4.386,4.386,0,1,0,0,6.2A4.387,4.387,0,0,0,53.729,99.081Z" transform="translate(0 0)"/></g></g></svg>