<svg xmlns="http://www.w3.org/2000/svg" width="295" height="155.013" viewBox="0 0 295 155.013"><g transform="translate(-3948.293 7414.503)"><g transform="translate(3949.812 -7414.503)"><g transform="translate(0 27.687)"><path d="M227.608,181.307l-54.9,79.238H450.168l-54.9-79.238Z" transform="translate(-172.709 -181.307)" fill="#ecefed"/><g transform="translate(15.986 3.545)"><path d="M324.5,197.08l-14.071,12.063,42.055,16.037c2.782-5.157,1.262-13.9.512-17.285Z" transform="translate(-178.679 -183.705)" fill="#92e3e1"/><path d="M228.221,184.613l-8.338,13.015A170.6,170.6,0,0,0,249.46,199.8c.858-3.258,4.293-6.079,8.115-7.962l-16.935-7.226Z" transform="translate(-185.264 -184.612)" fill="#34a86e"/><path d="M354.073,207.684c3.863,8.359,2.336,15.249.511,19.393l63.094,23.569h5.089l-33.786-51.985Z" transform="translate(-175.504 -183.59)" fill="#92e3e1"/><path d="M284.524,191.919c-7.267-2.3-16.681-1.947-24.879,1.287-9.573,3.776-10,9.132-1.87,11.912s19.783,2.67,28.9-.928h0l.008,0C297.142,200.056,291.758,194.209,284.524,191.919Z" transform="translate(-182.925 -184.188)" fill="#fc6"/><path d="M293.188,194.628a6.175,6.175,0,0,1,.917,3.6,7.442,7.442,0,0,1-1.5,3.876l14.459,5.109,15.9-11.318-8.708-2.754Z" transform="translate(-179.974 -183.992)" fill="#34a86e"/><path d="M279.226,209.218c4.717,8.671,17.87,25.507,33.055,40.963h95.094L289.4,205.038A34.152,34.152,0,0,1,279.226,209.218Z" transform="translate(-180.948 -183.126)" fill="#92e3e1"/><path d="M290.15,192.023c.2.133.387.269.573.407l24.353-1.424c3.776-1.514,9.868-4.133,12.883-6.395h-25.92A88.812,88.812,0,0,1,290.15,192.023Z" transform="translate(-180.153 -184.612)" fill="#92e3e1"/><path d="M252.045,202.521a242.544,242.544,0,0,1-31.812-2.868l-32.622,50.92h25.71c11.774-10.393,32.208-29.845,45.19-42.322C255.2,206.75,252.948,204.761,252.045,202.521Z" transform="translate(-187.611 -183.518)" fill="#92e3e1"/><path d="M334.557,184.613c-2.96,2.019-9.447,6.067-15.945,7.735l31.905,12.977,38.5-9.562-7.246-11.15Z" transform="translate(-178.083 -184.612)" fill="#92e3e1"/><path d="M261.4,189.586c9.237-2.687,19.913-2.615,27.69.356a92.089,92.089,0,0,0,8.554-5.329H248.369Z" transform="translate(-183.192 -184.612)" fill="#34a86e"/><path d="M260.752,209.119c-14.189,14.358-32.748,31.9-42.209,40.766h86.486c-8.38-10.672-20.591-26.947-27.629-39.841A46.433,46.433,0,0,1,260.752,209.119Z" transform="translate(-185.361 -182.83)" fill="#34a86e"/><path d="M364.437,208.705l34.908-9.023.19-.049-2.551-3.915-.186.045-37.563,9.33L326.4,192.348c6.5-1.669,12.985-5.718,15.945-7.735h-8.667c-3.015,2.261-9.107,4.881-12.884,6.395l-24.353,1.423q-.278-.208-.573-.407a88.991,88.991,0,0,0,11.889-7.411h-7.436a92.033,92.033,0,0,1-8.554,5.329c-7.777-2.971-18.452-3.043-27.69-.356l-13.03-4.973h-9.8l16.935,7.226c-3.822,1.883-7.258,4.7-8.115,7.962a170.591,170.591,0,0,1-29.577-2.172l-2.534,3.955a199.453,199.453,0,0,0,32.348,2.032c.9,2.24,3.153,4.228,6.465,5.729-12.982,12.477-33.416,31.93-45.19,42.322h7.473c9.459-8.867,28.019-26.407,42.209-40.766a46.438,46.438,0,0,0,16.649.925c7.038,12.894,19.249,29.17,27.629,39.841H317.2c-15.185-15.456-28.337-32.292-33.055-40.963a34.125,34.125,0,0,0,10.174-4.181l117.976,45.144h15.747L364.948,228.1C366.773,223.954,368.3,217.063,364.437,208.705Zm-74.809-4.095-.007,0h0c-9.118,3.6-20.782,3.705-28.9.928s-7.7-8.136,1.87-11.912c8.2-3.234,17.612-3.588,24.878-1.287C294.7,194.633,300.085,200.48,289.628,204.611Zm8.877-1.885a7.451,7.451,0,0,0,1.5-3.876,6.18,6.18,0,0,0-.917-3.6l21.078-1.485,8.708,2.754-15.9,11.318Zm61.166,23.36-42.055-16.037,14.071-12.063L360.181,208.8C360.933,212.182,362.452,220.93,359.671,226.086Z" transform="translate(-185.868 -184.612)" fill="#eaedeb"/></g><g transform="translate(123.715 11.304)"><g transform="translate(84.909 8.95)"><path d="M367.188,200.516l.7.707,1.005-.333-.7-.7Z" transform="translate(-367.188 -200.188)" fill="#e05132"/></g><g transform="translate(79.295 9.734)"><path d="M361.955,202.243l.682.725,1.422-.47-.689-.721Z" transform="translate(-361.955 -200.857)" fill="#e05132"/><path d="M364.589,201.378l.691.716,1.4-.463-.7-.711Z" transform="translate(-361.763 -200.919)" fill="#e05132"/></g><g transform="translate(70.595 11.588)"><path d="M353.845,204.9l.651.754,1.479-.488-.657-.75Z" transform="translate(-353.845 -202.518)" fill="#e05132"/><path d="M359.288,203.118l.672.735,1.441-.475-.677-.731Z" transform="translate(-353.449 -202.647)" fill="#e05132"/><path d="M356.584,204.005l.661.744,1.46-.482-.666-.74Z" transform="translate(-353.646 -202.583)" fill="#e05132"/></g><g transform="translate(66.913 14.348)"><path d="M351.73,205.622l-1.063-.4-.255.706,1.555.592,1.288-.426-.644-.76Z" transform="translate(-350.412 -205.22)" fill="#e05132"/></g><g transform="translate(57.197 10.688)"><path d="M345.826,204.181l2.444.93.266-.7-2.433-.92Z" transform="translate(-341.03 -201.685)" fill="#e05132"/><path d="M341.355,202.48l2.384.906.286-.68-2.374-.9Z" transform="translate(-341.355 -201.808)" fill="#e05132"/></g><g transform="translate(4.405)"><path d="M304.636,192.537l.1.663,2.228-.148-.114-.662Z" transform="translate(-291.233 -191.805)" fill="#e05132"/><path d="M300.489,192.812l.08.666,2.238-.149-.091-.664Z" transform="translate(-291.535 -191.785)" fill="#e05132"/><path d="M312.874,191.99l.146.659,2.208-.148-.157-.655Z" transform="translate(-290.634 -191.845)" fill="#e05132"/><path d="M308.764,192.263l.124.661,2.217-.148-.135-.659Z" transform="translate(-290.933 -191.825)" fill="#e05132"/><path d="M337,200.82l2.325.884.3-.663-2.315-.876Z" transform="translate(-288.88 -191.24)" fill="#e05132"/><path d="M296.325,193.089l.058.669,2.248-.15-.071-.668Z" transform="translate(-291.838 -191.765)" fill="#e05132"/><path d="M292.142,193.366l.035.673,2.257-.15-.047-.672Z" transform="translate(-292.142 -191.745)" fill="#e05132"/><path d="M328.593,197.623l2.212.841.339-.632-2.2-.834Z" transform="translate(-289.491 -191.47)" fill="#e05132"/><path d="M332.743,199.2l2.267.861.322-.647-2.258-.854Z" transform="translate(-289.189 -191.356)" fill="#e05132"/><path d="M324.542,196.081l2.161.821.353-.616-2.152-.814Z" transform="translate(-289.785 -191.581)" fill="#e05132"/><path d="M316.723,193.105l2.06.783.383-.588-2.053-.777Z" transform="translate(-290.354 -191.796)" fill="#e05132"/><path d="M320.586,194.575l2.109.8.368-.6-2.1-.8Z" transform="translate(-290.073 -191.69)" fill="#e05132"/></g><g transform="translate(0 1.771)"><path d="M288.036,193.635l.014.675,2.163-.141-.024-.674Z" transform="translate(-288.036 -193.496)" fill="#e05132"/></g></g><path d="M410.806,212.553l-33.419-12.365,13.51,47.226L269.823,202.5,285.4,259.013l108.876.211.015.055,13.3-.029,15.291.029-.171-.062,20.392-.046Z" transform="translate(-165.646 -179.934)" fill="#b7babc" opacity="0.65"/></g><g transform="translate(86.523 0)"><path d="M270.734,161.249a13.445,13.445,0,1,0,13.445,13.445A13.444,13.444,0,0,0,270.734,161.249Z" transform="translate(-253.081 -155.079)" fill="#243435"/><path d="M271.02,155.5a17.654,17.654,0,0,0-17.654,17.655c0,9.75,9.808,32.786,17.654,32.786,7,0,17.654-23.037,17.654-32.786A17.654,17.654,0,0,0,271.02,155.5Zm0,30.268a10.653,10.653,0,1,1,10.653-10.653A10.654,10.654,0,0,1,271.02,185.765Z" transform="translate(-253.366 -155.497)" fill="#66757e"/><g transform="translate(13.059 13.54)"><path d="M273.293,173.879a2.934,2.934,0,0,0,1.746-.961,2.688,2.688,0,0,0,.574-1.746,2.574,2.574,0,0,0-1.142-2.281,6.033,6.033,0,0,0-3.368-.771H265.54v12.152h6.08a5.768,5.768,0,0,0,3.45-.905,2.984,2.984,0,0,0,1.242-2.562,2.664,2.664,0,0,0-.772-2A3.738,3.738,0,0,0,273.293,173.879Zm-5.209-3.871h2.9a2.829,2.829,0,0,1,1.548.344,1.29,1.29,0,0,1,.521,1.164,1.331,1.331,0,0,1-.487,1.125,2.585,2.585,0,0,1-1.565.375h-2.916v-3.009Zm5.11,7.93a2.9,2.9,0,0,1-1.79.444h-3.32V174.9h3.226q2.449,0,2.449,1.708A1.594,1.594,0,0,1,273.194,177.937Z" transform="translate(-265.54 -168.119)" fill="#eaedeb"/></g></g><g transform="translate(197.197 6.904)"><path d="M370.845,166.671a11.076,11.076,0,1,0,11.076,11.076A11.076,11.076,0,0,0,370.845,166.671Z" transform="translate(-356.301 -161.588)" fill="#243435"/><path d="M371.08,161.933a14.545,14.545,0,0,0-14.544,14.544c0,8.033,8.08,27.01,14.544,27.01,5.771,0,14.544-18.978,14.544-27.01A14.545,14.545,0,0,0,371.08,161.933Zm0,24.937a8.777,8.777,0,1,1,8.777-8.776A8.777,8.777,0,0,1,371.08,186.87Z" transform="translate(-356.536 -161.933)" fill="#66757e"/><g transform="translate(9.545 10.523)"><path d="M369.174,171.743,365.434,182h2.147l.91-2.62H372.4l.91,2.62h2.124l-3.726-10.253Zm-.2,6.019q1.149-3.349,1.252-3.683t.174-.6l.044-.16.153.5.313.99,1.01,2.947H368.97Z" transform="translate(-365.434 -171.743)" fill="#eaedeb"/></g></g></g><g transform="translate(3948.293 -7403.073)"><path d="M246.475,178.82c-1.98-2.232-6.176-1.743-9.371,1.091l-42.9,33.215a37.976,37.976,0,0,0-5.712,6.131c-.279-2.966-.552-5.813-.72-7.372-.711-6.62-2.414-22.113-10.289-24.584-2.786-.874-3.1.689-3.1.689l-.316,30.282c.05.33-.3,13.555-.395,22.606a29.239,29.239,0,0,0,1.543,9.628,26.524,26.524,0,0,1,1.359,5.514h.009v30.856h29.639l-.032-23.711a84.933,84.933,0,0,0,9.5-5.087l10.83-8.772V205.374l-1.508,1.341-3.248,2.889c-.15-.39-.257-.761-.4-1.148l.908-.8,22.074-19.574c3.2-2.835,4.183-6.942,2.2-9.174Z" transform="translate(-171.12 -165.333)" fill="#ecb786"/><g transform="translate(11.854 0)"><path d="M233.353,166.152H185.936a3.838,3.838,0,0,0-3.593,4.042v79.39a3.838,3.838,0,0,0,3.593,4.043h47.418a3.838,3.838,0,0,0,3.594-4.043v-79.39A3.839,3.839,0,0,0,233.353,166.152Z" transform="translate(-182.343 -166.152)" fill="#273637"/><rect width="46.939" height="60.945" transform="translate(3.709 10.787)" fill="#e3e7e5"/><rect width="43.682" height="56.716" transform="translate(5.338 12.902)" fill="#7b7d7c"/><path d="M221.712,187.971c-3.563,6.781-7.4,13.256-11.348,19.8a5.524,5.524,0,0,1-1.664,1.719,22.853,22.853,0,0,0,.486,3.387,41.77,41.77,0,0,0,3.375,8.462,86.244,86.244,0,0,1,6.137,13.555h10.749V178.178h-3.2C225.634,181.583,223.186,185.165,221.712,187.971Z" transform="translate(-180.426 -165.277)" fill="#f0be2e"/><path d="M208.292,201.841a5.587,5.587,0,0,1-.743-1.231c-.351-.813-.727-1.627-1.11-2.446-1.285-2.365-2.86-4.7-4.843-5.94-2.887,2.219-6.256,3.332-9.625,4.527a17.641,17.641,0,0,1-2.615,1.633,6.526,6.526,0,0,1-2.036.635v26.926a77,77,0,0,1,9.96-5.315c4.378-2.036,9.974-7.494,14.545-8.808a53.437,53.437,0,0,0-3.4-9.716Z" transform="translate(-181.981 -164.256)" fill="#1b9d5c"/><path d="M213.033,170.186h-9.64a1.391,1.391,0,0,0-1.377,1.4v.028a1.391,1.391,0,0,0,1.377,1.4h9.64a1.39,1.39,0,0,0,1.377-1.4v-.028A1.391,1.391,0,0,0,213.033,170.186Z" transform="translate(-180.912 -165.859)" fill="#e3e7e5"/><path d="M207.858,236.424a2.633,2.633,0,1,0,2.634,2.632A2.633,2.633,0,0,0,207.858,236.424Z" transform="translate(-180.679 -161.041)" fill="#e3e7e5"/><path d="M207.793,209.233l1.7,5.1s10.287-22.612,20.692-34.821V177.3h-2.947C223.038,182.117,211.433,196.254,207.793,209.233Z" transform="translate(-180.492 -165.341)" fill="#dce1de"/><path d="M186.3,197.956v5.6l17.121-9.837-1.619-3.9Z" transform="translate(-182.055 -164.431)" fill="#dce1de"/><path d="M186.513,223.927V231.3l24.756-18.369-1.929-5.383Z" transform="translate(-182.04 -163.141)" fill="#dce1de"/><path d="M206.624,177.021h-5.085l-2.085,17.628,17.981,41.509h5.106l-18.77-43.811Z" transform="translate(-181.098 -165.361)" fill="#dce1de"/><rect width="6.979" height="6.38" transform="translate(39.449 56.535)" fill="#7b7d7c"/><path d="M212.625,208.465l3.274,6.111,3.69-2.113-3.275-6.111Z" transform="translate(-180.141 -163.228)" fill="#7b7d7c"/><path d="M217.252,208.943l4.534,8.463L228,213.848l-4.536-8.463Z" transform="translate(-179.804 -163.299)" fill="#273637"/><path d="M206.465,181.039l2.6,4.855,4.1-2.351-2.6-4.855Z" transform="translate(-180.589 -165.24)" fill="#273637"/><path d="M192.543,200.951l2.143,3.757,5.82-3.552-2.144-3.756Z" transform="translate(-181.601 -163.879)" fill="#273637"/><path d="M195.189,206.957l2.429,4.533,5.019-2.875-2.429-4.534Z" transform="translate(-181.409 -163.393)" fill="#b7bcbc"/><path d="M188.646,210.375l2.093,3.9,4.11-2.354-2.093-3.9Z" transform="translate(-181.885 -163.107)" fill="#273637"/><path d="M213.725,185.875l3.342,2.66L221.189,183l-3.343-2.661Z" transform="translate(-180.061 -165.12)" fill="#3dcdca"/><path d="M206.735,193.7l3.343,2.66,1.457-1.957-3.342-2.661Z" transform="translate(-180.569 -164.291)" fill="#3dcdca"/><path d="M208.972,189.938l3.342,2.661,1.458-1.958-3.342-2.661Z" transform="translate(-180.406 -164.564)" fill="#3dcdca"/><path d="M186.6,190.313v4.552c2.154-1.024,9.288-5.253,13.5-17.844h-5.165A18.486,18.486,0,0,1,186.6,190.313Z" transform="translate(-182.033 -165.361)" fill="#3dcdca"/><path d="M195.484,209.434a4.424,4.424,0,0,0-4.348,4.5c0,2.482,2.709,8.8,4.348,8.8,1.711,0,4.349-6.315,4.349-8.8A4.424,4.424,0,0,0,195.484,209.434Zm0,7.1a2.065,2.065,0,1,1,2-2.064A2.03,2.03,0,0,1,195.484,216.538Z" transform="translate(-181.703 -163.004)" fill="#e05132"/><path d="M185.8,237.153H232.74V176.207H185.8Zm2.048-58.285h42.842v55.624H187.849Z" transform="translate(-182.091 -165.421)" fill="#e3e7e5"/><rect width="5.557" height="3.228" transform="translate(14.34 62.915)" fill="#b7bcbc"/><rect width="3.944" height="7.26" transform="translate(22.162 57.892)" fill="#273637"/><path d="M231.514,166.152h-23.88v87.475h23.88a3.838,3.838,0,0,0,3.594-4.043v-79.39A3.839,3.839,0,0,0,231.514,166.152Z" transform="translate(-180.504 -166.152)" fill="#b7bcbc" opacity="0.64"/></g><g transform="translate(54.778 30.697)"><path d="M240.5,196.493l-.077-.087c-2.112-2.381-5.9-2.309-10,1.16l-4.457,4.041a14.743,14.743,0,0,0-2.772,3.362,5.44,5.44,0,0,0,.2,6.1,3.955,3.955,0,0,0,.262.338l.077.087c1.9,2.124,5.694,1.928,8.88-.346,2.731-1.949,7.558-6.833,8.411-8.844a5.557,5.557,0,0,0-.322-5.558C240.636,196.665,240.577,196.576,240.5,196.493Z" transform="translate(-222.357 -194.768)" fill="#ecb786"/><path d="M240.071,211.444l-.074-.083c-2.01-2.268-5.61-2.287-9.521,1.1l-4.243,3.847a14.062,14.062,0,0,0-2.639,3.2,5.18,5.18,0,0,0,.186,5.811,3.607,3.607,0,0,0,.248.322l.074.083c1.806,2.022,5.421,1.835,8.454-.33,2.6-1.856,7.195-6.505,8.007-8.419a5.294,5.294,0,0,0-.306-5.291C240.2,211.606,240.14,211.522,240.071,211.444Z" transform="translate(-222.325 -193.677)" fill="#ecb786"/><path d="M239.213,225.792l-.065-.075c-1.812-2.044-5.162-1.829-8.579,1l-3.823,3.466a12.671,12.671,0,0,0-2.377,2.884,4.666,4.666,0,0,0,.167,5.236,3.261,3.261,0,0,0,.223.291l.067.074c1.628,1.822,4.884,1.653,7.617-.3,2.343-1.673,6.484-5.861,7.215-7.585a4.771,4.771,0,0,0-.276-4.768C239.327,225.938,239.277,225.862,239.213,225.792Z" transform="translate(-222.263 -192.615)" fill="#ecb786"/></g><g transform="translate(0 99.638)"><rect width="40.085" height="43.944" fill="#44a6f1"/></g></g><g transform="translate(4036.678 -7349.519)"><g transform="translate(0 0)"><g transform="translate(0 18.884)"><path d="M339.973,248.464l-.043-.049c-1.194-1.347-3.727-1.053-5.655.654l-12.05,10.723-.054-.1c-.109-.2-.216-.4-.325-.6l1.548-1.368c.036-.031.062-.07.1-.1l14.12-12.546c1.93-1.71,2.525-4.187,1.332-5.535l-.044-.049c-1.194-1.347-3.727-1.053-5.657.654L320.624,251.35l-1.961,1.742c-.091-.236-.156-.459-.241-.692l.548-.485L332.3,240.11c1.93-1.71,2.525-4.188,1.332-5.535l-.044-.049c-1.194-1.348-3.727-1.055-5.655.654l-25.9,20.03c-4.843,3.859-12.159,17.363-12.159,17.363l-8,7.254,13.585,15.11,7.33-6.583c1.14-.323,12.405-5.169,13.292-5.956,0,0,12.65-11.177,12.676-11.208l9.869-8.768c1.669-1.478,2.185-3.622,1.152-4.788l-.038-.043c-1.033-1.165-3.223-.912-4.893.566l-9.279,8.244c-.082-.174-.166-.377-.252-.548L338.64,254C340.571,252.29,341.167,249.813,339.973,248.464Z" transform="translate(-251.636 -233.679)" fill="#ecb786"/><path d="M253.686,302.106h34.681l15.714-13.969-15.369-17.1Z" transform="translate(-253.686 -230.961)" fill="#af9002"/></g><g transform="translate(52.741)"><path d="M385.066,216.075H307.177a4.465,4.465,0,0,0-4.326,4.592V268.43a4.878,4.878,0,0,0,.178,1.3h86.186a4.876,4.876,0,0,0,.178-1.3V220.667A4.467,4.467,0,0,0,385.066,216.075Z" transform="translate(-302.851 -216.075)" fill="#112223"/><path d="M374.2,222.961H316.52a3.307,3.307,0,0,0-3.2,3.4v35.371a3.307,3.307,0,0,0,3.2,3.4H374.2a3.307,3.307,0,0,0,3.2-3.4V226.362A3.306,3.306,0,0,0,374.2,222.961Z" transform="translate(-302.09 -215.574)" fill="#fc6"/><path d="M342.429,263.751h29.656a3.307,3.307,0,0,0,3.2-3.4V241.981h-32.86Z" transform="translate(-299.972 -214.191)" fill="#1b9d5c"/><rect width="25.328" height="21.77" transform="translate(18.085 27.79)" fill="#7b7d7c"/><path d="M326.807,239.847a9.653,9.653,0,0,1-.379-1.08c-.678-1.561-1.385-3.109-2.211-4.6-1.918-3.47-4.023-7.273-4.979-11.172H308.626v21.769h15.838a3.28,3.28,0,0,0,3.181-3.152l-.01-.021C327.343,241.016,327.06,240.441,326.807,239.847Z" transform="translate(-302.431 -215.572)" fill="#1b9d5c"/><rect width="64.09" height="3.81" transform="translate(11.225 27.284)" fill="#dce1de"/><rect width="6.123" height="42.173" transform="translate(40.209 7.387)" fill="#dce1de"/><path d="M356.342,229.134h-6.415c10.63,8.9,8.079,14.465,8.079,14.465h4.875C361.927,232.684,356.342,229.134,356.342,229.134Z" transform="translate(-299.427 -215.125)" fill="#dce1de"/><path d="M317.5,243.284l2.449,21.092h5.579l-4.014-21.092Z" transform="translate(-301.786 -214.096)" fill="#dce1de"/><path d="M318.136,228.622l7.347,15.728h5.308l-7.213-15.728Z" transform="translate(-301.739 -215.162)" fill="#dce1de"/><path d="M352.765,266.092h4.763s3.81-13.818,12.246-21.476l-4.9-1.332S352.493,255.6,352.765,266.092Z" transform="translate(-299.221 -214.096)" fill="#dce1de"/><path d="M335.7,259.208l8.028-4.522,8.027,4.522s.409-7.756-8.027-17.418C335.3,251.452,335.7,259.208,335.7,259.208Z" transform="translate(-300.462 -214.205)" fill="#e05132"/><path d="M374.2,222.961H316.52a3.307,3.307,0,0,0-3.2,3.4v3.84h64.09v-3.84A3.308,3.308,0,0,0,374.2,222.961Z" transform="translate(-302.09 -215.574)" fill="#3dcdca"/><path d="M308.489,267.172h74.424V221.183H308.489Zm6.225-42.142h61.975v38.3H314.714Z" transform="translate(-302.441 -215.703)" fill="#f3f3f3"/><path d="M385.066,216.075H307.177a4.465,4.465,0,0,0-4.326,4.592V268.43a4.878,4.878,0,0,0,.178,1.3h86.186a4.876,4.876,0,0,0,.178-1.3V220.667A4.467,4.467,0,0,0,385.066,216.075Zm-6.339,49.56h-65.4V223.493h65.4Z" transform="translate(-302.851 -216.075)" fill="#273637"/><path d="M382.136,216.075H343.142v53.654h43.142a4.876,4.876,0,0,0,.178-1.3V220.667A4.465,4.465,0,0,0,382.136,216.075Z" transform="translate(-299.921 -216.075)" fill="#b7bcbc" opacity="0.55"/></g><g transform="translate(38.842 24.105)"><path d="M310.6,238.667,296.648,253.9l-.61.934c-1.784,4.045-6.227,16.5-6.141,16.293,0,0,8.322-2.956,11.552-5.39,0,0,3.381-6.5,5.068-8.838,2.654-3.684,8.845-12.327,5.971-17.168C311.471,238.016,310.6,238.667,310.6,238.667Z" transform="translate(-289.895 -238.546)" fill="#ecb786"/></g></g><g transform="translate(110.735 26.217)"><path d="M415.919,262.055,398.74,244.624a3.458,3.458,0,0,0-4.847-.4l-.045.045a2.98,2.98,0,0,0-.542,4.111c-.237.167-.286.2-.555.383l-1.317-1.338a3.655,3.655,0,0,0-5.166-.135l-.051.05c-2.827,2.557.058,5.171.058,5.171-.219.133-.426.262-.647.395l-1.607-1.634a3.668,3.668,0,0,0-5.186-.112l-.053.051a3.669,3.669,0,0,0,.035,5.187l.373.379c-.261.118-.51.2-.768.313L364,242.452c-2.007-2.035-4.787-2.551-6.209-1.149l-.053.052c-1.421,1.4-.948,4.189,1.059,6.225l26.494,26.887a4.968,4.968,0,0,1,.09.911c-.289-.3-.547-.559-.845-.872-9.385-9.8-14.017-9.5-15.946-8.115-1.622,1.168-.639,2.151-.639,2.151l17.236,16.976c.466.263.915.517,1.38.782,4.564,1.115,15.886,1.232,15.886,1.232l8.5,8.433,15.934-15.934-7.722-7.73C418.741,271.051,416.84,262.991,415.919,262.055Z" transform="translate(-356.914 -240.514)" fill="#ecb786"/><path d="M400.759,288.811l12.351,13.314H449.6l-30.816-31.344Z" transform="translate(-353.725 -238.313)" fill="#af9002"/></g></g></g></svg>