<svg xmlns="http://www.w3.org/2000/svg" width="85.332" height="85.332" viewBox="0 0 85.332 85.332"><defs><clipPath id="a"><path d="M0 0h85.332v85.332H0Z"/></clipPath></defs><g clip-path="url(#a)"><path fill="#b3dbf9" d="M51.886 1.25h-20.44a.835.835 0 0 0-.835.835v12.671a.835.835 0 0 0 .835.835h6.081a1.01 1.01 0 0 1 .811.408l2.417 3.259a1.133 1.133 0 0 0 1.82 0l2.417-3.259a1.01 1.01 0 0 1 .812-.408h6.081a.835.835 0 0 0 .835-.835V2.085a.835.835 0 0 0-.834-.835"/><path fill="#feec9a" d="M3.97 43.996v33.4a1.67 1.67 0 0 0 1.672 1.672h45.281V43.996a.836.836 0 0 0-.836-.836H4.805a.836.836 0 0 0-.835.836"/><path fill="#af9002" d="M50.087 43.16H45.92a.836.836 0 0 1 .834.836v35.071h4.167V43.996a.836.836 0 0 0-.834-.836"/><path fill="#ffe177" d="M3.97 71.42v5.975a1.67 1.67 0 0 0 1.672 1.672h45.281V71.42Z"/><path fill="#fec165" d="M46.757 79.067h4.167v-7.65h-4.167Z"/><path fill="#d9ecfc" d="M50.923 48.016h17.214a2.88 2.88 0 0 1 2.646 1.738l4.559 10.537 4.376 3.7a4.65 4.65 0 0 1 1.645 3.547v10.69a.836.836 0 0 1-.836.836H50.923Z"/><path fill="#b3dbf9" d="m79.717 63.994-4.376-3.7-4.559-10.537a2.88 2.88 0 0 0-2.645-1.738H63.97a2.88 2.88 0 0 1 2.646 1.738l4.559 10.537 4.376 3.7a4.65 4.65 0 0 1 1.645 3.548v10.689a.836.836 0 0 1-.836.836h4.167a.836.836 0 0 0 .836-.836v-10.69a4.65 4.65 0 0 0-1.645-3.547"/><path fill="#3692bc" d="M66.336 60.291h9.006l-3.075-7.107h-5.93a.836.836 0 0 0-.836.836v5.436a.836.836 0 0 0 .836.836"/><path fill="#0681af" d="M72.266 53.184h-4.167l3.075 7.108h4.167Z"/><path fill="#3692bc" d="M60.82 54.02v5.436a.836.836 0 0 1-.836.836h-3.387a.836.836 0 0 1-.836-.836V54.02a.836.836 0 0 1 .836-.836h3.387a.836.836 0 0 1 .836.836"/><path fill="#a8aeb5" d="M66.678 84.082a7.736 7.736 0 0 1-7.727-7.727 7.736 7.736 0 0 1 7.727-7.727 7.736 7.736 0 0 1 7.727 7.727 7.736 7.736 0 0 1-7.727 7.727"/><path fill="#fff9df" d="M66.678 73.644a2.71 2.71 0 0 0-2.711 2.711 2.71 2.71 0 0 0 2.711 2.712 2.71 2.71 0 0 0 2.712-2.711 2.71 2.71 0 0 0-2.712-2.712"/><path fill="#a8aeb5" d="M20.683 84.082a7.736 7.736 0 0 1-7.727-7.727 7.736 7.736 0 0 1 7.727-7.727 7.735 7.735 0 0 1 7.727 7.727 7.735 7.735 0 0 1-7.727 7.727"/><path fill="#fff9df" d="M20.684 73.644a2.71 2.71 0 0 0-2.711 2.711 2.71 2.71 0 0 0 2.711 2.712 2.71 2.71 0 0 0 2.712-2.711 2.71 2.71 0 0 0-2.712-2.712"/><path fill="#44a6f1" d="M40.911 26.551H11.969a4.5 4.5 0 0 0-3.7-1.943 4.5 4.5 0 0 0-4.5 4.5 4.5 4.5 0 0 0 4.5 4.5 4.5 4.5 0 0 0 3.7-1.944h28.942Z"/><path fill="#ffe177" d="M63.411 26.551H45.302a4.5 4.5 0 0 0-3.7-1.943 4.5 4.5 0 0 0-4.5 4.5 4.5 4.5 0 0 0 4.5 4.5 4.5 4.5 0 0 0 3.7-1.944h18.109Z"/><path fill="#a8aeb5" d="M71.955 32.151a3.047 3.047 0 0 1-3.047-3.047 3.047 3.047 0 0 1 3.047-3.047 3.047 3.047 0 0 1 3.047 3.047 3.047 3.047 0 0 1-3.047 3.047m0-12.663a9.616 9.616 0 0 0-9.616 9.616c0 5.936 6.578 10.911 8.853 12.454a1.36 1.36 0 0 0 1.526 0c2.275-1.543 8.853-6.518 8.853-12.454a9.616 9.616 0 0 0-9.616-9.616"/><path fill="#66757e" d="M71.953 19.488a9.6 9.6 0 0 0-2 .21 9.62 9.62 0 0 1 7.618 9.406c0 5.071-4.8 9.439-7.616 11.567.481.363.9.662 1.237.887a1.36 1.36 0 0 0 1.526 0c2.275-1.543 8.853-6.518 8.853-12.454a9.616 9.616 0 0 0-9.618-9.616"/><path fill="none" stroke="#000" stroke-linecap="round" stroke-linejoin="round" stroke-miterlimit="10" d="M36.417 79.067h-8.5m-14.469 0H5.641a1.67 1.67 0 0 1-1.672-1.672v-33.4a.836.836 0 0 1 .835-.836h7.6m29.8 35.908h8.719V43.996a.836.836 0 0 0-.836-.836h-31.9m-3.444 28.26H3.97m46.957 0h-24.3m32.816 7.647h-8.519"/><path fill="none" stroke="#000" stroke-linecap="round" stroke-linejoin="round" stroke-miterlimit="10" d="M50.923 48.016h17.214a2.88 2.88 0 0 1 2.646 1.738l4.559 10.537 4.376 3.7a4.65 4.65 0 0 1 1.645 3.547v10.69a.836.836 0 0 1-.836.836h-6.615"/><path fill="none" stroke="#000" stroke-linecap="round" stroke-linejoin="round" stroke-miterlimit="10" d="M72.267 53.184h-5.93a.836.836 0 0 0-.836.836v5.436a.836.836 0 0 0 .836.836h9.006M60.82 54.02v5.436a.836.836 0 0 1-.836.836h-3.387a.836.836 0 0 1-.836-.836V54.02a.836.836 0 0 1 .836-.836h3.387a.836.836 0 0 1 .836.836m5.858 30.062a7.736 7.736 0 0 1-7.727-7.727 7.736 7.736 0 0 1 7.727-7.727 7.736 7.736 0 0 1 7.727 7.727 7.736 7.736 0 0 1-7.727 7.727"/><path fill="none" stroke="#000" stroke-linecap="round" stroke-linejoin="round" stroke-miterlimit="10" d="M66.678 73.644a2.71 2.71 0 0 0-2.711 2.711 2.71 2.71 0 0 0 2.711 2.712 2.71 2.71 0 0 0 2.712-2.711 2.71 2.71 0 0 0-2.712-2.712M20.683 84.082a7.736 7.736 0 0 1-7.727-7.727 7.736 7.736 0 0 1 7.727-7.727 7.735 7.735 0 0 1 7.727 7.727 7.735 7.735 0 0 1-7.727 7.727"/><path fill="none" stroke="#000" stroke-linecap="round" stroke-linejoin="round" stroke-miterlimit="10" d="M20.684 73.644a2.71 2.71 0 0 0-2.711 2.711 2.71 2.71 0 0 0 2.711 2.712 2.71 2.71 0 0 0 2.712-2.711 2.71 2.71 0 0 0-2.712-2.712m17.21-41.981H11.968a4.5 4.5 0 0 1-3.7 1.944 4.5 4.5 0 0 1-4.5-4.5 4.5 4.5 0 0 1 4.5-4.5 4.5 4.5 0 0 1 3.7 1.943h25.926"/><path fill="none" stroke="#000" stroke-linecap="round" stroke-linejoin="round" stroke-miterlimit="10" d="M62.682 26.551h-17.38a4.5 4.5 0 0 0-3.7-1.943 4.5 4.5 0 0 0-4.5 4.5 4.5 4.5 0 0 0 4.5 4.5 4.5 4.5 0 0 0 3.7-1.944h17.432"/><path fill="none" stroke="#000" stroke-linecap="round" stroke-linejoin="round" stroke-miterlimit="10" d="M71.955 32.151a3.047 3.047 0 0 1-3.047-3.047 3.047 3.047 0 0 1 3.047-3.047 3.047 3.047 0 0 1 3.047 3.047 3.047 3.047 0 0 1-3.047 3.047m0-12.663a9.616 9.616 0 0 0-9.616 9.616c0 5.936 6.578 10.911 8.853 12.454a1.36 1.36 0 0 0 1.526 0c2.275-1.543 8.853-6.518 8.853-12.454a9.616 9.616 0 0 0-9.616-9.616M51.886 1.25h-20.44a.835.835 0 0 0-.835.835v12.671a.835.835 0 0 0 .835.835h6.081a1.01 1.01 0 0 1 .811.408l2.417 3.259a1.133 1.133 0 0 0 1.82 0l2.417-3.259a1.01 1.01 0 0 1 .812-.408h6.081a.835.835 0 0 0 .835-.835V2.085a.835.835 0 0 0-.834-.835M37.271 5.961h5.457m-5.457 4.749h8.791"/></g></svg>