<svg xmlns="http://www.w3.org/2000/svg" width="61.231" height="53.412" viewBox="0 0 61.231 53.412"><g transform="translate(-27 -56.2)"><g transform="translate(27.535 56.748)"><path d="M158.026,60.3h33.416a5.242,5.242,0,0,1,5.226,5.226V89.412a5.242,5.242,0,0,1-5.226,5.226H158.026a5.242,5.242,0,0,1-5.226-5.226v-23.9A5.24,5.24,0,0,1,158.026,60.3Z" transform="translate(-136.52 -60.3)" fill="gray" fill-rule="evenodd"/><path d="M262.2,323.322a9.16,9.16,0,0,0,4.531-6.122h5.56a9.16,9.16,0,0,0,4.531,6.122Z" transform="translate(-231.297 -282.862)" fill="#686868" fill-rule="evenodd"/><path d="M179.74,84.4h31.919a2.744,2.744,0,0,1,2.74,2.74v22.4a2.744,2.744,0,0,1-2.74,2.74H179.74a2.744,2.744,0,0,1-2.74-2.74V87.14A2.761,2.761,0,0,1,179.74,84.4Z" transform="translate(-157.485 -81.179)" fill="#bbbfe0" fill-rule="evenodd"/><path d="M193.6,84.4H225.52a2.744,2.744,0,0,1,2.74,2.74v17.951a57.37,57.37,0,0,1-8.982-2.152C207.035,98.983,197,91.645,193,84.467A3.07,3.07,0,0,1,193.6,84.4Z" transform="translate(-171.346 -81.179)" fill="#dfe2f2" fill-rule="evenodd"/><path d="M216.627,363h22.095a2.727,2.727,0,1,1,0,5.453H216.627a2.727,2.727,0,1,1,0-5.453Z" transform="translate(-189.453 -322.54)" fill="#686868" fill-rule="evenodd"/><path d="M242.2,363h21.039a2.738,2.738,0,0,1,2.727,2.727,2.782,2.782,0,0,1-.174.949c-5.734.668-12.872-.134-20.464-2.58C244.258,363.748,243.229,363.374,242.2,363Z" transform="translate(-213.97 -322.54)" fill="gray" fill-rule="evenodd"/><path d="M101.617,222.2h13.019a1.614,1.614,0,0,1,1.617,1.617v12.11a1.612,1.612,0,0,1-1.617,1.6H101.617a1.62,1.62,0,0,1-1.617-1.6v-12.11A1.623,1.623,0,0,1,101.617,222.2Z" transform="translate(-90.777 -200.56)" fill="#d99b56" fill-rule="evenodd"/><path d="M106.989,222.2h13.019a1.614,1.614,0,0,1,1.617,1.617v10.292c-4.491.227-9.637-2.486-13.112-7.4a19.727,19.727,0,0,1-2.312-4.291A1.583,1.583,0,0,1,106.989,222.2Z" transform="translate(-96.149 -200.56)" fill="#dab46a" fill-rule="evenodd"/><path d="M140.8,222.2h5.36v7.071l-2.673-1.51-2.687,1.51Z" transform="translate(-126.124 -200.56)" fill="#fcd004" fill-rule="evenodd"/><path d="M170.717,337h13.019a1.623,1.623,0,0,1,1.617,1.617v12.11a1.623,1.623,0,0,1-1.617,1.617H170.717a1.614,1.614,0,0,1-1.617-1.617V338.6A1.612,1.612,0,0,1,170.717,337Z" transform="translate(-150.641 -300.015)" fill="#d99b56" fill-rule="evenodd"/><path d="M176.089,337h13.019a1.623,1.623,0,0,1,1.617,1.617v10.292c-4.491.227-9.637-2.486-13.112-7.4a19.728,19.728,0,0,1-2.312-4.291A1.425,1.425,0,0,1,176.089,337Z" transform="translate(-156.012 -300.015)" fill="#dab46a" fill-rule="evenodd"/><path d="M209.9,337h5.347v7.071l-2.66-1.51-2.687,1.51Z" transform="translate(-185.988 -300.015)" fill="#fcd004" fill-rule="evenodd"/><path d="M32.617,337H45.65a1.612,1.612,0,0,1,1.6,1.617v12.11a1.62,1.62,0,0,1-1.6,1.617H32.617A1.623,1.623,0,0,1,31,350.727V338.6a1.612,1.612,0,0,1,1.617-1.6Z" transform="translate(-31 -300.015)" fill="#d99b56" fill-rule="evenodd"/><path d="M37.989,337H51.021a1.612,1.612,0,0,1,1.6,1.617v10.292c-4.491.227-9.637-2.486-13.112-7.4a19.728,19.728,0,0,1-2.312-4.291A1.425,1.425,0,0,1,37.989,337Z" transform="translate(-36.371 -300.015)" fill="#dab46a" fill-rule="evenodd"/><path d="M71.8,337h5.347v7.071l-2.66-1.51-2.687,1.51Z" transform="translate(-66.347 -300.015)" fill="#fcd004" fill-rule="evenodd"/><path d="M243.286,106.7h1.657a.881.881,0,0,1,.882.882v.642a.886.886,0,0,0,.655.855,9.7,9.7,0,0,1,2.205.909.89.89,0,0,0,1.069-.134l.454-.454a.871.871,0,0,1,1.243,0l1.176,1.176a.887.887,0,0,1,0,1.256l-.454.454a.854.854,0,0,0-.134,1.069,9.6,9.6,0,0,1,.909,2.192.875.875,0,0,0,.855.655h.642a.881.881,0,0,1,.882.882v1.657a.89.89,0,0,1-.882.882H253.8a.886.886,0,0,0-.855.655,9.7,9.7,0,0,1-.909,2.205.89.89,0,0,0,.134,1.069l.454.454a.871.871,0,0,1,0,1.243l-1.176,1.176a.871.871,0,0,1-1.243,0l-.454-.454a.854.854,0,0,0-1.069-.134,9.454,9.454,0,0,1-2.205.909.875.875,0,0,0-.655.855v.642a.881.881,0,0,1-.882.882h-1.657a.881.881,0,0,1-.882-.882v-.655a.886.886,0,0,0-.655-.855,9.7,9.7,0,0,1-2.205-.909.89.89,0,0,0-1.069.134l-.454.454a.871.871,0,0,1-1.243,0l-1.176-1.176a.871.871,0,0,1,0-1.243l.454-.454a.854.854,0,0,0,.134-1.069,9.454,9.454,0,0,1-.909-2.205.875.875,0,0,0-.855-.655h-.642a.881.881,0,0,1-.882-.882v-1.657a.89.89,0,0,1,.882-.882h.642a.886.886,0,0,0,.855-.655,9.6,9.6,0,0,1,.909-2.192.89.89,0,0,0-.134-1.069l-.454-.454a.887.887,0,0,1,0-1.256l1.176-1.176a.871.871,0,0,1,1.243,0l.454.454a.872.872,0,0,0,1.069.134,8.43,8.43,0,0,1,2.205-.909.875.875,0,0,0,.655-.855v-.642A.879.879,0,0,1,243.286,106.7Z" transform="translate(-205.913 -100.498)" fill="#2f73a8" fill-rule="evenodd"/><path d="M281.294,149.3a5.494,5.494,0,1,1-5.494,5.494A5.493,5.493,0,0,1,281.294,149.3Z" transform="translate(-243.079 -137.404)" fill="#215278" fill-rule="evenodd"/><path d="M291.7,161.165a5.494,5.494,0,1,1-4.21-1.965A5.542,5.542,0,0,1,291.7,161.165Z" transform="translate(-248.451 -145.981)" fill="#e6e6e6" fill-rule="evenodd"/><path d="M329.6,171a1.4,1.4,0,1,1-1.4,1.4A1.4,1.4,0,0,1,329.6,171Z" transform="translate(-288.475 -156.203)" fill="#fff" fill-rule="evenodd"/><path d="M350.742,146.2a.642.642,0,1,1-.642.642A.642.642,0,0,1,350.742,146.2Z" transform="translate(-307.448 -134.718)" fill="#b3b4b4" fill-rule="evenodd"/></g><path d="M65.749,68.109a6.028,6.028,0,1,1-6.028,6.028,6.03,6.03,0,0,1,6.028-6.028Zm3.515,2.526a4.962,4.962,0,1,0,0,7.017A4.961,4.961,0,0,0,69.264,70.636Zm-4.357-8.22h1.657a1.426,1.426,0,0,1,1.417,1.417c0,1.256-.134.722,1.457,1.39a8.968,8.968,0,0,1,1.136.561.323.323,0,0,0,.414-.053c.454-.454.762-.869,1.457-.869a1.406,1.406,0,0,1,1,.414l1.176,1.176a1.416,1.416,0,0,1,0,2c-.9.9-.615.414.04,2.018a9.067,9.067,0,0,1,.4,1.2c.16.6,1.176-.134,1.992.668a1.426,1.426,0,0,1,.414,1v1.657a1.426,1.426,0,0,1-1.417,1.417h-.642a.33.33,0,0,0-.334.254A9.821,9.821,0,0,1,74.116,79a.343.343,0,0,0,.053.414c.441.441.869.762.869,1.457a1.406,1.406,0,0,1-.414,1l-1.176,1.176a1.416,1.416,0,0,1-2,0l-.481-.468a.322.322,0,0,0-.4-.04,9.6,9.6,0,0,1-2.326.962c-.615.16.16,1.256-.708,2.018a1.388,1.388,0,0,1-.962.388H64.907A1.418,1.418,0,0,1,63.49,84.5c0-1.31.12-.708-1.484-1.4a10.689,10.689,0,0,1-1.109-.548c-.548-.321-.735.922-1.885.922a1.406,1.406,0,0,1-1-.414l-1.176-1.176a1.428,1.428,0,0,1,0-2c.9-.9.615-.414-.04-2.018a9.574,9.574,0,0,1-.4-1.19c-.16-.6-1.176.134-1.992-.682a1.426,1.426,0,0,1-.414-1V73.322A1.426,1.426,0,0,1,55.4,71.905c1.27,0,.735.134,1.39-1.457a8.967,8.967,0,0,1,.561-1.136A.326.326,0,0,0,57.3,68.9c-.454-.441-.869-.762-.869-1.457a1.406,1.406,0,0,1,.414-1l1.216-1.216a1.387,1.387,0,0,1,.962-.374c1.163,0,1.323,1.243,1.885.922a9.6,9.6,0,0,1,2.326-.962.33.33,0,0,0,.254-.334v-.642a1.415,1.415,0,0,1,1.417-1.417ZM66.564,63.5H64.907a.313.313,0,0,0-.241.107.342.342,0,0,0-.107.254V64.5A1.4,1.4,0,0,1,63.5,65.864a8.794,8.794,0,0,0-2.072.855,1.4,1.4,0,0,1-1.711-.227l-.454-.454a.359.359,0,0,0-.241-.107.335.335,0,0,0-.241.107l-1.176,1.176a.355.355,0,0,0,0,.495l.454.454a1.416,1.416,0,0,1,.227,1.711,8.265,8.265,0,0,0-.855,2.072A1.416,1.416,0,0,1,56.072,73H55.43a.354.354,0,0,0-.348.348v1.657a.354.354,0,0,0,.348.348,2.162,2.162,0,0,1,1.51.294,1.434,1.434,0,0,1,.508.762,7.018,7.018,0,0,0,.361,1.056l.495,1a1.415,1.415,0,0,1-.227,1.711l-.454.454a.355.355,0,0,0,0,.495L58.8,82.3a.355.355,0,0,0,.495,0,2.178,2.178,0,0,1,1.27-.855,1.412,1.412,0,0,1,.9.174,8.265,8.265,0,0,0,2.072.855,1.405,1.405,0,0,1,1.056,1.377V84.5a.354.354,0,0,0,.348.348h1.631a.345.345,0,0,0,.348-.348,2.162,2.162,0,0,1,.294-1.51,1.385,1.385,0,0,1,.762-.508,8.265,8.265,0,0,0,2.072-.855,1.416,1.416,0,0,1,1.711.227l.454.454a.355.355,0,0,0,.495,0l1.176-1.176a.355.355,0,0,0,0-.495l-.454-.454a1.416,1.416,0,0,1-.227-1.711,8.793,8.793,0,0,0,.855-2.072,1.4,1.4,0,0,1,1.363-1.056h.642a.354.354,0,0,0,.348-.348V73.336a.354.354,0,0,0-.348-.348,2.162,2.162,0,0,1-1.51-.294,1.385,1.385,0,0,1-.508-.762,7.739,7.739,0,0,0-.361-1.069l-.495-1a1.416,1.416,0,0,1,.227-1.711l.454-.454a.355.355,0,0,0,0-.495l-1.176-1.176a.355.355,0,0,0-.495,0l-.454.454a1.413,1.413,0,0,1-1.711.227,8.566,8.566,0,0,0-2.072-.855A1.4,1.4,0,0,1,66.9,64.487v-.642a.319.319,0,0,0-.334-.348ZM30.8,104.546a.535.535,0,0,1,0-1.069h1.711a.535.535,0,0,1,0,1.069Zm0,1.644a.535.535,0,0,1,0-1.069H34.2a.535.535,0,0,1,0,1.069Zm8.073-11.923V100.8a.53.53,0,0,1-.829.441l-2.366-1.337-2.419,1.363a.541.541,0,0,1-.8-.468V94.267h-3.3a1.087,1.087,0,0,0-1.083,1.083v12.11a1.087,1.087,0,0,0,1.083,1.083H42.184a1.1,1.1,0,0,0,1.083-1.083V95.337a1.087,1.087,0,0,0-1.083-1.083H38.869Zm-5.347,0v5.614l1.885-1.069a.519.519,0,0,1,.521,0l1.858,1.056V94.254H33.523ZM29.152,93.2H36.53a2.118,2.118,0,0,1-.294-1.083V80.005a2.159,2.159,0,0,1,2.152-2.152h4.905V61.961A5.779,5.779,0,0,1,49.054,56.2H82.47a5.779,5.779,0,0,1,5.761,5.761V85.847a5.779,5.779,0,0,1-5.761,5.761H69.224a8.081,8.081,0,0,0,1.27,2.593,10.085,10.085,0,0,0,2.74,2.473h3.582a3.261,3.261,0,0,1,0,6.523H62.782v4.264a2.159,2.159,0,0,1-2.152,2.152H47.611a2.159,2.159,0,0,1-2.152-2.152V95.337a2.155,2.155,0,0,1,.294-1.083H44.029a2.118,2.118,0,0,1,.294,1.083v12.11a2.159,2.159,0,0,1-2.152,2.152H29.152A2.159,2.159,0,0,1,27,107.446V95.337A2.148,2.148,0,0,1,29.152,93.2Zm20.1,11.348a.535.535,0,0,1,0-1.069h1.711a.535.535,0,0,1,0,1.069Zm0,1.644a.535.535,0,0,1,0-1.069h3.408a.535.535,0,0,1,0,1.069Zm8.073-11.923V100.8a.53.53,0,0,1-.829.441l-2.366-1.337L51.7,101.271a.541.541,0,0,1-.8-.468V94.267H47.6a1.078,1.078,0,0,0-1.083,1.083v12.11a1.087,1.087,0,0,0,1.083,1.083H60.616A1.1,1.1,0,0,0,61.7,107.46V95.337a1.1,1.1,0,0,0-1.083-1.083H57.328Zm-5.36,0v5.614l1.9-1.069a.519.519,0,0,1,.521,0l1.858,1.056V94.254H51.968ZM53.251,93.2H60.63a2.126,2.126,0,0,1,.922.214,8.067,8.067,0,0,0,.749-1.791H53.559a2.749,2.749,0,0,1-.307,1.577Zm9.129.9a2.123,2.123,0,0,1,.4,1.243V96.66H71.39a9.2,9.2,0,0,1-3.275-5.052h-4.7A9.477,9.477,0,0,1,62.381,94.094Zm.4,3.636v4.384H76.8a2.185,2.185,0,1,0,0-4.371H62.782ZM40.019,89.2a.535.535,0,0,1,0-1.069H41.73a.535.535,0,0,1,0,1.069Zm0,1.657a.535.535,0,0,1,0-1.069h3.422a.535.535,0,0,1,0,1.069Zm8.087-11.936v6.536a.53.53,0,0,1-.829.441l-2.366-1.337-2.433,1.363a.531.531,0,0,1-.789-.468V78.923h-3.3a1.1,1.1,0,0,0-1.083,1.083v12.11A1.1,1.1,0,0,0,38.388,93.2H51.407a1.078,1.078,0,0,0,1.083-1.083V80.005a1.087,1.087,0,0,0-1.083-1.083Zm-5.36,0V84.55l1.885-1.069a.519.519,0,0,1,.521,0l1.871,1.056V78.923Zm1.6-1.069h2.165V62.709a3.28,3.28,0,0,1,3.275-3.275H81.708a3.28,3.28,0,0,1,3.275,3.275v22.4a3.28,3.28,0,0,1-3.275,3.275H53.545v2.165H82.457a4.706,4.706,0,0,0,4.692-4.692v-23.9a4.706,4.706,0,0,0-4.692-4.692H49.041a4.706,4.706,0,0,0-4.692,4.692Zm3.248,0h3.809a2.151,2.151,0,0,1,2.152,2.152v7.311H81.722a2.208,2.208,0,0,0,2.205-2.205v-22.4A2.208,2.208,0,0,0,81.722,60.5H49.79a2.208,2.208,0,0,0-2.205,2.205V77.853Z" transform="translate(0 0)"/></g></svg>