<svg xmlns="http://www.w3.org/2000/svg" width="86.393" height="86.397" viewBox="0 0 86.393 86.397"><g stroke="#424242" stroke-linecap="round" stroke-linejoin="round" transform="translate(-249.557 -249.5)"><path fill="#ffcc4d" stroke-dasharray="2054.71 82.19 1643.77 82.19" d="M257.11 281.058a7.019 7.019 0 1 0 6.985 7.053 7.017 7.017 0 0 0-6.985-7.053"/><path fill="none" d="m257.098 283.397-.007 1.4m-.031 6.555-.007 1.4m-2.326-2.642a1.325 1.325 0 0 0 1.4 1.235l1.4.007a1.652 1.652 0 1 0 .015-3.275h-.936a1.652 1.652 0 1 1 .015-3.275l1.4.007a1.324 1.324 0 0 1 1.4 1.235"/><path fill="#ff5757" d="m251.227 272.074 5.85-6.43 5.848 6.43h-3.509v5.264h-4.679v-5.264Z"/><path fill="#ffcc4d" stroke-dasharray="2054.71 82.19 1643.77 82.19" d="M328.465 281.058a7.019 7.019 0 1 0 6.985 7.053 7.017 7.017 0 0 0-6.985-7.053"/><path fill="none" d="m328.455 283.397-.007 1.4m-.032 6.555-.007 1.4m-2.327-2.642a1.324 1.324 0 0 0 1.4 1.235l1.4.007a1.652 1.652 0 1 0 .015-3.275h-.936a1.652 1.652 0 1 1 .015-3.275l1.4.007a1.325 1.325 0 0 1 1.4 1.235"/><path fill="#ff5757" d="m322.583 272.074 5.849-6.434 5.851 6.434h-3.51v5.264h-4.679v-5.264Z"/><path fill="#61cfff" stroke-dasharray="4109.43 123.28 10273.6 0" d="M314.395 276.902a21.653 21.653 0 1 1-4.279-12.9 21.55 21.55 0 0 1 4.279 12.9"/><ellipse cx="11.116" cy="21.638" fill="none" stroke-dasharray="4109.43 123.28 10273.6 0" rx="11.116" ry="21.638" transform="translate(281.638 255.265)"/><path fill="none" stroke-dasharray="4109.43 123.28 10273.6 0" d="M292.751 255.264v43.276m-21.638-21.638h43.281M310.115 264a52 52 0 0 1-7.847 1.736 67.3 67.3 0 0 1-19.029 0 52 52 0 0 1-7.847-1.736 21.63 21.63 0 0 1 34.723 0m.012 25.804a21.635 21.635 0 0 1-34.746 0 51.6 51.6 0 0 1 7.847-1.736 67.5 67.5 0 0 1 19.052 0 52 52 0 0 1 7.847 1.736"/><circle cx="26.905" cy="26.905" r="26.905" fill="none" stroke-dasharray="636.96 205.47 2075.26 0" transform="translate(265.849 250)"/><path fill="none" d="m276.987 251.523-2.642 5.743 6.179-1.332m26.88 46.894 3.052-5.535-6.26.879"/><path fill="#ffcc4d" d="M292.75 253.27a9.035 9.035 0 0 0-9.034 9.034c0 4.989 9.034 18.85 9.034 18.85s9.034-13.86 9.034-18.85a9.035 9.035 0 0 0-9.034-9.034m0 12.686a3.272 3.272 0 1 1 3.272-3.272 3.27 3.27 0 0 1-3.272 3.272"/><path fill="#d6dcee" d="M251.812 309.252h53.672v19.15h-53.672Z"/><path fill="none" stroke-dasharray="1315.02 123.28 6164.14" d="M255.752 312.859v9.707m4.085-9.707v9.707m4.085-9.707v9.707m4.086-9.707v9.707m4.085-9.707v9.707m4.085-9.707v9.707m4.085-9.707v9.707m4.085-9.707v9.707m4.085-9.707v9.707m4.086-9.707v9.707m4.085-9.707v9.707m4.085-9.707v9.707"/><path fill="#61cfff" stroke-dasharray="4109.43 123.28 10273.6 0" d="M326.227 320.607h-14.534v-8.142h10.335Z"/><path fill="#ffcc4d" stroke-dasharray="4109.43 123.28 10273.6 0" d="m331.686 323.381-5.463-2.771h-14.527v7.791h20.631v-3.976a1.17 1.17 0 0 0-.641-1.044"/><path fill="#96725c" d="M251.812 328.401h81.884v2.609h-81.884Z"/><circle cx="4.387" cy="4.387" r="4.387" fill="#96725c" stroke-dasharray="4109.43 123.28 10273.6 0" transform="translate(317.624 326.622)"/><circle cx="4.387" cy="4.387" r="4.387" fill="#96725c" stroke-dasharray="4109.43 123.28 10273.6 0" transform="translate(255.981 326.622)"/><circle cx="1.88" cy="1.88" r="1.88" fill="#ffcc4d" stroke-dasharray="2054.71 82.19 1643.77 82.19" transform="translate(258.488 329.129)"/><circle cx="1.88" cy="1.88" r="1.88" fill="#ffcc4d" stroke-dasharray="2054.71 82.19 1643.77 82.19" transform="translate(320.131 329.129)"/><circle cx="4.387" cy="4.387" r="4.387" fill="#96725c" stroke-dasharray="4109.43 123.28 10273.6 0" transform="translate(268.7 326.622)"/><circle cx="1.88" cy="1.88" r="1.88" fill="#ffcc4d" stroke-dasharray="2054.71 82.19 1643.77 82.19" transform="translate(271.207 329.129)"/><path fill="none" stroke-dasharray="4109.43 123.28 10273.6 0" d="m319.223 315.735 2.056 2.057m-6.778-2.764 2.056 2.056"/><path fill="#ffcc4d" stroke-dasharray="4109.43 123.28 10273.6 0" d="M322.026 312.465H308.44v-5.721h3.252c5.778.001 8.241 2.85 10.334 5.721m-13.586 0h3.258v15.938h-3.258Z"/><path fill="none" stroke-dasharray="4109.43 123.28 10273.6 0" d="M314.3 323.02h1.781"/><path fill="none" stroke-dasharray="883.53 123.28 410.94 184.92" d="M255.752 335.393h74.37"/><path fill="none" stroke-dasharray="143.83 123.28 10273.6 0" d="M262.897 300.31h-7.981"/><path fill="none" stroke-dasharray="61.64 123.28 10273.6 0" d="M327.783 300.895h-7.982"/><path fill="none" stroke-dasharray="0 123.28 10273.6 0" d="M332.4 306.383h-6.811m-53.437-2.924h-6.812"/><path fill="none" stroke-dasharray="61.64 123.28 10273.6 0" d="M264.328 259.057H253.21"/><path fill="none" stroke-dasharray="143.83 123.28 10273.6 0" d="M266.422 252.576h-7.981"/><path fill="none" stroke-dasharray="61.64 123.28 10273.6 0" d="M321.179 259.057h11.118"/><path fill="none" stroke-dasharray="143.83 123.28 10273.6 0" d="M319.085 252.576h7.981"/></g></svg>