<svg xmlns="http://www.w3.org/2000/svg" width="59.986" height="60.015" viewBox="0 0 59.986 60.015"><g transform="translate(-147 -146.188)"><path d="M179.736,176.526h-4.747a15.23,15.23,0,0,1-3.34,5.942A15.3,15.3,0,0,0,179.736,176.526Zm25.844,18.144V187.25H190.952a.705.705,0,0,1-.7-.7V177.4a.705.705,0,0,1,.7-.7h10.865l-1.934-2.426H187.436v20.394h4.325a6.706,6.706,0,0,1,9.494,0Zm0-8.826v-4.4l-2.637-3.34H191.656v7.736Zm-18.144-12.975h12.8a.592.592,0,0,1,.527.246l6.189,7.876.035,18a.705.705,0,0,1-.7.7h-3.024a6.756,6.756,0,0,1-13.5,0H166.8a6.737,6.737,0,0,1-13.467,0H147.7a.705.705,0,0,1-.7-.7V167.946a.705.705,0,0,1,.7-.7h2.954a16.575,16.575,0,0,1,33.122,0h2.954a.705.705,0,0,1,.7.7Zm-1.406,21.8v-4.184H148.406v4.184H155.3a6.7,6.7,0,0,1,4.747-1.969,6.579,6.579,0,0,1,4.747,1.969Zm17.124,3.622h2.426v-2.215h-3.235A6.685,6.685,0,0,1,203.153,198.291Zm-37.764.809v-.105a5.764,5.764,0,1,0,0,.105Zm1.3-.809h23.172a6.685,6.685,0,0,1,.809-2.215H165.882A6.684,6.684,0,0,1,166.691,198.291Zm-12.482-2.215h-5.8v2.215H153.4A6.685,6.685,0,0,1,154.208,196.076Zm42.3-1.969a5.345,5.345,0,1,0,5.345,5.345A5.342,5.342,0,0,0,196.508,194.107Zm0,8.826a3.481,3.481,0,1,1,3.481-3.481A3.467,3.467,0,0,1,196.508,202.932Zm0-5.556a2.075,2.075,0,0,0,0,4.149A2.075,2.075,0,0,0,196.508,197.377Zm-36.463,5.556a3.481,3.481,0,1,1,3.481-3.481A3.489,3.489,0,0,1,160.045,202.932Zm0-5.556a2.075,2.075,0,0,0,0,4.149A2.075,2.075,0,0,0,160.045,197.377Zm30.907-6.61c-.879,0-.7-1.09-.7-1.828a.7.7,0,1,1,1.406,0C191.656,189.676,191.831,190.766,190.952,190.766Zm-40.3-22.117h-2.25v20.429H186.03V168.649h-2.25a16.575,16.575,0,0,1-33.122,0Zm47.4.07c-4.923,0-4.184.492-4.606-2.286a8.987,8.987,0,0,1-3.587-2.075c-2.637,1.02-1.864,1.406-4.29-2.848-.422-.7.6-1.231,1.477-1.969a10.305,10.305,0,0,1,0-4.149c-2.145-1.758-2.11-.879.352-5.134.422-.738,1.371-.105,2.461.316a9.42,9.42,0,0,1,3.587-2.075c.422-2.743-.316-2.286,4.606-2.286.844,0,.774,1.16.949,2.286a9.42,9.42,0,0,1,3.587,2.075c2.637-1.02,1.828-1.406,4.29,2.848.422.738-.6,1.231-1.477,1.969a10.305,10.305,0,0,1,0,4.149c2.145,1.758,2.11.879-.352,5.134-.422.738-1.371.105-2.461-.316A8.987,8.987,0,0,1,199,166.434C198.829,167.594,198.9,168.72,198.055,168.72ZM195,167.313h2.461c.141-.985.105-1.934.774-2.11,3.34-.879,3.481-2.707,4.466-2.321l1.442.563,1.231-2.11c-2.391-1.934-1.16-.738-1.16-3.868s-1.231-1.934,1.16-3.868l-1.231-2.11c-.914.352-1.723.879-2.18.387-2.391-2.461-4.114-1.688-4.255-2.707l-.246-1.547H195c-.141.985-.105,1.934-.774,2.11-3.34.879-3.481,2.707-4.466,2.321l-1.442-.563-1.231,2.11c2.391,1.934,1.16.738,1.16,3.868s1.231,1.934-1.16,3.868l1.231,2.11c.914-.352,1.723-.879,2.18-.387,2.391,2.461,4.114,1.688,4.255,2.707Zm1.231-4.044a5.8,5.8,0,1,1,5.8-5.8A5.807,5.807,0,0,1,196.227,163.27Zm0-10.2a4.4,4.4,0,1,0,4.4,4.4A4.4,4.4,0,0,0,196.227,153.073Zm-33.474,29.4a14.768,14.768,0,0,1-3.305-5.942H154.7A15.4,15.4,0,0,0,162.752,182.468Zm-8.931-7.349h5.2a28.514,28.514,0,0,1-.844-6.47h-6.118A15.413,15.413,0,0,0,153.821,175.119Zm-1.758-7.876h6.118a28.514,28.514,0,0,1,.844-6.47h-5.2A15.413,15.413,0,0,0,152.063,167.243Zm2.637-7.876h4.747a14.4,14.4,0,0,1,3.34-5.942A15.165,15.165,0,0,0,154.7,159.367Zm16.948-5.942a15.23,15.23,0,0,1,3.34,5.942h4.747A15.3,15.3,0,0,0,171.648,153.424Zm8.931,7.349h-5.169a30.642,30.642,0,0,1,.844,6.47h6.118A14.945,14.945,0,0,0,180.58,160.773Zm1.793,7.876h-6.118a28.467,28.467,0,0,1-.879,6.47h5.2A14.945,14.945,0,0,0,182.373,168.649Zm-8.9,7.876h-5.556v6.54C170.172,182.609,172.211,180.112,173.477,176.526Zm-6.962,6.54v-6.54h-5.556C162.225,180.112,164.229,182.609,166.515,183.066Zm-6.013-7.947h6.013v-6.47h-6.927A26.6,26.6,0,0,0,160.5,175.119Zm-.914-7.876h6.927v-6.47H160.5A26.6,26.6,0,0,0,159.588,167.243Zm1.371-7.876h5.556v-6.54C164.229,153.284,162.225,155.78,160.959,159.367Zm6.962-6.54v6.54h5.556C172.211,155.78,170.172,153.284,167.921,152.827Zm5.978,7.947h-5.978v6.47h6.927A26.563,26.563,0,0,0,173.9,160.773Zm.949,7.876h-6.927v6.47H173.9A26.563,26.563,0,0,0,174.848,168.649Z" transform="translate(0 0)" fill-rule="evenodd"/><path d="M462.281,1606.149a2.075,2.075,0,0,0,0-4.149A2.075,2.075,0,0,0,462.281,1606.149Z" transform="translate(-302.236 -1404.623)" fill="#ededed" fill-rule="evenodd"/><path d="M371.8,1511.249a3.481,3.481,0,1,1-3.481,3.481A3.467,3.467,0,0,1,371.8,1511.249Zm5.345,3.024a5.764,5.764,0,1,0,0,.106Z" transform="translate(-211.756 -1315.279)" fill="#a8aeb5" fill-rule="evenodd"/><path d="M191.993,1567.215A6.686,6.686,0,0,1,192.8,1565H187v2.215Z" transform="translate(-38.594 -1368.924)" fill="#ededed" fill-rule="evenodd"/><path d="M187,1410.184h6.892a6.7,6.7,0,0,1,4.747-1.969,6.579,6.579,0,0,1,4.747,1.969h21.238V1406H187Z" transform="translate(-38.594 -1215.515)" fill="#215278" fill-rule="evenodd"/><path d="M187,805.429h37.623V785h-2.25a16.575,16.575,0,0,1-33.122,0H187Z" transform="translate(-38.594 -616.351)" fill="#fcd004" fill-rule="evenodd"/><path d="M708.789,1565H684a6.686,6.686,0,0,1,.809,2.215H707.98A6.687,6.687,0,0,1,708.789,1565Z" transform="translate(-518.118 -1368.924)" fill="#ededed" fill-rule="evenodd"/><path d="M1498.557,1602a2.075,2.075,0,0,0,0,4.149A2.075,2.075,0,0,0,1498.557,1602Z" transform="translate(-1302.049 -1404.623)" fill="#ededed" fill-rule="evenodd"/><path d="M1408.345,1510.864a3.481,3.481,0,1,1-3.481,3.481A3.467,3.467,0,0,1,1408.345,1510.864Zm5.345,3.481a5.345,5.345,0,1,0-5.345,5.345A5.342,5.342,0,0,0,1413.689,1514.345Z" transform="translate(-1211.837 -1314.894)" fill="#a8aeb5" fill-rule="evenodd"/><path d="M1721,1565a6.682,6.682,0,0,1,.809,2.215h2.426V1565Z" transform="translate(-1518.655 -1368.924)" fill="#ededed" fill-rule="evenodd"/><path d="M1310.819,965.394h4.325v-7.419h-14.627a.705.705,0,0,1-.7-.7v-9.142a.705.705,0,0,1,.7-.7h10.865L1309.447,945H1297v20.394h4.325a6.706,6.706,0,0,1,9.494,0Zm-9.6-5.731c0,.738.176,1.828-.7,1.828s-.7-1.09-.7-1.828A.7.7,0,1,1,1301.219,959.662Z" transform="translate(-1109.564 -770.725)" fill="#215278" fill-rule="evenodd"/><path d="M1417,1061.736h13.924v-4.4l-2.637-3.34H1417Z" transform="translate(-1225.344 -875.892)" fill="#ededed" fill-rule="evenodd"/><path d="M955.844,567.47h6.118a14.944,14.944,0,0,0-1.793-6.47H955A30.635,30.635,0,0,1,955.844,567.47Z" transform="translate(-779.589 -400.227)" fill="#1d81ce" fill-rule="evenodd"/><path d="M961,785h-6.118a28.469,28.469,0,0,1-.879,6.47h5.2A14.945,14.945,0,0,0,961,785Z" transform="translate(-778.624 -616.351)" fill="#1d81ce" fill-rule="evenodd"/><path d="M856.087,1009H851.34a15.228,15.228,0,0,1-3.34,5.942A15.3,15.3,0,0,0,856.087,1009Z" transform="translate(-676.352 -832.474)" fill="#1d81ce" fill-rule="evenodd"/><g transform="translate(159.588 152.826)"><path d="M742,1015.54c2.25-.457,4.29-2.954,5.556-6.54H742Z" transform="translate(-733.667 -985.301)" fill="#ededed" fill-rule="evenodd"/><path d="M742,791.47h5.978a26.567,26.567,0,0,0,.949-6.47H742Z" transform="translate(-733.667 -769.177)" fill="#ededed" fill-rule="evenodd"/><path d="M742,567.47h6.927a26.566,26.566,0,0,0-.949-6.47H742Z" transform="translate(-733.667 -553.053)" fill="#ededed" fill-rule="evenodd"/><path d="M742,341.54h5.556c-1.266-3.587-3.305-6.083-5.556-6.54Z" transform="translate(-733.667 -335)" fill="#ededed" fill-rule="evenodd"/><path d="M549.556,341.54V335c-2.285.457-4.29,2.954-5.556,6.54Z" transform="translate(-542.629 -335)" fill="#ededed" fill-rule="evenodd"/><path d="M511.927,561h-6.013a26.6,26.6,0,0,0-.914,6.47h6.927Z" transform="translate(-505 -553.053)" fill="#ededed" fill-rule="evenodd"/><path d="M511.927,785H505a26.6,26.6,0,0,0,.914,6.47h6.013Z" transform="translate(-505 -769.177)" fill="#ededed" fill-rule="evenodd"/><path d="M549.556,1009H544c1.266,3.587,3.27,6.083,5.556,6.54Z" transform="translate(-542.629 -985.301)" fill="#ededed" fill-rule="evenodd"/></g><path d="M374.052,1014.942a14.768,14.768,0,0,1-3.305-5.942H366A15.4,15.4,0,0,0,374.052,1014.942Z" transform="translate(-211.3 -832.474)" fill="#1d81ce" fill-rule="evenodd"/><path d="M292.758,791.47h5.2a28.517,28.517,0,0,1-.844-6.47H291A15.414,15.414,0,0,0,292.758,791.47Z" transform="translate(-138.937 -616.351)" fill="#1d81ce" fill-rule="evenodd"/><path d="M291,567.47h6.118a28.516,28.516,0,0,1,.844-6.47h-5.2A15.413,15.413,0,0,0,291,567.47Z" transform="translate(-138.937 -400.227)" fill="#1d81ce" fill-rule="evenodd"/><path d="M366,357.942h4.747a14.4,14.4,0,0,1,3.34-5.942A15.165,15.165,0,0,0,366,357.942Z" transform="translate(-211.3 -198.576)" fill="#1d81ce" fill-rule="evenodd"/><path d="M1294.665,205.144l.246,1.547h2.461c.141-.985.105-1.934.773-2.11,3.341-.879,3.481-2.707,4.466-2.321l1.442.563,1.231-2.11c-2.391-1.934-1.16-.738-1.16-3.868s-1.231-1.934,1.16-3.868l-1.231-2.11c-.914.352-1.723.879-2.18.387-2.391-2.461-4.114-1.688-4.254-2.707l-.246-1.547h-2.461c-.141.985-.105,1.934-.773,2.11-3.341.879-3.481,2.707-4.466,2.321l-1.442-.563-1.23,2.11c2.391,1.934,1.16.738,1.16,3.868s1.23,1.934-1.16,3.868l1.23,2.11c.914-.352,1.723-.879,2.18-.387C1292.8,204.9,1294.525,204.124,1294.665,205.144Zm1.477-2.5a5.8,5.8,0,1,1,5.8-5.8A5.807,5.807,0,0,1,1296.142,202.647Z" transform="translate(-1099.916 -39.377)" fill="#fcd004" fill-rule="evenodd"/><path d="M851.34,357.942h4.747A15.3,15.3,0,0,0,848,352,15.229,15.229,0,0,1,851.34,357.942Z" transform="translate(-676.352 -198.576)" fill="#1d81ce" fill-rule="evenodd"/></g></svg>