<svg xmlns="http://www.w3.org/2000/svg" width="62.157" height="58.5" viewBox="0 0 62.157 58.5"><g transform="translate(-0.998 -16)"><g transform="translate(0.998 16)"><path d="M39.033,249.97l-12.187-.837-12.187.837H11v4.875H23.8V278h6.094l1.081-10.278-1.081-8v-4.875h12.8V249.97Z" transform="translate(-9.783 -220.72)" fill="#eaf5ff"/><path d="M106.971,86v4.875l-5.484,1.942L96,90.875V86Z" transform="translate(-84.423 -77.469)" fill="#ffdb00"/><path d="M160.257,126l1.523,7.207-1.523,8.637h-4.875l-.78-8.247.78-7.6Z" transform="translate(-135.882 -112.594)" fill="#215278"/><path d="M76.979,126l.585,7.142-.585,8.7H72.1l-1.235-8.377L72.1,126Z" transform="translate(-62.353 -112.594)" fill="#215278"/><g transform="translate(1.219 4.875)"><path d="M209.533,126l-3.656,15.844H201V126Z" transform="translate(-177.846 -117.469)" fill="#2f73a8"/><path d="M121,126h4.875v15.844H121Z" transform="translate(-107.596 -117.469)" fill="#b3dbf9"/><path d="M19.533,126v15.844H14.658L11,126Z" transform="translate(-11.002 -117.469)" fill="#2f73a8"/><path d="M406.971,56v4.875H396V56Z" transform="translate(-349.08 -56)" fill="#fcd004"/></g><path d="M418.315,296v4.875l-3.656,1.022L411,300.875V296Z" transform="translate(-361.033 -261.875)" fill="#fff6cc"/><path d="M206.83,336v18.281H166V336Z" transform="translate(-145.892 -297)" fill="#cee9ff"/><path d="M353.5,381H365.69v7.313H353.5Z" transform="translate(-310.541 -336.516)" fill="#7d6701"/><path d="M213.5,381h12.187v7.313H213.5Z" transform="translate(-187.603 -336.516)" fill="#7d6701"/><g transform="translate(0 0)"><path d="M61.936,53.781H59.5V50.125a1.219,1.219,0,0,0-1.219-1.219H55.842V26.969h4.266a1.219,1.219,0,0,0,1.219-1.219V20.875a1.219,1.219,0,0,0-1.219-1.219H55.842V17.219a1.219,1.219,0,0,0-2.437,0v2.437H49.139a1.219,1.219,0,0,0-1.219,1.219V25.75a1.219,1.219,0,0,0,1.219,1.219H53.4V48.906H50.967a1.219,1.219,0,0,0-1.219,1.219v3.656H22.327V51.344H33.9a1.219,1.219,0,0,0,1.219-1.219V45.25A1.219,1.219,0,0,0,33.9,44.031H31.781L35.092,29.68A1.219,1.219,0,0,0,33.9,28.187H24.764V24.531a1.219,1.219,0,0,0-1.219-1.219H19.28V19.656h1.828a1.219,1.219,0,0,0,0-2.437H15.014a1.219,1.219,0,0,0,0,2.438h1.828v3.656H12.577a1.219,1.219,0,0,0-1.219,1.219v3.656H2.217A1.219,1.219,0,0,0,1.03,29.68L4.342,44.031H2.217A1.219,1.219,0,0,0,1,45.25v4.875a1.219,1.219,0,0,0,1.219,1.219H13.8V73.281A1.219,1.219,0,0,0,15.014,74.5H61.936a1.219,1.219,0,0,0,1.219-1.219V55A1.219,1.219,0,0,0,61.936,53.781ZM50.358,22.094h8.531v2.438H50.358Zm1.828,29.25h4.875v2.437H52.186ZM29.279,44.031H26.592V30.625h5.781Zm-7.562,0V30.625h2.438V44.031Zm-4.875,0V30.625H19.28V44.031Zm-4.875,0V30.625H14.4V44.031ZM13.8,25.75h8.531v2.438H13.8ZM3.749,30.625H9.53V44.031H6.843Zm12.484,19.5a1.219,1.219,0,0,0-1.219-1.219H3.436V46.469h29.25v2.438H21.108a1.219,1.219,0,0,0-1.219,1.219V72.062H16.233ZM60.717,72.062H22.327V56.219H60.717Z" transform="translate(-0.998 -16)"/><path d="M216.908,371H204.721a1.219,1.219,0,0,0-1.219,1.219v7.313a1.219,1.219,0,0,0,1.219,1.219h12.188a1.219,1.219,0,0,0,1.219-1.219v-7.312A1.219,1.219,0,0,0,216.908,371Zm-1.219,7.313h-9.75v-4.875h9.75Z" transform="translate(-178.822 -327.734)"/><path d="M356.908,371H344.721a1.219,1.219,0,0,0-1.219,1.219v7.313a1.219,1.219,0,0,0,1.219,1.219h12.188a1.219,1.219,0,0,0,1.219-1.219v-7.312A1.219,1.219,0,0,0,356.908,371Zm-1.219,7.313h-9.75v-4.875h9.75Z" transform="translate(-301.759 -327.734)"/></g></g></g></svg>